<?xml version="1.0" encoding="UTF-8" standalone="no"?>
<!-- Created with Inkscape (http://www.inkscape.org/) -->

<svg
   width="297mm"
   height="210mm"
   viewBox="0 0 297 210"
   version="1.1"
   id="svg1"
   inkscape:version="1.3.2 (091e20e, 2023-11-25, custom)"
   sodipodi:docname="right_side.svg"
   inkscape:export-filename="fosscomm_2024_lanyard_monochrome.pdf"
   inkscape:export-xdpi="96"
   inkscape:export-ydpi="96"
   xmlns:inkscape="http://www.inkscape.org/namespaces/inkscape"
   xmlns:sodipodi="http://sodipodi.sourceforge.net/DTD/sodipodi-0.dtd"
   xmlns="http://www.w3.org/2000/svg"
   xmlns:svg="http://www.w3.org/2000/svg">
  <sodipodi:namedview
     id="namedview1"
     pagecolor="#ffffff"
     bordercolor="#000000"
     borderopacity="0.25"
     inkscape:showpageshadow="2"
     inkscape:pageopacity="0.0"
     inkscape:pagecheckerboard="0"
     inkscape:deskcolor="#d1d1d1"
     inkscape:document-units="mm"
     inkscape:zoom="0.48945419"
     inkscape:cx="789.65511"
     inkscape:cy="477.06201"
     inkscape:window-width="1920"
     inkscape:window-height="991"
     inkscape:window-x="-9"
     inkscape:window-y="-9"
     inkscape:window-maximized="1"
     inkscape:current-layer="layer1" />
  <defs
     id="defs1">
    <clipPath
       clipPathUnits="userSpaceOnUse"
       id="clipPath450">
      <g
         id="g451"
         transform="rotate(12.463229)">
        <path
           style="font-variation-settings:'wdth' 87;opacity:0.483412;fill:#1c072e;fill-opacity:1;stroke:#fd9a00;stroke-width:0.499999;stroke-linecap:round;stroke-linejoin:round;stroke-dasharray:none;stroke-opacity:1"
           d="m 337.1841,155.16527 -11.02528,16.92037 35.23199,159.36107 7.16081,-34.36051 z"
           id="path451" />
      </g>
    </clipPath>
    <clipPath
       clipPathUnits="userSpaceOnUse"
       id="clipPath449">
      <g
         id="g450"
         transform="rotate(12.463229)">
        <path
           style="font-variation-settings:'wdth' 87;opacity:0.483412;fill:#1c072e;fill-opacity:1;stroke:#fd9a00;stroke-width:0.499999;stroke-linecap:round;stroke-linejoin:round;stroke-dasharray:none;stroke-opacity:1"
           d="m 337.1841,155.16527 -11.02528,16.92037 35.23199,159.36107 7.16081,-34.36051 z"
           id="path450" />
      </g>
    </clipPath>
    <clipPath
       clipPathUnits="userSpaceOnUse"
       id="clipPath446">
      <g
         id="g447">
        <path
           style="font-variation-settings:'wdth' 87;opacity:0.483412;fill:#1c072e;fill-opacity:1;stroke:#fd9a00;stroke-width:0.499999;stroke-linecap:round;stroke-linejoin:round;stroke-dasharray:none;stroke-opacity:1"
           d="m 337.1841,155.16527 -11.02528,16.92037 35.23199,159.36107 7.16081,-34.36051 z"
           id="path447" />
      </g>
    </clipPath>
    <clipPath
       clipPathUnits="userSpaceOnUse"
       id="clipPath445">
      <g
         id="g446">
        <path
           style="font-variation-settings:'wdth' 87;opacity:0.483412;fill:#1c072e;fill-opacity:1;stroke:#fd9a00;stroke-width:0.499999;stroke-linecap:round;stroke-linejoin:round;stroke-dasharray:none;stroke-opacity:1"
           d="m 337.1841,155.16527 -11.02528,16.92037 35.23199,159.36107 7.16081,-34.36051 z"
           id="path446" />
      </g>
    </clipPath>
    <clipPath
       clipPathUnits="userSpaceOnUse"
       id="clipPath444">
      <g
         id="g445">
        <path
           style="font-variation-settings:'wdth' 87;opacity:0.483412;fill:#1c072e;fill-opacity:1;stroke:#fd9a00;stroke-width:0.499999;stroke-linecap:round;stroke-linejoin:round;stroke-dasharray:none;stroke-opacity:1"
           d="m 337.1841,155.16527 -11.02528,16.92037 35.23199,159.36107 7.16081,-34.36051 z"
           id="path445" />
      </g>
    </clipPath>
    <clipPath
       clipPathUnits="userSpaceOnUse"
       id="clipPath443">
      <g
         id="g444">
        <path
           style="font-variation-settings:'wdth' 87;opacity:0.483412;fill:#1c072e;fill-opacity:1;stroke:#fd9a00;stroke-width:0.499999;stroke-linecap:round;stroke-linejoin:round;stroke-dasharray:none;stroke-opacity:1"
           d="m 337.1841,155.16527 -11.02528,16.92037 35.23199,159.36107 7.16081,-34.36051 z"
           id="path444" />
      </g>
    </clipPath>
    <clipPath
       clipPathUnits="userSpaceOnUse"
       id="clipPath442">
      <g
         id="g443">
        <path
           style="font-variation-settings:'wdth' 87;opacity:0.483412;fill:#1c072e;fill-opacity:1;stroke:#fd9a00;stroke-width:0.499999;stroke-linecap:round;stroke-linejoin:round;stroke-dasharray:none;stroke-opacity:1"
           d="m 337.1841,155.16527 -11.02528,16.92037 35.23199,159.36107 7.16081,-34.36051 z"
           id="path443" />
      </g>
    </clipPath>
    <clipPath
       clipPathUnits="userSpaceOnUse"
       id="clipPath459">
      <g
         id="g460"
         transform="rotate(-11.848405)">
        <path
           style="font-variation-settings:'wdth' 87;opacity:1;fill:#2f0b4c;fill-opacity:1;stroke:none;stroke-width:0.499999;stroke-linecap:round;stroke-linejoin:round"
           d="M 409.52979,168.97143 398.36276,155.2159 361.39088,331.44632 h 14.05038 z"
           id="path459" />
      </g>
    </clipPath>
    <clipPath
       clipPathUnits="userSpaceOnUse"
       id="clipPath458">
      <g
         id="g459">
        <path
           style="font-variation-settings:'wdth' 87;opacity:1;fill:#2f0b4c;fill-opacity:1;stroke:none;stroke-width:0.499999;stroke-linecap:round;stroke-linejoin:round"
           d="M 409.52979,168.97143 398.36276,155.2159 361.39088,331.44632 h 14.05038 z"
           id="path458" />
      </g>
    </clipPath>
    <clipPath
       clipPathUnits="userSpaceOnUse"
       id="clipPath457">
      <g
         id="g458">
        <path
           style="font-variation-settings:'wdth' 87;opacity:1;fill:#2f0b4c;fill-opacity:1;stroke:none;stroke-width:0.499999;stroke-linecap:round;stroke-linejoin:round"
           d="M 409.52979,168.97143 398.36276,155.2159 361.39088,331.44632 h 14.05038 z"
           id="path457" />
      </g>
    </clipPath>
    <clipPath
       clipPathUnits="userSpaceOnUse"
       id="clipPath456">
      <g
         id="g457">
        <path
           style="font-variation-settings:'wdth' 87;opacity:1;fill:#2f0b4c;fill-opacity:1;stroke:none;stroke-width:0.499999;stroke-linecap:round;stroke-linejoin:round"
           d="M 409.52979,168.97143 398.36276,155.2159 361.39088,331.44632 h 14.05038 z"
           id="path456" />
      </g>
    </clipPath>
    <clipPath
       clipPathUnits="userSpaceOnUse"
       id="clipPath455">
      <g
         id="g456">
        <path
           style="font-variation-settings:'wdth' 87;opacity:1;fill:#2f0b4c;fill-opacity:1;stroke:none;stroke-width:0.499999;stroke-linecap:round;stroke-linejoin:round"
           d="M 409.52979,168.97143 398.36276,155.2159 361.39088,331.44632 h 14.05038 z"
           id="path455" />
      </g>
    </clipPath>
    <clipPath
       clipPathUnits="userSpaceOnUse"
       id="clipPath1">
      <g
         id="g1">
        <path
           style="font-variation-settings:'wdth' 87;opacity:0.483412;fill:#1c072e;fill-opacity:1;stroke:#fd9a00;stroke-width:0.499999;stroke-linecap:round;stroke-linejoin:round;stroke-dasharray:none;stroke-opacity:1"
           d="m 337.1841,155.16527 -11.02528,16.92037 35.23199,159.36107 7.16081,-34.36051 z"
           id="path1" />
      </g>
    </clipPath>
    <clipPath
       clipPathUnits="userSpaceOnUse"
       id="clipPath2">
      <g
         id="g2"
         transform="rotate(-11.848405)">
        <path
           style="font-variation-settings:'wdth' 87;opacity:1;fill:#2f0b4c;fill-opacity:1;stroke:none;stroke-width:0.499999;stroke-linecap:round;stroke-linejoin:round"
           d="M 409.52979,168.97143 398.36276,155.2159 361.39088,331.44632 h 14.05038 z"
           id="path2" />
      </g>
    </clipPath>
  </defs>
  <g
     inkscape:label="Layer 1"
     inkscape:groupmode="layer"
     id="layer1">
    <g
       id="g3"
       transform="matrix(0,-1.5669408,1.5669408,0,-102.28823,525.79491)">
      <path
         id="rect226"
         style="font-variation-settings:'wdth' 87;fill:#333333;stroke-width:5.6642"
         d="m 261.93748,70.379166 h 13.21604 V 249.72001 h -13.21604 z" />
      <path
         class="st0"
         d="m 269.63064,115.93023 c -0.1641,0 -0.29644,0.0159 -0.39172,0.0476 -0.0953,0.0371 -0.20115,0.0794 -0.31761,0.13763 -0.0371,0.0212 -0.0688,0.0318 -0.10057,0.0318 -0.0318,0 -0.09,-0.0265 -0.13234,-0.0847 l -0.18527,-0.27526 c -0.0265,-0.0371 -0.0423,-0.0794 -0.0423,-0.11117 0,-0.0318 0.0212,-0.09 0.0635,-0.13233 0.0688,-0.0635 0.13763,-0.11116 0.20645,-0.15881 0.0741,-0.0423 0.1588,-0.09 0.25938,-0.13763 -0.4076,-0.33878 -0.60875,-0.76755 -0.60875,-1.28632 0,-0.51876 0.10587,-0.66168 0.31761,-0.87342 0.21174,-0.21174 0.49229,-0.3229 0.84695,-0.3229 0.35467,0 0.67757,0.13233 0.91048,0.39701 0.23292,0.26467 0.34408,0.61934 0.34408,1.06928 0,0.44995 -0.0106,0.30173 -0.0371,0.46583 -0.0265,0.1641 -0.0582,0.3282 -0.0953,0.50288 h 0.32291 c 0.33349,0 0.57169,-0.0688 0.70403,-0.20645 0.13763,-0.13763 0.20115,-0.37583 0.20115,-0.71461 0,-0.33879 -0.0159,-0.31232 -0.0582,-0.47113 -0.0423,-0.16409 -0.09,-0.3176 -0.14821,-0.47112 -0.0318,-0.0688 -0.0476,-0.12175 -0.0582,-0.15351 -0.0106,-0.0318 -0.0106,-0.0529 -0.0106,-0.0688 0,-0.0635 0.0423,-0.09 0.13763,-0.09 h 0.21704 c 0.0688,0 0.12175,0.0106 0.15351,0.0318 0.0318,0.0212 0.0635,0.0635 0.0953,0.12175 0.0794,0.15351 0.14822,0.33879 0.20115,0.55053 0.0582,0.21173 0.0847,0.43936 0.0847,0.68286 0,0.51876 -0.12175,0.89989 -0.35996,1.14339 -0.23821,0.23821 -0.59816,0.36525 -1.08516,0.36525 h -1.42925 v 0.0106 z m -0.66698,-1.77861 c 0,0.14292 0.0265,0.29114 0.0794,0.44994 0.0529,0.15881 0.14822,0.29644 0.28056,0.41289 0.0847,0.0688 0.17468,0.12176 0.28055,0.14822 0.10587,0.0265 0.23292,0.0423 0.38643,0.0423 h 0.18527 c 0.0318,-0.12704 0.0582,-0.26467 0.0741,-0.4023 0.0159,-0.13763 0.0265,-0.27526 0.0265,-0.41289 0,-0.29115 -0.0582,-0.50818 -0.17469,-0.6511 -0.11646,-0.14293 -0.28585,-0.21174 -0.50817,-0.21174 -0.22233,0 -0.35996,0.0529 -0.46583,0.16409 -0.11116,0.10587 -0.1641,0.25939 -0.1641,0.46054 z m -0.48171,3.51487 c 0,-0.0794 0.0106,-0.13233 0.0423,-0.1641 0.0265,-0.0371 0.09,-0.0635 0.17469,-0.09 l 3.4143,-1.02693 c 0.09,-0.0265 0.14821,-0.0371 0.17468,-0.0371 0.0688,0 0.11116,0.0371 0.11116,0.10587 v 0.42877 c 0,0.0847 -0.0106,0.13763 -0.0423,0.16939 -0.0265,0.0371 -0.09,0.0635 -0.17469,0.09 l -2.922,0.7358 2.922,0.68286 c 0.09,0.0212 0.14822,0.0476 0.17469,0.0847 0.0265,0.037 0.0423,0.0953 0.0423,0.17468 v 0.34937 c 0,0.0847 -0.0106,0.13763 -0.0423,0.17469 -0.0265,0.037 -0.09,0.0635 -0.17469,0.0847 l -2.95906,0.68815 2.95906,0.75697 c 0.09,0.0265 0.14822,0.0582 0.17469,0.09 0.0265,0.037 0.0423,0.09 0.0423,0.16939 v 0.4076 c 0,0.0688 -0.0371,0.11116 -0.11116,0.11116 -0.0741,0 -0.0423,0 -0.0688,-0.0106 -0.0265,-0.0106 -0.0635,-0.0106 -0.11117,-0.0318 l -3.4143,-1.0534 c -0.09,-0.0265 -0.14821,-0.0582 -0.17468,-0.09 -0.0265,-0.0318 -0.0424,-0.09 -0.0424,-0.1641 v -0.37584 c 0,-0.0847 0.0106,-0.13763 0.0424,-0.17468 0.0318,-0.0371 0.09,-0.0635 0.17468,-0.0847 l 2.8479,-0.67757 -2.8426,-0.67227 c -0.09,-0.0212 -0.14822,-0.0476 -0.17469,-0.0847 -0.0318,-0.037 -0.0423,-0.0953 -0.0423,-0.17469 z m -0.11645,5.61639 c 0,-0.22762 0.0265,-0.45524 0.0794,-0.67227 0.0529,-0.21703 0.11116,-0.39172 0.17468,-0.50288 0.0424,-0.0688 0.0847,-0.11646 0.12175,-0.13763 0.0371,-0.0212 0.0847,-0.0265 0.12175,-0.0265 h 0.22762 c 0.0953,0 0.13763,0.0371 0.13763,0.10057 0,0.0635 0,0.0529 -0.0106,0.0794 -0.0106,0.0265 -0.0265,0.0635 -0.0424,0.11117 -0.0688,0.14822 -0.12175,0.31231 -0.15351,0.4817 -0.0371,0.17469 -0.0529,0.34408 -0.0529,0.51877 0,0.27526 0.0476,0.49229 0.14822,0.64051 0.0953,0.14822 0.23821,0.22762 0.41819,0.22762 0.17998,0 0.22762,-0.037 0.30702,-0.11646 0.0847,-0.0794 0.1588,-0.22762 0.22762,-0.43936 l 0.20115,-0.63522 c 0.10058,-0.31761 0.25409,-0.55581 0.44995,-0.69874 0.19586,-0.14292 0.41289,-0.21703 0.64051,-0.21703 0.22762,0 0.34937,0.037 0.4923,0.11646 0.14292,0.0794 0.26467,0.18527 0.35995,0.31231 0.10058,0.13234 0.17469,0.28056 0.22762,0.45524 0.0529,0.17469 0.0741,0.35996 0.0741,0.55053 0,0.19056 0,0.19585 -0.0159,0.29114 -0.0106,0.10057 -0.0318,0.19056 -0.0476,0.28585 -0.0212,0.09 -0.0423,0.16939 -0.0688,0.24879 -0.0265,0.0794 -0.0529,0.13763 -0.0794,0.18527 -0.0371,0.0635 -0.0688,0.10587 -0.11116,0.13234 -0.0371,0.0265 -0.0847,0.0371 -0.14822,0.0371 h -0.20645 c -0.0953,0 -0.14292,-0.0371 -0.14292,-0.10058 0,-0.0635 0.0159,-0.09 0.0529,-0.16409 0.11645,-0.2488 0.17468,-0.52935 0.17468,-0.84167 0,-0.31232 -0.0424,-0.44465 -0.12175,-0.58228 -0.0847,-0.13763 -0.21174,-0.20645 -0.39172,-0.20645 -0.17998,0 -0.22762,0.0423 -0.31231,0.13234 -0.0847,0.09 -0.1694,0.24879 -0.2435,0.48171 l -0.20116,0.61933 c -0.10057,0.31232 -0.2435,0.53994 -0.42348,0.67757 -0.17997,0.13763 -0.38642,0.20115 -0.61933,0.20115 -0.23292,0 -0.35996,-0.037 -0.51347,-0.11116 -0.14822,-0.0794 -0.28056,-0.18527 -0.38643,-0.31761 -0.11116,-0.13763 -0.19056,-0.29644 -0.24879,-0.487 -0.0635,-0.19586 -0.0953,-0.40231 -0.0953,-0.62463 v 0 z"
         id="path227"
         style="fill:#f2f2f2;fill-opacity:1;stroke-width:0.0529349" />
      <path
         class="st0"
         d="m 266.22163,124.10867 c -1.07457,-1.43983 -1.64098,-3.53076 -1.64098,-5.32525 0,-1.79449 0.94224,-4.79061 2.50382,-6.5004 0.12175,-0.13763 0.29114,-0.0106 0.19586,0.14821 -1.08516,1.85272 -1.74685,4.13951 -1.74685,6.5057 0,2.36619 0.33349,3.35078 1.02694,4.96529 0.11116,0.23821 -0.15881,0.44466 -0.33349,0.21174 v 0 z m 0.68816,0.59816 c 0.2382,-0.18527 0.11645,-1.2175 0.0582,-1.68333 -0.0159,-0.13763 0.10587,-0.1641 0.20115,-0.037 0.58228,0.82049 0.41289,2.17563 0.22232,2.32914 -0.20115,0.1588 -1.56157,-0.0423 -2.21797,-0.8152 -0.10057,-0.11646 -0.0476,-0.23291 0.0847,-0.17998 0.43936,0.17469 1.42395,0.56641 1.65686,0.38113 v 0 z"
         id="path228"
         style="fill:#f2f2f2;fill-opacity:1;stroke-width:0.0529349" />
      <path
         class="st0"
         d="m 270.26057,133.8381 c 0,-0.0476 0.0212,-0.10058 0.0582,-0.13763 l 0.26468,-0.26997 c 0.0371,-0.037 0.0847,-0.0582 0.13763,-0.0582 h 1.79449 v 0.39701 h -1.77332 c -0.0423,0 -0.0741,0.037 -0.0741,0.0741 v 2.03799 c 0,0.0423 0.0371,0.0741 0.0741,0.0741 h 1.46101 l -0.96342,-0.96341 0.28056,-0.28056 0.93694,0.93695 c 0.0371,0.037 0.0582,0.09 0.0582,0.14293 v 0.4817 c -0.005,0.0529 -0.0529,0.09 -0.10587,0.09 h -1.67803 c -0.0529,0 -0.10587,-0.0212 -0.14293,-0.0582 l -0.25938,-0.25938 c -0.0371,-0.037 -0.0582,-0.0847 -0.0582,-0.13763 v -2.06975 z"
         id="path229"
         style="fill:#f2f2f2;fill-opacity:1;stroke-width:0.0529349" />
      <path
         class="st0"
         d="m 267.67205,133.8381 c 0,-0.0529 0.0212,-0.10058 0.0582,-0.13763 l 0.25938,-0.25938 c 0.0371,-0.037 0.09,-0.0582 0.14292,-0.0582 h 1.67804 c 0.0582,0 0.10587,0.0476 0.10587,0.10587 v 0.46582 c 0,0.0529 -0.0212,0.10058 -0.0582,0.14293 l -0.5664,0.5664 -0.28056,-0.28055 0.59287,-0.59288 h -1.461 c -0.0423,0 -0.0741,0.037 -0.0741,0.0741 v 2.038 c 0,0.0423 0.0371,0.0741 0.0741,0.0741 h 1.77332 v 0.39701 h -1.7892 c -0.0529,0 -0.10058,-0.0212 -0.13763,-0.0582 l -0.26468,-0.26997 c -0.0371,-0.037 -0.0582,-0.0847 -0.0582,-0.13763 v -2.06975 z"
         id="path230"
         style="fill:#f2f2f2;fill-opacity:1;stroke-width:0.0529349" />
      <path
         class="st0"
         d="m 265.07824,133.37756 h 1.78391 c 0.0529,0 0.10587,0.0212 0.14292,0.0582 l 0.25938,0.25939 c 0.0371,0.037 0.0582,0.0847 0.0582,0.13763 v 1.32866 c 0,0.0529 -0.0212,0.10058 -0.0582,0.14293 l -0.24879,0.24879 c -0.0424,0.0423 -0.11117,0.0423 -0.15351,0 l -1.0587,-1.0587 0.28055,-0.28055 0.83637,0.83637 v -1.20162 c 0,-0.0423 -0.037,-0.0741 -0.0741,-0.0741 h -1.37102 v 2.58851 h -0.4023 v -2.99082 0 z"
         id="path231"
         style="fill:#f2f2f2;fill-opacity:1;stroke-width:0.0529349" />
      <path
         class="st0"
         d="m 270.4723,137.5753 h 2.038 v 0.83637 c 0,0.0212 -0.005,0.0476 -0.0106,0.0741 -0.0159,0.10058 -0.0529,0.19057 -0.11116,0.26468 -0.0582,0.0741 -0.13234,0.12704 -0.21704,0.16939 -0.09,0.037 -0.17997,0.0582 -0.28584,0.0582 -0.10587,0 -0.20116,-0.0212 -0.28585,-0.0582 -0.09,-0.037 -0.15881,-0.0953 -0.21704,-0.16939 -0.0582,-0.0741 -0.0953,-0.1641 -0.11116,-0.26468 0,-0.0318 -0.005,-0.0529 -0.0106,-0.0741 v -0.6458 h -0.78343 v -0.19057 z m 0.96871,0.76756 v 0.0582 c 0,0.0212 0.005,0.0423 0.0106,0.0635 0.0159,0.0688 0.0423,0.12704 0.0847,0.17468 0.0423,0.0476 0.0953,0.0847 0.15351,0.10587 0.0635,0.0212 0.12175,0.037 0.19056,0.037 0.0688,0 0.12705,-0.0106 0.19057,-0.037 0.0582,-0.0212 0.11116,-0.0582 0.15351,-0.10587 0.0424,-0.0476 0.0688,-0.10587 0.0847,-0.17468 0.005,-0.0212 0.0106,-0.0423 0.0106,-0.0635 v -0.64051 h -0.88401 v 0.58228 z"
         id="path232"
         style="fill:#f2f2f2;fill-opacity:1;stroke-width:0.0529349" />
      <path
         class="st0"
         d="m 270.44054,139.84621 c 0,-0.0847 0.0106,-0.15881 0.0371,-0.22762 0.0212,-0.0688 0.0582,-0.12705 0.10587,-0.17469 0.0424,-0.0476 0.10057,-0.09 0.1588,-0.12175 0.0635,-0.0318 0.12705,-0.0582 0.20116,-0.0688 0.0741,-0.0159 0.14821,-0.0212 0.22762,-0.0212 h 0.83637 v 0.19057 h -0.79932 c -0.0953,0 -0.17469,0.0106 -0.24879,0.0318 -0.0688,0.0159 -0.13764,0.0476 -0.18528,0.0847 -0.0476,0.0371 -0.09,0.0847 -0.11645,0.13763 -0.0265,0.0582 -0.0371,0.12175 -0.0371,0.20115 0,0.0794 0.0159,0.14822 0.0424,0.20645 0.0265,0.0582 0.0635,0.10587 0.11646,0.14292 0.0476,0.037 0.11116,0.0635 0.17468,0.0847 0.0688,0.0159 0.14293,0.0318 0.22762,0.0318 h 0.82579 v 0.19057 h -1.53512 v -0.17469 h 0.19586 c -0.0635,-0.0476 -0.11645,-0.10587 -0.14821,-0.17468 -0.0529,-0.10058 -0.0794,-0.20645 -0.0794,-0.3282 z"
         id="path233"
         style="fill:#f2f2f2;fill-opacity:1;stroke-width:0.0529349" />
      <path
         class="st0"
         d="m 270.43525,141.56659 c 0,-0.13763 0.0371,-0.25409 0.11116,-0.35466 0.0424,-0.0582 0.0953,-0.10587 0.15351,-0.14293 h -0.22232 v -0.17468 h 1.99035 l 0.0476,0.19056 h -0.70403 c 0.0529,0.037 0.0953,0.0847 0.13233,0.13763 0.0688,0.0953 0.10587,0.22233 0.10587,0.36526 0,0.14292 -0.0371,0.25938 -0.10587,0.35995 -0.0688,0.0953 -0.16939,0.17469 -0.29114,0.22762 -0.12175,0.0529 -0.25408,0.0741 -0.4076,0.0741 -0.15351,0 -0.29114,-0.0265 -0.41289,-0.0794 -0.12175,-0.0529 -0.22232,-0.12704 -0.29114,-0.22762 -0.0688,-0.10057 -0.11116,-0.22762 -0.11116,-0.37054 v 0 z m 1.35513,-0.28055 c -0.0529,-0.0688 -0.12704,-0.12705 -0.22232,-0.1641 -0.0953,-0.037 -0.20116,-0.0582 -0.32291,-0.0582 -0.12175,0 -0.22762,0.0159 -0.3229,0.0529 -0.0953,0.037 -0.16939,0.09 -0.22233,0.1641 -0.0529,0.0688 -0.0847,0.16409 -0.0847,0.26996 0,0.10587 0.0265,0.19586 0.0847,0.26997 0.0582,0.0741 0.12705,0.12705 0.22233,0.1641 0.0953,0.037 0.20115,0.0582 0.3229,0.0582 0.12175,0 0.22762,-0.0159 0.32291,-0.0529 0.0953,-0.037 0.16939,-0.09 0.22232,-0.1641 0.0529,-0.0688 0.0847,-0.1641 0.0847,-0.27526 0,-0.11116 -0.0318,-0.19056 -0.0847,-0.26467 z"
         id="path234"
         style="fill:#f2f2f2;fill-opacity:1;stroke-width:0.0529349" />
      <path
         class="st0"
         d="m 270.4723,142.56177 h 1.99036 l 0.0476,0.19056 h -2.038 z"
         id="path235"
         style="fill:#f2f2f2;fill-opacity:1;stroke-width:0.0529349" />
      <path
         class="st0"
         d="m 272.00742,143.37167 v -0.19057 h -1.53512 v 0.19057 z"
         id="path236"
         style="fill:#f2f2f2;fill-opacity:1;stroke-width:0.0529349" />
      <path
         class="st0"
         d="m 272.46795,143.37167 v -0.19057 h -0.22762 v 0.19057 z"
         id="path237"
         style="fill:#f2f2f2;fill-opacity:1;stroke-width:0.0529349" />
      <path
         class="st0"
         d="m 270.43525,144.4039 c 0,-0.15351 0.0371,-0.28055 0.10058,-0.38642 0.0688,-0.10587 0.16409,-0.18528 0.28584,-0.2435 0.12176,-0.0529 0.25939,-0.0847 0.41819,-0.0847 0.15881,0 0.30173,0.0318 0.42348,0.0847 0.12175,0.0529 0.21703,0.13763 0.28585,0.2435 0.0635,0.10057 0.10057,0.2382 0.10057,0.38642 0,0.14822 -0.0371,0.28056 -0.11116,0.39172 -0.0688,0.11646 -0.16939,0.19586 -0.29643,0.23291 h -0.0159 c 0,0 -0.0688,-0.17468 -0.0688,-0.17468 h 0.0106 c 0.09,-0.0423 0.16409,-0.10058 0.21174,-0.17998 0.0476,-0.0794 0.0741,-0.16939 0.0741,-0.27526 0,-0.10587 -0.0265,-0.21174 -0.0794,-0.28585 -0.0529,-0.0741 -0.12704,-0.12705 -0.21703,-0.16939 -0.0953,-0.037 -0.20115,-0.0582 -0.3282,-0.0582 -0.19056,0 -0.33878,0.0476 -0.45524,0.13233 -0.11116,0.0847 -0.16939,0.21174 -0.16939,0.38113 0,0.1694 0.0212,0.19057 0.0688,0.26468 v 0 c 0.0476,0.0741 0.12175,0.13763 0.21174,0.17468 h 0.0106 c 0,0 -0.0635,0.19586 -0.0635,0.19586 h -0.0159 c -0.12704,-0.0635 -0.22762,-0.14821 -0.29643,-0.25408 -0.0635,-0.11117 -0.0953,-0.23292 -0.0953,-0.38114 h 0.0106 z"
         id="path238"
         style="fill:#f2f2f2;fill-opacity:1;stroke-width:0.0529349" />
      <path
         class="st0"
         d="m 267.73557,138.26345 c 0,-0.20115 0.0424,-0.37583 0.13763,-0.51346 0.09,-0.13763 0.21704,-0.2435 0.37584,-0.31232 0.1588,-0.0688 0.34408,-0.10058 0.55052,-0.10058 0.20645,0 0.39172,0.0371 0.55053,0.10058 0.1588,0.0688 0.28584,0.17469 0.37583,0.31232 0.09,0.13763 0.13763,0.30702 0.13763,0.51346 0,0.20645 -0.0635,0.42878 -0.18527,0.57699 -0.12175,0.14822 -0.28585,0.2488 -0.49229,0.30173 h -0.0159 l -0.0476,-0.19056 h 0.0159 c 0.16409,-0.0423 0.29643,-0.12175 0.39701,-0.23821 0.0953,-0.11116 0.14292,-0.26467 0.14292,-0.44995 0,-0.18527 -0.0371,-0.29114 -0.10587,-0.39701 v 0 c -0.0741,-0.10587 -0.17998,-0.19056 -0.30702,-0.2435 -0.13234,-0.0529 -0.28585,-0.0847 -0.45524,-0.0847 -0.16939,0 -0.3229,0.0212 -0.45524,0.0794 -0.12704,0.0529 -0.23291,0.13763 -0.30702,0.2435 -0.0741,0.10587 -0.11117,0.2435 -0.11117,0.40231 0,0.1588 0.0477,0.33349 0.14822,0.44994 0.0953,0.11646 0.22762,0.19057 0.39172,0.23292 h 0.0159 l -0.0476,0.19586 h -0.0159 c -0.20645,-0.0582 -0.37055,-0.15351 -0.4923,-0.30173 -0.12704,-0.14822 -0.19056,-0.33878 -0.19056,-0.57699 z"
         id="path239"
         style="fill:#f2f2f2;fill-opacity:1;stroke-width:0.0529349" />
      <path
         class="st0"
         d="m 267.77263,139.4492 h 1.99035 l 0.0476,0.19056 h -2.04329 v -0.19056 z"
         id="path240"
         style="fill:#f2f2f2;fill-opacity:1;stroke-width:0.0529349" />
      <path
         class="st0"
         d="m 267.73557,140.6614 c 0,-0.14821 0.0371,-0.28055 0.10058,-0.38642 0.0688,-0.10587 0.1641,-0.19057 0.28585,-0.2435 0.12175,-0.0582 0.25938,-0.0847 0.42348,-0.0847 0.16409,0 0.30172,0.0318 0.42347,0.0847 0.12175,0.0582 0.21704,0.13763 0.28585,0.24879 0.0688,0.11117 0.10058,0.23292 0.10058,0.38643 0,0.15351 -0.0371,0.28055 -0.10058,0.38642 -0.0688,0.10587 -0.1641,0.19057 -0.28585,0.2435 -0.12175,0.0582 -0.25938,0.0847 -0.41818,0.0847 -0.15881,0 -0.30173,-0.0318 -0.42348,-0.0847 -0.12175,-0.0582 -0.21703,-0.13763 -0.28056,-0.2435 v 0 c -0.0741,-0.11645 -0.10587,-0.2435 -0.10587,-0.39172 v 0 z m 0.35467,-0.38642 c -0.11646,0.09 -0.1694,0.21174 -0.1694,0.38113 0,0.16939 0.0582,0.30173 0.17469,0.38643 0.11646,0.0847 0.26467,0.12704 0.45524,0.12704 0.19056,0 0.33878,-0.0423 0.45524,-0.12704 0.11116,-0.0847 0.16939,-0.21704 0.16939,-0.38643 0,-0.16939 -0.0265,-0.21703 -0.0794,-0.28585 -0.0529,-0.0741 -0.12705,-0.13233 -0.21704,-0.16939 -0.0953,-0.0371 -0.20115,-0.0582 -0.3229,-0.0582 -0.17998,0 -0.33349,0.0423 -0.44994,0.12175 l -0.0106,0.0106 v 0 z"
         id="path241"
         style="fill:#f2f2f2;fill-opacity:1;stroke-width:0.0529349" />
      <path
         class="st0"
         d="m 267.74086,142.23886 c 0,-0.0847 0.0159,-0.15351 0.0371,-0.22232 0.0212,-0.0688 0.0582,-0.12705 0.10587,-0.17469 0.0424,-0.0476 0.10058,-0.09 0.1588,-0.12175 0.0635,-0.0318 0.12705,-0.0582 0.20116,-0.0688 0.0741,-0.0159 0.14821,-0.0212 0.22762,-0.0212 h 0.83637 v 0.19057 h -0.79403 c -0.0953,0 -0.17468,0.0106 -0.24879,0.0318 -0.0688,0.0159 -0.13763,0.0476 -0.18527,0.0847 -0.0476,0.037 -0.09,0.0847 -0.11646,0.13763 -0.0265,0.0582 -0.037,0.12175 -0.037,0.20115 0,0.0794 0.0159,0.14822 0.0423,0.20645 0.0265,0.0582 0.0635,0.10587 0.11646,0.14292 0.0476,0.037 0.11116,0.0635 0.17469,0.0847 0.0688,0.0159 0.14292,0.0318 0.22762,0.0318 h 0.82578 v 0.19057 h -1.53511 v -0.17469 h 0.19586 c -0.0635,-0.0476 -0.11646,-0.10587 -0.14822,-0.17468 -0.0529,-0.0953 -0.0741,-0.20115 -0.0741,-0.3229 v -0.0106 z"
         id="path242"
         style="fill:#f2f2f2;fill-opacity:1;stroke-width:0.0529349" />
      <path
         class="st0"
         d="m 267.73557,143.86926 c 0,-0.14293 0.0371,-0.26997 0.11116,-0.36525 0.0688,-0.10058 0.1694,-0.17469 0.29115,-0.22762 0.12175,-0.0529 0.25938,-0.0794 0.41289,-0.0794 0.15351,0 0.28585,0.0265 0.4076,0.0741 0.12175,0.0529 0.22232,0.12704 0.29114,0.22762 0.0741,0.10057 0.10587,0.21703 0.10587,0.35995 0,0.14293 -0.0371,0.26468 -0.10587,0.36526 -0.0371,0.0476 -0.0847,0.0953 -0.13234,0.13763 h 0.6511 l 0.0476,0.19056 h -2.03799 v -0.17468 h 0.22233 c -0.0582,-0.0423 -0.11117,-0.09 -0.15352,-0.14293 -0.0741,-0.10057 -0.11116,-0.21703 -0.11116,-0.35466 z m 0.47642,-0.41289 c -0.09,0.037 -0.15881,0.09 -0.21174,0.15351 -0.0582,0.0688 -0.0847,0.1588 -0.0847,0.26996 0,0.11117 0.0265,0.20116 0.0847,0.26997 0.0529,0.0688 0.12704,0.12705 0.22232,0.1641 0.0953,0.037 0.20115,0.0529 0.32291,0.0529 0.12175,0 0.22762,-0.0159 0.3229,-0.0582 0.0953,-0.037 0.16939,-0.09 0.22232,-0.1641 0.0529,-0.0741 0.0794,-0.1588 0.0794,-0.26997 0,-0.11116 -0.0265,-0.20115 -0.0847,-0.27526 -0.0529,-0.0688 -0.12704,-0.12704 -0.22233,-0.16409 -0.0953,-0.037 -0.20115,-0.0529 -0.3229,-0.0529 -0.12175,0 -0.22762,0.0159 -0.3229,0.0582 l -0.0106,0.0106 v 0 z"
         id="path243"
         style="fill:#f2f2f2;fill-opacity:1;stroke-width:0.0529349" />
      <path
         class="st0"
         d="m 265.03589,138.25816 c 0,-0.14822 0.0265,-0.28055 0.0741,-0.39701 0.0476,-0.11646 0.12175,-0.21174 0.21703,-0.29114 0.0953,-0.0794 0.20645,-0.13763 0.33349,-0.17998 0.12705,-0.0423 0.27527,-0.0635 0.42878,-0.0635 0.15351,0 0.39701,0.037 0.55052,0.10587 0.1588,0.0688 0.28055,0.17468 0.37054,0.31231 0.09,0.14293 0.13234,0.30173 0.13234,0.50289 0,0.20115 -0.0476,0.37583 -0.14292,0.50817 -0.0953,0.13234 -0.22233,0.22762 -0.38113,0.28056 h -0.0159 c 0,0 -0.0582,-0.17998 -0.0582,-0.17998 h 0.0106 c 0.12175,-0.0476 0.21704,-0.12175 0.28585,-0.22762 0.0688,-0.10058 0.11117,-0.22762 0.11117,-0.37584 0,-0.14822 -0.0371,-0.29644 -0.11117,-0.40231 -0.0741,-0.10587 -0.17468,-0.19056 -0.30702,-0.2435 -0.13234,-0.0529 -0.28585,-0.0847 -0.45524,-0.0847 -0.16939,0 -0.3229,0.0212 -0.45524,0.0794 -0.12704,0.0529 -0.23291,0.13763 -0.30702,0.2435 -0.0741,0.11117 -0.11117,0.2435 -0.11117,0.40231 v 0 c 0,0.14822 0.0318,0.27526 0.09,0.37054 0.0635,0.0953 0.14822,0.16939 0.25409,0.21704 0.10587,0.0476 0.23291,0.0741 0.37584,0.0741 v -0.49759 h 0.17468 v 0.69344 h -0.0159 c -0.0212,0 -0.0423,0 -0.0688,0 h -0.0529 c -0.17998,0 -0.33878,-0.0318 -0.4817,-0.0953 -0.14293,-0.0635 -0.25939,-0.1588 -0.33879,-0.28584 -0.0741,-0.12175 -0.12175,-0.29115 -0.12175,-0.487 l 0.0159,0.0106 z"
         id="path244"
         style="fill:#f2f2f2;fill-opacity:1;stroke-width:0.0529349" />
      <path
         class="st0"
         d="m 265.07824,139.43331 h 1.53511 v 0.17469 h -0.20115 c 0.0371,0.0265 0.0688,0.0529 0.09,0.0847 0.0371,0.0423 0.0688,0.09 0.09,0.14293 0.0159,0.0476 0.0318,0.10057 0.0318,0.15351 v 0.0476 c 0,0.0423 -0.005,0.0847 -0.0159,0.11645 v 0.0106 h -0.18527 v -0.0159 c 0.0106,-0.037 0.0159,-0.0741 0.0159,-0.11116 0,-0.037 0,-0.0476 -0.005,-0.0741 -0.0106,-0.0635 -0.0371,-0.12175 -0.0847,-0.17998 -0.0423,-0.0476 -0.0953,-0.0847 -0.14822,-0.10587 -0.0582,-0.0212 -0.11646,-0.037 -0.17998,-0.0423 -0.0635,0 -0.12704,-0.0106 -0.19056,-0.0106 h -0.75697 v -0.19586 h 0.0106 v 0 z"
         id="path245"
         style="fill:#f2f2f2;fill-opacity:1;stroke-width:0.0529349" />
      <path
         class="st0"
         d="m 265.03589,140.98431 c 0,-0.14822 0.0371,-0.28056 0.10058,-0.38643 0.0688,-0.10587 0.1641,-0.19056 0.28585,-0.2435 0.12175,-0.0582 0.25938,-0.0847 0.42348,-0.0847 0.16409,0 0.30172,0.0318 0.42348,0.0847 0.12175,0.0582 0.21703,0.13763 0.28584,0.2488 0.0688,0.11116 0.10058,0.23291 0.10058,0.38642 0,0.15351 -0.0371,0.28056 -0.10058,0.38643 v 0 c -0.0688,0.10057 -0.16409,0.17997 -0.28584,0.2382 -0.12176,0.0582 -0.25939,0.0847 -0.41819,0.0847 -0.15881,0 -0.30173,-0.0318 -0.42348,-0.0847 -0.12175,-0.0582 -0.21703,-0.13763 -0.28585,-0.2435 -0.0688,-0.11646 -0.10057,-0.2435 -0.10057,-0.39172 v 0 z m 1.43454,0 c 0,-0.11646 -0.0265,-0.21704 -0.0794,-0.28585 -0.0529,-0.0741 -0.12705,-0.13234 -0.21704,-0.16939 -0.09,-0.037 -0.20115,-0.0582 -0.3229,-0.0582 -0.19057,0 -0.33878,0.0423 -0.45524,0.13234 -0.11646,0.09 -0.16939,0.21174 -0.16939,0.38113 0,0.16939 0.0582,0.30172 0.17468,0.38642 v 0 c 0.12175,0.0847 0.26997,0.12704 0.45524,0.12704 0.18528,0 0.33879,-0.0423 0.45524,-0.12704 0.11117,-0.0847 0.16939,-0.21703 0.16939,-0.38642 z"
         id="path246"
         style="fill:#f2f2f2;fill-opacity:1;stroke-width:0.0529349" />
      <path
         class="st0"
         d="m 265.04648,142.56706 c 0,-0.0847 0.0106,-0.1588 0.0371,-0.22762 0.0212,-0.0688 0.0582,-0.12704 0.10587,-0.17468 0.0423,-0.0477 0.10058,-0.09 0.15881,-0.12176 0.0635,-0.0318 0.12704,-0.0582 0.20115,-0.0688 0.0741,-0.0159 0.14822,-0.0212 0.22762,-0.0212 h 0.83637 v 0.19057 h -0.79931 c -0.0953,0 -0.17469,0.0106 -0.2488,0.0318 -0.0688,0.0159 -0.13763,0.0476 -0.18527,0.0847 -0.0476,0.0371 -0.09,0.0847 -0.11646,0.13763 -0.0265,0.0582 -0.0371,0.12175 -0.0371,0.20115 0,0.0794 0.0159,0.14822 0.0424,0.20645 0.0265,0.0582 0.0635,0.10587 0.11645,0.14292 0.0476,0.037 0.11117,0.0635 0.17469,0.0847 0.0688,0.0159 0.14292,0.0318 0.22762,0.0318 h 0.82578 v 0.19057 h -1.53511 v -0.17469 h 0.19586 c -0.0635,-0.0476 -0.11646,-0.10587 -0.14822,-0.17468 -0.0529,-0.10058 -0.0794,-0.20645 -0.0794,-0.3282 z"
         id="path247"
         style="fill:#f2f2f2;fill-opacity:1;stroke-width:0.0529349" />
      <path
         class="st0"
         d="m 264.57536,143.5887 h 2.03799 v 0.17469 h -0.21703 c 0.0582,0.0423 0.11116,0.09 0.15351,0.14822 0.0688,0.0953 0.10587,0.22232 0.10587,0.36525 0,0.14292 -0.0318,0.24879 -0.0953,0.34407 l -0.0106,0.0159 c -0.0688,0.0953 -0.16939,0.17469 -0.29114,0.22762 -0.12175,0.0529 -0.25409,0.0741 -0.4076,0.0741 -0.15351,0 -0.29114,-0.0265 -0.41289,-0.0794 -0.12175,-0.0529 -0.22233,-0.12704 -0.29114,-0.22762 -0.0688,-0.0953 -0.11117,-0.22762 -0.11117,-0.36525 0,-0.13763 0.0371,-0.25408 0.11117,-0.35466 0.0371,-0.0476 0.0847,-0.0953 0.13233,-0.13234 h -0.70403 z m 1.89507,0.66169 c 0,-0.10587 -0.0265,-0.19586 -0.0794,-0.26997 -0.0529,-0.0688 -0.12705,-0.12704 -0.22233,-0.1641 -0.0953,-0.037 -0.20115,-0.0582 -0.3229,-0.0582 -0.12175,0 -0.22762,0.0159 -0.32291,0.0529 -0.0953,0.0371 -0.16939,0.09 -0.22232,0.1641 -0.0529,0.0688 -0.0847,0.1641 -0.0847,0.26997 0,0.10587 0.0265,0.19586 0.0847,0.26997 0.0582,0.0741 0.12704,0.12704 0.22232,0.1641 0.0953,0.037 0.20116,0.0582 0.32291,0.0582 0.12175,0 0.22762,-0.0159 0.3229,-0.0529 0.0953,-0.037 0.16939,-0.09 0.22233,-0.1641 0.0476,-0.0688 0.0794,-0.1641 0.0794,-0.26997 z"
         id="path248"
         style="fill:#f2f2f2;fill-opacity:1;stroke-width:0.0529349" />
      <path
         id="rect248"
         style="fill:#f2f2f2;stroke-width:0.0529349"
         class="st0"
         d="m 273.57426,129.29629 v 0.1588 h -10.05763 v -0.1588 z" />
      <path
         style="fill:#f2f2f2;fill-opacity:1;stroke-width:0.0412942"
         d="m 271.23263,155.09778 c 0.0833,-0.11899 0.16076,-0.21652 0.17211,-0.21674 0.0114,-1.4e-4 0.10427,0.075 0.20648,0.16711 0.1022,0.0921 0.25323,0.22194 0.33562,0.28847 l 0.1498,0.12096 0.0261,-0.13367 c 0.0562,-0.28772 0.19979,-0.69108 0.24553,-0.68975 0.0265,8.7e-4 0.12251,0.0373 0.21336,0.0812 0.0908,0.0439 0.1873,0.0804 0.21435,0.0812 0.0765,0.002 0.10235,0.0732 0.0563,0.15457 -0.0575,0.10164 -0.25004,0.59577 -0.25004,0.64164 0,0.0205 0.18077,0.0312 0.40262,0.0238 l 0.40262,-0.0134 v 0.28906 0.28906 l -0.40262,-0.0144 c -0.22144,-0.008 -0.40262,-7e-5 -0.40262,0.0174 0,0.0434 0.19877,0.5565 0.25295,0.65292 0.0326,0.0581 0.0297,0.0868 -0.0117,0.11337 -0.0913,0.0586 -0.49852,0.20538 -0.5174,0.1865 -0.01,-0.01 -0.0682,-0.19401 -0.13005,-0.40971 l -0.11252,-0.39219 -0.10197,0.0815 c -0.0561,0.0448 -0.14857,0.12168 -0.20553,0.17082 -0.057,0.0491 -0.16569,0.14084 -0.24163,0.20377 l -0.13807,0.11443 -0.16098,-0.22982 c -0.0885,-0.1264 -0.16099,-0.24476 -0.16099,-0.26303 0,-0.0183 0.15795,-0.1405 0.351,-0.27163 0.19305,-0.13113 0.35101,-0.24372 0.35101,-0.2502 0,-0.006 -0.15796,-0.11688 -0.35101,-0.24534 -0.19305,-0.12845 -0.34947,-0.25559 -0.34761,-0.28254 0.002,-0.027 0.0716,-0.14635 0.15486,-0.26534 z"
         id="path249"
         sodipodi:nodetypes="scsscscsssssccccssscscssscssssscss"
         inkscape:label="logo_right" />
      <path
         style="fill:#f2f2f2;fill-opacity:1;stroke-width:0.0427425"
         d="m 264.89528,164.82741 c 0.14693,-0.17647 0.30081,-0.32192 0.34195,-0.32323 0.0411,-0.001 0.0748,0.0125 0.0748,0.0307 0,0.0181 0.0721,0.0709 0.16029,0.11713 0.0882,0.0463 0.17095,0.0986 0.18398,0.11627 0.013,0.0177 0.16691,0.0846 0.34194,0.14861 0.28327,0.10367 0.37696,0.11645 0.85253,0.11629 0.45446,-1.3e-4 0.57579,-0.0153 0.81211,-0.10119 0.93479,-0.33982 1.5252,-1.01739 1.66858,-1.91491 0.0869,-0.54371 -0.13439,-1.22943 -0.53276,-1.65117 l -0.196,-0.20748 0.13537,-0.15554 c 0.0744,-0.0855 0.22033,-0.25066 0.3242,-0.36692 l 0.18884,-0.21141 0.22937,0.23277 c 0.12616,0.12803 0.252,0.28567 0.27964,0.35032 0.0277,0.0647 0.0638,0.11754 0.0803,0.11754 0.0165,0 0.0832,0.11508 0.1481,0.25572 0.41172,0.8918 0.42777,1.80604 0.0463,2.63687 -0.45109,0.98247 -1.26667,1.63638 -2.39333,1.91891 -0.44116,0.11063 -1.21971,0.0993 -1.66697,-0.0242 -0.3865,-0.10677 -0.98027,-0.38141 -1.16142,-0.53721 -0.0665,-0.0572 -0.13528,-0.10395 -0.15291,-0.10398 -0.0878,-1.4e-4 -0.006,-0.15366 0.23508,-0.44382 z m 0.7131,-4.84012 c 0.0403,-0.1439 0.10558,-0.32953 0.14497,-0.41252 0.0394,-0.083 0.0716,-0.16552 0.0716,-0.18342 0,-0.0341 0.23129,-0.40715 0.34179,-0.55128 0.0353,-0.0461 0.19678,-0.21477 0.35875,-0.37481 0.88935,-0.87876 2.34632,-1.19277 3.59509,-0.77483 0.5137,0.17193 1.22574,0.62594 1.15675,0.73758 -0.0735,0.11895 -0.5651,0.64549 -0.60264,0.64549 -0.0142,0 -0.11582,-0.062 -0.22583,-0.13768 -0.40814,-0.28092 -0.82636,-0.43387 -1.33565,-0.48849 -0.40867,-0.0438 -1.34749,0.21803 -1.56633,0.43687 -0.0336,0.0336 -0.0768,0.0611 -0.0961,0.0611 -0.0659,0 -0.49342,0.45111 -0.62905,0.66374 -0.52797,0.82776 -0.44914,1.82277 0.20231,2.55363 0.24505,0.2749 0.24523,0.27145 -0.0306,0.56741 -0.0668,0.0716 -0.17698,0.19655 -0.24494,0.27757 l -0.12356,0.1473 -0.28346,-0.30684 c -0.33491,-0.36253 -0.60476,-0.8468 -0.72742,-1.30541 -0.11261,-0.421 -0.11535,-1.16451 -0.006,-1.55538 z"
         id="path250"
         sodipodi:nodetypes="scssssccsscsscssscsssscssssssssssssssssscsss"
         inkscape:label="logo_left" />
    </g>
    <text
       xml:space="preserve"
       style="font-size:8.26759px;font-family:'Home Video';-inkscape-font-specification:'Home Video, @wdth=87.0';font-variation-settings:'wdth' 87;text-align:center;text-anchor:middle;fill:#350d56;fill-opacity:1;stroke:none;stroke-width:0.169824;stroke-linecap:round;stroke-linejoin:round"
       x="36.758629"
       y="11.131707"
       id="text1"><tspan
         sodipodi:role="line"
         id="tspan1"
         style="fill:#350d56;fill-opacity:1;stroke:none;stroke-width:0.169824"
         x="36.758629"
         y="11.131707">FOSSCOMM 2024</tspan></text>
    <text
       xml:space="preserve"
       style="font-size:14.9369px;font-family:'Home Video';-inkscape-font-specification:'Home Video, @wdth=87.0';font-variation-settings:'wdth' 87;text-align:center;text-anchor:middle;fill:#350d56;fill-opacity:1;stroke:none;stroke-width:0.306819;stroke-linecap:round;stroke-linejoin:round"
       x="148.5"
       y="59.954838"
       id="text2"><tspan
         sodipodi:role="line"
         id="tspan2"
         style="fill:#350d56;fill-opacity:1;stroke:none;stroke-width:0.306819"
         x="148.5"
         y="59.954838">RIGHT SIDE</tspan></text>
    <text
       xml:space="preserve"
       style="font-size:8.26759px;font-family:'Home Video';-inkscape-font-specification:'Home Video, @wdth=87.0';font-variation-settings:'wdth' 87;text-align:center;text-anchor:middle;fill:#350d56;fill-opacity:1;stroke:none;stroke-width:0.169824;stroke-linecap:round;stroke-linejoin:round"
       x="235.96497"
       y="203.03339"
       id="text3"><tspan
         sodipodi:role="line"
         id="tspan3"
         style="fill:#350d56;fill-opacity:1;stroke:none;stroke-width:0.169824"
         x="235.96497"
         y="203.03339">MADE BY OPENSOURCE UOM</tspan></text>
  </g>
</svg>
