<?xml version="1.0" encoding="UTF-8" standalone="no"?>
<!-- Created with Inkscape (http://www.inkscape.org/) -->

<svg
   width="75mm"
   height="50mm"
   viewBox="0 0 75 50"
   version="1.1"
   id="svg1"
   inkscape:version="1.3.2 (091e20e, 2023-11-25, custom)"
   sodipodi:docname="fosscomm-people-how-own-source-code.svg"
   xmlns:inkscape="http://www.inkscape.org/namespaces/inkscape"
   xmlns:sodipodi="http://sodipodi.sourceforge.net/DTD/sodipodi-0.dtd"
   xmlns="http://www.w3.org/2000/svg"
   xmlns:svg="http://www.w3.org/2000/svg">
  <sodipodi:namedview
     id="namedview1"
     pagecolor="#ffffff"
     bordercolor="#000000"
     borderopacity="0.25"
     inkscape:showpageshadow="2"
     inkscape:pageopacity="0.0"
     inkscape:pagecheckerboard="0"
     inkscape:deskcolor="#d1d1d1"
     inkscape:document-units="mm"
     inkscape:zoom="1.3843855"
     inkscape:cx="45.868727"
     inkscape:cy="53.092148"
     inkscape:window-width="1920"
     inkscape:window-height="991"
     inkscape:window-x="-9"
     inkscape:window-y="-9"
     inkscape:window-maximized="1"
     inkscape:current-layer="layer1" />
  <defs
     id="defs1" />
  <g
     inkscape:label="Layer 1"
     inkscape:groupmode="layer"
     id="layer1">
    <rect
       style="fill:#201a2c;fill-opacity:1;stroke-width:0.434337;stroke-linecap:round;stroke-linejoin:round;stop-color:#000000"
       id="rect4658"
       width="75"
       height="50"
       x="3.375078e-15"
       y="3.4342898e-15" />
    <g
       id="g1">
      <path
         style="font-size:4.9633px;font-family:OffBit;-inkscape-font-specification:'OffBit, Normal';white-space:pre;fill:#ea95ff;stroke-width:0.566262;stroke-linecap:round;stroke-linejoin:round"
         d="m 15.827741,10.605952 v 1.06711 h 1.06711 v -0.268019 h 0.268018 V 10.87397 h -0.268018 v -0.268018 z m -0.536036,-0.536036 h 1.871164 v 0.268018 h 0.268018 v 0.268018 h 0.268018 v 1.06711 h -0.268018 v 0.268018 h -0.268018 v 0.268018 h -1.335128 v 1.335128 h -0.536036 z m 2.675217,0 h 2.4072 v 0.536036 h -1.871164 v 0.799091 h 1.603146 v 0.536037 h -1.603146 v 1.067109 h 1.871164 v 0.536037 h -2.4072 z m 3.216218,0.804054 v 0.52611 h -0.268018 v 0.813981 h 0.268018 v 0.52611 h 0.268019 v 0.268018 h 0.799091 v -0.268018 h 0.268018 v -0.52611 h 0.268018 V 11.40008 H 22.518268 V 10.87397 H 22.25025 v -0.268018 h -0.799091 v 0.268018 z m -0.536036,1.603146 h -0.268018 v -1.340091 h 0.268018 v -0.531073 h 0.268018 v -0.268018 h 0.268018 v -0.268018 h 1.335128 v 0.268018 h 0.263055 v 0.268018 h 0.268018 v 0.531073 h 0.268018 v 1.340091 h -0.268018 v 0.531073 h -0.268018 v 0.268018 h -0.263055 v 0.268019 H 21.18314 v -0.268019 h -0.268018 v -0.268018 h -0.268018 z m 3.47431,-1.871164 v 1.06711 h 1.067109 v -0.268019 h 0.268019 V 10.87397 h -0.268019 v -0.268018 z m -0.536037,-0.536036 h 1.871165 v 0.268018 h 0.268018 v 0.268018 h 0.268018 v 1.06711 H 25.72456 v 0.268018 h -0.268018 v 0.268018 h -1.335128 v 1.335128 h -0.536037 z m 2.675217,0 h 0.536037 v 2.938273 h 1.603146 v 0.536037 h -2.139183 z m 2.407204,0 h 2.4072 v 0.536036 h -1.871164 v 0.799091 h 1.603146 v 0.536037 h -1.603146 v 1.067109 h 1.871164 v 0.536037 h -2.4072 z m 4.164202,0 h 0.536036 v 0.536036 h 0.268018 v 0.531073 h 0.268018 v 0.804055 h 0.531073 v -0.804055 h 0.268019 v -0.531073 h 0.268018 v -0.536036 h 0.536036 v 0.536036 h 0.263055 v 0.531073 h 0.268018 v 0.804055 h 0.536037 v -0.804055 h 0.268018 v -0.531073 h 0.268018 v -0.536036 h 0.531073 v 0.536036 h -0.263054 v 0.531073 h -0.268019 v 0.804055 h -0.268018 v 0.799091 h -0.268018 v 0.804055 H 36.038291 V 12.740171 H 35.770273 V 11.94108 h -0.268018 v -0.804055 h -0.531073 v 0.804055 h -0.268018 v 0.799091 h -0.268019 v 0.804055 H 33.899109 V 12.740171 H 33.636054 V 11.94108 H 33.368036 V 11.137025 H 33.100018 V 10.605952 H 32.832 Z m 5.077461,0 h 0.52611 v 1.603146 h 1.340091 v -1.603146 h 0.536036 v 3.47431 h -0.536036 v -1.335128 h -1.340091 v 1.335128 h -0.52611 z m 3.47431,0.804054 v 0.52611 h -0.268018 v 0.813981 h 0.268018 v 0.52611 h 0.268018 v 0.268018 h 0.799092 v -0.268018 h 0.268018 v -0.52611 h 0.268018 V 11.40008 h -0.268018 v -0.52611 h -0.268018 v -0.268018 h -0.799092 v 0.268018 z m -0.536036,1.603146 h -0.268019 v -1.340091 h 0.268019 v -0.531073 h 0.268018 v -0.268018 h 0.268018 v -0.268018 h 1.335128 v 0.268018 h 0.263055 v 0.268018 h 0.268018 v 0.531073 h 0.268018 v 1.340091 h -0.268018 v 0.531073 h -0.268018 v 0.268018 h -0.263055 v 0.268019 h -1.335128 v -0.268019 h -0.268018 v -0.268018 h -0.268018 z m 4.695278,-1.072073 h -0.268018 v -0.799091 h 0.268018 v -0.268018 h 0.263055 v -0.268018 h 1.608109 v 0.268018 h 0.263055 v 0.268018 h 0.268018 v 0.536036 H 47.409214 V 10.87397 h -0.263055 v -0.268018 h -1.072073 v 0.268018 h -0.268018 v 0.263055 h 0.268018 v 0.268018 h 1.340091 v 0.268019 h 0.263055 v 0.268018 h 0.268018 v 1.067109 h -0.268018 v 0.268018 h -0.263055 v 0.268019 h -1.608109 v -0.268019 h -0.263055 v -0.268018 h -0.268018 v -0.531073 h 0.531073 v 0.263055 h 0.268018 v 0.268018 h 1.072073 v -0.268018 h 0.268018 V 12.209098 H 47.151122 V 11.94108 h -1.345054 v -0.268018 h -0.263055 z m 2.670258,-1.335127 h 0.52611 v 1.603146 h 1.340091 v -1.603146 h 0.536036 v 3.47431 h -0.536036 v -1.335128 h -1.340091 v 1.335128 h -0.52611 z m 3.74233,1.603146 v 0.536036 h 1.06711 V 11.673062 H 52.754693 V 10.87397 H 52.22362 v 0.799092 z m -0.536036,1.335127 v 0.536037 h -0.536037 v -0.804055 h 0.268019 v -0.531073 h 0.268018 v -0.536036 h 0.268018 V 10.87397 h 0.268018 v -0.536036 h 0.268019 v -0.268018 h 0.536036 v 0.268018 h 0.263055 v 0.536036 h 0.268018 v 0.799092 h 0.268018 v 0.536036 h 0.268018 v 0.531073 h 0.268019 v 0.804055 h -0.536037 v -0.536037 h -0.268018 v -0.263055 h -1.603146 v 0.263055 z m 3.479275,-2.402237 v 1.06711 h 1.330164 v -0.268019 h 0.268018 V 10.87397 h -0.268018 v -0.268018 z m -0.536037,-0.536036 h 2.134219 v 0.268018 h 0.268019 v 0.268018 h 0.268018 v 1.06711 h -0.268018 v 0.268018 h -0.268019 v 0.268018 h 0.268019 v 0.268018 h 0.268018 v 1.06711 H 56.497022 V 12.740171 H 56.229004 V 12.477116 H 55.960986 V 12.209098 H 54.89884 v 1.335128 h -0.536037 z m 2.938278,0 h 2.407201 v 0.536036 h -1.871164 v 0.799091 h 1.603146 v 0.536037 h -1.603146 v 1.067109 h 1.871164 v 0.536037 h -2.407201 z"
         id="text4504"
         aria-label="PEOPLE WHO SHARE" />
      <path
         style="font-size:5.78539px;font-family:OffBit;-inkscape-font-specification:'OffBit, Normal';white-space:pre;fill:#ea95ff;stroke-width:0.660051;stroke-linecap:round;stroke-linejoin:round"
         d="m 11.934349,15.936874 h 3.106755 v 0.624822 H 13.80303 v 3.424951 h -0.624822 v -3.424951 h -1.243859 z m 3.419164,0 h 0.613251 v 1.868681 h 1.562055 v -1.868681 h 0.624822 v 4.049773 h -0.624822 v -1.55627 h -1.562055 v 1.55627 h -0.613251 z m 3.11254,0 h 2.805914 v 0.624822 h -2.181092 v 0.931448 h 1.868681 v 0.624822 h -1.868681 v 1.243859 h 2.181092 v 0.624822 h -2.805914 z m 3.118323,0 h 0.624822 v 4.049773 h -0.624822 z m 1.562059,0.624822 v 1.243859 h 1.550484 v -0.312411 h 0.312411 v -0.619037 h -0.312411 v -0.312411 z m -0.624822,-0.624822 h 2.487717 v 0.312411 h 0.312411 v 0.312411 h 0.312411 v 1.243859 h -0.312411 v 0.312411 H 25.00933 v 0.312411 h 0.312411 v 0.312411 h 0.312411 v 1.243859 H 25.00933 v -0.937234 h -0.312411 v -0.306625 h -0.312411 v -0.312411 h -1.238073 v 1.55627 h -0.624822 z m 5.47298,1.55627 h -0.312411 v -0.931448 h 0.312411 v -0.312411 h 0.306625 v -0.312411 h 1.874467 v 0.312411 h 0.306625 v 0.312411 h 0.312411 v 0.624822 h -0.624822 v -0.312411 h -0.306625 v -0.312411 h -1.249645 v 0.312411 h -0.312411 v 0.306626 h 0.312411 v 0.312411 h 1.562056 v 0.312411 h 0.306625 v 0.312411 h 0.312411 v 1.243859 H 30.48231 v 0.312411 h -0.306625 v 0.312411 h -1.874467 v -0.312411 h -0.306625 v -0.312411 h -0.312411 v -0.619037 h 0.619036 v 0.306625 h 0.312411 v 0.312412 h 1.249645 v -0.312412 h 0.312411 v -0.619036 h -0.306626 v -0.312411 h -1.567841 v -0.312411 h -0.306625 z m 4.049778,-0.619037 v 0.613251 H 31.73196 v 0.948804 h 0.312411 v 0.613251 h 0.312411 v 0.312412 h 0.931448 v -0.312412 h 0.312411 v -0.613251 h 0.312411 V 17.487358 H 33.600641 V 16.874107 H 33.28823 v -0.312411 h -0.931448 v 0.312411 z m -0.624822,1.868681 h -0.312411 v -1.562055 h 0.312411 v -0.619037 h 0.312411 v -0.312411 h 0.312411 v -0.312411 h 1.55627 v 0.312411 h 0.306626 v 0.312411 h 0.312411 v 0.619037 h 0.312411 v 1.562055 h -0.312411 v 0.619037 h -0.312411 v 0.312411 h -0.306626 v 0.312411 h -1.55627 V 19.674236 H 31.73196 V 19.361825 H 31.419549 Z M 34.8445,15.936874 h 0.624822 v 3.112539 h 0.312411 v 0.312412 h 0.931448 v -0.312412 h 0.306626 v -3.112539 h 0.624822 v 3.424951 h -0.312411 v 0.312411 h -0.306626 v 0.312411 H 35.463537 V 19.674236 H 35.156911 V 19.361825 H 34.8445 Z m 3.737361,0.624822 v 1.243859 h 1.550485 v -0.312411 h 0.312411 v -0.619037 h -0.312411 v -0.312411 z m -0.624822,-0.624822 h 2.487718 v 0.312411 h 0.312411 v 0.312411 h 0.312411 v 1.243859 h -0.312411 v 0.312411 h -0.312411 v 0.312411 h 0.312411 v 0.312411 h 0.312411 v 1.243859 h -0.624822 v -0.937234 h -0.312411 v -0.306625 h -0.312411 v -0.312411 h -1.238074 v 1.55627 h -0.624822 z m 3.731583,3.112539 h -0.306625 v -2.175306 h 0.306625 v -0.624822 h 0.312411 V 15.936874 H 43.8755 v 0.312411 h 0.312411 v 0.624822 h 0.312411 v 0.619037 H 43.8755 v -0.312411 h -0.312412 v -0.619037 h -1.249644 v 0.619037 h -0.312411 v 1.556269 h 0.312411 v 0.624823 h 1.249644 V 18.742788 H 43.8755 v -0.312411 h 0.624822 v 0.619036 h -0.312411 v 0.624823 H 43.8755 v 0.312411 h -1.868681 v -0.312411 h -0.318197 z m 3.124111,-3.112539 h 2.805914 v 0.624822 h -2.181092 v 0.931448 h 1.868681 v 0.624822 h -1.868681 v 1.243859 h 2.181092 v 0.624822 h -2.805914 z m 5.160561,3.112539 h -0.306626 v -2.175306 h 0.306626 v -0.624822 h 0.312411 v -0.312411 h 1.874466 v 0.312411 h 0.312411 v 0.624822 h 0.312411 v 0.619037 H 52.160171 V 17.180733 H 51.84776 v -0.619037 h -1.249644 v 0.619037 h -0.312411 v 1.556269 h 0.312411 v 0.624823 h 1.249644 v -0.619037 h 0.312411 v -0.312411 h 0.624822 v 0.619036 h -0.312411 v 0.624823 h -0.312411 v 0.312411 H 50.29149 v -0.312411 h -0.318196 z m 4.061348,-2.175306 v 0.613251 h -0.312411 v 0.948804 h 0.312411 v 0.613251 h 0.312411 v 0.312412 h 0.931448 v -0.312412 h 0.312411 v -0.613251 h 0.312411 v -0.948804 h -0.312411 v -0.613251 h -0.312411 v -0.312411 h -0.931448 v 0.312411 z m -0.624822,1.868681 h -0.312411 v -1.562055 h 0.312411 v -0.619037 h 0.312411 v -0.312411 h 0.312411 v -0.312411 h 1.55627 v 0.312411 h 0.306625 v 0.312411 h 0.312411 v 0.619037 h 0.312411 v 1.562055 h -0.312411 v 0.619037 h -0.312411 v 0.312411 h -0.306625 v 0.312411 h -1.55627 V 19.674236 H 53.722231 V 19.361825 H 53.40982 Z m 3.424951,-2.805914 h 2.181092 v 0.312411 h 0.306625 v 0.312411 h 0.312411 v 0.312411 h 0.312411 v 2.175306 h -0.312411 v 0.312412 h -0.312411 v 0.312411 h -0.306625 v 0.312411 h -2.181092 z m 0.619036,0.624822 v 2.800129 h 1.249644 v -0.312412 h 0.312412 v -0.312411 h 0.312411 v -1.550484 h -0.312411 v -0.312411 h -0.312412 v -0.312411 z m 2.805921,-0.624822 h 2.805914 v 0.624822 H 60.88455 v 0.931448 h 1.868681 v 0.624822 H 60.88455 v 1.243859 h 2.181092 v 0.624822 h -2.805914 z"
         id="text4508"
         aria-label="THEIR SOURCE CODE" />
      <path
         style="font-size:10.0674px;font-family:OffBit;-inkscape-font-specification:'OffBit, Normal';white-space:pre;fill:#ea95ff;stroke-width:1.14859;stroke-linecap:round;stroke-linejoin:round"
         d="m 9.0091531,22.379315 h 3.7954099 v 0.543639 h 0.533572 v 0.54364 h 0.54364 v 0.543639 h 0.543639 v 3.785343 h -0.543639 v 0.543639 h -0.54364 v 0.54364 h -0.533572 v 0.54364 H 9.0091531 Z m 1.0772119,1.087279 v 4.872621 h 2.174558 v -0.543639 h 0.54364 v -0.54364 h 0.543639 v -2.698063 h -0.543639 v -0.54364 h -0.54364 v -0.543639 z m 6.513617,0.543639 v 1.067145 h -0.543639 v 1.651053 h 0.543639 v 1.067145 h 0.54364 v 0.543639 h 1.620851 v -0.543639 h 0.54364 v -1.067145 h 0.543639 v -1.651053 h -0.543639 v -1.067145 h -0.54364 v -0.543639 h -1.620851 v 0.543639 z m -1.087279,3.251771 h -0.54364 v -2.718198 h 0.54364 v -1.077212 h 0.54364 v -0.54364 h 0.543639 v -0.543639 h 2.708131 v 0.543639 h 0.533572 v 0.54364 h 0.54364 v 1.077212 h 0.543639 v 2.718198 h -0.543639 v 1.077211 h -0.54364 v 0.54364 h -0.533572 v 0.54364 h -2.708131 v -0.54364 h -0.543639 v -0.54364 h -0.54364 z m 8.980113,-4.882689 h 1.087279 v 0.543639 h 0.533572 v 1.087279 h 0.54364 v 0.533573 h 0.543639 v 1.087279 h 0.54364 v 0.543639 h 0.543639 v 1.08728 h 0.54364 v -0.54364 h -0.01007 v -4.339049 h 1.087279 v 7.04718 h -1.087279 v -0.54364 h -0.533573 v -0.54364 h -0.543639 v -0.533572 h -0.54364 v -1.087279 h -0.543639 v -0.54364 h -0.54364 v -1.087279 h -0.533572 v 4.33905 h -1.087279 z m 7.590829,1.630918 v 1.067145 h -0.54364 v 1.651053 h 0.54364 v 1.067145 h 0.543639 v 0.543639 h 1.620852 v -0.543639 h 0.543639 v -1.067145 h 0.54364 v -1.651053 h -0.54364 v -1.067145 h -0.543639 v -0.543639 h -1.620852 v 0.543639 z m -1.087279,3.251771 h -0.54364 v -2.718198 h 0.54364 v -1.077212 h 0.543639 v -0.54364 h 0.54364 v -0.543639 h 2.70813 v 0.543639 h 0.533573 v 0.54364 h 0.543639 v 1.077212 h 0.54364 v 2.718198 h -0.54364 v 1.077211 h -0.543639 v 0.54364 h -0.533573 v 0.54364 h -2.70813 v -0.54364 h -0.54364 v -0.54364 h -0.543639 z m 4.902827,-4.882689 h 5.406193 v 1.087279 h -2.154423 v 5.959901 h -1.087279 v -5.959901 h -2.164491 z m 10.60096,1.630918 v 1.067145 h -0.54364 v 1.651053 h 0.54364 v 1.067145 h 0.543639 v 0.543639 h 1.620852 v -0.543639 h 0.543639 v -1.067145 h 0.54364 v -1.651053 h -0.54364 v -1.067145 h -0.543639 v -0.543639 h -1.620852 v 0.543639 z m -1.08728,3.251771 h -0.543639 v -2.718198 h 0.543639 v -1.077212 h 0.54364 v -0.54364 h 0.54364 v -0.543639 h 2.70813 v 0.543639 h 0.533572 v 0.54364 h 0.54364 v 1.077212 h 0.54364 v 2.718198 h -0.54364 v 1.077211 h -0.54364 v 0.54364 h -0.533572 v 0.54364 h -2.70813 v -0.54364 h -0.54364 v -0.54364 h -0.54364 z m 5.396131,-4.882689 h 1.087279 v 1.087279 h 0.543639 v 1.077212 h 0.54364 v 1.630918 h 1.077212 v -1.630918 h 0.543639 v -1.077212 h 0.54364 v -1.087279 h 1.087279 v 1.087279 h 0.533572 v 1.077212 h 0.54364 v 1.630918 h 1.087279 v -1.630918 h 0.54364 v -1.077212 h 0.543639 v -1.087279 h 1.077212 v 1.087279 h -0.533572 v 1.077212 h -0.54364 v 1.630918 h -0.543639 v 1.620852 h -0.54364 v 1.630919 h -1.087279 v -1.630919 h -0.54364 v -1.620852 h -0.543639 v -1.630918 h -1.077212 v 1.630918 h -0.54364 v 1.620852 h -0.543639 v 1.630919 h -1.087279 v -1.630919 h -0.533573 v -1.620852 h -0.543639 v -1.630918 h -0.54364 v -1.077212 h -0.543639 z m 10.298957,0 h 4.882689 v 1.087279 h -3.795409 v 1.620851 h 3.25177 v 1.087279 h -3.25177 v 2.164491 h 3.795409 v 1.08728 h -4.882689 z"
         id="text4512"
         aria-label="DO NOT OWE" />
      <path
         style="font-size:10.6021px;font-family:OffBit;-inkscape-font-specification:'OffBit, Normal';white-space:pre;fill:#ea95ff;stroke-width:1.20959;stroke-linecap:round;stroke-linejoin:round"
         d="m 2.8047563,31.819111 h 1.1450269 v 0.572514 h 0.5725134 v 0.572513 H 5.09481 v 1.134425 h 0.5725134 v 0.572513 H 6.8017482 V 34.098563 H 7.3742616 V 32.964138 H 7.946775 v -0.572513 h 0.5725134 v -0.572514 h 1.1344248 v 1.145027 H 9.0918018 v 0.572514 H 8.5192884 v 1.134424 H 7.946775 V 35.24359 H 7.3742616 v 0.572513 H 6.8017482 v 3.424479 H 5.6567213 V 35.816103 H 5.09481 V 35.24359 H 4.5222966 V 34.671076 H 3.9497832 V 33.536652 H 3.3772697 V 32.964138 H 2.8047563 Z m 8.0151867,1.717541 v 1.123822 h -0.572514 v 1.738745 h 0.572514 v 1.123822 h 0.572513 v 0.572514 h 1.706938 v -0.572514 h 0.572514 v -1.123822 h 0.572513 v -1.738745 h -0.572513 v -1.123822 h -0.572514 v -0.572514 h -1.706938 v 0.572514 z M 9.6749158,36.96113 H 9.1024024 v -2.862567 h 0.5725134 v -1.134425 h 0.5725132 v -0.572513 h 0.572514 v -0.572514 h 2.851965 v 0.572514 h 0.561911 v 0.572513 h 0.572513 v 1.134425 h 0.572514 v 2.862567 h -0.572514 v 1.134425 h -0.572513 v 0.572513 h -0.561911 v 0.572514 H 10.819943 V 38.668068 H 10.247429 V 38.095555 H 9.6749158 Z m 6.2764432,-5.142019 h 1.145027 v 5.70393 h 0.572513 v 0.572514 h 1.706938 v -0.572514 h 0.561912 v -5.70393 h 1.145027 v 6.276444 h -0.572514 v 0.572513 h -0.561911 v 0.572514 h -2.862567 v -0.572514 h -0.561912 v -0.572513 h -0.572513 z m 11.174606,3.424479 v 1.145027 h 2.279451 V 35.24359 h -0.572513 v -1.706938 h -1.134425 v 1.706938 z m -1.145027,2.851965 v 1.145027 h -1.145027 v -1.717541 h 0.572513 v -1.134424 h 0.572514 V 35.24359 h 0.572513 v -1.706938 h 0.572514 v -1.145027 h 0.572513 v -0.572514 h 1.145027 v 0.572514 h 0.561911 v 1.145027 h 0.572514 v 1.706938 h 0.572513 v 1.145027 h 0.572513 v 1.134424 h 0.572514 v 1.717541 H 30.550443 V 38.095555 H 29.97793 v -0.561912 h -3.424479 v 0.561912 z m 6.287048,-6.276444 h 1.145027 v 0.572514 h 0.561912 v 1.145027 h 0.572513 v 0.561911 h 0.572513 v 1.145027 h 0.572514 v 0.572513 h 0.572513 v 1.145027 h 0.572514 v -0.572513 h -0.0106 v -4.569506 h 1.145026 v 7.421471 H 36.82689 v -0.572514 h -0.561912 v -0.572513 h -0.572513 v -0.561912 h -0.572514 v -1.145026 h -0.572513 v -0.572514 h -0.572513 v -1.145027 h -0.561912 v 4.569506 h -1.145027 z m 6.276455,0 h 1.145027 v 0.572514 h 0.572514 v 0.572513 h 0.572513 v 1.134425 h 0.572513 v 0.572513 h 1.134425 v -0.572513 h 0.572514 v -1.134425 h 0.572513 v -0.572513 h 0.572513 v -0.572514 h 1.134425 v 1.145027 h -0.561911 v 0.572514 h -0.572514 v 1.134424 H 43.68646 v 0.572514 h -0.572513 v 0.572513 h -0.572514 v 3.424479 H 41.396406 V 35.816103 H 40.834495 V 35.24359 h -0.572513 v -0.572514 h -0.572514 v -1.134424 h -0.572513 v -0.572514 h -0.572514 z m 7.421479,0 h 5.693328 v 1.145027 h -2.26885 v 6.276444 H 48.245371 V 32.964138 H 45.96592 Z m 6.265834,0 h 1.123823 v 3.424479 h 2.862567 v -3.424479 h 1.145027 v 7.421471 h -1.145027 v -2.851965 h -2.862567 v 2.851965 h -1.123823 z m 5.703934,0 h 1.145027 v 7.421471 h -1.145027 z m 1.717545,0 h 1.145027 v 0.572514 h 0.561911 v 1.145027 h 0.572513 v 0.561911 h 0.572514 v 1.145027 h 0.572513 v 0.572513 h 0.572514 v 1.145027 h 0.572513 v -0.572513 h -0.0106 v -4.569506 h 1.145027 v 7.421471 H 64.212136 V 38.668068 H 63.650225 V 38.095555 H 63.077711 V 37.533643 H 62.505198 V 36.388617 H 61.932684 V 35.816103 H 61.360171 V 34.671076 H 60.79826 v 4.569506 h -1.145027 z m 7.421481,6.848957 h -0.572513 v -0.561911 h -0.572513 v -5.142019 h 0.572513 v -0.572513 h 0.572513 v -0.572514 h 3.98639 v 0.572514 h 0.561912 v 0.572513 h 0.572513 v 1.706938 h -1.134425 v -1.134424 h -0.561911 v -0.572514 h -2.851965 v 0.572514 h -0.572514 v 3.986389 h 0.572514 v 0.572514 h 1.706938 v -0.572514 h 0.572513 V 36.96113 h 0.561912 V 36.388617 H 69.343564 V 35.24359 h 2.851965 v 3.996992 h -1.134425 v -1.134425 h -0.561911 v 0.572513 h -0.572514 v 0.561912 h -2.851965 z"
         id="text4520"
         aria-label="YOU ANYTHING" />
      <g
         id="g4720"
         transform="matrix(0.14062198,0,0,0.14062198,-1.0674808,7.8621021)">
        <path
           d="m 441.99608,284.06594 h 0.90713 v -6.35005 h -0.90713 z m 3.62852,-5.4429 v -0.90715 h -2.70328 v 0.90715 z m -0.90713,2.72146 v -0.90716 h -1.79615 v 0.90716 z"
           style="font-size:13.5489px;font-family:Paskowy;-inkscape-font-specification:'Paskowy, Normal';white-space:pre;fill:#ea95ff;stroke-width:3.75086;stroke-linecap:round;stroke-linejoin:round"
           id="path4548"
           sodipodi:nodetypes="ccccccccccccccc" />
        <path
           d="m 451.84761,284.06594 v -0.92528 h -4.53565 v 0.92528 z m -0.90713,-0.90714 h 0.92541 v -4.53576 h -0.92541 z m 0.90713,-4.57204 v -0.88901 h -4.53565 v 0.88901 z m -4.53565,4.57204 h 0.92523 v -4.53576 h -0.92523 z"
           style="font-size:13.5489px;font-family:Paskowy;-inkscape-font-specification:'Paskowy, Normal';white-space:pre;fill:#ea95ff;stroke-width:3.75086;stroke-linecap:round;stroke-linejoin:round"
           id="path4550"
           sodipodi:nodetypes="cccccccccccccccccccc" />
        <path
           d="m 456.74622,284.06594 v -0.90714 h -2.72139 v 0.90714 z m 0.0174,0 h 0.88902 v -2.72144 h -0.88902 z m 0.88902,-2.72144 v -0.9253 h -3.62852 v 0.9253 z m -0.0174,-2.72146 v -0.92529 h -2.70328 v 0.92529 z m -3.61041,1.8143 h 0.92523 v -2.72145 h -0.92523 z"
           style="font-size:13.5489px;font-family:Paskowy;-inkscape-font-specification:'Paskowy, Normal';white-space:pre;fill:#ea95ff;stroke-width:3.75086;stroke-linecap:round;stroke-linejoin:round"
           id="path4552"
           sodipodi:nodetypes="ccccccccccccccccccccccccc" />
        <path
           d="m 462.51575,284.06594 v -0.90714 h -2.72139 v 0.90714 z m 0.0174,0 h 0.88902 v -2.72144 h -0.88902 z m 0.88902,-2.72144 v -0.9253 h -3.62852 v 0.9253 z m -0.0174,-2.72146 v -0.92529 h -2.70328 v 0.92529 z m -3.61041,1.8143 h 0.92523 v -2.72145 h -0.92523 z"
           style="font-size:13.5489px;font-family:Paskowy;-inkscape-font-specification:'Paskowy, Normal';white-space:pre;fill:#ea95ff;stroke-width:3.75086;stroke-linecap:round;stroke-linejoin:round"
           id="path4554"
           sodipodi:nodetypes="ccccccccccccccccccccccccc" />
        <path
           d="m 465.56371,284.06594 h 0.90713 v -6.35005 h -0.90713 z m 3.6287,-5.4429 v -0.90715 h -2.70329 v 0.90715 z m 0,5.4429 v -0.90714 h -2.70329 v 0.90714 z"
           style="font-size:13.5489px;font-family:Paskowy;-inkscape-font-specification:'Paskowy, Normal';white-space:pre;fill:#ea95ff;stroke-width:3.75086;stroke-linecap:round;stroke-linejoin:round"
           id="path4556"
           sodipodi:nodetypes="ccccccccccccccc" />
        <path
           d="m 475.85079,284.06594 v -0.92528 h -4.53565 v 0.92528 z m -0.90713,-0.90714 h 0.92541 v -4.53576 h -0.92541 z m 0.90713,-4.57204 v -0.88901 h -4.53565 v 0.88901 z m -4.53565,4.57204 h 0.92523 v -4.53576 h -0.92523 z"
           style="font-size:13.5489px;font-family:Paskowy;-inkscape-font-specification:'Paskowy, Normal';white-space:pre;fill:#ea95ff;stroke-width:3.75086;stroke-linecap:round;stroke-linejoin:round"
           id="path4558"
           sodipodi:nodetypes="cccccccccccccccccccc" />
        <path
           d="m 483.47096,284.06594 h 0.92524 v -6.35005 h -0.92524 z m -2.72156,-5.4429 v -0.90715 h -1.81426 v 0.90715 z m 0.90713,5.4429 v -6.35005 h -0.90713 v 6.35005 z m -3.62852,0 h 0.92523 v -6.35005 h -0.92523 z m 5.44295,-5.4429 v -0.90715 h -1.81443 v 0.90715 z"
           style="font-size:13.5489px;font-family:Paskowy;-inkscape-font-specification:'Paskowy, Normal';white-space:pre;fill:#ea95ff;stroke-width:3.75086;stroke-linecap:round;stroke-linejoin:round"
           id="path4560"
           sodipodi:nodetypes="ccccccccccccccccccccccccc" />
        <path
           d="m 491.97999,284.06594 h 0.92523 v -6.35005 h -0.92523 z m -2.72139,-5.4429 v -0.90715 h -1.81444 v 0.90715 z m 0.90713,5.4429 v -6.35005 h -0.90713 v 6.35005 z m -3.6287,0 h 0.92541 v -6.35005 h -0.92541 z m 5.44296,-5.4429 v -0.90715 h -1.81426 v 0.90715 z"
           style="font-size:13.5489px;font-family:Paskowy;-inkscape-font-specification:'Paskowy, Normal';white-space:pre;fill:#ea95ff;stroke-width:3.75086;stroke-linecap:round;stroke-linejoin:round"
           id="path4562"
           sodipodi:nodetypes="ccccccccccccccccccccccccc" />
        <path
           d="m 500.6523,284.06594 v -0.90714 h 2.72156 v 0.90714 z m -0.0174,0 h -0.88902 v -2.72144 h 0.88902 z m -0.88902,-2.72144 v -0.9253 h 3.62869 v 0.9253 z m 0.0174,-2.72146 v -0.92529 h 2.70329 v 0.92529 z m 3.61059,1.8143 h -0.9254 v -2.72145 h 0.9254 z"
           style="font-size:13.5489px;font-family:Paskowy;-inkscape-font-specification:'Paskowy, Normal';white-space:pre;fill:#ea95ff;stroke-width:3.75086;stroke-linecap:round;stroke-linejoin:round"
           id="path4564"
           sodipodi:nodetypes="ccccccccccccccccccccccccc" />
        <path
           d="m 509.23392,284.06594 v -0.92528 h -3.62853 v 0.92528 z m -0.90713,-0.90714 h 0.90713 v -4.53576 h -0.90713 z m 0.90713,-4.57204 v -0.88901 h -3.62853 v 0.88901 z m -3.62853,4.57204 h 0.92524 v -4.53576 h -0.92524 z"
           style="font-size:13.5489px;font-family:Paskowy;-inkscape-font-specification:'Paskowy, Normal';white-space:pre;fill:#ea95ff;stroke-width:3.75086;stroke-linecap:round;stroke-linejoin:round"
           id="path4566"
           sodipodi:nodetypes="cccccccccccccccccccc" />
        <path
           d="m 512.37275,284.06594 v -0.90714 h 2.72139 v 0.90714 z m -0.0191,0 h -0.88885 v -2.72144 h 0.88885 z m -0.88885,-2.72144 v -0.9253 h 3.62852 v 0.9253 z m 0.0174,-2.72146 v -0.92529 h 2.70328 v 0.92529 z m 3.61041,1.8143 h -0.92523 v -2.72145 h 0.92523 z"
           style="font-size:13.5489px;font-family:Paskowy;-inkscape-font-specification:'Paskowy, Normal';white-space:pre;fill:#ea95ff;stroke-width:3.75086;stroke-linecap:round;stroke-linejoin:round"
           id="path4568"
           sodipodi:nodetypes="ccccccccccccccccccccccccc" />
        <path
           d="m 520.02896,282.26979 v -0.90715 h -2.72139 v 0.90715 z m 0.96162,1.81429 v -6.35005 h -0.94334 v 6.35005 z m -2.7395,-2.73958 v -3.62861 h -0.94351 v 3.62861 z"
           style="font-size:13.5489px;font-family:Paskowy;-inkscape-font-specification:'Paskowy, Normal';white-space:pre;fill:#ea95ff;stroke-width:3.75086;stroke-linecap:round;stroke-linejoin:round"
           id="path4570"
           sodipodi:nodetypes="ccccccccccccccc" />
      </g>
    </g>
  </g>
</svg>
