<?xml version="1.0" encoding="UTF-8" standalone="no"?>
<!-- Created with Inkscape (http://www.inkscape.org/) -->

<svg
   width="75mm"
   height="50mm"
   viewBox="0 0 75 50"
   version="1.1"
   id="svg1"
   inkscape:version="1.3.2 (091e20e, 2023-11-25, custom)"
   sodipodi:docname="fosscomm-sustainable.svg"
   xmlns:inkscape="http://www.inkscape.org/namespaces/inkscape"
   xmlns:sodipodi="http://sodipodi.sourceforge.net/DTD/sodipodi-0.dtd"
   xmlns="http://www.w3.org/2000/svg"
   xmlns:svg="http://www.w3.org/2000/svg">
  <sodipodi:namedview
     id="namedview1"
     pagecolor="#ffffff"
     bordercolor="#000000"
     borderopacity="0.25"
     inkscape:showpageshadow="2"
     inkscape:pageopacity="0.0"
     inkscape:pagecheckerboard="0"
     inkscape:deskcolor="#d1d1d1"
     inkscape:document-units="mm"
     inkscape:zoom="1.9578167"
     inkscape:cx="119.26551"
     inkscape:cy="103.94231"
     inkscape:window-width="1920"
     inkscape:window-height="991"
     inkscape:window-x="-9"
     inkscape:window-y="-9"
     inkscape:window-maximized="1"
     inkscape:current-layer="layer1" />
  <defs
     id="defs1" />
  <g
     inkscape:label="Layer 1"
     inkscape:groupmode="layer"
     id="layer1">
    <rect
       style="fill:#201a2c;fill-opacity:1;stroke-width:0.434337;stroke-linecap:round;stroke-linejoin:round;stop-color:#000000"
       id="rect4658"
       width="75"
       height="50"
       x="3.375078e-15"
       y="3.4342898e-15" />
    <path
       id="path3521"
       style="fill:#ea95ff;fill-opacity:1;stroke-width:0.0738142"
       d="m 18.746757,6.9176552 -4.257503,0.00203 c -0.03458,-0.00229 -0.06476,-0.00233 -0.08972,0 l -6.4549259,0.00312 H 4.6814344 V 25.002566 43.082345 H 37.499768 70.318101 v -6.618232 -6.618229 l -0.01379,8.27e-4 -0.02079,-2.130388 -0.0034,-6.39e-4 c 0.02372,-1.263436 0.03709,-3.340959 0.03709,-6.441992 0,-3.416008 -0.0109,-5.381717 -0.03533,-6.52278 l 0.03669,0.02001 -0.0132,-4.056927 -0.0047,-1.08e-4 c 0.01226,-0.341878 0.01766,-0.7995745 0.01766,-1.5767363 V 6.9226535 H 43.471511 18.747057 Z M 5.377587,7.3063002 H 7.0853247 18.764423 42.180879 69.622137 v 2.1841052 c 0,0.5202526 3.75e-4,0.9077486 0.0037,1.2120606 h -2.26e-4 l 0.0084,2.501806 -0.01207,-0.0083 v 7.629118 7.629119 2.533908 5.306657 6.404109 H 37.499805 5.3776252 V 25.002568 Z m 56.686401,1.2531508 -0.323213,0.01723 -0.323212,0.017121 -0.01924,1.1745019 c -0.01052,0.6459991 0.0039,1.1950441 0.03206,1.2200841 0.02891,0.02501 1.021658,0.03893 2.206933,0.03082 l 2.155852,-0.01476 0.03127,-0.178059 0.03127,-0.178057 H 63.959742 62.063994 V 9.6039428 Z M 46.45041,8.566411 v 1.23378 1.233783 l 2.212759,-0.01477 2.212759,-0.01476 0.03108,-0.17806 0.03127,-0.178057 H 49.042312 47.146563 V 9.6073663 8.5664103 h -0.348057 z m 7.458731,0 v 1.2007167 c 0,0.9093383 0.03014,1.2075063 0.124301,1.2284323 0.06837,0.0152 1.075295,0.02961 2.237605,0.03199 l 2.113303,0.0043 V 10.84009 10.648335 H 56.494803 54.605294 V 9.6073652 8.5664092 h -0.348095 z m -5.96697,0.4382985 v 0.6026561 0.6026604 h 1.093939 1.093938 V 9.6073644 9.0047069 H 49.03611 Z m 16.757244,0 c -0.330392,0 -0.348095,0.00967 -0.348095,0.1883299 0,0.1723772 -0.02733,0.1897358 -0.323213,0.2054525 -0.284197,0.015099 -0.326858,0.038612 -0.354297,0.1951798 -0.02988,0.1707888 -0.01669,0.178057 0.323212,0.178057 0.338586,0 0.354298,-0.00848 0.354298,-0.1917549 0,-0.1826231 0.01662,-0.1917549 0.348095,-0.1917549 0.331556,0 0.348057,-0.00913 0.348057,-0.1917549 0,-0.1826227 -0.01654,-0.1917545 -0.348057,-0.1917545 z m -1.285671,0.00481 c -0.04484,-0.00128 -0.103703,0.00135 -0.181207,0.00546 -0.284198,0.015095 -0.327047,0.038612 -0.354485,0.1951776 -0.02988,0.1707914 -0.01669,0.1780592 0.323211,0.1780592 0.339714,0 0.354485,-0.00793 0.354485,-0.1951794 0,-0.1404371 -0.0076,-0.1796395 -0.142004,-0.1835158 z m -5.824965,0.3749493 -1.069093,0.015625 -1.069093,0.015516 -0.03108,0.1780593 -0.03127,0.178057 h 1.100366 1.100178 v -0.193573 z m -8.105156,0.00365 -0.01128,0.2272816 h 2.26e-4 c -0.01101,0.2235898 -0.01733,0.2272966 -0.381511,0.232846 -0.203572,0.00312 -0.388463,-0.00457 -0.411391,-0.017121 -0.02289,-0.012554 -0.04135,-0.117336 -0.04135,-0.2328456 v -0.210054 h 0.422631 z m 15.215792,0.4384059 c -0.33152,0 -0.348095,0.00913 -0.348095,0.1917553 0,0.182623 0.01662,0.191754 0.348095,0.191754 0.331556,0 0.348057,-0.0091 0.348057,-0.191754 0,-0.1826235 -0.01654,-0.1917553 -0.348057,-0.1917553 z m -1.285671,0.00481 c -0.04484,-0.00128 -0.103703,0.00135 -0.181207,0.00546 -0.284198,0.015095 -0.327047,0.038613 -0.354485,0.1951783 -0.02988,0.170791 -0.01669,0.178059 0.323211,0.178059 0.339714,0 0.354485,-0.0079 0.354485,-0.19518 0,-0.1404366 -0.0076,-0.1796393 -0.142004,-0.1835157 z m 3.92106,2.0220983 -29.810191,0.0138 -1.232598,5.26e-4 H 36.29179 L 7.714835,11.881029 7.6892,26.591395 c -0.01391,8.09069 -0.00415,14.741181 0.021765,14.778848 0.037626,0.05457 6.096345,0.06848 29.835412,0.06848 H 67.334616 V 28.070656 c 0,-4.595485 -0.01158,-8.058958 -0.03108,-10.359169 l 0.0022,0.0044 0.0165,-3.516548 1.88e-4,-1.08e-4 c 0.0081,-0.009 0.01244,-0.01808 0.01244,-0.02728 0,-0.005 -0.0081,-0.01578 -0.01244,-0.02386 l 0.0084,-1.774592 -0.0027,0.0013 c 0.0037,-0.04634 0.0066,-0.0933 0.0066,-0.159653 z m -32.065274,0.776115 1.31093,0.0074 c -1.88e-4,1.9e-5 -2.26e-4,9.1e-5 -3.76e-4,1.08e-4 -0.04694,0.005 0.856312,0.0088 2.131383,0.01199 l 0.216765,0.0013 -0.0022,-6.39e-4 c 2.092405,0.0047 5.330205,0.0069 9.190149,0.0048 l 11.75991,-0.0064 v 1.546876 1.546776 2.425404 11.224958 11.224846 h 0.348057 0.348058 V 29.245793 17.874666 l 2.26e-4,-1.63805 v -6.39e-4 -0.677242 -1.441695 -1.441696 h 0.79557 v 0.438298 1.020303 c 0,0.116769 0.0019,0.189734 0.0027,0.281534 h -0.0015 l 0.003,1.919372 -0.0043,-0.0026 v 0.328294 c 0,0.02828 0.0034,0.04969 0.0048,0.0748 l 0.0027,1.762928 0.0043,-0.0077 c -0.0081,0.469608 -0.01165,1.081673 -0.01165,2.10995 v 3.141809 h 2.237604 2.237641 V 23.550618 23.358863 15.41857 h 1.89e-4 c 0,-4.13e-4 -1.89e-4,-6.39e-4 -1.89e-4,-0.0011 v -2.742093 h 0.795759 v 0.07105 l -1.87e-4,1.08e-4 1.87e-4,0.0259 v 0.04537 0.142427 l 0.0015,-7.52e-4 0.0064,0.854766 c -0.003,0.04845 -0.0078,0.09075 -0.0078,0.148632 0,0.07067 0.004,0.126998 0.0103,0.175597 l 0.01691,2.262756 0.0012,0.0021 c -0.02676,1.614132 -0.02838,4.865901 -0.02838,11.530352 v 13.12155 H 37.500294 8.361598 V 26.865332 12.675447 h 13.525307 c 8.394953,0 12.61175,-0.0143 13.383152,-0.04591 z m 26.794458,0.04591 h 1.541451 1.516606 v 10.683504 h -1.168699 -1.889547 v -3.303926 -2.776599 l 3.76e-4,-6.39e-4 v -2.876456 h -1.87e-4 V 14.1273 14.03485 13.113742 Z m -0.696341,25.092539 v 1.20532 l 1.87e-4,1.205317 h 2.243844 2.244032 l -0.03127,-0.178058 -0.03127,-0.178058 -1.864701,-0.01485 -1.864664,-0.015 v -1.01228 -1.012386 H 61.71571 Z m 1.839819,0.82181 c -0.329678,0 -0.348058,0.0099 -0.348058,0.186297 0,0.17636 0.01849,0.186298 0.348058,0.186298 0.329639,0 0.348057,-0.0099 0.348057,-0.186298 0,-0.176359 -0.01853,-0.186297 -0.348057,-0.186297 z m 1.485521,0 c -0.277882,0 -0.350501,0.02068 -0.336594,0.09588 0.04623,0.250345 3.77e-4,0.287632 -0.353319,0.287632 -0.331557,0 -0.348096,0.0091 -0.348096,0.191755 0,0.182625 0.01658,0.191755 0.348096,0.191755 0.331519,0 0.348058,-0.0091 0.348058,-0.191755 0,-0.182625 0.01657,-0.191755 0.348057,-0.191755 0.331557,0 0.348096,-0.0091 0.348096,-0.191754 0,-0.183265 -0.01564,-0.191756 -0.354298,-0.191756 z" />
    <path
       style="fill:#201a2c;fill-opacity:1;stroke-width:10.9002;stroke-linecap:round;stroke-linejoin:round;stop-color:#000000"
       d="M 8.3616022,12.675446 V 41.055233 H 59.85451 l 0.02154,-28.407171 z"
       id="path4254" />
    <path
       style="font-size:3.71225px;font-family:OffBit;-inkscape-font-specification:'OffBit, Normal';white-space:pre;fill:#ea95ff;stroke-width:0.423529;stroke-linecap:round;stroke-linejoin:round"
       d="m 14.482854,20.627724 h 1.993479 v 0.400923 h -0.794422 v 2.197652 h -0.400923 v -2.197652 h -0.798134 z m 2.193939,0 h 0.400923 v 0.798134 h 0.200461 v -0.200461 h 0.597672 v 0.200461 h 0.200462 v 0.200462 h 0.200461 v 1.599979 H 17.875849 V 21.826781 H 17.675388 V 21.62632 h -0.196749 v 0.200461 h -0.200462 v 0.200462 h -0.200461 v 1.199056 h -0.400923 z m 1.800443,0 h 0.400923 v 0.400923 h -0.400923 z m 0,0.597673 h 0.400923 v 2.000902 h -0.400923 z m 0.801849,1.599979 h -0.196749 v -0.400923 h 0.39721 v 0.200462 h 0.200462 v 0.200461 h 0.601384 V 22.624915 H 20.080931 V 22.428166 H 19.680008 V 22.227704 H 19.279085 V 22.027243 H 19.078623 V 21.62632 h 0.200462 v -0.200462 h 0.200461 v -0.196749 h 0.801846 v 0.196749 h 0.200462 v 0.200462 h 0.196749 v 0.39721 h -0.397211 v -0.200461 h -0.200461 v -0.200462 h -0.601385 v 0.204174 h 0.200462 v 0.200462 h 0.400923 v 0.200461 h 0.400923 v 0.200462 h 0.196749 v 0.39721 h -0.196749 v 0.200462 h -0.200462 v 0.200461 h -0.801846 v -0.200461 h -0.200461 z m 3.114577,-0.998595 v 0.798134 h 0.196749 v 0.200461 h 0.601385 v -0.200461 h 0.200461 v -0.196749 h 0.397211 v 0.39721 h -0.196749 v 0.200462 h -0.200462 v 0.200461 H 22.38995 V 23.025838 H 22.1932 V 22.624915 H 21.992739 V 21.826781 H 22.1932 v -0.400923 h 0.19675 v -0.196749 h 1.002307 v 0.196749 h 0.200462 v 0.200462 h 0.196749 v 0.400923 H 23.392257 V 21.826781 H 23.191796 V 21.62632 h -0.601385 v 0.200461 z m 1.796729,0.998595 H 23.98993 V 21.62632 h 0.200461 v -0.200462 h 0.200462 v -0.196749 h 0.801846 v 0.196749 h 0.200461 v 0.200462 h 0.200462 v 1.199056 H 25.39316 v 0.200462 h -0.200461 v 0.200461 h -0.801846 v -0.200461 h -0.200462 z m 0.200462,-0.200461 h 0.200461 v 0.200461 h 0.400923 v -0.200461 h 0.200462 v -0.801846 h -0.200462 v -0.200462 h -0.400923 v 0.200462 h -0.200461 z m 2.004615,-0.998595 v 0.200461 h -0.200462 v 1.399518 h -0.400923 v -1.99719 h 0.400923 v 0.196749 h 0.200462 v -0.196749 h 0.39721 v 0.196749 h 0.204174 v 0.200462 h 0.200462 v -0.200462 h 0.200461 v -0.196749 h 0.397211 v 0.196749 h 0.200461 v 0.200462 h 0.200462 v 1.599979 H 27.794986 V 21.826781 H 27.594524 V 21.62632 h -0.196749 v 0.200461 h -0.200461 v 1.399518 h -0.400923 v -1.40323 H 26.595929 V 21.62632 Z m 2.398114,0.200461 v 0.805558 h 0.204174 v 0.193037 h 0.397211 v -0.196749 h 0.200461 v -0.801846 h -0.200461 v -0.196749 h -0.397211 v 0.196749 z m 0.204174,1.199057 h -0.204174 v 1.002307 h -0.397211 v -2.799036 h 0.397211 v 0.200461 h 0.204174 v -0.200461 h 0.597672 v 0.200461 h 0.200462 v 0.19675 h 0.196749 v 1.202769 H 29.79589 v 0.196749 h -0.200462 v 0.200461 h -0.597672 z m 1.395803,-0.200462 h -0.200461 v -1.599979 h 0.400923 v 1.399518 h 0.200461 v 0.200461 h 0.400923 v -0.200461 h 0.200462 v -1.399518 h 0.393498 v 2.000902 h -0.400923 v -0.200461 h -0.193037 v 0.200461 h -0.601384 v -0.200461 h -0.200462 z m 1.997188,-0.998595 h -0.400923 v -0.400923 h 0.200461 v -0.196749 h 0.200462 v -0.400923 h 0.400923 v 0.400923 h -0.200462 v 0.196749 h 0.801846 v 0.400923 H 32.79167 v 0.998595 h 0.200461 v -0.200461 h 0.400923 v 0.400923 h -0.200461 v 0.200461 h -0.601385 v -0.200461 h -0.200461 z m 1.403228,0.998595 H 33.593513 V 21.62632 h 0.200462 v -0.200462 h 0.196749 v -0.196749 h 0.801846 v 0.196749 h 0.200461 v 0.200462 h 0.200462 v 0.801846 h -1.199057 v 0.196749 h 0.196749 v 0.200461 h 0.400923 v -0.200461 h 0.601385 v 0.200461 h -0.200462 v 0.200462 H 34.79257 v 0.200461 h -0.801846 v -0.200461 h -0.196749 z m 0.998595,-0.798133 v -0.204174 h -0.200462 v -0.200462 h -0.400923 v 0.200462 h -0.196749 v 0.204174 z m 1.603694,-0.601385 h 0.196749 v 0.397211 h -0.393498 v -0.200462 h -0.204174 v 0.200462 H 35.79488 v 1.40323 h -0.400923 v -1.99719 h 0.400923 v 0.196749 h 0.200461 v -0.196749 h 0.400923 z m 1.510886,-0.798134 h 0.400923 v 0.400923 H 37.90715 Z m 0,0.597673 h 0.400923 v 2.000902 H 37.90715 Z m 0.801848,1.599979 h -0.196749 v -0.400923 h 0.397211 v 0.200462 h 0.200461 v 0.200461 h 0.601385 V 22.624915 H 39.510844 V 22.428166 H 39.109921 V 22.227704 H 38.708998 V 22.027243 H 38.508537 V 21.62632 h 0.200461 v -0.200462 h 0.200462 v -0.196749 h 0.801846 v 0.196749 h 0.200461 v 0.200462 h 0.19675 v 0.39721 H 39.711306 V 21.823069 H 39.510844 V 21.622607 H 38.90946 v 0.204174 h 0.200461 v 0.200462 h 0.400923 v 0.200461 h 0.400923 v 0.200462 h 0.19675 v 0.39721 h -0.19675 v 0.200462 h -0.200461 v 0.200461 H 38.90946 v -0.200461 h -0.200462 z m 3.114578,-0.998595 v 1.399518 h -0.400923 v -1.99719 h 0.400923 v 0.196749 h 0.200461 v -0.196749 h 0.597673 v 0.196749 h 0.200461 v 0.200462 h 0.200462 v 1.599979 H 42.62171 V 21.826781 H 42.421248 V 21.62632 h -0.397211 v 0.200461 z m 1.599982,0.998595 H 43.223096 V 21.62632 h 0.200462 v -0.200462 h 0.200461 v -0.196749 h 0.801846 v 0.196749 h 0.200462 v 0.200462 h 0.200461 v 1.199056 h -0.200461 v 0.200462 h -0.200462 v 0.200461 h -0.801846 v -0.200461 h -0.200461 z m 0.200461,-0.200461 h 0.200462 v 0.200461 h 0.400923 v -0.200461 h 0.200461 v -0.801846 h -0.200461 v -0.200462 h -0.400923 v 0.200462 h -0.200462 z m 1.804154,-0.798134 H 45.02725 v -0.400923 h 0.200461 v -0.196749 h 0.200462 v -0.400923 h 0.400923 v 0.400923 h -0.200462 v 0.196749 h 0.801846 v 0.400923 h -0.601384 v 0.998595 h 0.200461 v -0.200461 h 0.400923 v 0.400923 h -0.200461 v 0.200461 h -0.601385 v -0.200461 h -0.200461 z m 2.5169,0.998595 H 47.744611 V 21.62632 h 0.200462 v -0.200462 h 0.200461 v -0.196749 h 0.801846 v 0.196749 h 0.200462 v 0.200462 h 0.200461 v 1.199056 h -0.200461 v 0.200462 H 48.94738 v 0.200461 h -0.801846 v -0.200461 h -0.200461 z m 0.200461,-0.200461 h 0.200462 v 0.200461 h 0.400923 v -0.200461 h 0.200461 v -0.801846 h -0.200461 v -0.200462 h -0.400923 v 0.200462 h -0.200462 z m 1.403231,-1.997191 h 0.400923 v 2.197652 h 0.200461 v 0.400923 h -0.400923 v -0.200461 h -0.200461 z m 2.000904,1.199057 H 51.35292 V 21.62632 h -0.601384 v 0.200461 h -0.200462 v 0.798134 h 0.200462 v 0.200461 h 0.601384 v -0.200461 h 0.196749 z m -1.199056,0.998595 h -0.19675 V 21.62632 h 0.19675 v -0.200462 h 0.200461 v -0.196749 h 0.801846 v 0.196749 h 0.196749 v -0.798134 h 0.400923 v 2.598575 H 51.549669 V 23.025838 H 51.35292 v 0.200461 h -0.801846 v -0.200461 h -0.200461 z m 1.800439,0 h 0.400923 v 0.400923 h -0.400923 z m 0.601387,0 h 0.400923 v 0.400923 h -0.400923 z m 0.601387,0 h 0.400923 v 0.400923 h -0.400923 z"
       id="text4117"
       aria-label="This computer is not old..." />
    <path
       style="font-size:3.71225px;font-family:OffBit;-inkscape-font-specification:'OffBit, Normal';white-space:pre;fill:#ea95ff;stroke-width:0.423529;stroke-linecap:round;stroke-linejoin:round"
       d="m 20.067955,29.472855 h 0.400923 v 2.598575 h -0.400923 z m 0.601387,0 h 1.993478 v 0.400923 h -0.794422 v 2.197652 h -0.400923 v -2.197652 h -0.798133 z m 2.193938,0 h 0.400923 V 30.07424 H 22.86328 Z m 0.801848,0.998595 h -0.200461 v -0.597672 h 0.200461 v -0.200461 h 0.19675 v -0.200462 h 1.202769 v 0.200462 h 0.196749 v 0.200461 h 0.200461 v 0.400923 H 25.060934 V 30.07424 h -0.196749 v -0.200462 h -0.801846 v 0.200462 h -0.200461 v 0.196749 h 0.200461 v 0.200461 h 1.002308 v 0.200462 h 0.196749 v 0.200461 h 0.200461 v 0.798134 h -0.200461 v 0.200462 h -0.196749 v 0.200461 h -1.202769 v -0.200461 h -0.19675 v -0.200462 h -0.200461 v -0.397211 h 0.397211 v 0.19675 h 0.200461 v 0.200461 h 0.801846 v -0.200461 h 0.200462 v -0.397211 h -0.19675 v -0.200462 h -1.006019 v -0.200461 h -0.19675 z m 3.311328,0 h -0.200461 v -0.597672 h 0.200461 v -0.200461 h 0.19675 v -0.200462 h 1.202769 v 0.200462 h 0.196749 v 0.200461 h 0.200461 v 0.400923 H 28.372262 V 30.07424 h -0.196749 v -0.200462 h -0.801846 v 0.200462 h -0.200461 v 0.196749 h 0.200461 v 0.200461 h 1.002308 v 0.200462 h 0.196749 v 0.200461 h 0.200461 v 0.798134 h -0.200461 v 0.200462 h -0.196749 v 0.200461 h -1.202769 v -0.200461 h -0.19675 v -0.200462 h -0.200461 v -0.397211 h 0.397211 v 0.19675 h 0.200461 v 0.200461 h 0.801846 v -0.200461 h 0.200462 v -0.397211 h -0.19675 v -0.200462 h -1.006019 v -0.200461 h -0.19675 z m 1.997195,-0.998595 h 0.400923 v 1.997191 h 0.200461 v 0.200461 h 0.597672 v -0.200461 h 0.19675 v -1.997191 h 0.400923 v 2.197652 h -0.200462 v 0.200462 h -0.196749 v 0.200461 h -1.002308 v -0.200461 h -0.196749 v -0.200462 h -0.200461 z m 2.197651,0.998595 h -0.200461 v -0.597672 h 0.200461 v -0.200461 h 0.19675 v -0.200462 h 1.202769 v 0.200462 h 0.196749 v 0.200461 h 0.200461 v 0.400923 H 32.567108 V 30.07424 h -0.196749 v -0.200462 h -0.801846 v 0.200462 h -0.200461 v 0.196749 h 0.200461 v 0.200461 h 1.002308 v 0.200462 h 0.196749 v 0.200461 h 0.200461 v 0.798134 H 32.76757 v 0.200462 h -0.196749 v 0.200461 h -1.202769 v -0.200461 h -0.19675 v -0.200462 h -0.200461 v -0.397211 h 0.397211 v 0.19675 h 0.200461 v 0.200461 h 0.801846 v -0.200461 h 0.200462 v -0.397211 h -0.19675 v -0.200462 h -1.006019 v -0.200461 h -0.19675 z m 1.800448,-0.998595 h 1.993478 v 0.400923 H 34.170807 V 32.07143 H 33.769884 V 29.873778 H 32.97175 Z m 2.193939,1.199057 v 0.400923 h 0.798134 V 30.671912 H 35.763362 V 30.07424 h -0.397211 v 0.597672 z m -0.400923,0.998595 v 0.400923 h -0.400923 v -0.601384 h 0.200462 v -0.397211 h 0.200461 v -0.400923 h 0.200462 V 30.07424 h 0.200461 v -0.400923 h 0.200462 v -0.200462 h 0.400923 v 0.200462 h 0.196749 v 0.400923 h 0.200462 v 0.597672 h 0.200461 v 0.400923 h 0.200462 v 0.397211 h 0.200461 v 0.601384 h -0.400923 v -0.400923 h -0.200461 v -0.196749 h -1.199057 v 0.196749 z m 2.201365,-2.197652 h 0.400923 v 2.598575 h -0.400923 z m 0.601387,0 h 0.400923 v 0.200462 h 0.196749 v 0.400923 h 0.200462 v 0.196749 h 0.200461 v 0.400923 h 0.200462 v 0.200461 h 0.200461 v 0.400923 h 0.200462 v -0.200461 h -0.0037 v -1.59998 h 0.400923 V 32.07143 H 39.163785 V 31.870969 H 38.967036 V 31.670507 H 38.766575 V 31.473758 H 38.566113 V 31.072835 H 38.365652 V 30.872373 H 38.16519 V 30.47145 h -0.196749 v 1.59998 h -0.400923 z m 2.999502,1.199057 v 0.400923 h 0.798134 V 30.671912 H 41.164693 V 30.07424 h -0.397211 v 0.597672 z m -0.400923,0.998595 v 0.400923 h -0.400923 v -0.601384 h 0.200462 v -0.397211 h 0.200461 v -0.400923 h 0.200462 V 30.07424 h 0.200461 v -0.400923 h 0.200462 v -0.200462 h 0.400923 v 0.200462 h 0.196749 v 0.400923 h 0.200462 v 0.597672 h 0.200461 v 0.400923 h 0.200462 v 0.397211 H 42.167 v 0.601384 h -0.400923 v -0.400923 h -0.200461 v -0.196749 h -1.199057 v 0.196749 z m 2.201365,-2.197652 h 1.399518 v 0.200462 h 0.200461 v 0.200461 h 0.200462 v 0.597672 h -0.200462 v 0.400923 h 0.200462 v 0.200462 h 0.200461 v 0.597672 h -0.200461 v 0.200462 h -0.200462 v 0.200461 h -1.599979 z m 0.400923,0.400923 v 0.798134 h 0.798133 V 30.47145 h 0.200462 v -0.39721 h -0.200462 v -0.200462 z m 0,1.199057 v 0.597672 h 0.998595 v -0.200461 h 0.200461 v -0.19675 H 43.76698 v -0.200461 z m 1.800443,-1.59998 h 0.400923 v 2.197652 h 1.199057 v 0.400923 h -1.59998 z m 1.800444,0 h 1.800441 v 0.400923 h -1.399518 v 0.597672 h 1.199057 v 0.400923 h -1.199057 v 0.798134 h 1.399518 v 0.400923 h -1.800441 z"
       id="text4250"
       aria-label="IT'S SUSTAINABLE" />
    <path
       style="font-size:1.25421px;font-family:OffBit;-inkscape-font-specification:'OffBit, Normal';white-space:pre;fill:#ea95ff;stroke-width:0.143093;stroke-linecap:round;stroke-linejoin:round"
       d="m 25.041453,38.705549 h 0.608292 v 0.135455 h -0.472837 v 0.269655 h 0.40511 v 0.135455 h -0.40511 v 0.337382 h -0.135455 z m 0.807712,0.203182 v 0.132946 h -0.06773 v 0.205691 h 0.06773 v 0.132946 h 0.06773 v 0.06773 h 0.201928 v -0.06773 h 0.06773 v -0.132946 h 0.06773 v -0.205691 h -0.06773 v -0.132946 h -0.06773 v -0.06773 h -0.201928 v 0.06773 z m -0.135455,0.40511 h -0.06773 v -0.338637 h 0.06773 v -0.1342 h 0.06773 v -0.06773 h 0.06773 v -0.06773 h 0.337382 v 0.06773 h 0.06647 v 0.06773 h 0.06773 v 0.1342 h 0.06773 v 0.338637 h -0.06773 v 0.1342 h -0.06773 v 0.06773 h -0.06647 v 0.06773 h -0.337382 v -0.06773 h -0.06773 v -0.06773 h -0.06773 z m 0.810219,-0.270909 h -0.06773 v -0.201928 h 0.06773 v -0.06773 h 0.06647 v -0.06773 h 0.406364 v 0.06773 h 0.06647 v 0.06773 h 0.06773 v 0.135454 h -0.135455 v -0.06773 h -0.06647 v -0.06773 H 26.65813 v 0.06773 h -0.06773 v 0.06647 h 0.06773 v 0.06773 h 0.338637 v 0.06773 h 0.06647 v 0.06773 h 0.06773 v 0.269655 h -0.06773 v 0.06773 h -0.06647 v 0.06773 h -0.406364 v -0.06773 h -0.06647 v -0.06773 h -0.06773 v -0.1342 h 0.134201 v 0.06647 h 0.06773 v 0.06773 h 0.270909 v -0.06773 h 0.06773 v -0.1342 h -0.06647 v -0.06773 h -0.339891 v -0.06773 h -0.06647 z m 0.742494,0 h -0.06773 v -0.201928 h 0.06773 v -0.06773 h 0.06647 v -0.06773 h 0.406364 v 0.06773 h 0.06647 v 0.06773 h 0.06773 v 0.135454 h -0.135455 v -0.06773 h -0.06647 v -0.06773 h -0.270909 v 0.06773 h -0.06773 v 0.06647 h 0.06773 v 0.06773 h 0.338636 v 0.06773 h 0.06647 v 0.06773 h 0.06773 v 0.269655 h -0.06773 v 0.06773 h -0.06647 v 0.06773 h -0.406364 v -0.06773 h -0.06647 v -0.06773 h -0.06773 v -0.1342 h 0.1342 v 0.06647 h 0.06773 v 0.06773 h 0.270909 v -0.06773 h 0.06773 v -0.1342 h -0.06647 v -0.06773 h -0.339891 v -0.06773 h -0.06647 z m 0.741239,0.337382 h -0.06647 v -0.471583 h 0.06647 v -0.135455 h 0.06773 v -0.06773 h 0.406364 v 0.06773 h 0.06773 v 0.135455 h 0.06773 v 0.134201 h -0.135454 v -0.06773 h -0.06773 v -0.1342 h -0.270909 v 0.1342 h -0.06773 v 0.337383 h 0.06773 v 0.135454 h 0.270909 v -0.1342 h 0.06773 v -0.06773 h 0.135454 v 0.1342 h -0.06773 v 0.135455 h -0.06773 v 0.06773 h -0.40511 v -0.06773 h -0.06898 z m 0.880456,-0.471583 v 0.132946 h -0.06773 v 0.205691 h 0.06773 v 0.132946 h 0.06773 v 0.06773 h 0.201927 v -0.06773 h 0.06773 v -0.132946 h 0.06773 v -0.205691 h -0.06773 v -0.132946 h -0.06773 v -0.06773 h -0.201927 v 0.06773 z m -0.135454,0.40511 h -0.06773 v -0.338637 h 0.06773 v -0.1342 h 0.06773 v -0.06773 h 0.06773 v -0.06773 h 0.337383 v 0.06773 h 0.06647 v 0.06773 h 0.06773 v 0.1342 h 0.06773 v 0.338637 h -0.06773 v 0.1342 h -0.06773 v 0.06773 h -0.06647 v 0.06773 h -0.337383 v -0.06773 h -0.06773 v -0.06773 h -0.06773 z m 0.742492,-0.608292 h 0.135455 v 0.06773 h 0.06773 v 0.135455 h 0.06773 v 0.134201 h 0.06773 v 0.135454 h 0.135454 v -0.135454 h 0.06773 v -0.134201 h 0.06773 v -0.135455 h 0.06773 v -0.06773 h 0.135455 v 0.877947 h -0.135455 v -0.540564 h -0.06773 v 0.135454 h -0.06773 v 0.135455 h -0.06773 v 0.132946 h -0.135454 v -0.132946 h -0.06773 v -0.135455 h -0.06773 v -0.135454 h -0.06773 v 0.540564 h -0.135455 z m 0.880455,0 h 0.135455 v 0.06773 h 0.06773 v 0.135455 h 0.06773 v 0.134201 h 0.06773 v 0.135454 h 0.135454 v -0.135454 h 0.06773 v -0.134201 h 0.06773 v -0.135455 h 0.06773 v -0.06773 h 0.135455 v 0.877947 h -0.135455 v -0.540564 h -0.06773 v 0.135454 h -0.06773 v 0.135455 h -0.06773 v 0.132946 h -0.135454 v -0.132946 h -0.06773 v -0.135455 h -0.06773 v -0.135454 h -0.06773 v 0.540564 h -0.135455 z m 1.390917,0 h 0.406364 v 0.06773 h 0.06647 v 0.06773 h 0.06773 v 0.201928 h -0.06773 v 0.06773 h -0.06647 v 0.06773 h -0.06773 v 0.06773 h -0.06773 v 0.06773 h -0.06773 v 0.06647 h -0.06773 v 0.06773 h 0.40511 v 0.135455 h -0.674765 v -0.135455 h 0.06647 v -0.06773 h 0.06773 v -0.06773 h 0.06773 v -0.06647 h 0.06773 v -0.06773 h 0.06773 v -0.06773 h 0.06773 v -0.06773 h 0.06773 v -0.06773 h 0.06647 v -0.06647 h -0.06647 v -0.06773 h -0.272164 v 0.06773 h -0.06773 v 0.134201 h -0.132946 v -0.201928 h 0.06647 v -0.06773 h 0.06773 z m 1.216585,0.337383 h -0.06773 v 0.06773 h -0.06773 v 0.06773 h -0.06773 v 0.06773 h -0.06773 v 0.06773 h -0.06647 v 0.06773 h -0.06773 v 0.06647 h 0.337383 v -0.06773 h 0.06773 z m -0.40511,-0.201928 v 0.06773 h -0.06773 v 0.338637 h 0.06773 v -0.06773 h 0.06773 v -0.06773 h 0.06647 v -0.06773 h 0.06773 v -0.06773 h 0.06773 v -0.06773 h 0.06773 v -0.06773 z m -0.135454,0 v -0.06773 h 0.06773 v -0.06773 h 0.472837 v 0.06773 h 0.06773 v 0.06773 h 0.06773 v 0.607037 h -0.06773 v 0.06773 h -0.06773 v 0.06773 h -0.472837 v -0.06773 h -0.06773 v -0.06773 h -0.06773 v -0.607037 z m 0.877946,-0.135455 h 0.406364 v 0.06773 h 0.06647 v 0.06773 h 0.06773 v 0.201928 h -0.06773 v 0.06773 h -0.06647 v 0.06773 h -0.06773 v 0.06773 h -0.06773 v 0.06773 h -0.06773 v 0.06647 h -0.06773 v 0.06773 h 0.40511 v 0.135455 h -0.674765 v -0.135455 h 0.06647 v -0.06773 h 0.06773 v -0.06773 h 0.06773 v -0.06647 h 0.06773 v -0.06773 h 0.06773 v -0.06773 h 0.06773 v -0.06773 h 0.06773 v -0.06773 h 0.06647 v -0.06647 h -0.06647 v -0.06773 h -0.272163 v 0.06773 h -0.06773 v 0.134201 h -0.132946 v -0.201928 h 0.06647 v -0.06773 h 0.06773 z m 0.811476,0.472837 v 0.06898 h 0.270909 v -0.27091 h -0.06773 v 0.06773 h -0.06773 v 0.06647 h -0.06773 v 0.06773 z m 0.270909,-0.472837 h 0.135455 v 0.541819 h 0.1342 v 0.132946 h -0.1342 v 0.203182 H 34.40288 v -0.203182 h -0.540564 v -0.1342 h 0.06773 v -0.06773 h 0.06773 v -0.06773 h 0.06773 v -0.06773 h 0.06647 v -0.06773 h 0.06773 v -0.06647 h 0.06773 v -0.06773 h 0.06773 v -0.06773 h 0.06773 z m 0.713645,-0.06773 h 0.135455 v 1.013401 h -0.135455 z m 0.579445,0.06773 h 0.673511 v 0.135455 H 36.10108 v 0.742492 H 35.965625 V 38.841004 H 35.69597 Z m 0.741238,0 h 0.132946 v 0.40511 h 0.338637 v -0.40511 h 0.135454 v 0.877947 h -0.135454 v -0.337382 h -0.338637 v 0.337382 h -0.132946 z m 0.674765,0 h 0.608292 v 0.135455 h -0.472837 v 0.201928 h 0.40511 v 0.135454 h -0.40511 v 0.269655 h 0.472837 v 0.135455 h -0.608292 z m 0.743746,0.337383 h -0.06773 v -0.201928 h 0.06773 v -0.06773 h 0.06647 v -0.06773 h 0.406364 v 0.06773 h 0.06647 v 0.06773 h 0.06773 v 0.135454 h -0.135455 v -0.06773 h -0.06647 v -0.06773 H 37.98992 v 0.06773 h -0.06773 v 0.06647 h 0.06773 v 0.06773 h 0.338637 v 0.06773 h 0.06647 v 0.06773 h 0.06773 v 0.269655 h -0.06773 v 0.06773 h -0.06647 v 0.06773 h -0.406364 v -0.06773 h -0.06647 v -0.06773 h -0.06773 v -0.1342 h 0.134201 v 0.06647 h 0.06773 v 0.06773 h 0.270909 v -0.06773 h 0.06773 v -0.1342 h -0.06647 v -0.06773 h -0.339891 v -0.06773 h -0.06647 z m 0.742493,0 h -0.06773 v -0.201928 h 0.06773 v -0.06773 h 0.06647 v -0.06773 h 0.406364 v 0.06773 h 0.06647 v 0.06773 h 0.06773 v 0.135454 h -0.135455 v -0.06773 h -0.06647 v -0.06773 h -0.270909 v 0.06773 h -0.06773 v 0.06647 h 0.06773 v 0.06773 h 0.338636 v 0.06773 h 0.06647 v 0.06773 h 0.06773 v 0.269655 h -0.06773 v 0.06773 h -0.06647 v 0.06773 h -0.406364 v -0.06773 h -0.06647 v -0.06773 h -0.06773 v -0.1342 h 0.1342 v 0.06647 h 0.06773 v 0.06773 h 0.270909 v -0.06773 h 0.06773 v -0.1342 h -0.06647 v -0.06773 h -0.339891 v -0.06773 h -0.06647 z m 0.945676,0.06773 v 0.135455 h 0.269655 v -0.135455 h -0.06773 v -0.201928 h -0.134201 v 0.201928 z m -0.135455,0.337382 v 0.135455 h -0.135455 v -0.203182 h 0.06773 v -0.1342 h 0.06773 v -0.135455 h 0.06773 v -0.201928 h 0.06773 v -0.135455 h 0.06773 v -0.06773 h 0.135455 v 0.06773 h 0.06647 v 0.135455 h 0.06773 v 0.201928 h 0.06773 v 0.135455 h 0.06773 v 0.1342 h 0.06773 v 0.203182 h -0.135454 v -0.135455 h -0.06773 v -0.06647 h -0.40511 v 0.06647 z m 0.743747,-0.742492 h 0.135455 v 0.742492 h 0.40511 v 0.135455 H 40.15218 Z m 0.679783,0.203182 v 0.132946 h -0.06773 v 0.205691 h 0.06773 v 0.132946 h 0.06773 v 0.06773 h 0.201928 v -0.06773 h 0.06773 v -0.132946 h 0.06773 v -0.205691 h -0.06773 v -0.132946 h -0.06773 v -0.06773 H 40.89969 v 0.06773 z m -0.135455,0.40511 h -0.06773 v -0.338637 h 0.06773 v -0.1342 h 0.06773 v -0.06773 h 0.06773 v -0.06773 h 0.337382 v 0.06773 h 0.06647 v 0.06773 h 0.06773 v 0.1342 h 0.06773 v 0.338637 h -0.06773 v 0.1342 h -0.06773 v 0.06773 h -0.06647 v 0.06773 h -0.337382 v -0.06773 h -0.06773 v -0.06773 h -0.06773 z m 0.742494,-0.608292 h 0.135454 v 0.06773 h 0.06647 v 0.135455 h 0.06773 v 0.06647 h 0.06773 v 0.135455 h 0.06773 v 0.06773 h 0.06773 v 0.135455 h 0.06773 v -0.06773 h -0.0013 v -0.540565 h 0.135455 v 0.877947 h -0.135455 v -0.06773 h -0.06647 v -0.06773 h -0.06773 v -0.06647 h -0.06773 v -0.135454 h -0.06773 v -0.06773 h -0.06773 v -0.135454 h -0.06647 v 0.540564 h -0.135454 z m 0.742492,0 h 0.135455 v 0.877947 h -0.135455 z m 0.203183,0 h 0.135454 v 0.337383 h 0.06773 v -0.06773 h 0.06647 v -0.06647 h 0.06773 v -0.06773 h 0.06773 v -0.06773 h 0.06773 v -0.06773 h 0.135454 v 0.135455 h -0.06773 v 0.06773 h -0.06773 v 0.06773 h -0.06773 v 0.06647 h -0.06773 v 0.06773 h -0.06647 v 0.06773 h 0.06647 v 0.06773 h 0.06773 v 0.06647 h 0.06773 v 0.06773 h 0.06773 v 0.06773 h 0.06773 v 0.135455 h -0.135454 v -0.06773 h -0.06773 v -0.06773 h -0.06773 v -0.06773 h -0.06773 v -0.06647 h -0.06647 v -0.06773 h -0.06773 v 0.337382 h -0.135454 z m 0.676019,0 h 0.135455 v 0.877947 h -0.135455 z"
       id="text4396"
       aria-label="FOSSCOMM 2024 | THESSALONIKI" />
  </g>
</svg>
