<?xml version="1.0" encoding="UTF-8" standalone="no"?>
<!-- Created with Inkscape (http://www.inkscape.org/) -->

<svg
   width="32.000401mm"
   height="32.000401mm"
   viewBox="0 0 32.000401 32.000401"
   version="1.1"
   id="svg5"
   xml:space="preserve"
   inkscape:version="1.2 (dc2aedaf03, 2022-05-15)"
   sodipodi:docname="stickers.svg"
   xmlns:inkscape="http://www.inkscape.org/namespaces/inkscape"
   xmlns:sodipodi="http://sodipodi.sourceforge.net/DTD/sodipodi-0.dtd"
   xmlns="http://www.w3.org/2000/svg"
   xmlns:svg="http://www.w3.org/2000/svg"><sodipodi:namedview
     id="namedview7"
     pagecolor="#ffffff"
     bordercolor="#000000"
     borderopacity="0.25"
     inkscape:showpageshadow="2"
     inkscape:pageopacity="0.0"
     inkscape:pagecheckerboard="0"
     inkscape:deskcolor="#d1d1d1"
     inkscape:document-units="mm"
     showgrid="false"
     inkscape:zoom="0.70710678"
     inkscape:cx="2894.188"
     inkscape:cy="3291.5821"
     inkscape:window-width="1920"
     inkscape:window-height="991"
     inkscape:window-x="-9"
     inkscape:window-y="-9"
     inkscape:window-maximized="1"
     inkscape:current-layer="layer1" /><defs
     id="defs2" /><g
     inkscape:label="Layer 1"
     inkscape:groupmode="layer"
     id="layer1"
     transform="translate(-49.718,-5.2404741)"><g
       id="g2081"
       transform="matrix(0.30328801,0,0,0.30328801,44.095348,-73.541354)"><rect
         style="opacity:1;fill:#201a2c;fill-opacity:1;stroke-width:1.221;stroke-linecap:round;stroke-linejoin:round;stop-color:#000000"
         id="rect2075"
         width="105.5116"
         height="105.5116"
         x="18.53898"
         y="259.75912"
         ry="16.923273" /><path
         style="opacity:1;fill:#ea95ff;fill-opacity:1;stroke-width:0.182823"
         d="m 71.744321,344.17984 c 0,-0.1008 -0.121323,-0.18252 -0.274322,-0.18252 -0.232119,0 -0.274321,-0.58909 -0.274321,-4.20491 0,-3.61587 0.05273,-4.20496 0.274321,-4.20496 0.147681,0 0.274322,-0.0824 0.274322,-0.18252 0,-0.10081 0.284868,-0.18253 0.639355,-0.18253 0.625139,0 0.639906,-0.0155 0.639906,-0.73132 0,-0.71384 0.05273,-0.73125 0.640423,-0.73125 0.609302,0 0.639889,-0.0317 0.639889,-0.6399 v -0.63988 h 3.747591 3.748106 v -0.82271 c 0,-0.81836 0.0034,-0.82268 0.639373,-0.82268 h 0.639889 v -1.37117 -1.37116 h -0.639889 -0.639373 v -0.91408 -0.91412 h -2.833895 c -2.397107,0 -2.833896,0.0423 -2.833896,0.27431 0,0.15096 -0.121322,0.27432 -0.274321,0.27432 -0.189918,0 -0.274323,0.19307 -0.274323,0.63984 0,0.60945 -0.05273,0.63991 -0.639888,0.63991 -0.60982,0 -0.63989,0.0317 -0.63989,0.63983 v 0.63989 h -1.554117 -1.5541 v -1.27972 c 0,-1.01567 0.05806,-1.27975 0.274304,-1.27975 0.147681,0 0.274323,-0.12343 0.274323,-0.27432 0,-0.19149 0.19519,-0.27431 0.639371,-0.27431 0.60982,0 0.640423,-0.0317 0.640423,-0.6399 0,-0.60941 0.05273,-0.6399 0.639889,-0.6399 0.609302,0 0.639907,-0.0317 0.639907,-0.6399 v -0.63985 h 4.387478 4.387997 v 0.63985 0.6399 h 0.913693 0.914746 v 0.6399 c 0,0.60941 0.05273,0.6399 0.639355,0.6399 h 0.639907 v 3.10794 3.10802 h -0.639907 c -0.609285,0 -0.639355,0.0317 -0.639355,0.63988 v 0.63992 h -0.914746 -0.913693 v 0.9141 0.9141 h -3.748108 -3.747589 v 0.63989 c 0,0.60937 -0.05273,0.63984 -0.639888,0.63984 h -0.63989 v 2.28531 2.28527 h 5.941579 5.941597 v 1.4626 1.46258 h -7.221393 c -4.692388,0 -7.221373,-0.0644 -7.221373,-0.18252 z m 26.508984,-2.83379 v -3.0166 h -4.478741 -4.479276 v -2.92516 -2.92515 h 0.639906 c 0.636202,0 0.639891,-0.003 0.639891,-0.82276 v -0.82267 h 0.731167 0.731153 v -0.73131 -0.73128 h 0.822947 c 0.818211,0 0.822415,-0.003 0.822415,-0.63989 0,-0.62464 0,-0.63984 0.731686,-0.63984 h 0.731169 v -0.91412 -0.9141 h 0.639889 c 0.609303,0 0.639908,-0.0317 0.639908,-0.6399 v -0.63988 h 0.914209 0.913677 v -0.6399 -0.63989 h 1.462855 1.46232 v 5.75894 5.75892 h 1.37104 1.37159 v 1.55404 1.55395 h -1.37159 -1.37104 v 2.7554 c 0,2.14429 -0.0581,2.81334 -0.25851,3.0166 -0.17408,0.17356 -0.66521,0.26112 -1.462312,0.26112 h -1.201715 z m 0,-9.04976 v -2.92517 h -0.913677 -0.914209 v 0.91416 0.91407 h -0.639908 c -0.609818,0 -0.639889,0.0317 -0.639889,0.63988 0,0.62466 -0.05273,0.63991 -0.731169,0.63991 -0.714264,0 -0.731686,0.0155 -0.731686,0.63984 0,0.63653 -0.0034,0.6399 -0.822415,0.6399 h -0.822947 v 0.73131 0.73127 h 3.108217 3.107683 z"
         id="path2077"
         sodipodi:nodetypes="csssssssscccsscccccccsssssscccssssssscccccccsscccsscccccccsscccccccsccccccccsscccccssscccsscccccccccccccccscsccccccccssssscccccc" /><path
         style="fill:#ea95ff;fill-opacity:1;stroke-width:0.407669"
         d="m 50.872485,338.54375 c -3.66334,-1.75056 -6.10929,-5.80572 -7.593934,-12.59005 -1.067749,-4.87928 -1.535306,-22.9715 -0.754051,-29.17833 1.147405,-9.11575 4.099693,-14.59433 9.152766,-16.98482 4.239012,-2.00537 12.498929,-2.15702 16.66849,-0.30605 2.211768,0.98187 4.638421,3.68988 4.991087,5.5698 0.472708,2.51973 -0.0034,5.66195 -1.154652,7.62711 l -1.071459,1.82831 -2.772742,-0.58706 c -4.753161,-1.00638 -10.962918,0.43955 -15.67249,3.64933 -1.846288,1.2583 -2.564412,2.36766 -1.532671,2.36766 0.246142,0 1.943058,-0.73225 3.770949,-1.62724 6.795971,-3.32755 13.990424,-3.05695 17.468302,0.65699 3.889514,4.15348 3.197345,12.74692 -1.288446,15.99639 -2.923606,2.11786 -8.323775,2.65715 -14.891295,1.48715 -2.037944,-0.36306 -3.401641,-0.43661 -3.641845,-0.19641 -0.604459,0.60447 -0.114635,0.83974 3.92595,1.8855 4.037903,1.04507 4.192486,1.15807 6.609075,4.83095 1.734333,2.63593 2.41112,4.76151 2.401357,7.54189 -0.0093,2.63603 -0.782688,4.64837 -2.404015,6.2548 -1.891288,1.8739 -3.385396,2.43801 -6.894011,2.60286 -2.799992,0.13155 -3.552067,0.0143 -5.316365,-0.82878 z"
         id="path2079"
         sodipodi:nodetypes="ssssssccssssssssssssss" /></g></g></svg>
