<?xml version="1.0" encoding="UTF-8" standalone="no"?>
<!-- Created with Inkscape (http://www.inkscape.org/) -->

<svg
   width="96.973755mm"
   height="26.231981mm"
   viewBox="0 0 96.973755 26.231981"
   version="1.1"
   id="svg5"
   xml:space="preserve"
   sodipodi:docname="logo_dark_pink_stroke.svg"
   inkscape:version="1.3.2 (091e20e, 2023-11-25, custom)"
   inkscape:export-filename="logo_dark_pink_stroke.pdf"
   inkscape:export-xdpi="500"
   inkscape:export-ydpi="500"
   xmlns:inkscape="http://www.inkscape.org/namespaces/inkscape"
   xmlns:sodipodi="http://sodipodi.sourceforge.net/DTD/sodipodi-0.dtd"
   xmlns="http://www.w3.org/2000/svg"
   xmlns:svg="http://www.w3.org/2000/svg"><sodipodi:namedview
     id="namedview7"
     pagecolor="#ffffff"
     bordercolor="#000000"
     borderopacity="0.25"
     inkscape:showpageshadow="2"
     inkscape:pageopacity="0.0"
     inkscape:pagecheckerboard="0"
     inkscape:deskcolor="#d1d1d1"
     inkscape:document-units="mm"
     showgrid="false"
     inkscape:zoom="1.4142136"
     inkscape:cx="191.97949"
     inkscape:cy="109.9551"
     inkscape:window-width="1920"
     inkscape:window-height="991"
     inkscape:window-x="-9"
     inkscape:window-y="-9"
     inkscape:window-maximized="1"
     inkscape:current-layer="layer1" /><defs
     id="defs2" /><g
     inkscape:label="Layer 1"
     inkscape:groupmode="layer"
     id="layer1"
     transform="translate(-1370.831,32.063927)"><path
       style="fill:#ea95ff;fill-opacity:1;stroke-width:0.0743951"
       d="m 1442.1509,-5.8815411 c -0.027,-0.027276 -0.05,-0.7470476 -0.05,-1.5994907 V -9.030925 h 0.2976 c 0.2905,0 0.2976,-0.00618 0.2976,-0.2603821 0,-0.2479846 0.012,-0.2603815 0.2604,-0.2603815 0.248,0 0.2604,-0.012399 0.2604,-0.2603846 v -0.2603818 h 1.3019 1.3019 v -0.260382 c 0,-0.238096 0.019,-0.260382 0.2171,-0.260382 0.4174,0 0.4524,-0.04665 0.4524,-0.603117 v -0.512806 h -0.3347 -0.3348 v -0.297579 -0.297582 h -1.0415 -1.0416 v 0.297582 c 0,0.290493 -0.01,0.297579 -0.2604,0.297579 -0.2479,0 -0.2603,0.0124 -0.2603,0.260381 v 0.260382 h -0.558 -0.558 v -0.520763 c 0,-0.501188 0.01,-0.520763 0.1799,-0.520763 0.3231,0 0.4153,-0.0761 0.4153,-0.34274 0,-0.238885 0.014,-0.252421 0.2604,-0.252421 0.248,0 0.2604,-0.0124 0.2604,-0.260382 v -0.260382 h 1.5623 1.5623 v 0.260382 c 0,0.247114 0.013,0.260382 0.2558,0.260382 0.242,0 0.2572,0.01515 0.279,0.278981 0.022,0.263833 0.038,0.280234 0.3021,0.30207 l 0.279,0.02308 v 0.99984 0.999842 h -0.2524 c -0.2741,0 -0.3428,0.09067 -0.3428,0.4524545 0,0.1985169 -0.022,0.2170996 -0.2604,0.2170996 -0.2479,0 -0.2603,0.012399 -0.2603,0.2603821 v 0.2603815 h -1.302 -1.3019 v 0.2231846 c 0,0.2054711 -0.021,0.2231852 -0.2604,0.2231852 h -0.2603 v 0.818345 0.818342 h 2.1202 2.1203 v 0.5128064 c 0,0.3989829 -0.026,0.5228273 -0.1177,0.5579604 -0.161,0.061783 -5.1272,0.057534 -5.1892,-0.00441 z m 7.4642,-0.2479821 c 0,-0.290493 -0.01,-0.297579 -0.2603,-0.297579 -0.248,0 -0.2604,-0.012399 -0.2604,-0.2603846 0,-0.2479814 -0.012,-0.2603814 -0.2604,-0.2603814 h -0.2604 v -2.6410204 -2.6410164 h 0.2604 c 0.2542,0 0.2604,-0.0071 0.2604,-0.297582 0,-0.290493 0.01,-0.297579 0.2604,-0.297579 0.2479,0 0.2603,-0.0124 0.2603,-0.260382 v -0.260382 h 1.5623 1.5623 v 0.260382 c 0,0.254182 0.01,0.260382 0.2976,0.260382 h 0.2976 v 0.297579 c 0,0.290496 0.01,0.297582 0.2604,0.297582 h 0.2604 v 2.6410164 2.6410204 h -0.2604 c -0.248,0 -0.2604,0.012399 -0.2604,0.2603814 0,0.2464213 -0.014,0.2603846 -0.2524,0.2603846 -0.2667,0 -0.3428,0.092195 -0.3428,0.4152572 v 0.1799002 h -1.5623 -1.5623 z m 2.7527,-1.0787265 c 0,-0.2397154 0.018,-0.2603821 0.2231,-0.2603821 h 0.2232 v -1.2586299 c 0,-0.6922451 -0.02,-1.3115843 -0.045,-1.3763053 -0.056,-0.146573 -0.3022,-0.15289 -0.4437,-0.01139 -0.058,0.05845 -0.1063,0.2091033 -0.1063,0.3347784 0,0.2115442 -0.019,0.2284992 -0.2604,0.2284992 -0.248,0 -0.2604,0.012399 -0.2604,0.2603821 0,0.2397148 -0.018,0.2603815 -0.2232,0.2603815 -0.1983,0 -0.2231,0.024799 -0.2231,0.2231846 0,0.1995406 -0.024,0.2231852 -0.2285,0.2231852 -0.2648,0 -0.4411,0.1465271 -0.4411,0.3666613 0,0.1400683 -0.044,0.1541022 -0.4836,0.1541022 h -0.4835 v 0.2975815 c 0,0.281045 0.012,0.2975784 0.2232,0.2975784 0.2054,0 0.2231,0.020663 0.2231,0.2603821 V -6.94786 h 1.1532 1.1531 z m -2.3063,-2.0830574 c 0,-0.2590041 0,-0.2603815 0.3348,-0.2603815 0.333,0 0.3348,-0.00139 0.3348,-0.2603846 0,-0.2479818 0.012,-0.2603818 0.2603,-0.2603818 0.248,0 0.2604,-0.0124 0.2604,-0.260382 0,-0.239715 0.018,-0.260382 0.2232,-0.260382 0.2108,0 0.2232,-0.01653 0.2232,-0.297578 v -0.297582 h 0.558 0.5579 v -0.260382 c 0,-0.239715 -0.018,-0.260381 -0.2232,-0.260381 -0.2041,0 -0.2231,-0.02154 -0.2231,-0.252422 0,-0.161548 -0.042,-0.268679 -0.1177,-0.297582 -0.065,-0.02483 -0.5837,-0.04516 -1.1531,-0.04516 h -1.0355 v 0.297581 c 0,0.281046 -0.012,0.297579 -0.2232,0.297579 h -0.2232 v 1.339109 1.3391085 h 0.2232 c 0.2055,0 0.2232,-0.020664 0.2232,-0.2603821 z m 4.9101,1.8598722 V -9.030925 h 0.2604 c 0.2479,0 0.2603,-0.012399 0.2603,-0.2603821 0,-0.2479846 0.013,-0.2603815 0.2604,-0.2603815 0.248,0 0.2604,-0.012399 0.2604,-0.2603846 v -0.2603818 h 1.27 c 1.3469,0 1.4826,-0.03312 1.4826,-0.361718 0,-0.107418 0.057,-0.15575 0.2046,-0.172702 0.1999,-0.023 0.2051,-0.03601 0.2264,-0.562904 l 0.022,-0.539363 h -0.2265 c -0.2078,0 -0.2264,-0.02075 -0.2264,-0.252422 0,-0.161548 -0.042,-0.268679 -0.1177,-0.297582 -0.1532,-0.05879 -1.9177,-0.05879 -2.0709,0 -0.075,0.0289 -0.1177,0.136034 -0.1177,0.297582 0,0.230873 -0.019,0.252422 -0.2232,0.252422 -0.2054,0 -0.2231,0.02066 -0.2231,0.260381 v 0.260382 h -0.5208 -0.5208 v -0.520763 -0.520763 h 0.2604 c 0.2542,0 0.2604,-0.0071 0.2604,-0.297582 0,-0.290493 0.01,-0.297579 0.2604,-0.297579 0.248,0 0.2604,-0.0124 0.2604,-0.260382 v -0.260382 h 1.5995 1.5994 v 0.260382 c 0,0.247982 0.013,0.260382 0.2604,0.260382 0.2542,0 0.2604,0.0071 0.2604,0.297579 0,0.290496 0.01,0.297582 0.2604,0.297582 h 0.2604 v 1.004329 1.004333 h -0.2604 c -0.259,0 -0.2604,0.0017 -0.2604,0.334776 0,0.3330071 0,0.3347784 -0.2604,0.3347784 -0.248,0 -0.2604,0.012399 -0.2604,0.2603815 v 0.2603821 h -1.3763 -1.3763 v 0.2231846 c 0,0.1983876 -0.025,0.2231845 -0.2232,0.2231845 h -0.2231 v 0.8183457 0.818342 h 2.1202 2.1203 v 0.5579629 0.5579605 h -2.641 -2.6411 z m 9.6713,0.5898459 c 0,-0.7758336 -0.025,-1.0342558 -0.1063,-1.1159235 -0.085,-0.085219 -0.4095,-0.1062792 -1.6367,-0.1062792 h -1.5304 v -1.0043302 -1.0043331 h 0.2604 c 0.248,0 0.2604,-0.0124 0.2604,-0.260382 0,-0.225797 0.024,-0.260382 0.1799,-0.260382 0.3231,0 0.4153,-0.07609 0.4153,-0.342735 0,-0.238889 0.014,-0.252425 0.2603,-0.252425 0.248,0 0.2604,-0.0124 0.2604,-0.260382 0,-0.247981 0.012,-0.260381 0.2604,-0.260381 0.248,0 0.2604,-0.0124 0.2604,-0.260382 0,-0.239718 0.018,-0.260381 0.2232,-0.260381 0.1901,0 0.2232,-0.02834 0.2232,-0.191303 0,-0.255183 0.1623,-0.403858 0.441,-0.403858 0.2116,0 0.2285,-0.01931 0.2285,-0.260382 v -0.260382 h 0.4836 0.4835 v 2.157451 2.157454 h 0.5208 0.5208 v 0.483566 0.4835673 h -0.5208 -0.5208 v 1.1159235 1.1159234 h -0.4835 -0.4836 z m 0,-3.161783 c 0,-1.076526 -0.04,-1.185007 -0.441,-1.185007 -0.2116,0 -0.2285,0.01931 -0.2285,0.260382 0,0.239718 -0.018,0.260385 -0.2232,0.260385 -0.1984,0 -0.2232,0.0248 -0.2232,0.223184 0,0.199538 -0.024,0.223185 -0.2285,0.223185 -0.2905,0 -0.4411,0.150574 -0.4411,0.4410559 0,0.2115435 -0.019,0.2284985 -0.2603,0.2284985 -0.248,0 -0.2604,0.012399 -0.2604,0.2603815 v 0.2603821 h 1.1531 1.1531 z m -79.6583,-5.774731 c -0.2967,-0.01611 -0.5394,-0.06129 -0.5394,-0.100415 0,-0.03912 -0.1004,-0.07113 -0.2232,-0.07113 -0.1227,0 -0.2232,-0.02967 -0.2232,-0.06595 0,-0.03627 -0.1506,-0.08854 -0.3347,-0.116152 -0.1842,-0.02761 -0.3348,-0.08163 -0.3348,-0.120037 0,-0.03841 -0.05,-0.06984 -0.1116,-0.06984 -0.061,0 -0.1116,-0.02975 -0.1116,-0.06611 0,-0.03637 -0.1172,-0.0881 -0.2604,-0.114965 -0.1432,-0.02688 -0.2604,-0.08081 -0.2604,-0.119872 0,-0.03906 -0.035,-0.07102 -0.078,-0.07102 -0.043,0 -0.1615,-0.08369 -0.2638,-0.185988 -0.1023,-0.102292 -0.2173,-0.185988 -0.2556,-0.185988 -0.091,0 -1.0396,-0.94869 -1.0396,-1.039524 0,-0.0383 -0.084,-0.153329 -0.186,-0.255625 -0.1022,-0.102292 -0.1859,-0.220986 -0.1859,-0.263761 0,-0.04278 -0.033,-0.07778 -0.073,-0.07778 -0.04,0 -0.094,-0.08369 -0.1197,-0.185987 -0.026,-0.102293 -0.077,-0.185988 -0.113,-0.185988 -0.036,0 -0.066,-0.05022 -0.066,-0.111594 0,-0.06137 -0.03,-0.111591 -0.066,-0.111591 -0.036,0 -0.088,-0.117172 -0.115,-0.260382 -0.027,-0.143209 -0.081,-0.260382 -0.1199,-0.260382 -0.039,0 -0.071,-0.0837 -0.071,-0.185988 0,-0.102292 -0.032,-0.185987 -0.071,-0.185987 -0.039,0 -0.093,-0.200868 -0.1212,-0.446369 -0.028,-0.245505 -0.08,-0.44637 -0.1153,-0.44637 -0.036,0 -0.065,-0.0837 -0.065,-0.185988 0,-0.115724 -0.042,-0.185987 -0.1116,-0.185987 -0.061,0 -0.1115,0.02975 -0.1115,0.06611 0,0.03637 -0.1172,0.0881 -0.2604,0.114963 -0.1432,0.02688 -0.2604,0.08081 -0.2604,0.119871 0,0.03906 -0.069,0.07103 -0.1541,0.07103 -0.085,0 -0.2043,0.05022 -0.2657,0.111591 -0.061,0.06138 -0.076,0.111593 -0.032,0.111593 0.044,0 0.08,0.0809 0.08,0.179788 0,0.09888 0.042,0.193737 0.093,0.210786 0.07,0.02325 0.093,0.362468 0.093,1.357707 0,0.995241 -0.023,1.334456 -0.093,1.357706 -0.051,0.01704 -0.093,0.09516 -0.093,0.173588 0,0.07843 -0.034,0.142591 -0.074,0.142591 -0.041,0 -0.074,0.0361 -0.074,0.08023 0,0.04413 -0.1255,0.209798 -0.279,0.368166 -0.1534,0.158362 -0.3192,0.331497 -0.3684,0.384738 -0.1596,0.172727 -0.3117,0.282789 -0.391,0.282789 -0.043,0 -0.078,0.03196 -0.078,0.07102 0,0.03906 -0.1172,0.09301 -0.2604,0.119872 -0.1432,0.02688 -0.2604,0.0786 -0.2604,0.114962 0,0.03637 -0.084,0.06612 -0.186,0.06612 -0.1023,0 -0.186,0.03348 -0.186,0.07439 0,0.04605 -0.3967,0.0744 -1.0415,0.0744 -0.6447,0 -1.0415,-0.02834 -1.0415,-0.0744 0,-0.04092 -0.084,-0.07439 -0.186,-0.07439 -0.1023,0 -0.186,-0.02975 -0.186,-0.06612 0,-0.03636 -0.1099,-0.08673 -0.2442,-0.111928 -0.1343,-0.0252 -0.2923,-0.112615 -0.3512,-0.194266 -0.059,-0.08165 -0.1483,-0.148453 -0.1988,-0.148453 -0.1051,0 -0.4705,-0.345421 -0.4705,-0.444739 0,-0.0363 -0.067,-0.08725 -0.1488,-0.113224 -0.082,-0.02609 -0.1488,-0.112562 -0.1488,-0.193336 0,-0.08036 -0.05,-0.16538 -0.1116,-0.188934 -0.061,-0.02356 -0.1116,-0.106195 -0.1116,-0.183651 0,-0.07746 -0.031,-0.140831 -0.068,-0.140831 -0.038,0 -0.091,-0.100433 -0.1176,-0.223185 -0.027,-0.12275 -0.08,-0.223184 -0.1175,-0.223184 -0.038,0 -0.068,-0.06696 -0.068,-0.148791 0,-0.08183 -0.031,-0.148788 -0.069,-0.148788 -0.038,0 -0.092,-0.184129 -0.1201,-0.409172 -0.028,-0.225047 -0.081,-0.409173 -0.117,-0.409173 -0.036,0 -0.066,-0.114384 -0.066,-0.254182 0,-0.139801 -0.033,-0.265342 -0.073,-0.278982 -0.04,-0.01364 -0.096,-0.468377 -0.123,-1.01053 -0.027,-0.542155 -0.078,-0.985733 -0.1127,-0.985733 -0.035,0 -0.063,-0.954114 -0.063,-2.120256 0,-1.166139 0.028,-2.120254 0.063,-2.120254 0.035,0 0.086,-0.426842 0.1136,-0.948536 0.028,-0.521694 0.083,-0.959695 0.1229,-0.973333 0.04,-0.01364 0.072,-0.122442 0.072,-0.241785 0,-0.11934 0.03,-0.216985 0.066,-0.216985 0.036,0 0.088,-0.150649 0.1162,-0.334778 0.028,-0.184126 0.082,-0.334775 0.12,-0.334775 0.038,0 0.07,-0.0837 0.07,-0.185989 0,-0.102292 0.03,-0.185987 0.066,-0.185987 0.036,0 0.087,-0.08369 0.113,-0.185988 0.026,-0.102292 0.079,-0.185985 0.1196,-0.185985 0.04,0 0.073,-0.05021 0.073,-0.111593 0,-0.06137 0.031,-0.111592 0.069,-0.111592 0.038,0 0.092,-0.0726 0.1206,-0.161325 0.066,-0.208893 0.7045,-0.847124 0.9134,-0.913423 0.089,-0.02817 0.1613,-0.08243 0.1613,-0.120585 0,-0.03816 0.036,-0.06938 0.08,-0.06938 0.044,0 0.13,-0.05022 0.1913,-0.111594 0.061,-0.06137 0.1929,-0.111591 0.2923,-0.111591 0.099,0 0.1807,-0.03348 0.1807,-0.07439 0,-0.04092 0.05,-0.0744 0.1116,-0.0744 0.061,0 0.1115,-0.03348 0.1115,-0.07439 0,-0.04092 0.1144,-0.07439 0.2542,-0.07439 0.1398,0 0.2682,-0.04185 0.2852,-0.093 0.045,-0.134217 2.8939,-0.134217 2.9386,0 0.017,0.05115 0.1119,0.093 0.2108,0.093 0.099,0 0.1798,0.03348 0.1798,0.07439 0,0.04092 0.1004,0.07439 0.2232,0.07439 0.1227,0 0.2232,0.03082 0.2232,0.06848 0,0.03767 0.094,0.08912 0.2087,0.114329 0.1148,0.02522 0.2561,0.111572 0.314,0.191899 0.058,0.08033 0.1452,0.146054 0.194,0.146054 0.1259,0 0.6224,0.497072 0.6224,0.623082 0,0.05772 0.05,0.124219 0.1116,0.14777 0.061,0.02356 0.1116,0.110829 0.1116,0.193948 0,0.08312 0.033,0.151124 0.074,0.151124 0.041,0 0.074,0.08369 0.074,0.185985 0,0.102296 0.032,0.185988 0.07,0.185988 0.039,0 0.08,0.137035 0.093,0.304521 l 0.023,0.304521 0.1674,-0.145858 c 0.092,-0.08022 0.1674,-0.18249 0.1674,-0.227265 0,-0.118038 1.4004,-1.500631 1.52,-1.500631 0.055,0 0.12,-0.05021 0.1436,-0.111593 0.024,-0.06137 0.1108,-0.111592 0.1939,-0.111592 0.083,0 0.1512,-0.03348 0.1512,-0.0744 0,-0.04092 0.05,-0.07439 0.1116,-0.07439 0.061,0 0.1116,-0.03143 0.1116,-0.06984 0,-0.03842 0.1506,-0.09243 0.3347,-0.120041 0.1842,-0.02761 0.3348,-0.07988 0.3348,-0.116151 0,-0.03627 0.084,-0.06595 0.186,-0.06595 0.1023,0 0.186,-0.03348 0.186,-0.07439 0,-0.04092 0.098,-0.07439 0.217,-0.07439 0.1193,0 0.2309,-0.04185 0.248,-0.093 0.045,-0.134357 3.0426,-0.134357 3.0873,0 0.017,0.05115 0.1454,0.093 0.2852,0.093 0.1398,0 0.2542,0.03348 0.2542,0.07439 0,0.04092 0.067,0.07439 0.1488,0.07439 0.082,0 0.1488,0.0292 0.1488,0.06489 0,0.03569 0.1339,0.0863 0.2976,0.112472 0.1636,0.02617 0.2975,0.08067 0.2975,0.1211 0,0.04043 0.05,0.07352 0.1116,0.07352 0.061,0 0.1116,0.03348 0.1116,0.07439 0,0.04092 0.068,0.0744 0.1512,0.0744 0.083,0 0.1704,0.05022 0.1939,0.111592 0.024,0.06137 0.091,0.111593 0.15,0.111593 0.059,0 0.1848,0.08369 0.2796,0.185985 0.095,0.102295 0.195,0.185988 0.2227,0.185988 0.1093,0 0.7881,0.64271 0.7881,0.746189 0,0.0436 0.084,0.156827 0.186,0.251629 0.1023,0.0948 0.186,0.22353 0.186,0.286067 0,0.06253 0.05,0.132969 0.1116,0.156523 0.061,0.02356 0.1116,0.110827 0.1116,0.193946 0,0.09856 0.049,0.151124 0.1405,0.151124 0.1017,0 0.154,-0.07195 0.1893,-0.260381 0.027,-0.14321 0.081,-0.260383 0.1199,-0.260383 0.039,0 0.071,-0.06696 0.071,-0.14879 0,-0.08183 0.03,-0.148789 0.066,-0.148789 0.037,0 0.087,-0.08369 0.113,-0.185987 0.026,-0.102292 0.08,-0.185988 0.1196,-0.185988 0.04,0 0.073,-0.03566 0.073,-0.07925 0,-0.120102 0.7931,-0.887886 0.9171,-0.887886 0.06,0 0.1278,-0.05021 0.1513,-0.111593 0.024,-0.06137 0.1086,-0.111592 0.189,-0.111592 0.08,0 0.1668,-0.06516 0.192,-0.144795 0.033,-0.103163 0.1412,-0.159062 0.377,-0.194434 0.1821,-0.0273 0.3311,-0.07932 0.3311,-0.115589 0,-0.03627 0.084,-0.06595 0.1859,-0.06595 0.1023,0 0.186,-0.03348 0.186,-0.07439 0,-0.04092 0.081,-0.07439 0.1798,-0.07439 0.099,0 0.1936,-0.0413 0.2104,-0.09176 0.044,-0.132282 3.1929,-0.132282 3.237,0 0.017,0.05046 0.1282,0.09176 0.2476,0.09176 0.1193,0 0.217,0.03348 0.217,0.07439 0,0.04092 0.067,0.07439 0.1487,0.07439 0.082,0 0.1488,0.0292 0.1488,0.06489 0,0.03569 0.1339,0.0863 0.2976,0.112472 0.1637,0.02617 0.2976,0.08067 0.2976,0.1211 0,0.04043 0.05,0.07352 0.1116,0.07352 0.061,0 0.1116,0.03122 0.1116,0.06938 0,0.03816 0.072,0.09239 0.1611,0.120509 0.089,0.02812 0.2407,0.13081 0.3381,0.228198 0.097,0.09739 0.2068,0.177072 0.2431,0.177072 0.036,0 0.087,0.06524 0.112,0.144984 0.025,0.07974 0.1096,0.165146 0.1872,0.189792 0.078,0.02463 0.1644,0.11842 0.1928,0.208392 0.029,0.08997 0.1138,0.217727 0.1898,0.283902 0.076,0.06618 0.1382,0.158239 0.1382,0.204585 0,0.04634 0.05,0.08427 0.1116,0.08427 0.061,0 0.1116,-0.05021 0.1116,-0.111593 0,-0.06137 0.031,-0.111591 0.069,-0.111591 0.038,0 0.092,-0.07193 0.1202,-0.159849 0.055,-0.174246 0.6731,-0.807287 0.7878,-0.807287 0.039,0 0.1546,-0.08369 0.2569,-0.185988 0.1023,-0.102292 0.2347,-0.185985 0.2942,-0.185985 0.06,0 0.1082,-0.03348 0.1082,-0.0744 0,-0.04092 0.05,-0.07439 0.1116,-0.07439 0.061,0 0.1116,-0.02975 0.1116,-0.06612 0,-0.03636 0.1172,-0.0881 0.2604,-0.114962 0.1432,-0.02688 0.2604,-0.08081 0.2604,-0.119873 0,-0.03906 0.084,-0.07102 0.186,-0.07102 0.1023,0 0.186,-0.03348 0.186,-0.07439 0,-0.04092 0.081,-0.07439 0.1798,-0.07439 0.099,0 0.1935,-0.0413 0.2103,-0.09176 0.044,-0.132282 3.1929,-0.132282 3.237,0 0.017,0.05046 0.145,0.09176 0.2848,0.09176 0.1398,0 0.2542,0.03348 0.2542,0.07439 0,0.04092 0.05,0.07439 0.1116,0.07439 0.061,0 0.1116,0.0292 0.1116,0.06489 0,0.03569 0.1339,0.0863 0.2976,0.112472 0.1636,0.02617 0.2975,0.08067 0.2975,0.1211 0,0.04043 0.063,0.07352 0.1409,0.07352 0.077,0 0.1601,0.05022 0.1836,0.111591 0.024,0.06138 0.1086,0.111594 0.1889,0.111594 0.081,0 0.1673,0.06653 0.1934,0.14879 0.026,0.08184 0.075,0.148788 0.1098,0.148788 0.1083,0 0.7263,0.64007 0.7794,0.807287 0.028,0.08791 0.082,0.159849 0.1201,0.159849 0.038,0 0.069,0.05022 0.069,0.111591 0,0.06137 0.032,0.111593 0.07,0.111593 0.038,0 0.092,0.15065 0.1201,0.334776 0.028,0.18413 0.08,0.334779 0.1161,0.334779 0.036,0 0.066,0.08369 0.066,0.185985 0,0.102295 0.03,0.185988 0.066,0.185988 0.036,0 0.087,-0.08369 0.113,-0.185988 0.026,-0.102292 0.08,-0.185985 0.1197,-0.185985 0.04,0 0.073,-0.03587 0.073,-0.07971 0,-0.04384 0.05,-0.129923 0.1115,-0.191299 0.061,-0.06137 0.1116,-0.1739 0.1116,-0.250057 0,-0.07615 0.065,-0.159169 0.145,-0.184478 0.08,-0.02531 0.1657,-0.111259 0.191,-0.191002 0.025,-0.07974 0.077,-0.144983 0.1139,-0.144983 0.037,0 0.249,-0.184126 0.4705,-0.409172 0.2214,-0.225044 0.4542,-0.409173 0.5173,-0.409173 0.063,0 0.1359,-0.06695 0.1618,-0.148788 0.026,-0.08225 0.1126,-0.14879 0.1934,-0.14879 0.08,0 0.1653,-0.05022 0.1889,-0.111594 0.024,-0.06137 0.1062,-0.111591 0.1837,-0.111591 0.077,0 0.1408,-0.03308 0.1408,-0.07352 0,-0.04043 0.1339,-0.09493 0.2976,-0.1211 0.1636,-0.02618 0.2975,-0.07678 0.2975,-0.112472 0,-0.03568 0.084,-0.06489 0.186,-0.06489 0.1023,0 0.186,-0.03348 0.186,-0.07439 0,-0.04092 0.1144,-0.07439 0.2542,-0.07439 0.1398,0 0.2677,-0.0405 0.2842,-0.09 0.044,-0.131743 3.0445,-0.134653 3.0884,-0.003 0.017,0.05115 0.1119,0.09299 0.2108,0.09299 0.099,0 0.1797,0.03348 0.1797,0.07439 0,0.04092 0.084,0.07439 0.186,0.07439 0.1023,0 0.186,0.03197 0.186,0.07102 0,0.03906 0.1172,0.09301 0.2604,0.119872 0.1432,0.02688 0.2604,0.0786 0.2604,0.114962 0,0.03637 0.05,0.06612 0.1116,0.06612 0.061,0 0.1116,0.03122 0.1116,0.06938 0,0.03816 0.072,0.09231 0.1605,0.12033 0.1842,0.05847 1.1042,0.949706 1.1042,1.069692 0,0.04384 0.031,0.07971 0.069,0.07971 0.038,0 0.093,0.07532 0.1222,0.167388 0.029,0.09206 0.1107,0.217781 0.1814,0.279367 0.071,0.06159 0.1525,0.254086 0.1819,0.427772 0.029,0.173687 0.084,0.315791 0.1212,0.315791 0.037,0 0.068,0.100434 0.068,0.223185 0,0.122753 0.031,0.223184 0.069,0.223184 0.038,0 0.084,0.07532 0.1015,0.167391 l 0.032,0.167388 0.01,-0.167388 c 0.01,-0.09207 0.044,-0.167391 0.085,-0.167391 0.041,0 0.074,-0.05022 0.074,-0.111591 0,-0.06137 0.033,-0.111593 0.074,-0.111593 0.041,0 0.074,-0.05022 0.074,-0.111591 0,-0.06137 0.033,-0.111594 0.073,-0.111594 0.04,0 0.094,-0.08369 0.1197,-0.185988 0.026,-0.102292 0.077,-0.185985 0.113,-0.185985 0.036,0 0.066,-0.05463 0.066,-0.121407 0,-0.06677 0.1172,-0.231915 0.2604,-0.366978 0.1432,-0.135067 0.2604,-0.279778 0.2604,-0.321584 0,-0.09873 0.356,-0.454745 0.4547,-0.454745 0.042,0 0.1865,-0.117173 0.3216,-0.260382 0.1351,-0.14321 0.2691,-0.260382 0.2979,-0.260382 0.029,0 0.1026,-0.05021 0.1639,-0.111594 0.061,-0.06137 0.1762,-0.111591 0.2551,-0.111591 0.079,0 0.1435,-0.03348 0.1435,-0.0744 0,-0.04092 0.05,-0.07439 0.1116,-0.07439 0.061,0 0.1116,-0.03308 0.1116,-0.07352 0,-0.04043 0.1339,-0.09493 0.2975,-0.121101 0.1637,-0.02617 0.2976,-0.07678 0.2976,-0.112471 0,-0.03568 0.084,-0.06489 0.186,-0.06489 0.1023,0 0.186,-0.03348 0.186,-0.07439 0,-0.04092 0.1144,-0.07439 0.2542,-0.07439 0.1398,0 0.2681,-0.04185 0.2852,-0.09299 0.044,-0.131659 3.0444,-0.128748 3.0883,0.003 0.017,0.0495 0.1109,0.09 0.2098,0.09 0.099,0 0.1798,0.03348 0.1798,0.07439 0,0.04092 0.084,0.07439 0.186,0.07439 0.1023,0 0.186,0.02968 0.186,0.06595 0,0.03627 0.1506,0.08854 0.3348,0.116151 0.1841,0.02761 0.3347,0.08163 0.3347,0.120041 0,0.03841 0.05,0.06984 0.1116,0.06984 0.061,0 0.1116,0.03284 0.1116,0.07298 0,0.04014 0.084,0.09398 0.186,0.119657 0.1023,0.02567 0.186,0.07653 0.186,0.113011 0,0.03648 0.035,0.06633 0.078,0.06633 0.088,0 0.2108,0.094 0.512,0.390573 0.1143,0.112522 0.2627,0.204585 0.3299,0.204585 0.067,0 0.1221,0.05523 0.1221,0.122729 0,0.0675 0.162,0.278033 0.36,0.467859 0.198,0.189823 0.3844,0.442281 0.4142,0.561017 0.03,0.118739 0.1166,0.270068 0.193,0.336294 0.076,0.06623 0.1614,0.21049 0.189,0.320588 0.081,0.321116 0.303,0.261 0.3603,-0.0974 0.026,-0.163668 0.081,-0.297579 0.1211,-0.297579 0.04,0 0.073,-0.05022 0.073,-0.111593 0,-0.06137 0.034,-0.111592 0.074,-0.111592 0.041,0 0.074,-0.06696 0.074,-0.148791 0,-0.08183 0.032,-0.14879 0.071,-0.14879 0.039,0 0.093,-0.116031 0.1194,-0.257846 0.03,-0.159776 0.102,-0.274865 0.1894,-0.302592 0.077,-0.0246 0.141,-0.09539 0.141,-0.157277 0,-0.146513 0.8468,-0.993367 0.9933,-0.993367 0.062,0 0.1327,-0.06344 0.1573,-0.140988 0.028,-0.08736 0.1428,-0.159382 0.3026,-0.189356 0.1418,-0.0266 0.2579,-0.08034 0.2579,-0.119397 0,-0.03906 0.084,-0.07102 0.1859,-0.07102 0.1023,0 0.186,-0.03348 0.186,-0.07439 0,-0.04092 0.081,-0.07439 0.1798,-0.07439 0.099,0 0.1938,-0.04185 0.2108,-0.093 0.045,-0.133891 2.5964,-0.133891 2.641,0 0.017,0.05115 0.1119,0.093 0.2108,0.093 0.099,0 0.1798,0.03348 0.1798,0.07439 0,0.04092 0.05,0.07439 0.1116,0.07439 0.061,0 0.1116,0.03196 0.1116,0.07102 0,0.03906 0.1172,0.09301 0.2604,0.119873 0.1432,0.02688 0.2603,0.07621 0.2603,0.109648 0,0.12329 0.2391,0.294615 0.4111,0.294615 0.098,0 0.2597,-0.08233 0.3603,-0.182963 0.1006,-0.100628 0.2695,-0.204691 0.3754,-0.231249 0.1058,-0.02657 0.1923,-0.07814 0.1923,-0.114619 0,-0.03648 0.084,-0.06633 0.186,-0.06633 0.1023,0 0.186,-0.03348 0.186,-0.07439 0,-0.04092 0.081,-0.07439 0.1798,-0.07439 0.099,0 0.1934,-0.04096 0.2101,-0.09101 0.044,-0.132167 2.5977,-0.134088 2.6417,-0.002 0.017,0.05115 0.1119,0.09299 0.2108,0.09299 0.099,0 0.1798,0.03348 0.1798,0.0744 0,0.04092 0.084,0.07439 0.186,0.07439 0.1023,0 0.186,0.03197 0.186,0.07103 0,0.03906 0.116,0.09279 0.2578,0.119396 0.1598,0.02997 0.2749,0.101995 0.3026,0.189357 0.025,0.07754 0.1105,0.140988 0.1909,0.140988 0.08,0 0.1653,0.05022 0.1889,0.111591 0.024,0.06137 0.088,0.111594 0.1432,0.111594 0.1136,0 0.9252,0.780116 0.9252,0.889339 0,0.03906 0.08,0.150711 0.1771,0.2481 0.097,0.09739 0.2001,0.249562 0.2282,0.338161 0.028,0.0886 0.082,0.161087 0.1205,0.161087 0.038,0 0.069,0.05022 0.069,0.111591 0,0.06138 0.034,0.111593 0.074,0.111593 0.041,0 0.074,0.06696 0.074,0.148791 0,0.08184 0.031,0.148788 0.069,0.148788 0.038,0 0.091,0.100434 0.1175,0.223186 0.076,0.345873 0.3036,0.299265 0.3633,-0.07439 0.026,-0.163668 0.081,-0.297579 0.1211,-0.297579 0.04,0 0.073,-0.05021 0.073,-0.111593 0,-0.06137 0.029,-0.111591 0.065,-0.111591 0.036,0 0.086,-0.10493 0.1118,-0.233178 0.026,-0.128248 0.1087,-0.287268 0.1846,-0.353376 0.076,-0.06611 0.1618,-0.195525 0.1909,-0.287588 0.029,-0.09206 0.084,-0.167388 0.1222,-0.167388 0.038,0 0.069,-0.05022 0.069,-0.111594 0,-0.06137 0.031,-0.111591 0.069,-0.111591 0.038,0 0.09,-0.06524 0.1154,-0.144984 0.025,-0.07974 0.1095,-0.165149 0.1872,-0.189795 0.078,-0.02463 0.1618,-0.11005 0.1871,-0.189792 0.025,-0.07974 0.1061,-0.144984 0.1794,-0.144984 0.073,0 0.1943,-0.08109 0.2687,-0.180206 0.074,-0.09911 0.2465,-0.201062 0.3824,-0.226556 0.1359,-0.02551 0.2471,-0.07831 0.2471,-0.117372 0,-0.03906 0.084,-0.07103 0.186,-0.07103 0.1022,0 0.1859,-0.03348 0.1859,-0.07439 0,-0.04092 0.081,-0.0744 0.1798,-0.0744 0.099,0 0.1938,-0.04185 0.2108,-0.09299 0.045,-0.133799 2.522,-0.133799 2.5666,0 0.017,0.05115 0.1119,0.09299 0.2108,0.09299 0.099,0 0.1798,0.03348 0.1798,0.0744 0,0.04092 0.067,0.07439 0.1488,0.07439 0.082,0 0.1488,0.03197 0.1488,0.07103 0,0.03906 0.1172,0.093 0.2604,0.119872 0.1432,0.02688 0.2604,0.07621 0.2604,0.109648 0,0.122737 0.2387,0.294614 0.4091,0.294614 0.097,0 0.2256,-0.05022 0.287,-0.111593 0.061,-0.06137 0.1474,-0.11159 0.1913,-0.11159 0.044,0 0.08,-0.03284 0.08,-0.07298 0,-0.04013 0.084,-0.09398 0.186,-0.119657 0.1023,-0.02567 0.186,-0.07653 0.186,-0.113012 0,-0.03648 0.084,-0.06633 0.186,-0.06633 0.1022,0 0.1859,-0.03348 0.1859,-0.07439 0,-0.04092 0.081,-0.0744 0.1798,-0.0744 0.099,0 0.1933,-0.04044 0.2098,-0.08986 0.044,-0.131074 2.5239,-0.134105 2.5676,-0.0032 0.017,0.05115 0.1454,0.09299 0.2852,0.09299 0.1398,0 0.2542,0.03348 0.2542,0.07439 0,0.04092 0.067,0.07439 0.1488,0.07439 0.082,0 0.1488,0.03082 0.1488,0.06848 0,0.03766 0.1004,0.09054 0.2232,0.117504 0.1227,0.02697 0.2231,0.07984 0.2231,0.117504 0,0.03766 0.052,0.06848 0.1152,0.06848 0.063,0 0.1927,0.0837 0.2875,0.185987 0.095,0.102293 0.1951,0.185988 0.2228,0.185988 0.055,0 0.2229,0.130383 0.3638,0.282545 0.049,0.0531 0.1329,0.136797 0.1861,0.185984 0.3903,0.361432 0.4613,0.440285 0.4613,0.511859 0,0.04449 0.062,0.13503 0.1382,0.201205 0.076,0.06617 0.1619,0.195643 0.191,0.287707 0.029,0.09206 0.084,0.167388 0.1222,0.167388 0.038,0 0.069,0.05021 0.069,0.11159 0,0.06138 0.03,0.111595 0.066,0.111595 0.036,0 0.088,0.117171 0.115,0.260381 0.027,0.143209 0.081,0.260382 0.1199,0.260382 0.039,0 0.071,0.05021 0.071,0.111593 0,0.06137 0.031,0.111591 0.07,0.111591 0.038,0 0.092,0.15065 0.1201,0.334779 0.028,0.184126 0.08,0.334776 0.1161,0.334776 0.036,0 0.066,0.08369 0.066,0.185988 0,0.102292 0.03,0.185987 0.066,0.185987 0.036,0 0.089,0.217606 0.1175,0.483567 0.028,0.265963 0.083,0.483566 0.1202,0.483566 0.038,0 0.069,0.14786 0.069,0.328579 0,0.196737 0.037,0.341012 0.093,0.35957 0.072,0.02404 0.093,0.645159 0.093,2.771203 0,2.126034 -0.021,2.747159 -0.093,2.771216 -0.051,0.01706 -0.093,0.145389 -0.093,0.285187 0,0.139802 -0.03,0.254185 -0.067,0.254185 -0.037,0 -0.09,0.167388 -0.1186,0.371972 -0.028,0.204588 -0.082,0.371976 -0.1185,0.371976 -0.037,0 -0.068,0.08369 -0.068,0.185988 0,0.102292 -0.03,0.185988 -0.066,0.185988 -0.036,0 -0.088,0.117172 -0.1149,0.260381 -0.027,0.14321 -0.081,0.260382 -0.1199,0.260382 -0.039,0 -0.071,0.05022 -0.071,0.111591 0,0.06138 -0.031,0.111594 -0.069,0.111594 -0.038,0 -0.092,0.0726 -0.1206,0.161323 -0.028,0.08873 -0.2062,0.321498 -0.3956,0.517266 -0.1894,0.195769 -0.3846,0.399365 -0.4338,0.452434 -0.1603,0.172941 -0.3119,0.282479 -0.391,0.282479 -0.043,0 -0.078,0.03284 -0.078,0.07298 0,0.04014 -0.084,0.09398 -0.186,0.119655 -0.1023,0.02567 -0.186,0.07653 -0.186,0.113011 0,0.03648 -0.081,0.06633 -0.1798,0.06633 -0.099,0 -0.1931,0.04007 -0.2094,0.08905 -0.021,0.06398 -0.3516,0.08905 -1.1731,0.08905 -0.8215,0 -1.1517,-0.02505 -1.173,-0.08905 -0.016,-0.04898 -0.1106,-0.08905 -0.2095,-0.08905 -0.099,0 -0.1798,-0.02968 -0.1798,-0.06595 0,-0.03627 -0.1506,-0.08854 -0.3348,-0.116152 -0.1841,-0.02761 -0.3347,-0.08163 -0.3347,-0.120038 0,-0.03841 -0.05,-0.06984 -0.1116,-0.06984 -0.061,0 -0.1116,0.03284 -0.1116,0.07298 0,0.04014 -0.084,0.09398 -0.186,0.119655 -0.1023,0.02567 -0.186,0.07653 -0.186,0.113011 0,0.03648 -0.081,0.06633 -0.1798,0.06633 -0.099,0 -0.1934,0.04097 -0.2101,0.09103 -0.042,0.125012 -2.2304,0.119805 -2.2722,-0.0054 -0.016,-0.04709 -0.1094,-0.08563 -0.2083,-0.08563 -0.099,0 -0.1798,-0.03082 -0.1798,-0.06848 0,-0.03767 -0.1004,-0.09054 -0.2232,-0.117502 -0.1227,-0.02697 -0.2232,-0.07984 -0.2232,-0.117504 0,-0.03767 -0.084,-0.06848 -0.1859,-0.06848 -0.1023,0 -0.186,0.02975 -0.186,0.06612 0,0.03636 -0.1172,0.08809 -0.2604,0.114962 -0.1432,0.02688 -0.2604,0.08081 -0.2604,0.119872 0,0.03906 -0.081,0.07102 -0.1798,0.07102 -0.099,0 -0.1929,0.03932 -0.2089,0.08738 -0.042,0.125816 -1.9322,0.128922 -1.9741,0.0032 -0.017,-0.04984 -0.1111,-0.09062 -0.21,-0.09062 -0.099,0 -0.1798,-0.03348 -0.1798,-0.0744 0,-0.04092 -0.068,-0.07439 -0.1511,-0.07439 -0.083,0 -0.1704,-0.05022 -0.194,-0.111593 -0.024,-0.06137 -0.091,-0.111592 -0.15,-0.111592 -0.059,0 -0.1847,-0.08369 -0.2795,-0.185987 -0.095,-0.102293 -0.1961,-0.185988 -0.225,-0.185988 -0.081,0 -0.2651,-0.20292 -0.2651,-0.292264 0,-0.04384 -0.031,-0.07971 -0.069,-0.07971 -0.038,0 -0.09,-0.06525 -0.1154,-0.144987 -0.025,-0.07974 -0.1078,-0.164576 -0.1832,-0.188522 -0.083,-0.02646 -0.1562,-0.144786 -0.1856,-0.301385 -0.027,-0.141815 -0.08,-0.257846 -0.1193,-0.257846 -0.039,0 -0.071,-0.03587 -0.071,-0.07971 0,-0.04384 -0.043,-0.122506 -0.095,-0.174819 -0.077,-0.07721 -0.1122,-0.07681 -0.186,0.0023 -0.05,0.05351 -0.091,0.132176 -0.091,0.17482 0,0.04265 -0.031,0.07753 -0.069,0.07753 -0.038,0 -0.093,0.07532 -0.1223,0.167388 -0.029,0.09207 -0.115,0.221532 -0.191,0.28771 -0.076,0.06618 -0.1381,0.144123 -0.1381,0.173222 0,0.0291 -0.1256,0.182476 -0.279,0.34084 -0.1534,0.158366 -0.3192,0.331498 -0.3684,0.384739 -0.1596,0.172727 -0.3118,0.282788 -0.391,0.282788 -0.043,0 -0.077,0.03197 -0.077,0.07103 0,0.03906 -0.1172,0.09301 -0.2604,0.119872 -0.1432,0.02688 -0.2604,0.0786 -0.2604,0.114962 0,0.03637 -0.081,0.06612 -0.1798,0.06612 -0.099,0 -0.1937,0.04185 -0.2108,0.093 -0.043,0.127707 -2.154,0.121828 -2.1967,-0.0061 -0.016,-0.04778 -0.1098,-0.08688 -0.2087,-0.08688 -0.099,0 -0.1798,-0.02967 -0.1798,-0.06595 0,-0.03627 -0.1506,-0.08854 -0.3348,-0.116152 -0.1841,-0.02761 -0.3348,-0.08163 -0.3348,-0.120037 0,-0.03841 -0.05,-0.06984 -0.1115,-0.06984 -0.061,0 -0.1116,0.03196 -0.1116,0.07102 0,0.03906 -0.1172,0.09301 -0.2604,0.119872 -0.1432,0.02688 -0.2604,0.0786 -0.2604,0.114962 0,0.03637 -0.047,0.06612 -0.1054,0.06612 -0.058,0 -0.1193,0.04185 -0.1364,0.09299 -0.043,0.127708 -2.154,0.121829 -2.1967,-0.0061 -0.016,-0.04778 -0.1098,-0.08688 -0.2087,-0.08688 -0.099,0 -0.1798,-0.02975 -0.1798,-0.06612 0,-0.03636 -0.1172,-0.08809 -0.2604,-0.114962 -0.1432,-0.02688 -0.2604,-0.08081 -0.2604,-0.119872 0,-0.03906 -0.084,-0.07102 -0.186,-0.07102 -0.1023,0 -0.1859,0.02975 -0.1859,0.06611 0,0.03637 -0.1172,0.0881 -0.2604,0.114965 -0.1432,0.02688 -0.2604,0.08081 -0.2604,0.119871 0,0.03906 -0.081,0.07102 -0.1798,0.07102 -0.099,0 -0.1934,0.04078 -0.21,0.09063 -0.042,0.125678 -1.9322,0.122572 -1.9741,-0.0032 -0.016,-0.04806 -0.11,-0.08738 -0.2089,-0.08738 -0.099,0 -0.1798,-0.03197 -0.1798,-0.07103 0,-0.03906 -0.1161,-0.09279 -0.2579,-0.119394 -0.1566,-0.02938 -0.2749,-0.102239 -0.3013,-0.185555 -0.024,-0.07545 -0.1165,-0.16033 -0.2057,-0.188625 -0.1858,-0.05898 -0.5742,-0.45043 -0.5742,-0.578733 0,-0.04734 -0.084,-0.148918 -0.186,-0.225735 -0.1023,-0.07682 -0.186,-0.199682 -0.186,-0.273027 0,-0.07335 -0.067,-0.154609 -0.1488,-0.18058 -0.082,-0.02598 -0.1488,-0.111924 -0.1488,-0.191002 0,-0.07908 -0.033,-0.143777 -0.073,-0.143777 -0.04,0 -0.095,-0.133911 -0.1211,-0.297579 -0.026,-0.163668 -0.077,-0.297579 -0.1125,-0.297579 -0.036,0 -0.065,-0.06935 -0.065,-0.154105 0,-0.227585 -0.1643,-0.37202 -0.2811,-0.24704 -0.05,0.05351 -0.091,0.132176 -0.091,0.174819 0,0.04265 -0.031,0.07754 -0.069,0.07754 -0.038,0 -0.093,0.07532 -0.1223,0.167388 -0.029,0.09206 -0.115,0.221532 -0.191,0.28771 -0.076,0.06617 -0.1381,0.155674 -0.1381,0.198885 0,0.116953 -1.0241,1.131496 -1.1422,1.131496 -0.056,0 -0.1645,0.08369 -0.2413,0.185987 -0.077,0.102293 -0.182,0.185988 -0.2336,0.185988 -0.052,0 -0.094,0.02975 -0.094,0.06611 0,0.03637 -0.1172,0.0881 -0.2604,0.114965 -0.1432,0.02688 -0.2603,0.08081 -0.2603,0.119872 0,0.03906 -0.05,0.07102 -0.1116,0.07102 -0.061,0 -0.1116,0.03143 -0.1116,0.06984 0,0.03841 -0.1507,0.09242 -0.3348,0.120037 -0.1841,0.02761 -0.3348,0.07988 -0.3348,0.116152 0,0.03627 -0.1144,0.06595 -0.2542,0.06595 -0.1398,0 -0.2673,0.03952 -0.2834,0.08782 -0.042,0.127003 -2.899,0.129114 -2.9413,0.0023 -0.017,-0.0495 -0.1444,-0.08999 -0.2842,-0.08999 -0.1398,0 -0.2542,-0.0292 -0.2542,-0.06489 0,-0.03569 -0.1339,-0.0863 -0.2976,-0.11247 -0.1637,-0.02618 -0.2976,-0.08067 -0.2976,-0.1211 0,-0.04043 -0.05,-0.07352 -0.1116,-0.07352 -0.061,0 -0.1116,-0.02975 -0.1116,-0.06611 0,-0.03637 -0.1171,-0.0881 -0.2603,-0.114965 -0.1432,-0.02689 -0.2604,-0.08081 -0.2604,-0.119872 0,-0.03906 -0.065,-0.07102 -0.1438,-0.07102 -0.079,0 -0.165,-0.06696 -0.191,-0.148791 -0.026,-0.08183 -0.098,-0.14879 -0.1607,-0.14879 -0.1442,0 -1.2564,-1.116149 -1.3238,-1.328562 -0.028,-0.08763 -0.082,-0.159335 -0.12,-0.159335 -0.038,0 -0.069,-0.03309 -0.069,-0.07354 0,-0.09228 -0.2363,-0.372825 -0.3141,-0.372825 -0.032,0 -0.058,0.05022 -0.058,0.111591 0,0.06137 -0.033,0.111594 -0.074,0.111594 -0.041,0 -0.074,0.05022 -0.074,0.111591 0,0.06137 -0.031,0.111594 -0.069,0.111594 -0.038,0 -0.093,0.07532 -0.1223,0.167388 -0.029,0.09206 -0.115,0.221531 -0.191,0.287706 -0.076,0.06618 -0.1381,0.156644 -0.1381,0.201045 0,0.11149 -0.7297,0.831758 -0.8427,0.831758 -0.05,0 -0.1399,0.06696 -0.1988,0.14879 -0.059,0.08183 -0.1501,0.148791 -0.2025,0.148791 -0.052,0 -0.095,0.03284 -0.095,0.07298 0,0.04014 -0.084,0.09398 -0.186,0.119658 -0.1023,0.02567 -0.186,0.07653 -0.186,0.113008 0,0.03648 -0.084,0.06633 -0.186,0.06633 -0.1023,0 -0.186,0.03143 -0.186,0.06984 0,0.03841 -0.1506,0.09243 -0.3348,0.120037 -0.1841,0.02761 -0.3347,0.07988 -0.3347,0.116152 0,0.03627 -0.098,0.06595 -0.217,0.06595 -0.1194,0 -0.2301,0.03926 -0.2461,0.08724 -0.042,0.125934 -3.0486,0.127858 -3.0905,0.002 -0.016,-0.04907 -0.1442,-0.08922 -0.284,-0.08922 -0.1398,0 -0.2542,-0.03033 -0.2542,-0.06741 0,-0.03708 -0.1673,-0.09044 -0.3719,-0.118576 -0.2046,-0.02814 -0.372,-0.0815 -0.372,-0.118572 0,-0.03708 -0.067,-0.06742 -0.1488,-0.06742 -0.082,0 -0.1488,-0.02985 -0.1488,-0.06633 0,-0.03648 -0.084,-0.08733 -0.186,-0.113009 -0.1023,-0.02567 -0.186,-0.07952 -0.186,-0.119657 0,-0.04014 -0.05,-0.07298 -0.1115,-0.07298 -0.061,0 -0.1116,-0.03348 -0.1116,-0.0744 0,-0.04092 -0.036,-0.07439 -0.08,-0.07439 -0.044,0 -0.1264,-0.04185 -0.1834,-0.09299 -0.2258,-0.20249 -0.3278,-0.278982 -0.372,-0.278982 -0.025,0 -0.1787,-0.133911 -0.3408,-0.297578 -0.162,-0.163668 -0.3245,-0.297579 -0.3611,-0.297579 -0.037,0 -0.089,-0.07249 -0.1176,-0.161089 -0.028,-0.0886 -0.1309,-0.24077 -0.2282,-0.338159 -0.097,-0.09739 -0.1771,-0.225766 -0.1771,-0.28528 0,-0.05952 -0.034,-0.108212 -0.074,-0.108212 -0.041,0 -0.074,-0.05022 -0.074,-0.111593 0,-0.06137 -0.05,-0.111591 -0.1116,-0.111591 -0.061,0 -0.1116,0.05022 -0.1116,0.111591 0,0.06137 -0.034,0.111593 -0.074,0.111593 -0.041,0 -0.074,0.05022 -0.074,0.111592 0,0.06137 -0.033,0.111593 -0.074,0.111593 -0.041,0 -0.074,0.06801 -0.074,0.151125 0,0.08312 -0.05,0.170393 -0.1116,0.193945 -0.061,0.02356 -0.1116,0.08906 -0.1116,0.145563 0,0.135578 -1.0322,1.146054 -1.1707,1.146054 -0.034,0 -0.1085,0.06572 -0.1664,0.146053 -0.058,0.08033 -0.1992,0.166685 -0.314,0.191898 -0.1148,0.02522 -0.2087,0.07667 -0.2087,0.11433 0,0.03766 -0.067,0.06848 -0.1488,0.06848 -0.082,0 -0.1488,0.03308 -0.1488,0.07352 0,0.04043 -0.1339,0.09493 -0.2976,0.1211 -0.1636,0.02618 -0.2976,0.07678 -0.2976,0.112472 0,0.03568 -0.1143,0.06489 -0.2541,0.06489 -0.1398,0 -0.2676,0.03998 -0.2838,0.08886 -0.043,0.129013 -3.0465,0.131163 -3.0895,0.0023 -0.017,-0.05009 -0.1447,-0.09107 -0.2845,-0.09107 -0.1398,0 -0.2542,-0.03033 -0.2542,-0.06741 0,-0.03708 -0.1674,-0.09044 -0.3719,-0.118575 -0.2046,-0.02814 -0.372,-0.0815 -0.372,-0.118573 0,-0.03708 -0.05,-0.06741 -0.1116,-0.06741 -0.061,0 -0.1116,-0.03082 -0.1116,-0.06848 0,-0.03766 -0.1088,-0.09237 -0.2417,-0.121573 -0.133,-0.0292 -0.2959,-0.115552 -0.3621,-0.191897 -0.066,-0.07635 -0.1438,-0.13881 -0.1723,-0.13881 -0.065,0 -0.8606,-0.791402 -0.8606,-0.856002 0,-0.07688 -0.2058,-0.259921 -0.2923,-0.259921 -0.044,0 -0.08,0.03489 -0.08,0.07753 0,0.07912 -0.1096,0.230861 -0.2825,0.390998 -0.053,0.04919 -0.1368,0.132879 -0.186,0.185987 -0.092,0.09956 -0.2041,0.206863 -0.3843,0.368411 -0.057,0.05115 -0.1322,0.09299 -0.167,0.09299 -0.035,0 -0.1114,0.06681 -0.1703,0.148454 -0.059,0.08165 -0.2168,0.169072 -0.3512,0.194268 -0.1343,0.0252 -0.2442,0.07556 -0.2442,0.111929 0,0.03636 -0.05,0.06611 -0.1115,0.06611 -0.061,0 -0.1116,0.03308 -0.1116,0.07352 0,0.04043 -0.1339,0.09493 -0.2976,0.121101 -0.1637,0.02617 -0.2976,0.07678 -0.2976,0.112471 0,0.03569 -0.1144,0.06489 -0.2542,0.06489 -0.1398,0 -0.2672,0.03915 -0.2832,0.087 -0.042,0.127489 -3.0475,0.131565 -3.0899,0.0042 -0.017,-0.05015 -0.1448,-0.09119 -0.2846,-0.09119 -0.1398,0 -0.2542,-0.03033 -0.2542,-0.06741 0,-0.03708 -0.1674,-0.09044 -0.372,-0.118575 -0.2046,-0.02814 -0.372,-0.0815 -0.372,-0.118573 0,-0.03708 -0.05,-0.06741 -0.1116,-0.06741 -0.061,0 -0.1115,-0.02975 -0.1115,-0.06611 0,-0.03637 -0.1099,-0.08673 -0.2442,-0.111928 -0.1344,-0.0252 -0.2924,-0.112617 -0.3512,-0.194269 -0.059,-0.08165 -0.1345,-0.148453 -0.1682,-0.148453 -0.064,0 -0.2228,-0.119405 -0.3745,-0.281563 -0.1138,-0.121623 -0.2442,-0.252025 -0.3659,-0.365829 -0.1736,-0.162453 -0.2815,-0.312357 -0.2815,-0.390997 0,-0.04265 -0.033,-0.07753 -0.073,-0.07753 -0.04,0 -0.094,-0.0837 -0.1197,-0.185987 -0.026,-0.102293 -0.076,-0.185988 -0.113,-0.185988 -0.037,0 -0.066,-0.06935 -0.066,-0.154103 0,-0.08476 -0.05,-0.20432 -0.1116,-0.265696 -0.099,-0.09919 -0.1116,-0.09503 -0.1116,0.0375 0,0.08245 -0.065,0.16966 -0.145,0.195106 -0.08,0.02531 -0.1678,0.1181 -0.1958,0.206202 -0.06,0.18955 -1.1926,1.320101 -1.3223,1.320101 -0.049,0 -0.1378,0.06696 -0.1968,0.14879 -0.059,0.08184 -0.15,0.148791 -0.2024,0.148791 -0.052,0 -0.095,0.03284 -0.095,0.07298 0,0.04014 -0.084,0.09398 -0.186,0.119658 -0.1023,0.02567 -0.186,0.07653 -0.186,0.113008 0,0.03648 -0.05,0.06633 -0.1116,0.06633 -0.061,0 -0.1116,0.03107 -0.1116,0.06904 0,0.03797 -0.1841,0.09205 -0.4092,0.120165 -0.225,0.02811 -0.4091,0.08074 -0.4091,0.116944 0,0.0362 -0.098,0.06582 -0.217,0.06582 -0.1194,0 -0.2282,0.02967 -0.2418,0.06591 -0.029,0.07697 -1.7141,0.148214 -2.4984,0.105636 z m -8.884,-1.362332 c 0.014,-0.04067 0.072,-0.07393 0.1302,-0.07393 0.058,0 0.1053,-0.03196 0.1053,-0.07102 0,-0.03906 0.1161,-0.09279 0.2579,-0.119396 0.1598,-0.02997 0.2749,-0.101995 0.3026,-0.18936 0.025,-0.07754 0.076,-0.140985 0.1141,-0.140985 0.038,0 0.069,-0.05022 0.069,-0.111593 0,-0.06137 0.033,-0.111592 0.074,-0.111592 0.04,0 0.095,-0.133911 0.1211,-0.297579 0.026,-0.16367 0.077,-0.297581 0.1125,-0.297581 0.036,0 0.065,-0.234342 0.065,-0.520763 0,-0.286422 -0.029,-0.520764 -0.065,-0.520764 -0.036,0 -0.083,-0.157923 -0.1042,-0.350938 -0.022,-0.193014 -0.076,-0.363194 -0.1213,-0.378175 -0.045,-0.01499 -0.082,-0.07466 -0.082,-0.132628 0,-0.05796 -0.031,-0.105395 -0.069,-0.105395 -0.038,0 -0.093,-0.07532 -0.1222,-0.167388 -0.029,-0.09206 -0.115,-0.221531 -0.191,-0.287706 -0.076,-0.06617 -0.1382,-0.156717 -0.1382,-0.201205 0,-0.150487 -0.3775,-0.459625 -0.5613,-0.459625 -0.1004,0 -0.1826,-0.03348 -0.1826,-0.07439 0,-0.04092 -0.1172,-0.0744 -0.2604,-0.0744 -0.1432,0 -0.2604,-0.03348 -0.2604,-0.0744 0,-0.04092 -0.1004,-0.07439 -0.2232,-0.07439 -0.1227,0 -0.2232,-0.03125 -0.2232,-0.06945 0,-0.0382 -0.092,-0.08511 -0.2045,-0.104255 -0.1126,-0.01915 0.2139,-0.01701 0.7253,0.0047 0.5115,0.02177 0.9411,0.06867 0.9547,0.104256 0.033,0.085 0.9052,0.08427 0.9052,-8.2e-4 0,-0.03599 0.2073,-0.08045 0.4607,-0.09877 0.2586,-0.0187 0.4734,-0.07158 0.4898,-0.120535 0.016,-0.04796 0.093,-0.08721 0.1716,-0.08721 0.078,0 0.1426,-0.02985 0.1426,-0.06633 0,-0.03649 0.082,-0.08677 0.181,-0.111765 0.1,-0.025 0.2017,-0.110599 0.227,-0.190245 0.025,-0.07965 0.1094,-0.16495 0.187,-0.189559 0.099,-0.03139 0.1558,-0.143614 0.1906,-0.375783 0.027,-0.182065 0.079,-0.33103 0.1156,-0.33103 0.036,0 0.066,-0.133911 0.066,-0.297581 0,-0.163668 0.034,-0.297579 0.074,-0.297579 0.041,0 0.074,-0.15065 0.074,-0.334778 0,-0.184127 -0.033,-0.334777 -0.074,-0.334777 -0.041,0 -0.074,-0.13391 -0.074,-0.297578 0,-0.163671 -0.032,-0.297582 -0.071,-0.297582 -0.039,0 -0.093,-0.116031 -0.1194,-0.257845 -0.029,-0.156599 -0.1022,-0.274941 -0.1855,-0.301386 -0.076,-0.02396 -0.1579,-0.108703 -0.1832,-0.18835 -0.025,-0.07965 -0.1274,-0.165256 -0.227,-0.190247 -0.1,-0.025 -0.181,-0.07528 -0.181,-0.111766 0,-0.03648 -0.064,-0.06633 -0.1426,-0.06633 -0.078,0 -0.1565,-0.04184 -0.1736,-0.09299 -0.045,-0.13359 -2.3733,-0.13359 -2.4178,0 -0.017,0.05115 -0.1287,0.09299 -0.248,0.09299 -0.1193,0 -0.217,0.03082 -0.217,0.06848 0,0.03767 -0.1004,0.09054 -0.2232,0.117505 -0.1227,0.02697 -0.2232,0.07984 -0.2232,0.117504 0,0.03766 -0.055,0.06848 -0.1219,0.06848 -0.067,0 -0.1611,0.05339 -0.2088,0.118657 -0.05,0.06824 -0.1628,0.107753 -0.2658,0.09299 l -0.179,-0.02567 0.2052,-0.204587 c 0.1128,-0.112521 0.2538,-0.204585 0.3134,-0.204585 0.059,0 0.1082,-0.03348 0.1082,-0.07439 0,-0.04092 0.05,-0.0744 0.1116,-0.0744 0.061,0 0.1115,-0.02975 0.1115,-0.06611 0,-0.03637 0.1172,-0.0881 0.2604,-0.114965 0.1432,-0.02688 0.2604,-0.08081 0.2604,-0.119872 0,-0.03906 0.084,-0.07102 0.186,-0.07102 0.1023,0 0.186,-0.03348 0.186,-0.0744 0,-0.04092 0.081,-0.07439 0.1798,-0.07439 0.099,0 0.1918,-0.03624 0.2066,-0.08053 0.038,-0.114043 1.9406,-0.117544 1.9786,-0.0037 0.034,0.100758 0.3876,0.114265 0.3876,0.01479 0,-0.03816 0.063,-0.08952 0.141,-0.114128 0.087,-0.02772 0.1594,-0.142816 0.1893,-0.302595 0.027,-0.141815 0.08,-0.257845 0.1194,-0.257845 0.039,0 0.071,-0.08369 0.071,-0.185985 0,-0.102295 0.033,-0.185988 0.074,-0.185988 0.042,0 0.074,-0.210785 0.074,-0.483567 0,-0.272782 -0.032,-0.483569 -0.074,-0.483569 -0.041,0 -0.074,-0.100431 -0.074,-0.223185 0,-0.122751 -0.03,-0.223184 -0.066,-0.223184 -0.037,0 -0.087,-0.08146 -0.1117,-0.181028 -0.025,-0.09957 -0.1106,-0.201711 -0.1903,-0.226989 -0.08,-0.02528 -0.1655,-0.111206 -0.1908,-0.190948 -0.025,-0.07974 -0.1083,-0.144987 -0.1845,-0.144987 -0.076,0 -0.1887,-0.05021 -0.25,-0.11159 -0.061,-0.06137 -0.1782,-0.111594 -0.2595,-0.111594 -0.081,0 -0.1619,-0.04184 -0.179,-0.09299 -0.023,-0.07012 -0.3848,-0.09299 -1.4693,-0.09299 -1.0845,0 -1.4459,0.02289 -1.4693,0.09299 -0.017,0.05115 -0.1118,0.09299 -0.2107,0.09299 -0.099,0 -0.1798,0.03196 -0.1798,0.07103 0,0.03906 -0.116,0.09279 -0.2579,0.119396 -0.1566,0.02938 -0.2749,0.102237 -0.3013,0.185552 -0.024,0.07545 -0.1071,0.157345 -0.1848,0.18199 -0.078,0.02463 -0.1619,0.11005 -0.1872,0.189792 -0.025,0.07974 -0.072,0.144984 -0.104,0.144984 -0.1344,0 -0.3622,0.278003 -0.4114,0.502237 -0.029,0.132943 -0.084,0.241714 -0.1216,0.241714 -0.038,0 -0.068,0.05021 -0.068,0.111591 0,0.06137 -0.03,0.111594 -0.067,0.111594 -0.037,0 -0.091,0.167387 -0.1186,0.371972 -0.028,0.204588 -0.082,0.371976 -0.1186,0.371976 -0.037,0 -0.067,0.14786 -0.067,0.328578 0,0.196734 -0.037,0.341013 -0.093,0.359571 -0.072,0.02418 -0.093,0.771632 -0.093,3.403559 0,2.631924 0.02,3.379379 0.093,3.403574 0.056,0.01856 0.093,0.162853 0.093,0.359581 0,0.180719 0.029,0.328579 0.065,0.328579 0.036,0 0.088,0.200865 0.1153,0.44637 0.028,0.245501 0.082,0.446369 0.1212,0.446369 0.039,0 0.071,0.08369 0.071,0.185985 0,0.102295 0.03,0.185988 0.066,0.185988 0.036,0 0.087,0.08369 0.113,0.185987 0.026,0.102293 0.08,0.185988 0.1197,0.185988 0.04,0 0.073,0.03472 0.073,0.07717 0,0.114442 0.6663,0.741176 0.7879,0.741176 0.058,0 0.1048,0.03348 0.1048,0.07439 0,0.04092 0.05,0.07439 0.1116,0.07439 0.061,0 0.1116,0.03146 0.1116,0.0699 0,0.03845 0.1255,0.08523 0.279,0.103963 0.4385,0.05353 1.6154,-0.01805 1.6429,-0.09993 z m 11.3805,0.0062 c 0.015,-0.04406 0.1076,-0.08011 0.2065,-0.08011 0.099,0 0.1798,-0.0292 0.1798,-0.06489 0,-0.03569 0.1339,-0.0863 0.2975,-0.112474 0.1637,-0.02618 0.2976,-0.08067 0.2976,-0.1211 0,-0.04043 0.063,-0.07351 0.1409,-0.07351 0.077,0 0.1601,-0.05022 0.1836,-0.111594 0.024,-0.06137 0.1086,-0.111591 0.1889,-0.111591 0.08,0 0.1669,-0.06524 0.1922,-0.144987 0.025,-0.07974 0.1168,-0.167446 0.2033,-0.194904 0.2018,-0.06407 0.4726,-0.334859 0.5367,-0.536745 0.027,-0.0865 0.1135,-0.177445 0.1911,-0.202091 0.078,-0.02463 0.1644,-0.118421 0.1928,-0.208392 0.028,-0.08997 0.1138,-0.217727 0.1898,-0.283902 0.076,-0.06618 0.1382,-0.174977 0.1382,-0.241782 0,-0.06681 0.031,-0.121466 0.069,-0.121466 0.038,0 0.091,-0.100434 0.1175,-0.223185 0.027,-0.122751 0.08,-0.223185 0.1175,-0.223185 0.038,0 0.068,-0.08369 0.068,-0.185987 0,-0.102292 0.03,-0.185988 0.068,-0.185988 0.037,0 0.09,-0.167388 0.1185,-0.371973 0.028,-0.204587 0.082,-0.371975 0.1186,-0.371975 0.037,0 0.067,-0.114383 0.067,-0.254182 0,-0.139802 0.042,-0.268131 0.093,-0.285176 0.071,-0.02382 0.093,-0.511249 0.093,-2.10164 0,-1.590377 -0.022,-2.077838 -0.093,-2.101662 -0.051,-0.01706 -0.093,-0.145397 -0.093,-0.285196 0,-0.139802 -0.03,-0.254185 -0.067,-0.254185 -0.037,0 -0.09,-0.167387 -0.1186,-0.371972 -0.028,-0.204588 -0.082,-0.371975 -0.1185,-0.371975 -0.037,0 -0.068,-0.06696 -0.068,-0.148791 0,-0.08184 -0.029,-0.148788 -0.065,-0.148788 -0.036,0 -0.085,-0.125881 -0.1097,-0.279736 -0.025,-0.155871 -0.1114,-0.327844 -0.1955,-0.388397 -0.083,-0.05976 -0.1507,-0.151489 -0.1507,-0.203833 0,-0.05235 -0.031,-0.09517 -0.069,-0.09517 -0.038,0 -0.091,-0.06886 -0.118,-0.153036 -0.057,-0.179406 -0.9563,-1.111676 -1.0724,-1.111676 -0.044,0 -0.079,-0.03122 -0.079,-0.06938 0,-0.03816 -0.075,-0.09316 -0.1674,-0.122233 -0.092,-0.02907 -0.2178,-0.110692 -0.2794,-0.181385 -0.062,-0.07069 -0.2541,-0.152539 -0.4278,-0.181885 -0.1736,-0.02934 -0.3157,-0.08389 -0.3157,-0.121207 0,-0.03732 -0.081,-0.06786 -0.1798,-0.06786 -0.099,0 -0.1938,-0.04184 -0.2108,-0.09299 -0.045,-0.134356 -3.0426,-0.134356 -3.0874,0 -0.017,0.05115 -0.1286,0.09299 -0.248,0.09299 -0.1193,0 -0.217,0.02975 -0.217,0.06612 0,0.03637 -0.1171,0.0881 -0.2604,0.114962 -0.1432,0.02689 -0.2603,0.08081 -0.2603,0.119875 0,0.03906 -0.05,0.07102 -0.1116,0.07102 -0.061,0 -0.1116,0.02929 -0.1116,0.0651 0,0.0358 -0.098,0.08464 -0.2172,0.108534 -0.129,0.02578 -0.2368,0.10515 -0.2654,0.195289 -0.027,0.08352 -0.1022,0.151845 -0.1681,0.151845 -0.1322,0 -0.614,0.489673 -0.614,0.624051 0,0.04652 -0.084,0.147435 -0.186,0.224253 -0.1023,0.07682 -0.186,0.199682 -0.186,0.273026 0,0.07335 -0.063,0.153493 -0.141,0.178104 -0.087,0.02772 -0.1594,0.142816 -0.1894,0.302596 -0.027,0.141814 -0.08,0.257844 -0.1194,0.257844 -0.039,0 -0.071,0.05022 -0.071,0.111592 0,0.06137 -0.031,0.111594 -0.069,0.111594 -0.038,0 -0.092,0.184126 -0.1202,0.409169 -0.028,0.225046 -0.081,0.409173 -0.1169,0.409173 -0.036,0 -0.066,0.0837 -0.066,0.185988 0,0.102292 -0.033,0.185987 -0.074,0.185987 -0.041,0 -0.074,0.131121 -0.074,0.291382 0,0.166361 -0.04,0.304625 -0.093,0.322255 -0.07,0.02351 -0.093,0.462911 -0.093,1.841396 0,1.378484 0.022,1.817887 0.093,1.841396 0.055,0.01842 0.093,0.163409 0.093,0.359454 0,0.180716 0.033,0.328576 0.074,0.328576 0.041,0 0.074,0.0837 0.074,0.185988 0,0.102292 0.03,0.185987 0.067,0.185987 0.037,0 0.09,0.167388 0.1185,0.371976 0.028,0.204585 0.082,0.371973 0.1186,0.371973 0.037,0 0.067,0.05022 0.067,0.111593 0,0.06137 0.03,0.111592 0.066,0.111592 0.036,0 0.088,0.117172 0.115,0.260381 0.027,0.143212 0.081,0.260385 0.1199,0.260385 0.039,0 0.071,0.06337 0.071,0.14083 0,0.07746 0.05,0.1601 0.1116,0.183652 0.061,0.02356 0.1116,0.10857 0.1116,0.188934 0,0.08036 0.065,0.166817 0.145,0.192126 0.08,0.02531 0.1651,0.109547 0.1898,0.187197 0.025,0.07765 0.1083,0.161342 0.1859,0.185985 0.078,0.02463 0.1614,0.10834 0.186,0.185987 0.025,0.07765 0.1084,0.161343 0.186,0.185988 0.078,0.02463 0.1619,0.110053 0.1872,0.189792 0.025,0.07974 0.1083,0.144987 0.1845,0.144987 0.076,0 0.1887,0.05022 0.2501,0.111591 0.061,0.06137 0.1474,0.111594 0.1913,0.111594 0.044,0 0.08,0.03308 0.08,0.07351 0,0.04043 0.1339,0.09493 0.2975,0.1211 0.1637,0.02618 0.2976,0.07678 0.2976,0.112474 0,0.03569 0.084,0.06489 0.186,0.06489 0.1023,0 0.186,0.03164 0.186,0.07032 0,0.10455 0.5706,0.139321 1.858,0.113222 0.7362,-0.01493 1.1608,-0.05221 1.1779,-0.103436 z m -3.8728,-6.528055 c -0.2762,-0.01718 -0.5022,-0.06316 -0.5022,-0.102205 0,-0.03905 -0.069,-0.07099 -0.1541,-0.07099 -0.1647,0 -0.3667,-0.160981 -0.3667,-0.292268 0,-0.09954 0.7219,-0.107533 0.7564,-0.0084 0.014,0.03923 0.5186,0.09453 1.1221,0.122878 0.6035,0.02835 1.0973,0.07994 1.0973,0.114653 0,0.03471 0.2846,0.06311 0.6324,0.06311 0.3478,0 0.6323,-0.02838 0.6323,-0.06306 0,-0.03468 0.3934,-0.08547 0.8742,-0.112857 0.4807,-0.02739 0.8853,-0.08271 0.8989,-0.12293 0.014,-0.04022 0.1392,-0.07313 0.279,-0.07313 0.2215,0 0.2542,0.0239 0.2542,0.185987 0,0.162096 -0.033,0.185988 -0.2542,0.185988 -0.1398,0 -0.2668,0.03789 -0.2823,0.0842 -0.029,0.08619 -3.9163,0.155565 -4.9873,0.089 z m 14.8828,6.529463 c 0.015,-0.04483 0.108,-0.08152 0.2069,-0.08152 0.099,0 0.1798,-0.03196 0.1798,-0.07102 0,-0.03906 0.1172,-0.09301 0.2604,-0.119872 0.1432,-0.02688 0.2604,-0.0786 0.2604,-0.114965 0,-0.03636 0.05,-0.06611 0.1116,-0.06611 0.061,0 0.1116,-0.03348 0.1116,-0.0744 0,-0.04092 0.048,-0.07439 0.1059,-0.07439 0.1198,0 1.1588,-1.000023 1.1588,-1.115392 0,-0.04121 0.03,-0.07493 0.066,-0.07493 0.036,0 0.088,-0.117172 0.1149,-0.260384 0.027,-0.14321 0.081,-0.260382 0.1199,-0.260382 0.039,0 0.071,-0.0809 0.071,-0.179788 0,-0.09888 0.041,-0.193529 0.092,-0.210326 0.1328,-0.04426 0.1341,-2.67143 0,-2.715794 -0.051,-0.0171 -0.093,-0.111982 -0.093,-0.210863 0,-0.09888 -0.03,-0.179788 -0.066,-0.179788 -0.036,0 -0.087,-0.10989 -0.1119,-0.244203 -0.025,-0.13431 -0.1126,-0.292349 -0.1943,-0.3512 -0.082,-0.05885 -0.1484,-0.135713 -0.1484,-0.170804 0,-0.03509 -0.1339,-0.196386 -0.2976,-0.358428 -0.1637,-0.16204 -0.2976,-0.324547 -0.2976,-0.361128 0,-0.03658 -0.075,-0.09029 -0.1674,-0.119357 -0.092,-0.02907 -0.2215,-0.114957 -0.2876,-0.190863 -0.066,-0.0759 -0.2251,-0.158996 -0.3533,-0.184644 -0.1283,-0.02564 -0.2332,-0.07593 -0.2332,-0.111731 0,-0.0358 -0.05,-0.0651 -0.1116,-0.0651 -0.061,0 -0.1116,-0.03062 -0.1116,-0.06805 0,-0.03742 -0.2511,-0.09158 -0.558,-0.120333 -0.3068,-0.02876 -0.5579,-0.08183 -0.5579,-0.11794 0,-0.03611 -0.3181,-0.06565 -0.7068,-0.06565 -0.3887,0 -0.7067,0.02862 -0.7067,0.06361 0,0.03498 -0.2423,0.08392 -0.5384,0.108745 -0.2962,0.02483 -0.55,0.0799 -0.5642,0.122382 -0.014,0.04248 -0.1067,0.07724 -0.2055,0.07724 -0.099,0 -0.1798,0.03348 -0.1798,0.07439 0,0.04092 -0.05,0.0744 -0.1116,0.0744 -0.062,0 -0.1116,-0.06603 -0.1116,-0.147911 0,-0.115035 0.066,-0.158489 0.2976,-0.195497 0.1636,-0.02618 0.2975,-0.07678 0.2975,-0.112471 0,-0.03569 0.081,-0.06489 0.1798,-0.06489 0.099,0 0.1938,-0.04184 0.2108,-0.09299 0.024,-0.07052 0.4146,-0.09299 1.6181,-0.09299 1.2036,0 1.5946,0.02247 1.6181,0.09299 0.017,0.05115 0.1119,0.09299 0.2108,0.09299 0.099,0 0.1798,0.03197 0.1798,0.07103 0,0.03906 0.1171,0.093 0.2604,0.119872 0.1432,0.02688 0.2603,0.0786 0.2603,0.114962 0,0.206584 0.3195,-0.02306 0.4044,-0.290729 0.029,-0.09016 0.083,-0.163919 0.1214,-0.163919 0.038,0 0.069,-0.05022 0.069,-0.111594 0,-0.06137 0.032,-0.11159 0.071,-0.11159 0.039,0 0.093,-0.117173 0.1199,-0.260385 0.027,-0.143209 0.079,-0.260381 0.115,-0.260381 0.036,0 0.066,-0.08369 0.066,-0.185989 0,-0.102292 0.033,-0.185985 0.074,-0.185985 0.041,0 0.074,-0.117172 0.074,-0.260384 0,-0.143209 0.033,-0.260382 0.074,-0.260382 0.043,0 0.074,-0.235582 0.074,-0.55796 0,-0.322379 -0.031,-0.557963 -0.074,-0.557963 -0.041,0 -0.074,-0.100432 -0.074,-0.223186 0,-0.12275 -0.034,-0.223184 -0.074,-0.223184 -0.041,0 -0.074,-0.06695 -0.074,-0.148788 0,-0.08184 -0.034,-0.14879 -0.074,-0.14879 -0.041,0 -0.074,-0.04793 -0.074,-0.106514 0,-0.141738 -0.8641,-1.009411 -1.0052,-1.009411 -0.061,0 -0.1107,-0.03082 -0.1107,-0.06848 0,-0.03766 -0.1005,-0.09054 -0.2232,-0.117503 -0.1228,-0.02697 -0.2232,-0.07984 -0.2232,-0.117504 0,-0.03767 -0.081,-0.06848 -0.1798,-0.06848 -0.099,0 -0.1937,-0.04184 -0.2108,-0.09299 -0.024,-0.07052 -0.4145,-0.09299 -1.6181,-0.09299 -1.2035,0 -1.5945,0.02247 -1.6181,0.09299 -0.017,0.05115 -0.095,0.09299 -0.1735,0.09299 -0.079,0 -0.1426,0.0291 -0.1426,0.06466 0,0.03556 -0.1203,0.08417 -0.2672,0.108012 -0.1469,0.02385 -0.3227,0.107131 -0.3906,0.18508 -0.068,0.07795 -0.197,0.164966 -0.287,0.193371 -0.09,0.0284 -0.1837,0.115176 -0.2084,0.192826 -0.025,0.07765 -0.1083,0.161343 -0.1859,0.185985 -0.078,0.02463 -0.1619,0.110053 -0.1872,0.189795 -0.025,0.07974 -0.077,0.144983 -0.1154,0.144983 -0.038,0 -0.069,0.04283 -0.069,0.09517 0,0.05234 -0.067,0.143319 -0.1485,0.202166 -0.082,0.05885 -0.1691,0.216893 -0.1942,0.351202 -0.025,0.13431 -0.076,0.2442 -0.112,0.2442 -0.036,0 -0.066,0.0809 -0.066,0.179788 0,0.09888 -0.041,0.193487 -0.091,0.210231 -0.1326,0.04421 -0.1342,2.746122 0,2.790342 0.051,0.01706 0.093,0.111926 0.093,0.210808 0,0.09888 0.03,0.179787 0.066,0.179787 0.036,0 0.088,0.117173 0.115,0.260383 0.027,0.143209 0.081,0.260382 0.1198,0.260382 0.039,0 0.071,0.0647 0.071,0.143776 0,0.07908 0.065,0.164484 0.1449,0.189792 0.08,0.02531 0.1675,0.116796 0.1949,0.203301 0.065,0.203336 0.3354,0.472814 0.5406,0.537954 0.089,0.02812 0.1611,0.08235 0.1611,0.12051 0,0.03816 0.084,0.06938 0.186,0.06938 0.1023,0 0.186,-0.03348 0.186,-0.07439 0,-0.04376 0.2603,-0.0744 0.6323,-0.0744 0.372,0 0.6324,0.03064 0.6324,0.0744 0,0.04092 0.1674,0.07439 0.3719,0.07439 0.2046,0 0.372,0.02961 0.372,0.06582 0,0.0362 0.1841,0.08883 0.4092,0.116944 0.225,0.02811 0.4092,0.08219 0.4092,0.120164 0,0.03797 0.084,0.06904 0.186,0.06904 0.1022,0 0.1859,0.02975 0.1859,0.06611 0,0.03637 0.1172,0.0881 0.2604,0.114966 0.1432,0.02688 0.2604,0.08081 0.2604,0.119871 0,0.03906 0.063,0.07102 0.1408,0.07102 0.078,0 0.1607,0.05164 0.1849,0.114754 0.037,0.09586 0,0.106356 -0.2338,0.06373 -0.1529,-0.02806 -0.289,-0.0797 -0.3027,-0.114751 -0.014,-0.03505 -0.1057,-0.06373 -0.2046,-0.06373 -0.099,0 -0.1798,-0.03181 -0.1798,-0.0707 0,-0.03889 -0.2008,-0.09343 -0.4463,-0.121202 -0.2455,-0.02778 -0.4464,-0.07965 -0.4464,-0.115289 0,-0.03563 -0.1339,-0.06478 -0.2976,-0.06478 -0.1636,0 -0.2976,-0.03348 -0.2976,-0.0744 0,-0.04438 -0.2851,-0.0744 -0.7067,-0.0744 -0.4216,0 -0.7068,0.03002 -0.7068,0.0744 0,0.04092 -0.1171,0.0744 -0.2603,0.0744 -0.1433,0 -0.2604,0.0292 -0.2604,0.06489 0,0.03569 -0.1339,0.0863 -0.2976,0.112474 -0.1637,0.02618 -0.2976,0.08067 -0.2976,0.1211 0,0.04043 -0.035,0.07351 -0.078,0.07351 -0.1517,0 -0.6664,0.491012 -0.6664,0.63574 0,0.05951 -0.034,0.108211 -0.074,0.108211 -0.041,0 -0.074,0.06416 -0.074,0.142591 0,0.07842 -0.042,0.156574 -0.093,0.173664 -0.1331,0.04447 -0.133,2.150261 10e-5,2.194625 0.051,0.01701 0.093,0.07837 0.093,0.136337 0,0.05797 0.033,0.105394 0.074,0.105394 0.041,0 0.074,0.05389 0.074,0.119757 0,0.144041 0.8663,0.996167 1.0128,0.996167 0.057,0 0.1031,0.03348 0.1031,0.07439 0,0.04092 0.05,0.0744 0.1116,0.0744 0.061,0 0.1116,0.02975 0.1116,0.06611 0,0.03637 0.1171,0.0881 0.2604,0.114965 0.1432,0.02688 0.2603,0.08081 0.2603,0.119872 0,0.03906 0.1172,0.07102 0.2604,0.07102 0.1432,0 0.2604,0.03156 0.2604,0.07012 0,0.107564 0.5161,0.139571 1.8575,0.115187 0.8034,-0.01459 1.2345,-0.05033 1.2523,-0.103788 z m 9.745,0.0023 c 0.015,-0.04602 0.1088,-0.08367 0.2077,-0.08367 0.099,0 0.1797,-0.02967 0.1797,-0.06595 0,-0.03627 0.149,-0.08829 0.3311,-0.115589 0.2358,-0.03537 0.3442,-0.09127 0.377,-0.194434 0.025,-0.07964 0.097,-0.144793 0.1592,-0.144793 0.126,0 1.1414,-0.989465 1.1414,-1.112333 0,-0.04289 0.034,-0.07799 0.074,-0.07799 0.041,0 0.074,-0.06696 0.074,-0.14879 0,-0.08183 0.033,-0.148791 0.073,-0.148791 0.04,0 0.095,-0.133911 0.1211,-0.297579 0.026,-0.163668 0.077,-0.297579 0.1125,-0.297579 0.036,0 0.065,-0.117172 0.065,-0.260384 0,-0.14321 0.033,-0.260382 0.074,-0.260382 0.045,0 0.074,-0.347176 0.074,-0.892739 0,-0.545561 -0.029,-0.892739 -0.074,-0.892739 -0.041,0 -0.074,-0.100431 -0.074,-0.223185 0,-0.122751 -0.03,-0.223185 -0.066,-0.223185 -0.036,0 -0.089,-0.150649 -0.1161,-0.334776 -0.028,-0.184128 -0.082,-0.334778 -0.1201,-0.334778 -0.038,0 -0.07,-0.03792 -0.07,-0.08427 0,-0.04635 -0.062,-0.13841 -0.1381,-0.204585 -0.076,-0.06618 -0.1614,-0.193932 -0.1898,-0.283902 -0.028,-0.08997 -0.1169,-0.184292 -0.1967,-0.209601 -0.08,-0.02531 -0.145,-0.07572 -0.145,-0.112016 0,-0.09932 -0.3654,-0.444739 -0.4705,-0.444739 -0.051,0 -0.1391,-0.06572 -0.197,-0.146052 -0.058,-0.08033 -0.1992,-0.166682 -0.314,-0.191898 -0.1148,-0.02522 -0.2088,-0.07666 -0.2088,-0.11433 0,-0.03766 -0.067,-0.06848 -0.1488,-0.06848 -0.082,0 -0.1488,-0.03062 -0.1488,-0.06805 0,-0.03742 -0.251,-0.09158 -0.5579,-0.120333 -0.3069,-0.02876 -0.558,-0.08183 -0.558,-0.11794 0,-0.03611 -0.3013,-0.06565 -0.6695,-0.06565 -0.3683,0 -0.6696,0.02864 -0.6696,0.06366 0,0.03501 -0.2588,0.08323 -0.5751,0.107148 -0.3163,0.02393 -0.5869,0.07897 -0.6013,0.122332 -0.014,0.04336 -0.1072,0.07884 -0.2061,0.07884 -0.099,0 -0.1798,0.03348 -0.1798,0.07439 0,0.04092 -0.05,0.0744 -0.1116,0.0744 -0.062,0 -0.1116,-0.06603 -0.1116,-0.14791 0,-0.115035 0.066,-0.158489 0.2976,-0.195497 0.1637,-0.02618 0.2976,-0.07678 0.2976,-0.112471 0,-0.03569 0.081,-0.06489 0.1798,-0.06489 0.099,0 0.1937,-0.04184 0.2108,-0.09299 0.024,-0.07052 0.4145,-0.09299 1.6181,-0.09299 1.2035,0 1.5945,0.02247 1.618,0.09299 0.017,0.05115 0.1119,0.09299 0.2108,0.09299 0.099,0 0.1798,0.02975 0.1798,0.06612 0,0.03637 0.1172,0.0881 0.2604,0.114963 0.1432,0.02688 0.2604,0.08081 0.2604,0.119872 0,0.03906 0.036,0.07103 0.08,0.07103 0.103,0 0.2923,-0.189266 0.2923,-0.292265 0,-0.04384 0.033,-0.07971 0.073,-0.07971 0.04,0 0.094,-0.08369 0.1197,-0.185987 0.026,-0.102293 0.077,-0.185985 0.113,-0.185985 0.036,0 0.066,-0.05022 0.066,-0.111594 0,-0.06137 0.032,-0.111591 0.07,-0.111591 0.038,0 0.092,-0.15065 0.12,-0.334779 0.028,-0.184126 0.08,-0.334775 0.1162,-0.334775 0.036,0 0.066,-0.117173 0.066,-0.260385 0,-0.143209 0.034,-0.260382 0.074,-0.260382 0.043,0 0.074,-0.247981 0.074,-0.595157 0,-0.347179 -0.031,-0.59516 -0.074,-0.59516 -0.041,0 -0.074,-0.0837 -0.074,-0.185988 0,-0.102293 -0.029,-0.185988 -0.065,-0.185988 -0.036,0 -0.086,-0.10493 -0.1117,-0.233178 -0.026,-0.128245 -0.1088,-0.287265 -0.1847,-0.353376 -0.076,-0.06611 -0.1618,-0.195522 -0.1908,-0.287585 -0.029,-0.09206 -0.1024,-0.167388 -0.163,-0.167388 -0.061,0 -0.1877,-0.0837 -0.2825,-0.185988 -0.095,-0.102292 -0.2104,-0.185988 -0.2568,-0.185988 -0.046,0 -0.084,-0.02975 -0.084,-0.06611 0,-0.03636 -0.1172,-0.0881 -0.2604,-0.114963 -0.1432,-0.02688 -0.2604,-0.08081 -0.2604,-0.119872 0,-0.03906 -0.081,-0.07103 -0.1798,-0.07103 -0.099,0 -0.1937,-0.04184 -0.2107,-0.09299 -0.045,-0.134482 -3.1914,-0.134482 -3.2362,0 -0.017,0.05115 -0.078,0.09299 -0.1364,0.09299 -0.058,0 -0.1054,0.02968 -0.1054,0.06595 0,0.03627 -0.149,0.08829 -0.331,0.115589 -0.2359,0.03537 -0.3443,0.09127 -0.377,0.194434 -0.025,0.07964 -0.098,0.144795 -0.1606,0.144795 -0.1258,0 -0.9169,0.76892 -0.9169,0.891142 0,0.04179 -0.033,0.07599 -0.073,0.07599 -0.04,0 -0.094,0.08369 -0.1196,0.185988 -0.026,0.102293 -0.076,0.185988 -0.113,0.185988 -0.036,0 -0.066,0.0809 -0.066,0.179787 0,0.09888 -0.034,0.191111 -0.075,0.204951 -0.042,0.01383 -0.097,0.250973 -0.1224,0.526963 -0.026,0.27599 -0.076,0.501801 -0.1105,0.501801 -0.035,0 -0.064,0.334776 -0.064,0.743949 0,0.409172 0.029,0.743951 0.064,0.743951 0.035,0 0.086,0.209235 0.1123,0.464966 0.027,0.255734 0.082,0.476129 0.1222,0.489767 0.04,0.01364 0.074,0.08896 0.074,0.167388 0,0.07843 0.032,0.14259 0.071,0.14259 0.039,0 0.093,0.117172 0.1198,0.260382 0.027,0.143212 0.077,0.260384 0.1116,0.260384 0.1048,0 0.4415,0.371389 0.4415,0.486947 0,0.05951 0.052,0.108211 0.1151,0.108211 0.063,0 0.1928,0.0837 0.2876,0.185988 0.17,0.18344 0.49,0.256322 0.49,0.111594 0,-0.04376 0.2604,-0.0744 0.6324,-0.0744 0.372,0 0.6323,0.03064 0.6323,0.0744 0,0.04092 0.1674,0.07439 0.372,0.07439 0.2046,0 0.372,0.02915 0.372,0.06479 0,0.03563 0.2009,0.08751 0.4464,0.115285 0.2455,0.02778 0.4463,0.08232 0.4463,0.121202 0,0.03889 0.084,0.0707 0.186,0.0707 0.1023,0 0.186,0.03082 0.186,0.06848 0,0.03767 0.1004,0.09054 0.2232,0.117501 0.1227,0.02697 0.2232,0.07984 0.2232,0.117504 0,0.03767 0.053,0.06848 0.1169,0.06848 0.064,0 0.1711,0.05424 0.2374,0.120544 0.1112,0.111124 0.095,0.11625 -0.2099,0.06562 -0.1817,-0.03021 -0.3416,-0.08445 -0.3552,-0.120542 -0.014,-0.03609 -0.1057,-0.06562 -0.2046,-0.06562 -0.099,0 -0.1798,-0.03181 -0.1798,-0.0707 0,-0.03889 -0.2008,-0.09343 -0.4463,-0.121202 -0.2456,-0.02778 -0.4464,-0.07966 -0.4464,-0.115288 0,-0.03563 -0.1339,-0.06478 -0.2976,-0.06478 -0.1637,0 -0.2976,-0.03348 -0.2976,-0.0744 0,-0.04438 -0.2852,-0.07439 -0.7067,-0.07439 -0.4216,0 -0.7068,0.03002 -0.7068,0.07439 0,0.04092 -0.1004,0.0744 -0.2232,0.0744 -0.1227,0 -0.2232,0.02967 -0.2232,0.06595 0,0.03627 -0.1489,0.08829 -0.331,0.11559 -0.2269,0.03403 -0.3446,0.09238 -0.3742,0.185574 -0.024,0.07476 -0.1398,0.155283 -0.2581,0.178934 -0.1269,0.02539 -0.2348,0.105208 -0.2632,0.194847 -0.026,0.08351 -0.079,0.151848 -0.1176,0.151848 -0.038,0 -0.069,0.05022 -0.069,0.11159 0,0.06137 -0.031,0.111594 -0.07,0.111594 -0.038,0 -0.092,0.15065 -0.12,0.334776 -0.028,0.184129 -0.08,0.334778 -0.1162,0.334778 -0.036,0 -0.066,0.301299 -0.066,0.669555 0,0.368252 0.03,0.669554 0.067,0.669554 0.037,0 0.09,0.161696 0.1168,0.359328 0.031,0.227605 0.1021,0.397257 0.193,0.462793 0.079,0.0569 0.1435,0.144767 0.1435,0.19525 0,0.105079 0.3455,0.470525 0.4448,0.470525 0.036,0 0.087,0.06688 0.1131,0.14862 0.026,0.08174 0.1287,0.169061 0.2282,0.194052 0.1,0.02499 0.1811,0.07528 0.1811,0.111765 0,0.03648 0.067,0.06633 0.1488,0.06633 0.082,0 0.1487,0.03082 0.1487,0.06848 0,0.03767 0.1005,0.09054 0.2232,0.117502 0.1228,0.02697 0.2232,0.07984 0.2232,0.117504 0,0.03766 0.1172,0.06848 0.2604,0.06848 0.1432,0 0.2604,0.03164 0.2604,0.07032 0,0.103819 0.5617,0.138376 1.894,0.116506 0.7972,-0.01308 1.1964,-0.04697 1.2151,-0.103155 z m 11.3087,-0.0023 c 0.015,-0.04483 0.1081,-0.08152 0.207,-0.08152 0.099,0 0.1798,-0.0292 0.1798,-0.06488 0,-0.03569 0.1339,-0.0863 0.2975,-0.112474 0.1637,-0.02618 0.2976,-0.08067 0.2976,-0.121101 0,-0.04043 0.063,-0.07351 0.1409,-0.07351 0.077,0 0.1601,-0.05022 0.1836,-0.111594 0.024,-0.06137 0.1086,-0.111591 0.1889,-0.111591 0.08,0 0.1669,-0.06525 0.1922,-0.144987 0.025,-0.07974 0.1095,-0.165147 0.1872,-0.189791 0.078,-0.02463 0.1613,-0.108338 0.186,-0.185988 0.025,-0.07765 0.1099,-0.16186 0.1896,-0.187141 0.08,-0.02528 0.1652,-0.127424 0.1902,-0.226989 0.025,-0.09956 0.075,-0.181028 0.1118,-0.181028 0.036,0 0.066,-0.06696 0.066,-0.14879 0,-0.08183 0.032,-0.148792 0.071,-0.148792 0.039,0 0.093,-0.117172 0.1199,-0.260381 0.027,-0.14321 0.079,-0.260382 0.115,-0.260382 0.036,0 0.066,-0.100434 0.066,-0.223185 0,-0.122751 0.034,-0.223184 0.074,-0.223184 0.046,0 0.074,-0.384373 0.074,-1.004333 0,-0.619957 -0.028,-1.00433 -0.074,-1.00433 -0.041,0 -0.074,-0.117172 -0.074,-0.260382 0,-0.143209 -0.032,-0.260382 -0.071,-0.260382 -0.039,0 -0.093,-0.117172 -0.1199,-0.260384 -0.027,-0.143209 -0.079,-0.260382 -0.115,-0.260382 -0.036,0 -0.066,-0.05022 -0.066,-0.111591 0,-0.06137 -0.031,-0.111594 -0.069,-0.111594 -0.038,0 -0.092,-0.07179 -0.12,-0.159529 -0.064,-0.200429 -0.4508,-0.584419 -0.5893,-0.584419 -0.057,0 -0.1252,-0.06688 -0.1512,-0.148616 -0.026,-0.08174 -0.1286,-0.169065 -0.2282,-0.194052 -0.1,-0.025 -0.181,-0.07529 -0.181,-0.111766 0,-0.03648 -0.064,-0.06633 -0.1426,-0.06633 -0.078,0 -0.1548,-0.03677 -0.1698,-0.08171 -0.015,-0.04494 -0.1852,-0.09951 -0.3782,-0.121269 -0.193,-0.02177 -0.3509,-0.06868 -0.3509,-0.104274 0,-0.03559 -0.2009,-0.06472 -0.4464,-0.06472 -0.248,0 -0.4464,-0.03306 -0.4464,-0.07439 0,-0.04092 -0.1673,-0.0744 -0.3719,-0.0744 -0.2046,0 -0.372,0.03348 -0.372,0.0744 0,0.04133 -0.1984,0.07439 -0.4464,0.07439 -0.2455,0 -0.4463,0.03082 -0.4463,0.06847 0,0.03766 -0.2177,0.09178 -0.4836,0.120257 -0.266,0.02849 -0.4836,0.08137 -0.4836,0.117516 0,0.03614 -0.05,0.06573 -0.1116,0.06573 -0.061,0 -0.1116,0.02975 -0.1116,0.06611 0,0.03637 -0.1171,0.0881 -0.2603,0.114966 -0.1433,0.02688 -0.2604,0.08081 -0.2604,0.119871 0,0.03906 -0.067,0.07102 -0.1488,0.07102 -0.082,0 -0.1488,0.03348 -0.1488,0.0744 0,0.04092 -0.038,0.07439 -0.084,0.07439 -0.046,0 -0.162,0.08369 -0.2568,0.185987 -0.095,0.102293 -0.209,0.185989 -0.2539,0.185989 -0.045,0 -0.159,0.08369 -0.2538,0.185985 -0.2177,0.23487 -0.3704,0.246134 -0.2993,0.02208 0.06,-0.189387 0.2108,-0.356845 0.3213,-0.356845 0.096,0 0.455,-0.354613 0.455,-0.449752 0,-0.03906 0.068,-0.07101 0.1511,-0.07101 0.083,0 0.1704,-0.05022 0.194,-0.111594 0.024,-0.06137 0.1026,-0.111591 0.1757,-0.111591 0.073,0 0.1521,-0.05022 0.1757,-0.111594 0.024,-0.06137 0.1108,-0.111591 0.1939,-0.111591 0.083,0 0.1511,-0.03348 0.1511,-0.0744 0,-0.04092 0.084,-0.07439 0.186,-0.07439 0.1023,0 0.186,-0.03308 0.186,-0.07352 0,-0.04043 0.1339,-0.09493 0.2976,-0.121101 0.1637,-0.02618 0.2976,-0.07678 0.2976,-0.112471 0,-0.03569 0.1144,-0.06489 0.2542,-0.06489 0.1398,0 0.2681,-0.04184 0.2851,-0.09299 0.045,-0.134141 2.8195,-0.134141 2.8642,0 0.017,0.05115 0.112,0.09299 0.2108,0.09299 0.099,0 0.1798,0.03196 0.1798,0.07103 0,0.03906 0.1172,0.093 0.2604,0.119871 0.1432,0.02688 0.2604,0.0786 0.2604,0.114962 0,0.03637 0.082,0.06612 0.1823,0.06612 0.1676,0 0.1863,-0.03599 0.2328,-0.446369 0.028,-0.245505 0.08,-0.44637 0.1153,-0.44637 0.036,0 0.065,-0.133911 0.065,-0.297578 0,-0.163671 0.034,-0.297582 0.074,-0.297582 0.043,0 0.074,-0.235582 0.074,-0.55796 0,-0.322379 -0.031,-0.557964 -0.074,-0.557964 -0.041,0 -0.074,-0.150649 -0.074,-0.334776 0,-0.184129 -0.029,-0.334778 -0.065,-0.334778 -0.036,0 -0.085,-0.125877 -0.1097,-0.279733 -0.025,-0.155873 -0.1114,-0.327847 -0.1955,-0.388395 -0.083,-0.05977 -0.1507,-0.149899 -0.1507,-0.200292 0,-0.139385 -0.8924,-0.991452 -1.0384,-0.991452 -0.043,0 -0.077,-0.03196 -0.077,-0.07102 0,-0.03906 -0.1172,-0.09301 -0.2604,-0.119874 -0.1432,-0.02685 -0.2604,-0.0786 -0.2604,-0.114963 0,-0.03636 -0.081,-0.06612 -0.1798,-0.06612 -0.099,0 -0.1938,-0.04184 -0.2108,-0.09299 -0.023,-0.07012 -0.3849,-0.09299 -1.4693,-0.09299 -1.0845,0 -1.4459,0.02289 -1.4693,0.09299 -0.017,0.05115 -0.1119,0.09299 -0.2108,0.09299 -0.099,0 -0.1798,0.02968 -0.1798,0.06595 0,0.03627 -0.1506,0.08854 -0.3347,0.116151 -0.1842,0.02761 -0.3348,0.08163 -0.3348,0.120041 0,0.03841 -0.05,0.06984 -0.1116,0.06984 -0.061,0 -0.1116,0.03122 -0.1116,0.06938 0,0.03816 -0.075,0.09317 -0.1674,0.122237 -0.092,0.02907 -0.2176,0.11023 -0.279,0.180358 -0.061,0.07013 -0.1869,0.151288 -0.2789,0.180359 -0.092,0.02907 -0.1674,0.08255 -0.1674,0.118851 0,0.0363 -0.08,0.145684 -0.1771,0.243072 -0.097,0.09739 -0.1995,0.247847 -0.227,0.334351 -0.027,0.08651 -0.1151,0.177966 -0.1947,0.203247 -0.08,0.02528 -0.1653,0.127424 -0.1903,0.226989 -0.025,0.09957 -0.075,0.181028 -0.1117,0.181028 -0.037,0 -0.066,0.06696 -0.066,0.148791 0,0.08183 -0.033,0.148791 -0.074,0.148791 -0.041,0 -0.074,0.05022 -0.074,0.11159 0,0.06137 -0.033,0.111594 -0.073,0.111594 -0.04,0 -0.095,0.133911 -0.1211,0.297579 -0.026,0.163668 -0.077,0.297578 -0.1124,0.297578 -0.036,0 -0.065,0.09764 -0.065,0.216988 0,0.11934 -0.033,0.228142 -0.074,0.241782 -0.041,0.01364 -0.095,0.234035 -0.1222,0.489767 -0.027,0.255733 -0.077,0.464969 -0.1123,0.464969 -0.035,0 -0.064,0.28456 -0.064,0.632354 0,0.371976 -0.031,0.632358 -0.074,0.632358 -0.044,0 -0.074,0.260382 -0.074,0.632357 0,0.371975 0.031,0.632358 0.074,0.632358 0.043,0 0.074,0.235584 0.074,0.55796 0,0.30688 0.03,0.557963 0.066,0.557963 0.036,0 0.089,0.251083 0.118,0.55796 0.029,0.306881 0.083,0.557964 0.1203,0.557964 0.038,0 0.068,0.0837 0.068,0.185988 0,0.102292 0.029,0.185987 0.065,0.185987 0.036,0 0.086,0.133911 0.1124,0.297579 0.026,0.163669 0.081,0.297579 0.1211,0.297579 0.04,0 0.073,0.06696 0.073,0.148791 0,0.08183 0.034,0.148791 0.074,0.148791 0.041,0 0.074,0.05022 0.074,0.111591 0,0.06137 0.034,0.111593 0.074,0.111593 0.041,0 0.074,0.06226 0.074,0.138367 0,0.0761 0.084,0.201223 0.186,0.27804 0.1023,0.07682 0.186,0.179656 0.186,0.228528 0,0.124469 0.8721,0.991752 0.9973,0.991752 0.056,0 0.122,0.05022 0.1455,0.111591 0.024,0.06138 0.1109,0.111594 0.194,0.111594 0.083,0 0.1511,0.03348 0.1511,0.07439 0,0.04092 0.047,0.0744 0.1054,0.0744 0.058,0 0.1173,0.03563 0.1318,0.07919 0.014,0.04356 0.1679,0.09818 0.341,0.121387 0.173,0.0232 0.3145,0.07127 0.3145,0.106794 0,0.03553 0.084,0.0646 0.186,0.0646 0.1023,0 0.186,0.03156 0.186,0.07012 0,0.107565 0.5161,0.139571 1.8575,0.115188 0.8034,-0.01459 1.2345,-0.05033 1.2523,-0.103789 z m 11.0846,8.19e-4 c 0.015,-0.04526 0.1251,-0.08228 0.2444,-0.08228 0.1194,0 0.217,-0.0292 0.217,-0.06488 0,-0.03569 0.1339,-0.0863 0.2976,-0.112473 0.1637,-0.02618 0.2976,-0.08067 0.2976,-0.121101 0,-0.04043 0.05,-0.07351 0.1116,-0.07351 0.061,0 0.1116,-0.03122 0.1116,-0.06938 0,-0.03816 0.073,-0.09243 0.1614,-0.120608 0.089,-0.02818 0.4084,-0.298254 0.7103,-0.600174 0.3019,-0.30192 0.5808,-0.548943 0.6198,-0.548943 0.039,0 0.071,-0.06801 0.071,-0.151125 0,-0.08312 0.05,-0.170397 0.1116,-0.193948 0.061,-0.02356 0.1116,-0.106195 0.1116,-0.183651 0,-0.07746 0.033,-0.14083 0.073,-0.14083 0.04,0 0.094,-0.0837 0.1197,-0.185988 0.026,-0.102293 0.076,-0.185988 0.113,-0.185988 0.037,0 0.066,-0.0837 0.066,-0.185988 0,-0.102292 0.033,-0.185987 0.073,-0.185987 0.04,0 0.095,-0.133911 0.1211,-0.297579 0.026,-0.163668 0.077,-0.297579 0.1125,-0.297579 0.036,0 0.065,-0.117172 0.065,-0.260384 0,-0.14321 0.031,-0.260382 0.068,-0.260382 0.038,0 0.092,-0.334776 0.1212,-0.743949 0.029,-0.409172 0.082,-0.743948 0.1175,-0.743948 0.036,0 0.065,-0.485428 0.065,-1.078727 0,-0.593298 -0.029,-1.078726 -0.063,-1.078726 -0.035,0 -0.084,-0.292574 -0.1092,-0.650168 -0.025,-0.357593 -0.08,-0.661681 -0.1227,-0.675754 -0.042,-0.01406 -0.077,-0.139967 -0.077,-0.279769 0,-0.139802 -0.03,-0.254182 -0.066,-0.254182 -0.036,0 -0.088,-0.150649 -0.1161,-0.334778 -0.028,-0.184126 -0.082,-0.334776 -0.1201,-0.334776 -0.038,0 -0.07,-0.05021 -0.07,-0.111594 0,-0.06137 -0.032,-0.111591 -0.071,-0.111591 -0.039,0 -0.093,-0.11603 -0.1194,-0.257846 -0.03,-0.159778 -0.102,-0.274865 -0.1894,-0.302594 -0.077,-0.0246 -0.141,-0.110498 -0.141,-0.190858 0,-0.08036 -0.05,-0.165381 -0.1116,-0.188934 -0.061,-0.02356 -0.1115,-0.103938 -0.1115,-0.178639 0,-0.0747 -0.067,-0.157068 -0.1488,-0.18304 -0.082,-0.02598 -0.1488,-0.07692 -0.1488,-0.113225 0,-0.0987 -0.3652,-0.444738 -0.4693,-0.444738 -0.05,0 -0.1534,-0.08369 -0.2302,-0.185989 -0.077,-0.102292 -0.202,-0.185985 -0.2781,-0.185985 -0.076,0 -0.1383,-0.03348 -0.1383,-0.0744 0,-0.04092 -0.05,-0.07439 -0.1116,-0.07439 -0.061,0 -0.1116,-0.03196 -0.1116,-0.07102 0,-0.03906 -0.1172,-0.09301 -0.2604,-0.119875 -0.1432,-0.02685 -0.2604,-0.0786 -0.2604,-0.114962 0,-0.03636 -0.081,-0.06612 -0.1798,-0.06612 -0.099,0 -0.1937,-0.04184 -0.2108,-0.09299 -0.024,-0.07052 -0.4145,-0.09299 -1.6181,-0.09299 -1.2035,0 -1.5946,0.02247 -1.6181,0.09299 -0.017,0.05115 -0.1119,0.09299 -0.2107,0.09299 -0.099,0 -0.1798,0.03082 -0.1798,0.06848 0,0.03767 -0.1005,0.09055 -0.2232,0.117505 -0.1228,0.02697 -0.2232,0.07984 -0.2232,0.117503 0,0.03767 -0.067,0.06848 -0.1488,0.06848 -0.082,0 -0.1488,0.02985 -0.1488,0.06633 0,0.03648 -0.084,0.08734 -0.186,0.113011 -0.1023,0.02567 -0.1859,0.07952 -0.1859,0.119655 0,0.04013 -0.035,0.07298 -0.078,0.07298 -0.08,0 -0.2337,0.111776 -0.391,0.283837 -0.049,0.05382 -0.1815,0.191356 -0.294,0.305635 -0.1125,0.114279 -0.2046,0.260488 -0.2046,0.324906 0,0.06442 -0.067,0.138348 -0.1486,0.164292 -0.082,0.02595 -0.1691,0.128633 -0.194,0.228198 -0.025,0.09957 -0.075,0.181028 -0.1118,0.181028 -0.036,0 -0.066,0.06696 -0.066,0.148791 0,0.08183 -0.031,0.14879 -0.069,0.14879 -0.038,0 -0.091,0.100432 -0.1175,0.223185 -0.027,0.122751 -0.08,0.223185 -0.1175,0.223185 -0.038,0 -0.069,0.06695 -0.069,0.148788 0,0.08183 -0.032,0.148791 -0.071,0.148791 -0.039,0 -0.093,0.200865 -0.1212,0.446369 -0.028,0.245502 -0.08,0.44637 -0.1153,0.44637 -0.036,0 -0.065,0.09764 -0.065,0.216985 0,0.119343 -0.042,0.230933 -0.093,0.247984 -0.071,0.02376 -0.093,0.48894 -0.093,1.990063 0,1.501123 0.022,1.966312 0.093,1.990063 0.051,0.01704 0.093,0.14538 0.093,0.285182 0,0.139801 0.029,0.254182 0.065,0.254182 0.036,0 0.087,0.200867 0.1153,0.446369 0.028,0.245505 0.082,0.446369 0.1212,0.446369 0.039,0 0.071,0.05022 0.071,0.111594 0,0.06137 0.034,0.111592 0.074,0.111592 0.041,0 0.074,0.08131 0.074,0.180673 0,0.09937 0.05,0.230892 0.1116,0.292267 0.061,0.06137 0.1116,0.147461 0.1116,0.191299 0,0.04384 0.033,0.07971 0.074,0.07971 0.041,0 0.074,0.068 0.074,0.151124 0,0.08312 0.05,0.170394 0.1116,0.193945 0.061,0.02356 0.1116,0.08906 0.1116,0.145563 0,0.110343 0.8602,0.997264 0.9672,0.997264 0.035,0 0.086,0.06696 0.1116,0.148791 0.026,0.08225 0.1125,0.148791 0.1933,0.148791 0.08,0 0.1654,0.05021 0.1889,0.11159 0.024,0.06138 0.1062,0.111595 0.1837,0.111595 0.077,0 0.1408,0.03308 0.1408,0.07351 0,0.04043 0.1339,0.09493 0.2976,0.121101 0.1637,0.02617 0.2976,0.07678 0.2976,0.112473 0,0.03569 0.084,0.06488 0.186,0.06488 0.1022,0 0.1859,0.03165 0.1859,0.07032 0,0.103161 0.5641,0.138868 1.8201,0.115209 0.7298,-0.01375 1.1227,-0.04931 1.1407,-0.103248 z m -3.8721,-6.530112 c -0.2353,-0.01758 -0.4278,-0.06376 -0.4278,-0.102635 0,-0.03888 -0.1171,-0.07068 -0.2603,-0.07068 -0.2282,0 -0.2604,-0.02303 -0.2604,-0.185988 0,-0.173168 0.025,-0.185988 0.3657,-0.185988 0.2012,0 0.377,0.0321 0.3906,0.07134 0.014,0.03923 0.5186,0.09453 1.1221,0.122878 0.6036,0.02835 1.0974,0.07994 1.0974,0.114653 0,0.03471 0.2511,0.06311 0.5579,0.06311 0.3069,0 0.558,-0.02831 0.558,-0.06292 0,-0.0346 0.4267,-0.08454 0.9483,-0.110978 0.5271,-0.02671 0.9595,-0.08138 0.9734,-0.123071 0.014,-0.04125 0.1226,-0.07501 0.2419,-0.07501 0.1819,0 0.217,0.03011 0.217,0.185988 0,0.155873 -0.035,0.185987 -0.217,0.185987 -0.1193,0 -0.2297,0.0382 -0.2452,0.08489 -0.029,0.08638 -4.1299,0.158028 -5.0616,0.08843 z m 13.0192,6.540574 c 0.017,-0.05101 0.095,-0.09275 0.1735,-0.09275 0.078,0 0.1426,-0.02985 0.1426,-0.06633 0,-0.03648 0.082,-0.08677 0.181,-0.111766 0.1,-0.02499 0.2048,-0.120682 0.2338,-0.212649 0.029,-0.09197 0.115,-0.22136 0.191,-0.287535 0.076,-0.06617 0.1381,-0.158238 0.1381,-0.204588 0,-0.04634 0.032,-0.08427 0.07,-0.08427 0.038,0 0.092,-0.150649 0.12,-0.334779 0.028,-0.184126 0.08,-0.334775 0.1162,-0.334775 0.036,0 0.066,-0.0809 0.066,-0.179788 0,-0.09888 0.033,-0.190948 0.073,-0.204585 0.04,-0.01364 0.096,-0.46838 0.123,-1.010533 0.027,-0.542152 0.078,-0.985732 0.1128,-0.985732 0.035,0 0.063,-0.284561 0.063,-0.632358 0,-0.347794 -0.028,-0.632354 -0.063,-0.632354 -0.035,0 -0.086,-0.694664 -0.1152,-1.543697 -0.029,-0.858747 -0.084,-1.554696 -0.123,-1.568493 -0.039,-0.01364 -0.071,-0.125231 -0.071,-0.247982 0,-0.279617 0.1757,-0.248808 0.2095,0.03673 0.013,0.109367 0.055,0.198849 0.093,0.198849 0.038,0 0.07,0.231552 0.07,0.514563 0,0.34356 0.031,0.524793 0.092,0.545344 0.135,0.045 0.1357,5.646115 7e-4,5.691301 -0.051,0.01712 -0.093,0.142719 -0.093,0.27911 0,0.136391 -0.037,0.260242 -0.082,0.27522 -0.045,0.01499 -0.1,0.185161 -0.1213,0.378175 -0.033,0.290969 -0.019,0.350938 0.082,0.350938 0.067,0 0.1213,0.03284 0.1213,0.07298 0,0.04014 0.084,0.09398 0.1859,0.119658 0.1023,0.02567 0.186,0.07653 0.186,0.113008 0,0.03648 0.047,0.06633 0.1054,0.06633 0.058,0 0.1191,0.041 0.1358,0.0911 0.044,0.131155 1.9282,0.132964 1.972,0.002 0.017,-0.05115 0.078,-0.09299 0.1345,-0.09299 0.138,0 0.7769,-0.643995 0.7769,-0.783105 0,-0.0603 0.033,-0.109634 0.073,-0.109634 0.04,0 0.095,-0.133911 0.1211,-0.297582 0.026,-0.163668 0.077,-0.297579 0.1125,-0.297579 0.036,0 0.065,-0.0809 0.065,-0.179787 0,-0.09888 0.033,-0.190945 0.074,-0.204585 0.041,-0.01364 0.096,-0.334469 0.1228,-0.712952 0.027,-0.378484 0.077,-0.688154 0.112,-0.688154 0.084,0 0.082,-2.956214 0,-2.988196 -0.036,-0.01363 -0.089,-0.60251 -0.1189,-1.308606 -0.049,-1.159543 -0.043,-1.279387 0.065,-1.238155 0.09,0.0347 0.119,0.150917 0.119,0.484062 0,0.242679 0.033,0.438409 0.074,0.438409 0.043,0 0.074,0.233519 0.074,0.551764 0,0.375282 0.03,0.561675 0.093,0.582757 0.072,0.02399 0.093,0.593085 0.093,2.510798 0,1.917696 -0.021,2.486837 -0.093,2.510833 -0.051,0.01706 -0.093,0.128672 -0.093,0.248013 0,0.119342 -0.033,0.216984 -0.074,0.216984 -0.041,0 -0.074,0.08091 -0.074,0.179788 0,0.09888 -0.032,0.190948 -0.071,0.204588 -0.039,0.01364 -0.093,0.164826 -0.1203,0.33597 -0.049,0.310848 -0.049,0.311228 0.2197,0.361657 0.148,0.02775 0.2691,0.08023 0.2691,0.116595 0,0.03637 0.047,0.06612 0.1054,0.06612 0.058,0 0.1189,0.04038 0.1353,0.08974 0.043,0.130418 2.152,0.133545 2.1956,0.0033 0.017,-0.05115 0.08,-0.09299 0.1401,-0.09299 0.06,0 0.1865,-0.08369 0.2813,-0.185987 0.095,-0.102293 0.196,-0.185989 0.225,-0.185989 0.068,0 0.2651,-0.196939 0.2651,-0.265135 0,-0.02892 0.084,-0.130144 0.186,-0.224946 0.1023,-0.09481 0.186,-0.224183 0.186,-0.287512 0,-0.06333 0.031,-0.115146 0.069,-0.115146 0.038,0 0.091,-0.100433 0.1175,-0.223184 0.027,-0.122751 0.08,-0.223185 0.1175,-0.223185 0.038,0 0.069,-0.08369 0.069,-0.185987 0,-0.102293 0.03,-0.185989 0.067,-0.185989 0.037,0 0.09,-0.200865 0.1189,-0.446369 0.029,-0.245502 0.082,-0.446369 0.1189,-0.446369 0.037,0 0.067,-0.15065 0.067,-0.334776 0,-0.18413 0.034,-0.334779 0.074,-0.334779 0.044,0 0.074,-0.272781 0.074,-0.669554 0,-0.396773 0.03,-0.669554 0.074,-0.669554 0.043,0 0.074,-0.235585 0.074,-0.557961 0,-0.322378 -0.031,-0.557963 -0.074,-0.557963 -0.045,0 -0.074,-0.322376 -0.074,-0.818342 0,-0.495966 -0.029,-0.818346 -0.074,-0.818346 -0.041,0 -0.074,-0.167387 -0.074,-0.371975 0,-0.204585 -0.029,-0.371973 -0.064,-0.371973 -0.035,0 -0.086,-0.242715 -0.1136,-0.539363 -0.027,-0.296651 -0.082,-0.550523 -0.1223,-0.564163 -0.04,-0.01364 -0.072,-0.122442 -0.072,-0.241782 0,-0.119344 -0.033,-0.216985 -0.074,-0.216985 -0.04,0 -0.095,-0.133911 -0.1211,-0.297582 -0.026,-0.163668 -0.077,-0.297578 -0.1124,-0.297578 -0.036,0 -0.065,-0.05022 -0.065,-0.111594 0,-0.06137 -0.03,-0.111591 -0.066,-0.111591 -0.036,0 -0.088,-0.117173 -0.115,-0.260382 -0.027,-0.143212 -0.081,-0.260381 -0.1199,-0.260381 -0.039,0 -0.071,-0.05022 -0.071,-0.111594 0,-0.06137 -0.031,-0.111591 -0.069,-0.111591 -0.038,0 -0.092,-0.07249 -0.1205,-0.16109 -0.028,-0.0886 -0.1224,-0.237637 -0.2096,-0.331193 -0.087,-0.09356 -0.1987,-0.213569 -0.2479,-0.266683 -0.049,-0.05311 -0.1329,-0.136821 -0.186,-0.186008 -0.053,-0.04919 -0.1368,-0.132881 -0.186,-0.185988 -0.1602,-0.172896 -0.3119,-0.282544 -0.391,-0.282544 -0.043,0 -0.078,-0.02975 -0.078,-0.06612 0,-0.03636 -0.1171,-0.0881 -0.2603,-0.114963 -0.1433,-0.02688 -0.2604,-0.08081 -0.2604,-0.119871 0,-0.03906 -0.047,-0.07103 -0.1054,-0.07103 -0.058,0 -0.1194,-0.04184 -0.1364,-0.09299 -0.023,-0.06962 -0.355,-0.09299 -1.3205,-0.09299 -0.9655,0 -1.2973,0.02337 -1.3205,0.09299 -0.017,0.05115 -0.078,0.09299 -0.1364,0.09299 -0.058,0 -0.1054,0.02985 -0.1054,0.06633 0,0.03648 -0.084,0.08734 -0.186,0.113011 -0.1023,0.02567 -0.186,0.07952 -0.186,0.119658 0,0.04014 -0.05,0.07298 -0.1116,0.07298 -0.061,0 -0.1116,0.03122 -0.1116,0.06938 0,0.03816 -0.065,0.09009 -0.145,0.115398 -0.08,0.02531 -0.1651,0.109547 -0.1897,0.187197 -0.025,0.07765 -0.1101,0.161885 -0.1898,0.187194 -0.115,0.03649 -0.145,0.114239 -0.145,0.375779 0,0.181372 0.033,0.329766 0.074,0.329766 0.041,0 0.074,0.11438 0.074,0.254181 0,0.139802 0.03,0.265342 0.066,0.278982 0.036,0.01364 0.09,0.4349 0.1198,0.936136 0.048,0.810588 0.041,0.911336 -0.066,0.911336 -0.097,0 -0.1198,-0.08558 -0.1198,-0.446369 0,-0.247982 -0.033,-0.44637 -0.074,-0.44637 -0.041,0 -0.074,-0.13391 -0.074,-0.297578 0,-0.163668 -0.029,-0.297579 -0.065,-0.297579 -0.036,0 -0.088,-0.200868 -0.1153,-0.44637 -0.028,-0.245504 -0.082,-0.446369 -0.1212,-0.446369 -0.039,0 -0.071,-0.05022 -0.071,-0.111594 0,-0.06137 -0.03,-0.111591 -0.066,-0.111591 -0.036,0 -0.087,-0.109889 -0.1119,-0.244202 -0.025,-0.134311 -0.1127,-0.29235 -0.1943,-0.3512 -0.082,-0.05885 -0.1485,-0.144702 -0.1485,-0.190785 0,-0.130261 -0.2424,-0.37718 -0.4277,-0.435702 -0.092,-0.02907 -0.1674,-0.08407 -0.1674,-0.122233 0,-0.03816 -0.081,-0.06938 -0.1798,-0.06938 -0.099,0 -0.1938,-0.04184 -0.2109,-0.09299 -0.023,-0.06933 -0.3402,-0.09299 -1.2461,-0.09299 -0.9059,0 -1.2229,0.02368 -1.246,0.09299 -0.017,0.05115 -0.079,0.09299 -0.1364,0.09299 -0.058,0 -0.1054,0.02929 -0.1054,0.0651 0,0.0358 -0.099,0.08482 -0.2191,0.108926 -0.2457,0.04913 -1.1944,0.947973 -1.1944,1.131604 0,0.0619 -0.05,0.13182 -0.1116,0.155371 -0.061,0.02356 -0.1116,0.106195 -0.1116,0.183651 0,0.07746 -0.031,0.140831 -0.068,0.140831 -0.038,0 -0.091,0.100434 -0.1175,0.223184 -0.027,0.122754 -0.08,0.223186 -0.1175,0.223186 -0.038,0 -0.069,0.08091 -0.069,0.179788 0,0.09888 -0.034,0.19111 -0.075,0.204953 -0.042,0.01383 -0.096,0.250973 -0.1223,0.526963 -0.026,0.27599 -0.075,0.501801 -0.1105,0.501801 -0.035,0 -0.064,0.131118 -0.064,0.291378 0,0.16698 -0.04,0.304612 -0.093,0.322368 -0.072,0.02407 -0.093,0.67491 -0.093,2.919988 0,2.24506 0.021,2.895908 0.093,2.92001 0.051,0.01706 0.093,0.145394 0.093,0.285195 0,0.139799 0.029,0.254183 0.065,0.254183 0.036,0 0.082,0.15792 0.1042,0.350937 0.022,0.193014 0.076,0.363192 0.1213,0.378173 0.045,0.01499 0.082,0.108143 0.082,0.207025 0,0.09888 0.029,0.179788 0.065,0.179788 0.036,0 0.086,0.10493 0.1118,0.233178 0.026,0.128248 0.1087,0.287268 0.1846,0.353376 0.076,0.06611 0.1612,0.19381 0.1897,0.28378 0.028,0.08997 0.1151,0.183748 0.1928,0.208393 0.078,0.02463 0.1618,0.109974 0.1871,0.189621 0.025,0.07965 0.1274,0.165256 0.227,0.190244 0.1,0.02499 0.181,0.07529 0.181,0.111766 0,0.03648 0.067,0.06633 0.1488,0.06633 0.082,0 0.1488,0.03125 0.1488,0.06945 0,0.100359 0.3217,0.139872 1.0354,0.127177 0.4256,-0.0076 0.6362,-0.04086 0.6572,-0.103884 z m 15.9205,0 c 0.017,-0.05101 0.095,-0.09275 0.1735,-0.09275 0.078,0 0.1426,-0.02985 0.1426,-0.06633 0,-0.03648 0.082,-0.08677 0.181,-0.111766 0.1,-0.02499 0.2023,-0.11231 0.2282,-0.194052 0.026,-0.08174 0.078,-0.148616 0.1166,-0.148616 0.038,0 0.069,-0.05021 0.069,-0.111594 0,-0.06137 0.032,-0.111591 0.071,-0.111591 0.039,0 0.093,-0.117172 0.1199,-0.260382 0.027,-0.143209 0.079,-0.260382 0.1149,-0.260382 0.036,0 0.066,-0.05021 0.066,-0.111594 0,-0.06137 0.031,-0.111591 0.068,-0.111591 0.037,0 0.092,-0.251083 0.1203,-0.557963 0.029,-0.306877 0.082,-0.55796 0.118,-0.55796 0.036,0 0.066,-0.251084 0.066,-0.557963 0,-0.322379 0.032,-0.557961 0.074,-0.557961 0.046,0 0.074,-0.371976 0.074,-0.967136 0,-0.595157 -0.029,-0.967133 -0.074,-0.967133 -0.045,0 -0.074,-0.320312 -0.074,-0.812145 0,-0.446679 -0.029,-0.823302 -0.064,-0.836942 -0.035,-0.01364 -0.082,-0.367947 -0.1046,-0.787345 -0.034,-0.624887 -0.022,-0.762549 0.064,-0.762549 0.062,0 0.1046,0.07581 0.1046,0.185985 0,0.102296 0.03,0.185988 0.067,0.185988 0.037,0 0.092,0.46869 0.1211,1.04153 0.03,0.572841 0.083,1.04153 0.1185,1.04153 0.036,0 0.065,0.401733 0.065,0.892739 0,0.54556 0.029,0.892739 0.074,0.892739 0.044,0 0.074,0.260382 0.074,0.632355 0,0.371975 -0.031,0.632356 -0.074,0.632356 -0.044,0 -0.074,0.260382 -0.074,0.632358 0,0.347797 -0.029,0.632357 -0.064,0.632357 -0.035,0 -0.086,0.209236 -0.1123,0.46497 -0.027,0.255731 -0.082,0.476126 -0.1222,0.489766 -0.041,0.01364 -0.074,0.105703 -0.074,0.204585 0,0.09888 -0.034,0.179788 -0.074,0.179788 -0.041,0 -0.074,0.0837 -0.074,0.185988 0,0.132887 0.04,0.185988 0.1409,0.185988 0.077,0 0.1601,0.05022 0.1836,0.111591 0.024,0.06137 0.1108,0.111593 0.194,0.111593 0.083,0 0.1511,0.03348 0.1511,0.07439 0,0.04092 0.047,0.07439 0.1054,0.07439 0.058,0 0.119,0.041 0.1357,0.0911 0.044,0.131156 1.9283,0.132964 1.9721,0.002 0.017,-0.05115 0.079,-0.09299 0.1364,-0.09299 0.058,0 0.1054,-0.03122 0.1054,-0.06938 0,-0.03816 0.065,-0.09009 0.145,-0.115395 0.08,-0.02531 0.1651,-0.10955 0.1898,-0.187197 0.025,-0.07765 0.11,-0.161885 0.1898,-0.187194 0.08,-0.02531 0.145,-0.110716 0.145,-0.189795 0,-0.07907 0.031,-0.143775 0.068,-0.143775 0.038,0 0.091,-0.100433 0.1176,-0.223184 0.027,-0.122751 0.08,-0.223185 0.1175,-0.223185 0.038,0 0.068,-0.114383 0.068,-0.254185 0,-0.139798 0.032,-0.265338 0.071,-0.278978 0.039,-0.01363 0.094,-0.30099 0.1223,-0.638557 0.028,-0.337568 0.08,-0.613758 0.1146,-0.613758 0.084,0 0.083,-3.253673 0,-3.285777 -0.036,-0.01364 -0.089,-0.569011 -0.1189,-1.234162 -0.049,-1.090776 -0.042,-1.204892 0.065,-1.163761 0.086,0.03302 0.1188,0.144289 0.1188,0.40342 0,0.196799 0.031,0.368975 0.069,0.382615 0.038,0.01364 0.093,0.535332 0.122,1.159321 0.029,0.623986 0.082,1.134521 0.1174,1.134521 0.035,0 0.064,0.753249 0.064,1.673887 0,0.920637 -0.029,1.673885 -0.064,1.673885 -0.035,0 -0.084,0.242287 -0.1087,0.538412 -0.025,0.296128 -0.08,0.55 -0.1224,0.564164 -0.043,0.01417 -0.077,0.103861 -0.077,0.199335 0,0.09547 -0.032,0.184747 -0.071,0.198387 -0.039,0.01364 -0.093,0.163601 -0.1198,0.333247 -0.047,0.299088 -0.042,0.309995 0.1825,0.359289 0.1273,0.02795 0.2314,0.08165 0.2314,0.11932 0,0.03766 0.081,0.06848 0.1798,0.06848 0.099,0 0.1936,0.04153 0.2106,0.0923 0.044,0.132485 2.0761,0.133154 2.1204,5.64e-4 0.017,-0.05115 0.079,-0.09299 0.1364,-0.09299 0.058,0 0.1054,-0.03122 0.1054,-0.06938 0,-0.03816 0.071,-0.0919 0.1577,-0.119422 0.2153,-0.06835 0.5863,-0.433269 0.5863,-0.576788 0,-0.06442 0.067,-0.138374 0.1488,-0.164346 0.082,-0.02598 0.1488,-0.111923 0.1488,-0.191001 0,-0.07908 0.031,-0.143777 0.068,-0.143777 0.038,0 0.091,-0.100432 0.1175,-0.223185 0.027,-0.122751 0.08,-0.223185 0.1176,-0.223185 0.038,0 0.068,-0.06695 0.068,-0.148788 0,-0.08184 0.032,-0.148791 0.071,-0.148791 0.039,0 0.094,-0.200867 0.1212,-0.446369 0.028,-0.245505 0.08,-0.446369 0.1153,-0.446369 0.036,0 0.065,-0.131122 0.065,-0.291382 0,-0.163185 0.04,-0.304693 0.091,-0.321639 0.1285,-0.04283 0.1255,-4.311736 0,-4.354584 -0.052,-0.01718 -0.088,-0.180169 -0.088,-0.39503 0,-0.201177 -0.03,-0.365776 -0.066,-0.365776 -0.036,0 -0.089,-0.217603 -0.1176,-0.483566 -0.029,-0.26596 -0.083,-0.483567 -0.1202,-0.483567 -0.038,0 -0.069,-0.100433 -0.069,-0.223184 0,-0.122752 -0.029,-0.223185 -0.065,-0.223185 -0.036,0 -0.086,-0.133911 -0.1125,-0.297579 -0.026,-0.163671 -0.081,-0.297581 -0.1211,-0.297581 -0.04,0 -0.073,-0.05022 -0.073,-0.111592 0,-0.06137 -0.033,-0.111593 -0.074,-0.111593 -0.041,0 -0.074,-0.06696 -0.074,-0.148788 0,-0.08184 -0.031,-0.148791 -0.068,-0.148791 -0.038,0 -0.089,-0.09393 -0.1144,-0.208735 -0.025,-0.114802 -0.1115,-0.256105 -0.1919,-0.314002 -0.08,-0.05787 -0.146,-0.146882 -0.146,-0.197781 0,-0.11533 -0.9961,-1.139323 -1.1083,-1.139323 -0.045,0 -0.082,-0.03284 -0.082,-0.07298 0,-0.04014 -0.084,-0.09398 -0.186,-0.119658 -0.1023,-0.02567 -0.186,-0.07653 -0.186,-0.113011 0,-0.03648 -0.098,-0.06633 -0.217,-0.06633 -0.1193,0 -0.2309,-0.04184 -0.248,-0.09299 -0.023,-0.06917 -0.3326,-0.09299 -1.2088,-0.09299 -0.8762,0 -1.1859,0.02382 -1.209,0.09299 -0.017,0.05115 -0.1119,0.09299 -0.2108,0.09299 -0.099,0 -0.1798,0.03348 -0.1798,0.0744 0,0.04092 -0.068,0.07439 -0.1511,0.07439 -0.083,0 -0.1704,0.05022 -0.194,0.111591 -0.024,0.06138 -0.089,0.111594 -0.1445,0.111594 -0.056,0 -0.2532,0.15153 -0.4384,0.336736 -0.2839,0.283975 -0.3367,0.38208 -0.3367,0.626157 0,0.15918 0.032,0.300582 0.071,0.314219 0.039,0.01363 0.094,0.300989 0.1223,0.638557 0.028,0.337567 0.08,0.613757 0.1146,0.613757 0.035,0 0.064,0.251084 0.064,0.557963 0,0.306878 -0.03,0.557961 -0.066,0.557961 -0.1062,0 -0.1567,-0.205647 -0.1567,-0.638442 0,-0.221697 -0.034,-0.403085 -0.074,-0.403085 -0.041,0 -0.074,-0.133911 -0.074,-0.297581 0,-0.163668 -0.03,-0.297579 -0.067,-0.297579 -0.037,0 -0.09,-0.167388 -0.1186,-0.371976 -0.028,-0.204584 -0.082,-0.371972 -0.1185,-0.371972 -0.037,0 -0.067,-0.0837 -0.067,-0.185989 0,-0.102292 -0.033,-0.185987 -0.074,-0.185987 -0.041,0 -0.074,-0.068 -0.074,-0.151125 0,-0.08312 -0.05,-0.170393 -0.1115,-0.193948 -0.061,-0.02356 -0.1116,-0.103937 -0.1116,-0.178637 0,-0.0747 -0.065,-0.156526 -0.145,-0.181835 -0.08,-0.02531 -0.1657,-0.11126 -0.191,-0.190998 -0.025,-0.07974 -0.1118,-0.144987 -0.1922,-0.144987 -0.08,0 -0.1653,-0.05021 -0.1889,-0.111591 -0.024,-0.06137 -0.1034,-0.111593 -0.1774,-0.111593 -0.074,0 -0.1486,-0.04184 -0.1657,-0.09299 -0.023,-0.06948 -0.3476,-0.09299 -1.2833,-0.09299 -0.9357,0 -1.2602,0.02351 -1.2833,0.09299 -0.017,0.05115 -0.078,0.09299 -0.1364,0.09299 -0.058,0 -0.1054,0.03348 -0.1054,0.0744 0,0.04092 -0.068,0.07439 -0.1511,0.07439 -0.083,0 -0.1704,0.05022 -0.194,0.111591 -0.023,0.06138 -0.088,0.111594 -0.1431,0.111594 -0.1377,0 -0.9253,0.779256 -0.9253,0.915534 0,0.06054 -0.05,0.129344 -0.1116,0.152898 -0.061,0.02356 -0.1116,0.110827 -0.1116,0.193946 0,0.08312 -0.033,0.151125 -0.074,0.151125 -0.041,0 -0.074,0.05021 -0.074,0.111593 0,0.06137 -0.03,0.111591 -0.067,0.111591 -0.037,0 -0.09,0.167391 -0.1185,0.371976 -0.028,0.204585 -0.082,0.371975 -0.1186,0.371975 -0.037,0 -0.067,0.08369 -0.067,0.185985 0,0.102296 -0.031,0.185988 -0.068,0.185988 -0.037,0 -0.092,0.251083 -0.1203,0.557964 -0.029,0.306876 -0.082,0.55796 -0.1179,0.55796 -0.036,0 -0.066,0.234345 -0.066,0.520766 0,0.297579 -0.032,0.520764 -0.074,0.520764 -0.048,0 -0.074,0.719151 -0.074,2.008663 0,1.289511 0.027,2.008663 0.074,2.008663 0.041,0 0.074,0.184126 0.074,0.409172 0,0.225043 0.029,0.409173 0.065,0.409173 0.036,0 0.087,0.200865 0.1153,0.446369 0.028,0.245501 0.082,0.44637 0.1212,0.44637 0.039,0 0.071,0.08369 0.071,0.185985 0,0.102294 0.03,0.185987 0.066,0.185987 0.036,0 0.088,0.148965 0.1156,0.331034 0.035,0.235862 0.091,0.344245 0.1944,0.376988 0.08,0.02528 0.1448,0.111704 0.1448,0.192067 0,0.08036 0.05,0.165381 0.1116,0.188932 0.061,0.02356 0.1116,0.09005 0.1116,0.14777 0,0.134816 0.5006,0.623084 0.6388,0.623084 0.058,0 0.1052,0.03348 0.1052,0.07439 0,0.04092 0.067,0.07439 0.1488,0.07439 0.082,0 0.1487,0.03125 0.1487,0.06945 0,0.100357 0.3218,0.139872 1.0355,0.127176 0.4255,-0.0076 0.6361,-0.04086 0.6571,-0.103883 z"
       id="path23037" /></g></svg>
