<?xml version="1.0" encoding="UTF-8" standalone="no"?>
<!-- Created with Inkscape (http://www.inkscape.org/) -->

<svg
   width="297mm"
   height="210mm"
   viewBox="0 0 297 210"
   version="1.1"
   id="svg1"
   inkscape:version="1.3.2 (091e20e, 2023-11-25, custom)"
   sodipodi:docname="opensouce_uom_logo.svg"
   inkscape:export-filename="fosscomm_2024_lanyard_monochrome.pdf"
   inkscape:export-xdpi="96"
   inkscape:export-ydpi="96"
   xmlns:inkscape="http://www.inkscape.org/namespaces/inkscape"
   xmlns:sodipodi="http://sodipodi.sourceforge.net/DTD/sodipodi-0.dtd"
   xmlns="http://www.w3.org/2000/svg"
   xmlns:svg="http://www.w3.org/2000/svg">
  <sodipodi:namedview
     id="namedview1"
     pagecolor="#ffffff"
     bordercolor="#000000"
     borderopacity="0.25"
     inkscape:showpageshadow="2"
     inkscape:pageopacity="0.0"
     inkscape:pagecheckerboard="0"
     inkscape:deskcolor="#d1d1d1"
     inkscape:document-units="mm"
     inkscape:zoom="0.97890838"
     inkscape:cx="445.90486"
     inkscape:cy="333.53479"
     inkscape:window-width="1920"
     inkscape:window-height="991"
     inkscape:window-x="-9"
     inkscape:window-y="-9"
     inkscape:window-maximized="1"
     inkscape:current-layer="layer1" />
  <defs
     id="defs1">
    <clipPath
       clipPathUnits="userSpaceOnUse"
       id="clipPath450">
      <g
         id="g451"
         transform="rotate(12.463229)">
        <path
           style="font-variation-settings:'wdth' 87;opacity:0.483412;fill:#1c072e;fill-opacity:1;stroke:#fd9a00;stroke-width:0.499999;stroke-linecap:round;stroke-linejoin:round;stroke-dasharray:none;stroke-opacity:1"
           d="m 337.1841,155.16527 -11.02528,16.92037 35.23199,159.36107 7.16081,-34.36051 z"
           id="path451" />
      </g>
    </clipPath>
    <clipPath
       clipPathUnits="userSpaceOnUse"
       id="clipPath449">
      <g
         id="g450"
         transform="rotate(12.463229)">
        <path
           style="font-variation-settings:'wdth' 87;opacity:0.483412;fill:#1c072e;fill-opacity:1;stroke:#fd9a00;stroke-width:0.499999;stroke-linecap:round;stroke-linejoin:round;stroke-dasharray:none;stroke-opacity:1"
           d="m 337.1841,155.16527 -11.02528,16.92037 35.23199,159.36107 7.16081,-34.36051 z"
           id="path450" />
      </g>
    </clipPath>
    <clipPath
       clipPathUnits="userSpaceOnUse"
       id="clipPath446">
      <g
         id="g447">
        <path
           style="font-variation-settings:'wdth' 87;opacity:0.483412;fill:#1c072e;fill-opacity:1;stroke:#fd9a00;stroke-width:0.499999;stroke-linecap:round;stroke-linejoin:round;stroke-dasharray:none;stroke-opacity:1"
           d="m 337.1841,155.16527 -11.02528,16.92037 35.23199,159.36107 7.16081,-34.36051 z"
           id="path447" />
      </g>
    </clipPath>
    <clipPath
       clipPathUnits="userSpaceOnUse"
       id="clipPath445">
      <g
         id="g446">
        <path
           style="font-variation-settings:'wdth' 87;opacity:0.483412;fill:#1c072e;fill-opacity:1;stroke:#fd9a00;stroke-width:0.499999;stroke-linecap:round;stroke-linejoin:round;stroke-dasharray:none;stroke-opacity:1"
           d="m 337.1841,155.16527 -11.02528,16.92037 35.23199,159.36107 7.16081,-34.36051 z"
           id="path446" />
      </g>
    </clipPath>
    <clipPath
       clipPathUnits="userSpaceOnUse"
       id="clipPath444">
      <g
         id="g445">
        <path
           style="font-variation-settings:'wdth' 87;opacity:0.483412;fill:#1c072e;fill-opacity:1;stroke:#fd9a00;stroke-width:0.499999;stroke-linecap:round;stroke-linejoin:round;stroke-dasharray:none;stroke-opacity:1"
           d="m 337.1841,155.16527 -11.02528,16.92037 35.23199,159.36107 7.16081,-34.36051 z"
           id="path445" />
      </g>
    </clipPath>
    <clipPath
       clipPathUnits="userSpaceOnUse"
       id="clipPath443">
      <g
         id="g444">
        <path
           style="font-variation-settings:'wdth' 87;opacity:0.483412;fill:#1c072e;fill-opacity:1;stroke:#fd9a00;stroke-width:0.499999;stroke-linecap:round;stroke-linejoin:round;stroke-dasharray:none;stroke-opacity:1"
           d="m 337.1841,155.16527 -11.02528,16.92037 35.23199,159.36107 7.16081,-34.36051 z"
           id="path444" />
      </g>
    </clipPath>
    <clipPath
       clipPathUnits="userSpaceOnUse"
       id="clipPath442">
      <g
         id="g443">
        <path
           style="font-variation-settings:'wdth' 87;opacity:0.483412;fill:#1c072e;fill-opacity:1;stroke:#fd9a00;stroke-width:0.499999;stroke-linecap:round;stroke-linejoin:round;stroke-dasharray:none;stroke-opacity:1"
           d="m 337.1841,155.16527 -11.02528,16.92037 35.23199,159.36107 7.16081,-34.36051 z"
           id="path443" />
      </g>
    </clipPath>
    <clipPath
       clipPathUnits="userSpaceOnUse"
       id="clipPath459">
      <g
         id="g460"
         transform="rotate(-11.848405)">
        <path
           style="font-variation-settings:'wdth' 87;opacity:1;fill:#2f0b4c;fill-opacity:1;stroke:none;stroke-width:0.499999;stroke-linecap:round;stroke-linejoin:round"
           d="M 409.52979,168.97143 398.36276,155.2159 361.39088,331.44632 h 14.05038 z"
           id="path459" />
      </g>
    </clipPath>
    <clipPath
       clipPathUnits="userSpaceOnUse"
       id="clipPath458">
      <g
         id="g459">
        <path
           style="font-variation-settings:'wdth' 87;opacity:1;fill:#2f0b4c;fill-opacity:1;stroke:none;stroke-width:0.499999;stroke-linecap:round;stroke-linejoin:round"
           d="M 409.52979,168.97143 398.36276,155.2159 361.39088,331.44632 h 14.05038 z"
           id="path458" />
      </g>
    </clipPath>
    <clipPath
       clipPathUnits="userSpaceOnUse"
       id="clipPath457">
      <g
         id="g458">
        <path
           style="font-variation-settings:'wdth' 87;opacity:1;fill:#2f0b4c;fill-opacity:1;stroke:none;stroke-width:0.499999;stroke-linecap:round;stroke-linejoin:round"
           d="M 409.52979,168.97143 398.36276,155.2159 361.39088,331.44632 h 14.05038 z"
           id="path457" />
      </g>
    </clipPath>
    <clipPath
       clipPathUnits="userSpaceOnUse"
       id="clipPath456">
      <g
         id="g457">
        <path
           style="font-variation-settings:'wdth' 87;opacity:1;fill:#2f0b4c;fill-opacity:1;stroke:none;stroke-width:0.499999;stroke-linecap:round;stroke-linejoin:round"
           d="M 409.52979,168.97143 398.36276,155.2159 361.39088,331.44632 h 14.05038 z"
           id="path456" />
      </g>
    </clipPath>
    <clipPath
       clipPathUnits="userSpaceOnUse"
       id="clipPath455">
      <g
         id="g456">
        <path
           style="font-variation-settings:'wdth' 87;opacity:1;fill:#2f0b4c;fill-opacity:1;stroke:none;stroke-width:0.499999;stroke-linecap:round;stroke-linejoin:round"
           d="M 409.52979,168.97143 398.36276,155.2159 361.39088,331.44632 h 14.05038 z"
           id="path455" />
      </g>
    </clipPath>
    <clipPath
       clipPathUnits="userSpaceOnUse"
       id="clipPath1">
      <g
         id="g1">
        <path
           style="font-variation-settings:'wdth' 87;opacity:0.483412;fill:#1c072e;fill-opacity:1;stroke:#fd9a00;stroke-width:0.499999;stroke-linecap:round;stroke-linejoin:round;stroke-dasharray:none;stroke-opacity:1"
           d="m 337.1841,155.16527 -11.02528,16.92037 35.23199,159.36107 7.16081,-34.36051 z"
           id="path1" />
      </g>
    </clipPath>
    <clipPath
       clipPathUnits="userSpaceOnUse"
       id="clipPath2">
      <g
         id="g2"
         transform="rotate(-11.848405)">
        <path
           style="font-variation-settings:'wdth' 87;opacity:1;fill:#2f0b4c;fill-opacity:1;stroke:none;stroke-width:0.499999;stroke-linecap:round;stroke-linejoin:round"
           d="M 409.52979,168.97143 398.36276,155.2159 361.39088,331.44632 h 14.05038 z"
           id="path2" />
      </g>
    </clipPath>
  </defs>
  <g
     inkscape:label="Layer 1"
     inkscape:groupmode="layer"
     id="layer1">
    <text
       xml:space="preserve"
       style="font-size:8.26759px;font-family:'Home Video';-inkscape-font-specification:'Home Video, @wdth=87.0';font-variation-settings:'wdth' 87;text-align:center;text-anchor:middle;fill:#350d56;fill-opacity:1;stroke:none;stroke-width:0.169824;stroke-linecap:round;stroke-linejoin:round"
       x="36.758629"
       y="11.131707"
       id="text1"><tspan
         sodipodi:role="line"
         id="tspan1"
         style="fill:#350d56;fill-opacity:1;stroke:none;stroke-width:0.169824"
         x="36.758629"
         y="11.131707">FOSSCOMM 2024</tspan></text>
    <text
       xml:space="preserve"
       style="font-size:14.9369px;font-family:'Home Video';-inkscape-font-specification:'Home Video, @wdth=87.0';font-variation-settings:'wdth' 87;text-align:center;text-anchor:middle;fill:#350d56;fill-opacity:1;stroke:none;stroke-width:0.306819;stroke-linecap:round;stroke-linejoin:round"
       x="148.5"
       y="59.954838"
       id="text2"><tspan
         sodipodi:role="line"
         id="tspan2"
         style="fill:#350d56;fill-opacity:1;stroke:none;stroke-width:0.306819"
         x="148.5"
         y="59.954838">OSUOM LOGO</tspan></text>
    <text
       xml:space="preserve"
       style="font-size:8.26759px;font-family:'Home Video';-inkscape-font-specification:'Home Video, @wdth=87.0';font-variation-settings:'wdth' 87;text-align:center;text-anchor:middle;fill:#350d56;fill-opacity:1;stroke:none;stroke-width:0.169824;stroke-linecap:round;stroke-linejoin:round"
       x="235.96497"
       y="203.03339"
       id="text3"><tspan
         sodipodi:role="line"
         id="tspan3"
         style="fill:#350d56;fill-opacity:1;stroke:none;stroke-width:0.169824"
         x="235.96497"
         y="203.03339">MADE BY OPENSOURCE UOM</tspan></text>
    <g
       id="g3"
       transform="translate(3.6925522)">
      <path
         style="fill:#ee7c37;fill-opacity:1;stroke-width:0.335557"
         d="m 102.34287,99.307342 c -0.96692,-0.6769 -1.75945,-1.30634 -1.76123,-1.39857 -10e-4,-0.0926 0.60945,-0.8473 1.35793,-1.67786 0.74841,-0.83048 1.80349,-2.05775 2.34412,-2.72726 l 0.98292,-1.21727 -1.08621,-0.21209 c -2.33801,-0.45668 -5.615716,-1.6235 -5.604916,-1.99518 0.007,-0.21534 0.3031,-0.99552 0.65984,-1.73377 0.35673,-0.73784 0.65333,-1.522 0.65983,-1.74181 0.0163,-0.62164 0.594816,-0.8317 1.256036,-0.4575 0.82593,0.46725 4.84124,2.03183 5.21398,2.03183 0.16658,0 0.25353,-1.46894 0.19421,-3.27169 l -0.10889,-3.2717 h 2.34891 2.3489 l -0.11701,3.2717 c -0.065,1.79942 -5.7e-4,3.27169 0.14139,3.27169 0.35267,0 4.52213,-1.61521 5.30564,-2.05547 0.47212,-0.26491 0.70534,-0.24135 0.92125,0.0951 0.47618,0.74191 1.66892,4.05098 1.51558,4.2044 -0.0813,0.0813 -1.57653,0.5542 -3.32939,1.05679 l -3.18695,0.91434 0.66227,0.82861 c 0.36405,0.45587 0.98878,1.2072 1.38817,1.67014 0.39899,0.46318 1.14447,1.3464 1.65584,1.96349 l 0.92978,1.12196 -1.86744,1.30813 c -1.02713,0.719148 -1.98892,1.308198 -2.13739,1.308198 -0.1487,0 -1.1417,-1.283498 -2.20727,-2.852228 -1.06556,-1.56873 -1.98047,-2.85231 -2.03321,-2.85231 -0.0488,0 -0.94977,1.28358 -1.99355,2.85231 -1.04379,1.56873 -2.07701,2.839798 -2.29601,2.824688 -0.2194,-0.0163 -1.18924,-0.581828 -2.15608,-1.258398 z"
         id="path7208-5"
         sodipodi:nodetypes="scsscscsssssccccssscscssscssssscss"
         inkscape:label="logo_right" />
      <path
         style="fill:#ffffff;fill-opacity:1;stroke-width:0.347326"
         d="m 181.40609,150.80475 c -1.43408,-1.19395 -2.61609,-2.44438 -2.62657,-2.77869 -0.008,-0.33398 0.10157,-0.60783 0.24947,-0.60783 0.14708,0 0.57613,-0.58588 0.9518,-1.30251 0.37623,-0.71672 0.80122,-1.38915 0.94473,-1.49503 0.14383,-0.10564 0.68746,-1.35631 1.20769,-2.77861 0.84242,-2.30186 0.94627,-3.06318 0.94497,-6.92767 -0.001,-3.69295 -0.12433,-4.67888 -0.82219,-6.59922 -2.76138,-7.59612 -8.26741,-12.3938 -15.56059,-13.55899 -4.41828,-0.70534 -9.99045,1.09213 -13.41752,4.32929 l -1.68598,1.5927 -1.26392,-1.10002 c -0.69478,-0.60457 -2.03687,-1.7904 -2.98168,-2.63445 l -1.71784,-1.53452 1.89149,-1.86386 c 1.04037,-1.02518 2.32136,-2.04776 2.84671,-2.27236 0.52575,-0.22509 0.95513,-0.51844 0.95513,-0.65252 0,-0.13408 0.93514,-0.67609 2.07798,-1.20355 7.24678,-3.34556 14.67591,-3.47598 21.42725,-0.37623 7.98357,3.66557 13.29726,10.29298 15.59318,19.44824 0.89899,3.58488 0.80692,9.91139 -0.19665,13.54583 -0.86761,3.1407 -3.09934,7.96569 -4.3653,9.43772 -0.4648,0.54038 -0.84478,1.09928 -0.84502,1.24255 -0.001,0.71346 -1.24864,0.0487 -3.60649,-1.91027 z m -39.33098,-5.79466 c -1.16933,-0.32829 -2.67777,-0.85795 -3.35214,-1.17803 -0.67446,-0.32016 -1.34502,-0.58182 -1.49048,-0.58182 -0.2771,0 -3.30851,-1.87947 -4.47971,-2.77739 -0.37461,-0.28685 -1.74522,-1.59904 -3.04571,-2.91521 -7.14082,-7.22696 -9.69255,-19.06624 -6.29628,-29.21377 1.39702,-4.17433 5.0864,-9.960378 5.99358,-9.399768 0.96651,0.59727 5.24527,4.592018 5.24527,4.897068 0,0.11539 -0.50382,0.94107 -1.11887,1.8351 -2.28268,3.31655 -3.52564,6.71501 -3.9694,10.85351 -0.35592,3.32086 1.77171,10.94973 3.55001,12.72803 0.27304,0.27303 0.4965,0.62407 0.4965,0.78091 0,0.5355 3.66565,4.00953 5.39356,5.11167 6.72632,4.29029 14.81178,3.64972 20.75068,-1.64398 2.23385,-1.99128 2.20581,-1.99274 4.61079,0.24866 0.58263,0.542 1.59725,1.43814 2.25554,1.99038 l 1.19696,1.00406 -2.49339,2.3034 c -2.94592,2.72148 -6.88095,4.91429 -10.6077,5.91102 -3.42106,0.91507 -9.46283,0.93734 -12.63905,0.0488 z"
         id="path7210-1"
         sodipodi:nodetypes="scssssccsscsscssscsssscssssssssssssssssscsss"
         inkscape:label="logo_left" />
    </g>
  </g>
</svg>
