<?xml version="1.0" encoding="UTF-8" standalone="no"?>
<!-- Created with Inkscape (http://www.inkscape.org/) -->

<svg
   width="49.535156mm"
   height="13.0784mm"
   viewBox="0 0 49.535156 13.0784"
   version="1.1"
   id="svg5"
   xml:space="preserve"
   sodipodi:docname="logo_dark.svg"
   inkscape:version="1.3.2 (091e20e, 2023-11-25, custom)"
   xmlns:inkscape="http://www.inkscape.org/namespaces/inkscape"
   xmlns:sodipodi="http://sodipodi.sourceforge.net/DTD/sodipodi-0.dtd"
   xmlns="http://www.w3.org/2000/svg"
   xmlns:svg="http://www.w3.org/2000/svg"><sodipodi:namedview
     id="namedview7"
     pagecolor="#ffffff"
     bordercolor="#000000"
     borderopacity="0.25"
     inkscape:showpageshadow="2"
     inkscape:pageopacity="0.0"
     inkscape:pagecheckerboard="0"
     inkscape:deskcolor="#d1d1d1"
     inkscape:document-units="mm"
     showgrid="false"
     inkscape:zoom="4"
     inkscape:cx="78.625"
     inkscape:cy="-17.125"
     inkscape:window-width="1920"
     inkscape:window-height="991"
     inkscape:window-x="-9"
     inkscape:window-y="-9"
     inkscape:window-maximized="1"
     inkscape:current-layer="layer1" /><defs
     id="defs2" /><g
     inkscape:label="Layer 1"
     inkscape:groupmode="layer"
     id="layer1"
     transform="translate(-3116.745,-234.5965)"><path
       style="fill:#0f0b18;fill-opacity:1;stroke-width:0.0488666"
       d="m 3152.5563,246.71637 v -0.82658 h 0.1473 c 0.131,0 0.1474,-0.0162 0.1474,-0.14586 0,-0.12967 0.016,-0.14588 0.1473,-0.14588 0.131,0 0.1473,-0.0162 0.1473,-0.14587 v -0.14586 h 0.7121 0.7122 v -0.14587 c 0,-0.12967 0.017,-0.14587 0.1473,-0.14587 h 0.1473 v -0.29173 -0.29174 h -0.1473 c -0.1309,0 -0.1473,-0.0162 -0.1473,-0.14587 v -0.14586 h -0.5893 -0.5895 v 0.14586 c 0,0.12966 -0.017,0.14587 -0.1473,0.14587 -0.1243,0 -0.1473,0.0189 -0.1473,0.12155 0,0.11494 -0.015,0.12156 -0.2701,0.12156 h -0.2701 v -0.24311 c 0,-0.23771 0,-0.24311 0.1473,-0.24311 0.131,0 0.1474,-0.0162 0.1474,-0.14588 0,-0.12965 0.016,-0.14586 0.1473,-0.14586 0.131,0 0.1473,-0.0162 0.1473,-0.14586 v -0.14588 h 0.835 0.8348 v 0.14588 c 0,0.12965 0.016,0.14586 0.1474,0.14586 0.1309,0 0.1473,0.0162 0.1473,0.14587 0,0.12966 0.017,0.14587 0.1473,0.14587 h 0.1474 v 0.53485 0.53485 h -0.1474 c -0.1309,0 -0.1473,0.0162 -0.1473,0.14585 0,0.12968 -0.017,0.14588 -0.1473,0.14588 -0.131,0 -0.1474,0.0162 -0.1474,0.14587 v 0.14586 h -0.7121 -0.7122 v 0.14588 c 0,0.12965 -0.017,0.14585 -0.1473,0.14585 h -0.1473 v 0.43761 0.4376 h 1.1541 1.1542 v 0.26743 0.26742 h -1.4242 -1.4243 z m 4.0271,0.68071 c 0,-0.12965 -0.017,-0.14586 -0.1473,-0.14586 -0.1309,0 -0.1473,-0.0162 -0.1473,-0.14587 0,-0.12966 -0.017,-0.14586 -0.1473,-0.14586 h -0.1474 v -1.38575 -1.38574 h 0.1474 c 0.1309,0 0.1473,-0.0162 0.1473,-0.14587 0,-0.12966 0.016,-0.14587 0.1473,-0.14587 0.131,0 0.1473,-0.0162 0.1473,-0.14586 v -0.14588 h 0.8317 0.8317 l 0.016,0.13372 c 0.013,0.10418 0.045,0.13704 0.1476,0.14881 0.1021,0.0117 0.1355,0.0448 0.1474,0.14587 0.012,0.10188 0.045,0.13416 0.1503,0.14615 l 0.135,0.0154 v 1.37927 1.3793 l -0.135,0.0154 c -0.1053,0.0121 -0.1385,0.0443 -0.1503,0.14617 -0.012,0.10104 -0.045,0.13419 -0.1474,0.14585 -0.1029,0.0118 -0.1355,0.0447 -0.1476,0.14881 l -0.016,0.13371 h -0.8317 -0.8317 z m 1.4243,-0.53484 c 0,-0.12967 0.017,-0.14587 0.1473,-0.14587 h 0.1473 v -0.72933 -0.72934 h -0.1473 c -0.1309,0 -0.1473,0.0162 -0.1473,0.14585 0,0.12968 -0.017,0.14588 -0.1473,0.14588 -0.131,0 -0.1474,0.0162 -0.1474,0.14587 0,0.12965 -0.017,0.14586 -0.1473,0.14586 -0.1309,0 -0.1474,0.0162 -0.1474,0.14588 0,0.12965 -0.017,0.14585 -0.1473,0.14585 -0.131,0 -0.1473,0.0162 -0.1473,0.14587 v 0.14588 h -0.2946 -0.2948 v 0.14586 c 0,0.12966 0.017,0.14587 0.1474,0.14587 0.1309,0 0.1474,0.0162 0.1474,0.14587 v 0.14586 h 0.5892 0.5894 z m -1.1295,-1.11831 c 0,-0.12967 0.017,-0.14588 0.1472,-0.14588 0.131,0 0.1474,-0.0162 0.1474,-0.14587 0,-0.12966 0.017,-0.14586 0.1473,-0.14586 0.1302,0 0.1474,-0.0166 0.1474,-0.14264 0,-0.11947 0.022,-0.14514 0.135,-0.15802 0.1061,-0.0122 0.1384,-0.0441 0.1506,-0.14909 0.015,-0.12759 0.027,-0.13372 0.2824,-0.13372 0.2638,0 0.2668,-9.8e-4 0.2668,-0.14588 0,-0.12965 -0.017,-0.14586 -0.1472,-0.14586 -0.131,0 -0.1474,-0.0162 -0.1474,-0.14587 v -0.14586 h -0.5894 -0.5892 v 0.14586 c 0,0.12966 -0.017,0.14587 -0.1474,0.14587 h -0.1474 v 0.69692 c 0,0.38331 0.015,0.71151 0.032,0.72934 0.019,0.0178 0.095,0.0324 0.1719,0.0324 0.1219,0 0.1392,-0.018 0.1392,-0.14586 z m 2.6028,0.97567 v -0.82336 l 0.1351,-0.0154 c 0.106,-0.0121 0.1384,-0.0441 0.1506,-0.1491 0.013,-0.10502 0.041,-0.13371 0.135,-0.13371 0.1,0 0.1196,-0.0238 0.1196,-0.14457 v -0.14457 l 0.7244,-0.0134 0.7243,-0.0134 0.016,-0.13371 c 0.013,-0.10502 0.041,-0.13371 0.135,-0.13371 0.1134,0 0.1196,-0.0151 0.1196,-0.29174 0,-0.27877 -0.01,-0.29173 -0.1228,-0.29173 -0.1037,0 -0.1228,-0.0226 -0.1228,-0.14587 v -0.14587 h -0.6139 -0.6139 v 0.14587 c 0,0.12318 -0.019,0.14587 -0.1228,0.14587 -0.098,0 -0.1227,0.0243 -0.1227,0.12156 0,0.11492 -0.015,0.12155 -0.2702,0.12155 h -0.2701 v -0.23989 c 0,-0.22554 0.01,-0.24079 0.1351,-0.25527 0.106,-0.0121 0.1384,-0.0441 0.1506,-0.1491 0.013,-0.10501 0.041,-0.1337 0.135,-0.1337 0.1001,0 0.1196,-0.0237 0.1196,-0.14586 v -0.14588 h 0.8594 0.8595 v 0.14588 c 0,0.12211 0.02,0.14586 0.1195,0.14586 0.094,0 0.1229,0.0287 0.135,0.1337 0.013,0.10503 0.045,0.13702 0.1507,0.1491 l 0.135,0.0154 v 0.52839 0.52839 l -0.135,0.0154 c -0.1061,0.0121 -0.1384,0.0441 -0.1507,0.1491 -0.013,0.10502 -0.041,0.13371 -0.135,0.13371 -0.1001,0 -0.1195,0.0237 -0.1195,0.14587 v 0.14587 h -0.7367 -0.7367 v 0.14587 c 0,0.12317 -0.019,0.14586 -0.1228,0.14586 -0.1219,0 -0.1227,0.004 -0.1227,0.43761 v 0.43759 h 1.1295 1.1296 v 0.26743 0.26742 h -1.3997 -1.3997 z m 5.1567,0.26419 v -0.55915 h -0.8594 -0.8595 v -0.55916 -0.55916 h 0.1474 c 0.1302,0 0.1473,-0.0166 0.1473,-0.14264 0,-0.11947 0.022,-0.14514 0.1352,-0.15802 0.106,-0.0122 0.1383,-0.0441 0.1505,-0.14909 0.013,-0.10502 0.041,-0.13372 0.1351,-0.13372 0.1,0 0.1195,-0.0237 0.1195,-0.14588 0,-0.12965 0.016,-0.14586 0.1473,-0.14586 0.1244,0 0.1473,-0.0189 0.1473,-0.12155 0,-0.10266 0.023,-0.12156 0.1474,-0.12156 0.131,0 0.1473,-0.0162 0.1473,-0.14587 0,-0.12966 0.017,-0.14587 0.1473,-0.14587 0.131,0 0.1473,-0.0162 0.1473,-0.14586 0,-0.14439 0,-0.14588 0.2702,-0.14588 h 0.2701 v 1.14264 1.14263 h 0.2701 0.2701 v 0.26742 0.26743 h -0.2701 -0.2701 v 0.55915 0.55916 h -0.2701 -0.2702 z m -0.011,-1.68964 -0.014,-0.59562 h -0.1472 c -0.1235,0 -0.1499,0.0212 -0.1627,0.13077 -0.012,0.10106 -0.045,0.1342 -0.1472,0.14587 -0.103,0.0119 -0.1356,0.0447 -0.1477,0.14882 -0.013,0.10502 -0.041,0.13371 -0.1351,0.13371 -0.1,0 -0.1195,0.0237 -0.1195,0.14585 0,0.12968 -0.017,0.14588 -0.1473,0.14588 -0.1357,0 -0.1473,0.0135 -0.1473,0.17018 v 0.17018 h 0.5909 0.5908 z m -46.3282,-3.35764 c -0.4414,-0.20878 -0.736,-0.69245 -0.9148,-1.50161 -0.1287,-0.58194 -0.185,-2.7398 -0.091,-3.48008 0.1382,-1.08724 0.4939,-1.74067 1.1026,-2.02578 0.5108,-0.23918 1.5058,-0.25727 2.008,-0.0365 0.2665,0.11711 0.5589,0.44009 0.6013,0.66431 0.057,0.30051 -3e-4,0.67529 -0.1391,0.90968 l -0.129,0.21807 -0.334,-0.0701 c -0.5727,-0.12004 -1.3208,0.0524 -1.8881,0.43525 -0.2225,0.15009 -0.309,0.28239 -0.1846,0.28239 0.029,0 0.234,-0.0873 0.4543,-0.19407 0.8187,-0.39688 1.6854,-0.36461 2.1043,0.0784 0.4686,0.49538 0.3852,1.52032 -0.1552,1.90789 -0.3522,0.25259 -1.0028,0.31691 -1.7939,0.17737 -0.2456,-0.0433 -0.4099,-0.0521 -0.4388,-0.0234 -0.073,0.0721 -0.014,0.10016 0.473,0.22489 0.4864,0.12465 0.505,0.13812 0.7961,0.57618 0.209,0.31439 0.2905,0.56791 0.2894,0.89952 0,0.3144 -0.094,0.55441 -0.2897,0.74602 -0.2278,0.22349 -0.4077,0.29077 -0.8305,0.31044 -0.3373,0.0157 -0.4279,9.8e-4 -0.6404,-0.0989 z m 5.2816,0.0203 c -0.9829,-0.31493 -1.6583,-1.05321 -1.9624,-2.14485 -0.159,-0.57087 -0.2257,-1.41077 -0.1591,-2.00503 0.075,-0.67677 0.167,-1.00244 0.4283,-1.53002 0.3744,-0.75555 0.9774,-1.25748 1.7477,-1.45474 0.4092,-0.10476 1.1514,-0.10476 1.5605,0 0.7611,0.19488 1.4112,0.72673 1.7688,1.44703 0.3403,0.68552 0.4131,1.04552 0.4164,2.05978 0,0.75293 -0.013,0.93635 -0.1081,1.31281 -0.3023,1.19374 -1.0475,2.05211 -2.0109,2.3166 -0.4415,0.12121 -1.3006,0.12041 -1.6812,-9.8e-4 z m 2.2516,-3.4494 c 0.257,-0.0549 0.4004,-0.17354 0.3135,-0.25952 -0.045,-0.0442 -0.1631,-0.0374 -0.5135,0.0294 -0.5886,0.11221 -1.5929,0.11381 -2.36,0.004 -0.5486,-0.0787 -0.724,-0.0762 -0.7223,0.01 0,0.22483 0.5893,0.30775 1.9883,0.28191 0.5942,-0.011 1.1765,-0.0405 1.294,-0.0654 z m 3.126,3.4521 c -0.7558,-0.22427 -1.1702,-0.60708 -1.3313,-1.22951 -0.1937,-0.74843 0.1608,-1.4296 0.8467,-1.62702 0.4644,-0.13366 1.1945,-0.0791 1.8265,0.13647 0.4248,0.1449 0.5116,0.16118 0.5352,0.1004 0.036,-0.0929 -0.021,-0.12651 -0.5191,-0.30578 -0.5375,-0.1935 -1.2268,-0.31055 -1.5899,-0.27002 -0.2784,0.0311 -0.283,0.0296 -0.5041,-0.17226 -0.1371,-0.12502 -0.2927,-0.34313 -0.4036,-0.565 -0.1694,-0.33936 -0.1817,-0.39543 -0.202,-0.92051 -0.026,-0.68385 0.061,-1.0584 0.3458,-1.48052 0.3938,-0.58389 1.0139,-0.87542 1.8799,-0.88372 0.7732,-0.008 1.3532,0.17878 1.7529,0.56271 0.3028,0.291 0.4078,0.5628 0.4074,1.05502 -3e-4,0.37403 -0.017,0.44793 -0.177,0.77796 -0.097,0.20056 -0.2185,0.41507 -0.2697,0.47666 l -0.093,0.11199 -0.2335,-0.10222 c -0.377,-0.16512 -0.9402,-0.25492 -1.3971,-0.22279 -0.397,0.0279 -1.1613,0.22941 -1.2186,0.32134 -0.071,0.11393 0.047,0.12731 0.3322,0.0375 0.4358,-0.13723 1.2461,-0.17207 1.6447,-0.0707 0.6051,0.15386 1.0825,0.48117 1.3812,0.94703 0.2157,0.33646 0.3019,0.68609 0.3006,1.22066 0,0.99773 -0.4736,1.70196 -1.3752,2.05431 -0.381,0.14894 -1.5047,0.17674 -1.9388,0.0479 z m 5.068,0.0187 c -0.9214,-0.26099 -1.4273,-0.84005 -1.4273,-1.63367 0,-0.44846 0.1253,-0.74108 0.4263,-0.9962 0.2947,-0.24973 0.6213,-0.32902 1.2554,-0.30476 0.4388,0.0168 0.602,0.0475 1.0249,0.19299 0.4177,0.14374 0.5124,0.16182 0.5585,0.10674 0.044,-0.0532 0,-0.0894 -0.2104,-0.18277 -0.6379,-0.27928 -1.4813,-0.4518 -1.9348,-0.39571 -0.2389,0.0296 -0.2689,0.0212 -0.4307,-0.1194 -0.4399,-0.38241 -0.6718,-0.9607 -0.6699,-1.67089 0,-0.51736 0.055,-0.78538 0.2238,-1.11797 0.247,-0.48692 0.6698,-0.84477 1.1909,-1.00802 0.3776,-0.11829 1.1958,-0.14336 1.5989,-0.049 1.3351,0.31263 1.791,1.49029 1.032,2.66514 -0.1337,0.2069 -0.1898,0.2571 -0.2551,0.22851 -0.5197,-0.22742 -0.7824,-0.28158 -1.3606,-0.28054 -0.5054,9.8e-4 -0.6468,0.0197 -0.9925,0.13196 -0.2218,0.072 -0.4177,0.15398 -0.4353,0.18223 -0.072,0.11526 0.068,0.13001 0.3474,0.0367 0.3753,-0.12554 1.1728,-0.17337 1.5599,-0.0936 0.705,0.14542 1.3897,0.6765 1.6044,1.24457 0.3856,1.02058 0.085,2.19409 -0.6971,2.72557 -0.4445,0.30189 -0.7203,0.37443 -1.485,0.39054 -0.4764,0.01 -0.7602,-0.006 -0.9237,-0.0524 z m 5.6437,-0.004 c -0.9259,-0.25171 -1.6669,-0.98358 -1.9926,-1.96815 -0.1781,-0.53869 -0.2603,-1.2177 -0.2294,-1.89627 0.052,-1.14063 0.3703,-1.99248 0.963,-2.577 0.4907,-0.48376 0.9372,-0.68927 1.6911,-0.77825 1.0722,-0.12652 2.0194,0.34115 2.3442,1.15743 0.1457,0.36601 0.1557,1.10313 0.022,1.55532 -0.05,0.1681 -0.1044,0.29823 -0.1208,0.28917 -0.82,-0.45226 -2.0212,-0.42748 -3.0014,0.0619 -0.3178,0.15864 -0.866,0.55682 -0.9302,0.67562 -0.024,0.0456 -0.028,0.11156 -0.01,0.14653 0.029,0.0475 0.1099,0.007 0.3181,-0.16102 0.4992,-0.40256 1.0655,-0.63344 1.7397,-0.70928 1.2499,-0.1406 2.2115,0.43214 2.4855,1.48026 0.3196,1.22283 -0.3868,2.40509 -1.6281,2.72522 -0.3507,0.0904 -1.3201,0.0896 -1.6551,-9.8e-4 z m 5.631,9.8e-4 c -1.1014,-0.3053 -1.8667,-1.25472 -2.1051,-2.61134 -0.112,-0.63717 -0.073,-1.8594 0.076,-2.37318 0.1843,-0.63507 0.4228,-1.05337 0.8345,-1.46331 0.581,-0.57858 1.1314,-0.79083 2.0406,-0.78697 0.8313,0.004 1.4929,0.28615 2.0382,0.87056 0.3315,0.3553 0.5413,0.73666 0.7195,1.30809 0.13,0.41688 0.136,0.48066 0.1355,1.43306 0,0.87608 -0.014,1.04316 -0.1081,1.37982 -0.303,1.07828 -0.9346,1.83592 -1.8106,2.17222 -0.3715,0.14258 -1.4159,0.18333 -1.8209,0.071 z m 1.9068,-3.43473 c 0.5204,-0.069 0.634,-0.11123 0.634,-0.23578 0,-0.11982 -0.051,-0.12183 -0.5648,-0.0223 -0.5151,0.0998 -1.661,0.0999 -2.3292,2.6e-4 -0.2816,-0.042 -0.5523,-0.0764 -0.6016,-0.0764 -0.1302,0 -0.1143,0.18581 0.021,0.24459 0.3071,0.13344 2.0867,0.1896 2.8406,0.0897 z m 3.3044,3.36311 c -0.4509,-0.25609 -0.7673,-0.78519 -0.9618,-1.609 -0.096,-0.40519 -0.1086,-0.59448 -0.1087,-1.6021 -1e-4,-0.89098 0.019,-1.23902 0.086,-1.58024 0.2918,-1.48141 0.8469,-2.20441 1.8082,-2.35496 0.6183,-0.0968 1.1589,0.0638 1.4851,0.44099 0.2564,0.29667 0.3955,0.70742 0.5447,1.61009 0.02,0.12183 0.056,0.18232 0.1083,0.18232 0.068,0 0.073,-0.0538 0.044,-0.41525 -0.019,-0.2284 -0.074,-0.57301 -0.1247,-0.76581 l -0.091,-0.35054 0.2457,-0.23588 c 0.2892,-0.27756 0.5734,-0.41311 0.9895,-0.47202 1.7907,-0.25344 2.9768,1.62546 2.8681,4.54317 -0.041,1.10668 -0.2819,1.86499 -0.7489,2.35924 -0.3108,0.32893 -0.5435,0.41261 -1.0668,0.38377 -0.486,-0.0267 -0.9499,-0.1958 -0.8925,-0.32519 0.1101,-0.24835 0.2172,-0.60916 0.2622,-0.88315 0.073,-0.44725 0.063,-1.56179 -0.022,-2.35104 -0.1299,-1.21199 -0.1461,-1.2831 -0.2798,-1.23228 -0.059,0.0223 -0.059,0.10584 0,0.57841 0.1014,0.82442 0.099,2.45345 0,2.91051 -0.1242,0.55095 -0.3537,0.96313 -0.6429,1.15479 -0.2148,0.1424 -0.274,0.15803 -0.598,0.15803 -0.3845,0 -0.5185,-0.0354 -0.8403,-0.22125 l -0.2042,-0.11799 0.096,-0.2501 c 0.2525,-0.65765 0.2922,-1.8065 0.116,-3.3491 -0.097,-0.85219 -0.1034,-0.87521 -0.2257,-0.87521 -0.084,0 -0.097,0.0226 -0.075,0.13372 0.1405,0.71298 0.1909,2.66075 0.083,3.21897 -0.134,0.69382 -0.3731,1.14324 -0.7138,1.34088 -0.3119,0.18098 -0.7948,0.17088 -1.1376,-0.0238 z m 8.444,0.0454 c -0.8138,-0.40887 -1.2636,-1.83358 -1.1662,-3.69411 0.1237,-2.36117 0.8413,-3.50426 2.207,-3.51539 0.9012,-0.007 1.3455,0.36516 1.6002,1.34178 0.05,0.19265 0.1059,0.47607 0.1237,0.62985 0.023,0.20351 0.053,0.27957 0.1068,0.27957 0.064,0 0.07,-0.0688 0.047,-0.45566 -0.015,-0.2506 -0.066,-0.59107 -0.1127,-0.7566 l -0.085,-0.30092 0.216,-0.21995 c 0.2758,-0.28077 0.5876,-0.43799 0.9971,-0.50276 0.9759,-0.15434 1.8505,0.37373 2.3565,1.42276 0.3846,0.7975 0.5337,1.58866 0.5333,2.83097 -2e-4,0.92707 -0.1109,1.54808 -0.3716,2.08422 -0.3386,0.69677 -0.6952,0.95469 -1.3202,0.95469 -0.3443,0 -0.8751,-0.1275 -0.9854,-0.23669 -0.023,-0.0219 0.015,-0.20212 0.082,-0.4003 0.2544,-0.75041 0.2723,-1.91723 0.055,-3.55766 -0.075,-0.57093 -0.092,-0.61899 -0.2054,-0.61899 -0.064,0 -0.071,0.0434 -0.045,0.25527 0.088,0.72353 0.1248,1.30012 0.1243,1.98137 0,1.14095 -0.1577,1.81293 -0.5223,2.23467 -0.2323,0.26859 -0.4182,0.34233 -0.8632,0.34233 -0.2876,0 -0.4108,-0.0249 -0.6114,-0.12391 -0.3517,-0.17354 -0.3732,-0.20921 -0.2806,-0.46487 0.273,-0.75284 0.2889,-2.30759 0.04,-3.97345 -0.027,-0.18697 -0.1264,-0.30727 -0.1955,-0.23882 -0.014,0.0135 0.012,0.4046 0.057,0.86905 0.056,0.58144 0.073,1.08678 0.056,1.62243 -0.039,1.17719 -0.2296,1.76766 -0.6893,2.13449 -0.1684,0.13427 -0.229,0.15202 -0.5649,0.16526 -0.3066,0.0121 -0.4143,-0.004 -0.5822,-0.0887 z"
       id="path4498" /></g></svg>
