<?xml version="1.0" encoding="UTF-8" standalone="no"?>
<!-- Created with Inkscape (http://www.inkscape.org/) -->

<svg
   width="96.973755mm"
   height="26.231981mm"
   viewBox="0 0 96.973755 26.231981"
   version="1.1"
   id="svg5"
   xml:space="preserve"
   sodipodi:docname="logo_dark_pink_stroke - Copy.svg"
   inkscape:version="1.3.2 (091e20e, 2023-11-25, custom)"
   inkscape:export-filename="logo_dark_pink_stroke.pdf"
   inkscape:export-xdpi="500"
   inkscape:export-ydpi="500"
   xmlns:inkscape="http://www.inkscape.org/namespaces/inkscape"
   xmlns:sodipodi="http://sodipodi.sourceforge.net/DTD/sodipodi-0.dtd"
   xmlns="http://www.w3.org/2000/svg"
   xmlns:svg="http://www.w3.org/2000/svg"><sodipodi:namedview
     id="namedview7"
     pagecolor="#ffffff"
     bordercolor="#000000"
     borderopacity="0.25"
     inkscape:showpageshadow="2"
     inkscape:pageopacity="0.0"
     inkscape:pagecheckerboard="0"
     inkscape:deskcolor="#d1d1d1"
     inkscape:document-units="mm"
     showgrid="false"
     inkscape:zoom="1.4142136"
     inkscape:cx="192.33304"
     inkscape:cy="109.9551"
     inkscape:window-width="2400"
     inkscape:window-height="1261"
     inkscape:window-x="2391"
     inkscape:window-y="-9"
     inkscape:window-maximized="1"
     inkscape:current-layer="layer1" /><defs
     id="defs2" /><g
     inkscape:label="Layer 1"
     inkscape:groupmode="layer"
     id="layer1"
     transform="translate(-1370.831,32.063927)"><g
       id="g23039"
       transform="matrix(0.63037049,0,0,0.63037049,1135.5754,-42.879099)"
       inkscape:export-filename="logo-outline.png"
       inkscape:export-xdpi="96"
       inkscape:export-ydpi="96"
       style="fill:#201a2c;fill-opacity:1"><path
         style="fill:#201a2c;fill-opacity:1;stroke-width:0.118018"
         d="m 486.3417,58.691767 c -0.0433,-0.04327 -0.0787,-1.185093 -0.0787,-2.537382 v -2.458702 h 0.47207 c 0.46084,0 0.47207,-0.0098 0.47207,-0.413062 0,-0.393395 0.0197,-0.413061 0.41306,-0.413061 0.39339,0 0.41306,-0.01967 0.41306,-0.413066 v -0.413061 h 2.06532 2.0653 v -0.413062 c 0,-0.377708 0.0295,-0.413062 0.3444,-0.413062 0.66225,0 0.71777,-0.074 0.71777,-0.956766 v -0.8135 h -0.53108 -0.53109 v -0.47207 -0.472074 h -1.65224 -1.65225 v 0.472074 c 0,0.460829 -0.01,0.47207 -0.41307,0.47207 -0.39339,0 -0.41306,0.01967 -0.41306,0.413061 v 0.413062 h -0.88513 -0.88513 v -0.826123 c 0,-0.795069 0.0107,-0.826122 0.28539,-0.826122 0.51249,0 0.65875,-0.12072 0.65875,-0.543711 0,-0.378961 0.0222,-0.400433 0.41306,-0.400433 0.39339,0 0.41306,-0.01967 0.41306,-0.413062 v -0.413062 h 2.47838 2.47837 v 0.413062 c 0,0.392013 0.0207,0.413062 0.40593,0.413062 0.3839,0 0.40793,0.02404 0.44258,0.442567 0.0346,0.418535 0.0607,0.444553 0.47919,0.479193 l 0.44257,0.03662 v 1.586115 1.586118 h -0.40043 c -0.43476,0 -0.54372,0.14383 -0.54372,0.71776 0,0.314921 -0.0353,0.3444 -0.41306,0.3444 -0.39339,0 -0.41306,0.01967 -0.41306,0.413062 v 0.413061 h -2.06531 -2.06531 v 0.354053 c 0,0.325953 -0.0328,0.354054 -0.41307,0.354054 h -0.41306 v 1.298197 1.298192 h 3.36351 3.36351 v 0.8135 c 0,0.632934 -0.0415,0.829397 -0.18669,0.885131 -0.2554,0.09801 -8.1336,0.09127 -8.23191,-0.007 z m 11.84111,-0.393391 c 0,-0.460829 -0.01,-0.47207 -0.41306,-0.47207 -0.39339,0 -0.41306,-0.01967 -0.41306,-0.413066 0,-0.39339 -0.0197,-0.413061 -0.41306,-0.413061 h -0.41306 v -4.189632 -4.189626 h 0.41306 c 0.40323,0 0.41306,-0.01124 0.41306,-0.472075 0,-0.460829 0.01,-0.472069 0.41306,-0.472069 0.39339,0 0.41306,-0.01967 0.41306,-0.413062 v -0.413062 h 2.47838 2.47837 v 0.413062 c 0,0.403226 0.0112,0.413062 0.47207,0.413062 h 0.47207 v 0.472069 c 0,0.460834 0.01,0.472075 0.41307,0.472075 h 0.41306 v 4.189626 4.189632 h -0.41306 c -0.39339,0 -0.41307,0.01967 -0.41307,0.413061 0,0.390915 -0.0215,0.413066 -0.40043,0.413066 -0.42299,0 -0.54371,0.146256 -0.54371,0.658751 v 0.285388 h -2.47837 -2.47838 z m 4.36666,-1.711258 c 0,-0.380277 0.0281,-0.413062 0.35406,-0.413062 h 0.35405 v -1.996651 c 0,-1.098156 -0.0322,-2.080656 -0.0716,-2.183328 -0.0892,-0.232518 -0.47945,-0.24254 -0.70391,-0.01807 -0.0927,0.09273 -0.1686,0.331715 -0.1686,0.531082 0,0.335587 -0.0306,0.362484 -0.41306,0.362484 -0.39339,0 -0.41306,0.01967 -0.41306,0.413062 0,0.380276 -0.0281,0.413061 -0.35405,0.413061 -0.31472,0 -0.35405,0.03934 -0.35405,0.354053 0,0.316545 -0.0384,0.354054 -0.36249,0.354054 -0.42007,0 -0.69968,0.232446 -0.69968,0.58166 0,0.2222 -0.0699,0.244463 -0.76711,0.244463 h -0.76712 V 55.702 c 0,0.445841 0.0197,0.472069 0.35406,0.472069 0.32595,0 0.35405,0.03278 0.35405,0.413062 v 0.413061 h 1.82927 1.82928 z m -3.65855,-3.304497 c 0,-0.410876 0.003,-0.413061 0.53108,-0.413061 0.52827,0 0.53108,-0.0022 0.53108,-0.413066 0,-0.39339 0.0197,-0.413061 0.41306,-0.413061 0.39339,0 0.41307,-0.01967 0.41307,-0.413062 0,-0.380277 0.0281,-0.413062 0.35405,-0.413062 0.33438,0 0.35405,-0.02623 0.35405,-0.472069 v -0.472074 h 0.88514 0.88513 v -0.413062 c 0,-0.380276 -0.0281,-0.413061 -0.35405,-0.413061 -0.32383,0 -0.35406,-0.03417 -0.35406,-0.400434 0,-0.256274 -0.0672,-0.426224 -0.18668,-0.472074 -0.10268,-0.03939 -0.92585,-0.07164 -1.82927,-0.07164 h -1.6426 v 0.472074 c 0,0.445842 -0.0197,0.47207 -0.35405,0.47207 h -0.35406 v 2.12432 2.12432 h 0.35406 c 0.32595,0 0.35405,-0.03278 0.35405,-0.413062 z m 7.78917,2.950443 v -2.537381 h 0.41306 c 0.39339,0 0.41307,-0.01967 0.41307,-0.413062 0,-0.393395 0.0197,-0.413061 0.41306,-0.413061 0.39338,0 0.41306,-0.01967 0.41306,-0.413066 v -0.413061 h 2.01473 c 2.13657,0 2.35192,-0.05254 2.35192,-0.573819 0,-0.170405 0.0908,-0.247076 0.32456,-0.273969 0.31704,-0.03649 0.32535,-0.05712 0.35922,-0.892973 l 0.0346,-0.855629 h -0.35922 c -0.32971,0 -0.35922,-0.03292 -0.35922,-0.400434 0,-0.256274 -0.0672,-0.426224 -0.18668,-0.472074 -0.24305,-0.09326 -3.04215,-0.09326 -3.28519,0 -0.11947,0.04585 -0.18668,0.2158 -0.18668,0.472074 0,0.366249 -0.0302,0.400434 -0.35406,0.400434 -0.32595,0 -0.35405,0.03278 -0.35405,0.413061 v 0.413062 h -0.82613 -0.82612 v -0.826123 -0.826122 h 0.41306 c 0.40324,0 0.41306,-0.01124 0.41306,-0.472075 0,-0.460829 0.01,-0.472069 0.41307,-0.472069 0.39338,0 0.41306,-0.01967 0.41306,-0.413062 v -0.413062 h 2.53738 2.53738 v 0.413062 c 0,0.393391 0.0197,0.413062 0.41306,0.413062 0.40324,0 0.41307,0.01124 0.41307,0.472069 0,0.460834 0.01,0.472075 0.41306,0.472075 h 0.41306 v 1.593237 1.593242 h -0.41306 c -0.41088,0 -0.41306,0.0027 -0.41306,0.531078 0,0.528272 -0.002,0.531082 -0.41307,0.531082 -0.39339,0 -0.41306,0.01967 -0.41306,0.413061 v 0.413062 h -2.18333 -2.18332 v 0.354053 c 0,0.314716 -0.0393,0.354053 -0.35406,0.354053 h -0.35405 v 1.298198 1.298192 h 3.3635 3.36351 v 0.885135 0.885131 h -4.18963 -4.18963 z m 15.34231,0.935713 c 0,-1.230758 -0.039,-1.640711 -0.1686,-1.770266 -0.13519,-0.135189 -0.64965,-0.168598 -2.59639,-0.168598 h -2.42779 v -1.593238 -1.593242 h 0.41306 c 0.39339,0 0.41306,-0.01967 0.41306,-0.413062 0,-0.358197 0.0379,-0.413062 0.2854,-0.413062 0.51249,0 0.65874,-0.120714 0.65874,-0.543705 0,-0.378965 0.0222,-0.400438 0.41307,-0.400438 0.39339,0 0.41306,-0.01967 0.41306,-0.413062 0,-0.39339 0.0197,-0.413061 0.41306,-0.413061 0.39339,0 0.41306,-0.01967 0.41306,-0.413061 0,-0.380281 0.0281,-0.413061 0.35405,-0.413061 0.30161,0 0.35406,-0.04496 0.35406,-0.303476 0,-0.404815 0.25757,-0.640668 0.69968,-0.640668 0.33559,0 0.36248,-0.03064 0.36248,-0.413062 v -0.413062 h 0.76712 0.76711 v 3.422513 3.422517 h 0.82612 0.82613 v 0.767114 0.767116 h -0.82613 -0.82612 v 1.770266 1.770266 h -0.76711 -0.76712 z m 0,-5.015754 c 0,-1.707766 -0.064,-1.879857 -0.69968,-1.879857 -0.33558,0 -0.36248,0.03064 -0.36248,0.413062 0,0.380281 -0.0281,0.413066 -0.35406,0.413066 -0.31471,0 -0.35405,0.03934 -0.35405,0.354052 0,0.316541 -0.0384,0.354054 -0.36248,0.354054 -0.46081,0 -0.69968,0.238865 -0.69968,0.699677 0,0.335586 -0.0307,0.362483 -0.41306,0.362483 -0.39338,0 -0.41306,0.01967 -0.41306,0.413061 v 0.413062 h 1.82927 1.82928 z M 395.65488,42.992171 c -0.4706,-0.02556 -0.85563,-0.09723 -0.85563,-0.159295 0,-0.06206 -0.15933,-0.112846 -0.35405,-0.112846 -0.19474,0 -0.35406,-0.04707 -0.35406,-0.104617 0,-0.05754 -0.23898,-0.140457 -0.53107,-0.184259 -0.2921,-0.0438 -0.53109,-0.129494 -0.53109,-0.190424 0,-0.06093 -0.0797,-0.11079 -0.17702,-0.11079 -0.0974,0 -0.17703,-0.0472 -0.17703,-0.10488 0,-0.05769 -0.18588,-0.139757 -0.41306,-0.182377 -0.22719,-0.04264 -0.41306,-0.128191 -0.41306,-0.190161 0,-0.06197 -0.0555,-0.112668 -0.12338,-0.112668 -0.0678,0 -0.25616,-0.132771 -0.41844,-0.295045 -0.16227,-0.162274 -0.34475,-0.295046 -0.40551,-0.295046 -0.14409,0 -1.64907,-1.504972 -1.64907,-1.649069 0,-0.06076 -0.13276,-0.243236 -0.29504,-0.405515 -0.16227,-0.162273 -0.29504,-0.350565 -0.29504,-0.418423 0,-0.06786 -0.0521,-0.123382 -0.11577,-0.123382 -0.0636,0 -0.1491,-0.132771 -0.18982,-0.295045 -0.0407,-0.162274 -0.12141,-0.295045 -0.17928,-0.295045 -0.0578,0 -0.10522,-0.07966 -0.10522,-0.177029 0,-0.09736 -0.0472,-0.177024 -0.10489,-0.177024 -0.0577,0 -0.13975,-0.185879 -0.18237,-0.413062 -0.0426,-0.227183 -0.12819,-0.413062 -0.19016,-0.413062 -0.062,0 -0.11268,-0.132772 -0.11268,-0.295045 0,-0.162273 -0.0505,-0.295045 -0.11215,-0.295045 -0.0617,0 -0.14821,-0.31865 -0.19227,-0.708106 -0.0441,-0.389461 -0.12637,-0.708107 -0.18289,-0.708107 -0.0565,0 -0.10277,-0.132772 -0.10277,-0.295046 0,-0.183581 -0.0669,-0.295044 -0.17703,-0.295044 -0.0974,0 -0.17702,0.0472 -0.17702,0.104884 0,0.05769 -0.18588,0.139757 -0.41306,0.182373 -0.2272,0.04264 -0.41307,0.128195 -0.41307,0.19016 0,0.06197 -0.11,0.112673 -0.24447,0.112673 -0.13445,0 -0.32412,0.07966 -0.42149,0.177024 -0.0974,0.09737 -0.12013,0.177029 -0.0506,0.177029 0.0695,0 0.12645,0.128342 0.12645,0.28521 0,0.156863 0.0664,0.307338 0.14752,0.334383 0.11067,0.03689 0.14753,0.575009 0.14753,2.153825 0,1.578818 -0.0369,2.116938 -0.14753,2.153822 -0.0811,0.02703 -0.14752,0.150966 -0.14752,0.275375 0,0.124412 -0.0531,0.226201 -0.11802,0.226201 -0.065,0 -0.11801,0.05727 -0.11801,0.127276 0,0.07 -0.19916,0.332817 -0.44258,0.584047 -0.2434,0.25122 -0.5064,0.525876 -0.58443,0.610336 -0.25314,0.27401 -0.49455,0.448608 -0.62026,0.448608 -0.0676,0 -0.123,0.0507 -0.123,0.112672 0,0.06197 -0.18588,0.147541 -0.41307,0.190161 -0.22718,0.04264 -0.41306,0.12469 -0.41306,0.182372 0,0.05769 -0.13277,0.104885 -0.29504,0.104885 -0.16227,0 -0.29505,0.05311 -0.29505,0.118016 0,0.07306 -0.62942,0.118021 -1.65224,0.118021 -1.02282,0 -1.65226,-0.04496 -1.65226,-0.118021 0,-0.06491 -0.13276,-0.118016 -0.29504,-0.118016 -0.16228,0 -0.29504,-0.0472 -0.29504,-0.104885 0,-0.05768 -0.17433,-0.137584 -0.38739,-0.177559 -0.21307,-0.03997 -0.46378,-0.178648 -0.55713,-0.308177 -0.0934,-0.129529 -0.23527,-0.235502 -0.31535,-0.235502 -0.1667,0 -0.74643,-0.547965 -0.74643,-0.705519 0,-0.05759 -0.10622,-0.13841 -0.23604,-0.179616 -0.13048,-0.04139 -0.23604,-0.178564 -0.23604,-0.306701 0,-0.127481 -0.0797,-0.262354 -0.17702,-0.299719 -0.0974,-0.03738 -0.17703,-0.168465 -0.17703,-0.291339 0,-0.122874 -0.0489,-0.223409 -0.10864,-0.223409 -0.0598,0 -0.14364,-0.159325 -0.18641,-0.354054 -0.0428,-0.194728 -0.12665,-0.354053 -0.18639,-0.354053 -0.0598,0 -0.10865,-0.106219 -0.10865,-0.236037 0,-0.129819 -0.0493,-0.236033 -0.10952,-0.236033 -0.0603,0 -0.14602,-0.292096 -0.19063,-0.649098 -0.0446,-0.357006 -0.12809,-0.649098 -0.18552,-0.649098 -0.0574,0 -0.10442,-0.181455 -0.10442,-0.403227 0,-0.221776 -0.0523,-0.42093 -0.11623,-0.442568 -0.0639,-0.02163 -0.15177,-0.743018 -0.19521,-1.603073 -0.0434,-0.860058 -0.12389,-1.563736 -0.1788,-1.563736 -0.0549,0 -0.0999,-1.513577 -0.0999,-3.363508 0,-1.849927 0.045,-3.363504 0.10003,-3.363504 0.055,0 0.1361,-0.677129 0.18017,-1.504728 0.0441,-0.827599 0.13182,-1.522431 0.19501,-1.544065 0.0632,-0.02163 0.11488,-0.194238 0.11488,-0.38356 0,-0.189317 0.0471,-0.344218 0.10462,-0.344218 0.0575,0 0.14045,-0.238985 0.18426,-0.531082 0.0438,-0.292092 0.12949,-0.531077 0.19043,-0.531077 0.061,0 0.11078,-0.132772 0.11078,-0.295046 0,-0.162273 0.0473,-0.295045 0.10523,-0.295045 0.0578,0 0.13854,-0.132767 0.17927,-0.295045 0.0407,-0.162273 0.12615,-0.295041 0.18982,-0.295041 0.0636,0 0.11577,-0.07966 0.11577,-0.177028 0,-0.09736 0.0495,-0.177025 0.11007,-0.177025 0.0605,0 0.14661,-0.115166 0.19129,-0.255922 0.10517,-0.331381 1.11764,-1.34385 1.44903,-1.449025 0.14075,-0.04468 0.25592,-0.130756 0.25592,-0.191293 0,-0.06053 0.0569,-0.110064 0.12644,-0.110064 0.0696,0 0.20611,-0.07966 0.30348,-0.177028 0.0974,-0.09736 0.30599,-0.177025 0.46363,-0.177025 0.15765,0 0.28662,-0.05311 0.28662,-0.118016 0,-0.06491 0.0797,-0.118021 0.17703,-0.118021 0.0974,0 0.17702,-0.05311 0.17702,-0.118016 0,-0.06491 0.18146,-0.118016 0.40323,-0.118016 0.22178,0 0.42536,-0.06639 0.4524,-0.147523 0.071,-0.212918 4.59074,-0.212918 4.6617,0 0.027,0.08114 0.17752,0.147523 0.33439,0.147523 0.15687,0 0.28521,0.05311 0.28521,0.118016 0,0.06491 0.15932,0.118016 0.35405,0.118016 0.19473,0 0.35405,0.04889 0.35405,0.108641 0,0.05975 0.14901,0.141371 0.33114,0.181368 0.18212,0.04001 0.40627,0.176994 0.49812,0.304422 0.0918,0.127432 0.23038,0.231696 0.30784,0.231696 0.19965,0 0.98722,0.788539 0.98722,0.988437 0,0.09157 0.0797,0.197057 0.17703,0.234418 0.0974,0.03738 0.17703,0.175815 0.17703,0.307673 0,0.131853 0.0531,0.239739 0.11802,0.239739 0.0649,0 0.11801,0.132767 0.11801,0.295041 0,0.162278 0.0501,0.295045 0.11123,0.295045 0.0612,0 0.12756,0.217387 0.14753,0.483083 l 0.0363,0.483082 0.26554,-0.231384 c 0.14604,-0.127264 0.26554,-0.289497 0.26554,-0.360526 0,-0.187253 2.2216,-2.380554 2.41127,-2.380554 0.0879,0 0.19043,-0.07966 0.2278,-0.177029 0.0374,-0.09736 0.17581,-0.177025 0.30767,-0.177025 0.13185,0 0.23974,-0.05311 0.23974,-0.11802 0,-0.06491 0.0797,-0.118017 0.17703,-0.118017 0.0974,0 0.17702,-0.04986 0.17702,-0.110785 0,-0.06094 0.23899,-0.146627 0.53108,-0.190429 0.2921,-0.0438 0.53108,-0.126718 0.53108,-0.184259 0,-0.05754 0.13277,-0.104617 0.29505,-0.104617 0.16227,0 0.29504,-0.05311 0.29504,-0.118016 0,-0.06491 0.1549,-0.118016 0.34422,-0.118016 0.18932,0 0.36635,-0.06639 0.39339,-0.147523 0.071,-0.213141 4.82669,-0.213141 4.89773,0 0.0271,0.08114 0.23064,0.147523 0.45241,0.147523 0.22177,0 0.40323,0.05311 0.40323,0.118016 0,0.06491 0.10621,0.118016 0.23603,0.118016 0.12982,0 0.23604,0.04632 0.23604,0.102935 0,0.05661 0.21243,0.136902 0.47207,0.178421 0.25964,0.04152 0.47207,0.127967 0.47207,0.19211 0,0.06414 0.0797,0.116624 0.17703,0.116624 0.0974,0 0.17702,0.05311 0.17702,0.118017 0,0.06491 0.10788,0.11802 0.23974,0.11802 0.13186,0 0.27032,0.07966 0.30767,0.177025 0.0374,0.09736 0.14445,0.177029 0.23797,0.177029 0.0935,0 0.29309,0.132767 0.44348,0.29504 0.15038,0.162278 0.30941,0.295046 0.35339,0.295046 0.17337,0 1.25018,1.019575 1.25018,1.183731 0,0.06916 0.13277,0.248785 0.29504,0.399176 0.16228,0.15039 0.29505,0.354601 0.29505,0.453808 0,0.0992 0.0797,0.210937 0.17703,0.248303 0.0974,0.03738 0.17702,0.175812 0.17702,0.307669 0,0.156355 0.0775,0.239739 0.2229,0.239739 0.16131,0 0.24432,-0.114145 0.3004,-0.413061 0.0426,-0.227183 0.12819,-0.413062 0.19016,-0.413062 0.062,0 0.11267,-0.106218 0.11267,-0.236037 0,-0.129818 0.0474,-0.236033 0.10522,-0.236033 0.0579,0 0.13855,-0.132771 0.17927,-0.295044 0.0407,-0.162274 0.12615,-0.295046 0.18983,-0.295046 0.0636,0 0.11576,-0.05657 0.11576,-0.125715 0,-0.190526 1.25811,-1.408514 1.4549,-1.408514 0.0947,0 0.20267,-0.07966 0.24003,-0.177029 0.0374,-0.09736 0.17224,-0.177025 0.29972,-0.177025 0.12748,0 0.26459,-0.103363 0.30469,-0.229698 0.0519,-0.163656 0.22388,-0.252331 0.59804,-0.308445 0.28883,-0.04331 0.52514,-0.125826 0.52514,-0.183367 0,-0.05754 0.13277,-0.104617 0.29504,-0.104617 0.16228,0 0.29505,-0.05311 0.29505,-0.118016 0,-0.06491 0.12834,-0.118016 0.28521,-0.118016 0.15687,0 0.30704,-0.06551 0.33373,-0.145556 0.0699,-0.209849 5.06513,-0.209849 5.13508,0 0.0267,0.08005 0.20342,0.145556 0.39273,0.145556 0.18933,0 0.34423,0.05311 0.34423,0.118016 0,0.06491 0.10621,0.118016 0.23603,0.118016 0.12982,0 0.23604,0.04632 0.23604,0.102935 0,0.05661 0.21243,0.136902 0.47207,0.178421 0.25964,0.04152 0.47207,0.127967 0.47207,0.19211 0,0.06414 0.0797,0.116624 0.17702,0.116624 0.0974,0 0.17704,0.04953 0.17704,0.110064 0,0.06054 0.11499,0.146563 0.25554,0.191173 0.14055,0.04461 0.38195,0.207512 0.53644,0.362006 0.15449,0.154494 0.32802,0.280901 0.3856,0.280901 0.0576,0 0.13755,0.103497 0.1777,0.229998 0.0402,0.1265 0.17379,0.261983 0.29696,0.30108 0.12318,0.03907 0.26083,0.187858 0.30589,0.330587 0.0451,0.142727 0.18055,0.345395 0.30108,0.450373 0.12054,0.104978 0.21916,0.251025 0.21916,0.324547 0,0.07352 0.0797,0.133681 0.17702,0.133681 0.0974,0 0.17703,-0.07966 0.17703,-0.177028 0,-0.09736 0.0495,-0.177025 0.11006,-0.177025 0.0605,0 0.14629,-0.114113 0.19055,-0.25358 0.0877,-0.276418 1.06779,-1.280654 1.24982,-1.280654 0.0619,0 0.24532,-0.132767 0.40759,-0.295045 0.16228,-0.162273 0.37229,-0.295041 0.46671,-0.295041 0.0944,0 0.17166,-0.05311 0.17166,-0.11802 0,-0.06491 0.0797,-0.118017 0.17702,-0.118017 0.0974,0 0.17703,-0.0472 0.17703,-0.104884 0,-0.05768 0.18588,-0.139752 0.41307,-0.182372 0.22718,-0.04264 0.41306,-0.128196 0.41306,-0.190162 0,-0.06197 0.13277,-0.112672 0.29504,-0.112672 0.16227,0 0.29505,-0.05311 0.29505,-0.118016 0,-0.06491 0.12834,-0.118016 0.28521,-0.118016 0.15686,0 0.30704,-0.06551 0.33372,-0.145556 0.07,-0.209849 5.06514,-0.209849 5.13509,0 0.0267,0.08005 0.22997,0.145556 0.45174,0.145556 0.22178,0 0.40323,0.05311 0.40323,0.118016 0,0.06491 0.0797,0.118016 0.17703,0.118016 0.0974,0 0.17703,0.04632 0.17703,0.102935 0,0.05661 0.21243,0.136902 0.47207,0.178421 0.25963,0.04152 0.47207,0.127967 0.47207,0.19211 0,0.06414 0.10053,0.116624 0.22341,0.116624 0.12287,0 0.25398,0.07966 0.29134,0.177025 0.0374,0.09737 0.17223,0.177029 0.29972,0.177029 0.12813,0 0.26528,0.105549 0.3067,0.236037 0.0412,0.129819 0.11957,0.236032 0.17414,0.236032 0.17194,0 1.15231,1.015387 1.2365,1.280654 0.0442,0.139467 0.13001,0.25358 0.19055,0.25358 0.0605,0 0.11006,0.07966 0.11006,0.177025 0,0.09736 0.0499,0.177028 0.11079,0.177028 0.0609,0 0.14663,0.238986 0.19043,0.531078 0.0438,0.292097 0.12672,0.531083 0.18426,0.531083 0.0575,0 0.10461,0.132767 0.10461,0.29504 0,0.162278 0.0474,0.295045 0.10523,0.295045 0.0578,0 0.13855,-0.132767 0.17927,-0.295045 0.0407,-0.162273 0.12615,-0.29504 0.18982,-0.29504 0.0636,0 0.11577,-0.0569 0.11577,-0.126452 0,-0.06954 0.0797,-0.206106 0.17703,-0.303471 0.0974,-0.09736 0.17702,-0.275869 0.17702,-0.396682 0,-0.120809 0.10351,-0.252501 0.23001,-0.29265 0.12649,-0.04015 0.26284,-0.176498 0.303,-0.302999 0.0401,-0.1265 0.1214,-0.229997 0.18056,-0.229997 0.0592,0 0.39504,-0.292092 0.74639,-0.649098 0.35134,-0.357002 0.72064,-0.649099 0.82066,-0.649099 0.10002,0 0.21556,-0.106213 0.25677,-0.236032 0.0414,-0.130488 0.17856,-0.236037 0.3067,-0.236037 0.12748,0 0.26235,-0.07966 0.29972,-0.177029 0.0374,-0.09736 0.16846,-0.177025 0.29134,-0.177025 0.12287,0 0.22341,-0.05248 0.22341,-0.116624 0,-0.06414 0.21243,-0.150592 0.47207,-0.19211 0.25963,-0.04153 0.47206,-0.121808 0.47206,-0.178421 0,-0.05661 0.13278,-0.102935 0.29505,-0.102935 0.16227,0 0.29505,-0.05311 0.29505,-0.118016 0,-0.06491 0.18145,-0.118016 0.40322,-0.118016 0.22178,0 0.42465,-0.06425 0.45083,-0.142773 0.0697,-0.208993 4.82967,-0.213609 4.8993,-0.0048 0.027,0.08114 0.17753,0.147523 0.3344,0.147523 0.15686,0 0.28521,0.05311 0.28521,0.118016 0,0.06491 0.13276,0.118016 0.29504,0.118016 0.16228,0 0.29504,0.05071 0.29504,0.112673 0,0.06197 0.18589,0.14754 0.41307,0.190161 0.22718,0.04264 0.41306,0.124688 0.41306,0.182372 0,0.05769 0.0797,0.104885 0.17703,0.104885 0.0974,0 0.17702,0.04953 0.17702,0.110063 0,0.06054 0.11459,0.146434 0.25465,0.190888 0.29222,0.09275 1.75166,1.506583 1.75166,1.696926 0,0.06954 0.0495,0.126443 0.11006,0.126443 0.0605,0 0.14779,0.119492 0.19391,0.265538 0.0461,0.146046 0.1756,0.345481 0.28774,0.443179 0.11214,0.0977 0.24198,0.403074 0.28854,0.678605 0.0466,0.275531 0.13307,0.50096 0.19228,0.50096 0.0592,0 0.10765,0.159326 0.10765,0.354054 0,0.194732 0.0494,0.354053 0.1098,0.354053 0.0604,0 0.13283,0.119493 0.16096,0.265543 l 0.0512,0.265539 0.0161,-0.265539 c 0.009,-0.14605 0.0692,-0.265543 0.13408,-0.265543 0.0649,0 0.11802,-0.07966 0.11802,-0.177025 0,-0.09736 0.0531,-0.177028 0.11802,-0.177028 0.0649,0 0.11802,-0.07966 0.11802,-0.177024 0,-0.09736 0.0521,-0.17703 0.11577,-0.17703 0.0636,0 0.14909,-0.132767 0.18982,-0.295045 0.0407,-0.162273 0.1214,-0.295041 0.17927,-0.295041 0.0579,0 0.10523,-0.08667 0.10523,-0.192596 0,-0.105928 0.18587,-0.367903 0.41306,-0.582163 0.22718,-0.214266 0.41306,-0.443831 0.41306,-0.51015 0,-0.156622 0.56477,-0.721394 0.7214,-0.721394 0.0663,0 0.29588,-0.185879 0.51014,-0.413061 0.21426,-0.227184 0.42692,-0.413062 0.47258,-0.413062 0.0457,0 0.16267,-0.07966 0.26004,-0.177029 0.0974,-0.09736 0.27944,-0.177024 0.40463,-0.177024 0.12517,0 0.2276,-0.05311 0.2276,-0.118021 0,-0.06491 0.0797,-0.118016 0.17703,-0.118016 0.0974,0 0.17703,-0.05248 0.17703,-0.116625 0,-0.06414 0.21243,-0.150592 0.47206,-0.19211 0.25964,-0.04152 0.47207,-0.121808 0.47207,-0.17842 0,-0.05661 0.13278,-0.102936 0.29505,-0.102936 0.16227,0 0.29505,-0.05311 0.29505,-0.118016 0,-0.06491 0.18145,-0.118016 0.40322,-0.118016 0.22178,0 0.42536,-0.06639 0.45242,-0.147523 0.0696,-0.208859 4.82965,-0.204242 4.8993,0.0048 0.0262,0.07852 0.17594,0.142773 0.33281,0.142773 0.15686,0 0.28521,0.05311 0.28521,0.118016 0,0.06491 0.13277,0.118016 0.29504,0.118016 0.16228,0 0.29504,0.04708 0.29504,0.104617 0,0.05754 0.23899,0.140457 0.53109,0.184259 0.29209,0.0438 0.53108,0.129493 0.53108,0.190429 0,0.06093 0.0797,0.110785 0.17702,0.110785 0.0974,0 0.17703,0.0521 0.17703,0.115769 0,0.06367 0.13276,0.149092 0.29504,0.189821 0.16228,0.04073 0.29504,0.121402 0.29504,0.179277 0,0.05787 0.0554,0.105224 0.123,0.105224 0.13885,0 0.33431,0.149123 0.81213,0.619592 0.18129,0.178501 0.41681,0.324547 0.52337,0.324547 0.10657,0 0.19375,0.08761 0.19375,0.194693 0,0.107078 0.25697,0.441064 0.57104,0.742198 0.31408,0.301129 0.60973,0.701621 0.657,0.889979 0.0473,0.188364 0.18506,0.428428 0.3062,0.533487 0.12112,0.105059 0.2561,0.333914 0.29993,0.50857 0.12786,0.509408 0.48059,0.414043 0.57151,-0.154517 0.0415,-0.259637 0.12797,-0.472069 0.19211,-0.472069 0.0641,0 0.11662,-0.07967 0.11662,-0.177029 0,-0.09736 0.0531,-0.177025 0.11802,-0.177025 0.0649,0 0.11802,-0.106218 0.11802,-0.236037 0,-0.129818 0.0507,-0.236037 0.11267,-0.236037 0.062,0 0.1472,-0.184068 0.1894,-0.409038 0.0476,-0.253464 0.16181,-0.436038 0.3004,-0.480023 0.12301,-0.03903 0.22365,-0.151318 0.22365,-0.249499 0,-0.232424 1.34343,-1.575846 1.57585,-1.575846 0.0982,0 0.21046,-0.100646 0.2495,-0.223659 0.044,-0.138588 0.22656,-0.252839 0.48003,-0.300389 0.22496,-0.0422 0.40903,-0.127441 0.40903,-0.189407 0,-0.06197 0.13277,-0.112672 0.29504,-0.112672 0.16228,0 0.29505,-0.05311 0.29505,-0.118016 0,-0.06491 0.12835,-0.118016 0.28521,-0.118016 0.15687,0 0.30734,-0.06639 0.33438,-0.147523 0.0708,-0.212401 4.11884,-0.212401 4.18964,0 0.027,0.08114 0.17751,0.147523 0.33437,0.147523 0.15687,0 0.28522,0.05311 0.28522,0.118016 0,0.06491 0.0797,0.118016 0.17702,0.118016 0.0974,0 0.17703,0.0507 0.17703,0.112672 0,0.06197 0.18588,0.147541 0.41306,0.190162 0.22719,0.04264 0.41307,0.120893 0.41307,0.173942 0,0.195584 0.37925,0.467368 0.65216,0.467368 0.15469,0 0.41186,-0.130609 0.57149,-0.290246 0.15965,-0.159633 0.42759,-0.324716 0.59546,-0.366846 0.16785,-0.04215 0.3052,-0.123953 0.3052,-0.181828 0,-0.05787 0.13277,-0.105224 0.29505,-0.105224 0.16227,0 0.29504,-0.05311 0.29504,-0.118016 0,-0.06491 0.12835,-0.118016 0.28522,-0.118016 0.15685,0 0.30685,-0.06497 0.33333,-0.14437 0.0699,-0.209666 4.12081,-0.212713 4.19067,-0.0031 0.0271,0.08114 0.17753,0.147522 0.33438,0.147522 0.15688,0 0.28522,0.05311 0.28522,0.118017 0,0.06491 0.13277,0.118016 0.29505,0.118016 0.16227,0 0.29504,0.05071 0.29504,0.112673 0,0.06197 0.18408,0.147201 0.40904,0.189406 0.25346,0.04755 0.43604,0.161801 0.48002,0.30039 0.039,0.123011 0.17529,0.223659 0.30278,0.223659 0.12748,0 0.26235,0.07966 0.29972,0.177024 0.0374,0.09736 0.13958,0.177029 0.22714,0.177029 0.18027,0 1.46778,1.237552 1.46778,1.41082 0,0.06197 0.12641,0.239083 0.28089,0.393578 0.1545,0.154494 0.3174,0.395897 0.36202,0.536448 0.0446,0.140547 0.13064,0.255543 0.19117,0.255543 0.0605,0 0.11006,0.07966 0.11006,0.177025 0,0.09737 0.0531,0.177028 0.11802,0.177028 0.065,0 0.11801,0.106214 0.11801,0.236037 0,0.12982 0.0489,0.236033 0.10864,0.236033 0.0598,0 0.14365,0.159325 0.18641,0.354054 0.12051,0.548683 0.48162,0.474745 0.5764,-0.118017 0.0415,-0.259638 0.12797,-0.47207 0.19211,-0.47207 0.0641,0 0.11663,-0.07966 0.11663,-0.177028 0,-0.09736 0.0465,-0.177025 0.10326,-0.177025 0.0568,0 0.13656,-0.166457 0.17725,-0.369906 0.0407,-0.203448 0.1725,-0.455712 0.29291,-0.560584 0.12041,-0.104875 0.25667,-0.310175 0.30278,-0.456221 0.0461,-0.146047 0.13338,-0.265539 0.19391,-0.265539 0.0605,0 0.11007,-0.07966 0.11007,-0.177029 0,-0.09736 0.0495,-0.177024 0.11006,-0.177024 0.0605,0 0.14291,-0.103498 0.18307,-0.229998 0.0401,-0.1265 0.17378,-0.261988 0.29695,-0.301085 0.12317,-0.03907 0.25681,-0.17458 0.29696,-0.30108 0.0402,-0.1265 0.1682,-0.229998 0.28455,-0.229998 0.11636,0 0.30816,-0.12864 0.42624,-0.285874 0.11807,-0.157228 0.39105,-0.318958 0.60661,-0.359401 0.21556,-0.04046 0.39194,-0.12423 0.39194,-0.186195 0,-0.06197 0.13277,-0.112673 0.29505,-0.112673 0.16227,0 0.29504,-0.05311 0.29504,-0.118016 0,-0.06491 0.12835,-0.118017 0.28521,-0.118017 0.15686,0 0.30734,-0.06639 0.33438,-0.147522 0.0708,-0.212254 4.00087,-0.212254 4.07162,0 0.027,0.08114 0.17752,0.147522 0.33438,0.147522 0.15687,0 0.28521,0.05311 0.28521,0.118017 0,0.06491 0.10622,0.118016 0.23604,0.118016 0.12982,0 0.23603,0.05071 0.23603,0.112673 0,0.06197 0.18588,0.14754 0.41306,0.19016 0.22719,0.04264 0.41307,0.120894 0.41307,0.173943 0,0.194706 0.37868,0.467367 0.6491,0.467367 0.15299,0 0.35784,-0.07966 0.4552,-0.177028 0.0974,-0.09736 0.23394,-0.177024 0.30348,-0.177024 0.0695,0 0.12645,-0.0521 0.12645,-0.115769 0,-0.06367 0.13277,-0.149092 0.29504,-0.189821 0.16228,-0.04072 0.29505,-0.121403 0.29505,-0.179278 0,-0.05787 0.13277,-0.105223 0.29504,-0.105223 0.16228,0 0.29505,-0.05311 0.29505,-0.118016 0,-0.06491 0.12834,-0.118017 0.28521,-0.118017 0.15686,0 0.30659,-0.06415 0.33272,-0.142549 0.0693,-0.207931 4.00395,-0.21274 4.07325,-0.005 0.0271,0.08114 0.23065,0.147523 0.45242,0.147523 0.22178,0 0.40323,0.05311 0.40323,0.118016 0,0.06491 0.10622,0.118017 0.23604,0.118017 0.12982,0 0.23603,0.04889 0.23603,0.10864 0,0.05975 0.15933,0.143638 0.35406,0.186405 0.19472,0.04278 0.35405,0.126652 0.35405,0.186405 0,0.05975 0.0822,0.10864 0.18266,0.10864 0.10046,0 0.3057,0.132772 0.4561,0.295045 0.15039,0.162274 0.30942,0.295046 0.35341,0.295046 0.0873,0 0.35365,0.206834 0.57722,0.448219 0.078,0.08424 0.21082,0.217012 0.29507,0.29504 0.61918,0.573364 0.73193,0.698454 0.73193,0.811997 0,0.07057 0.0986,0.214207 0.21916,0.319186 0.12053,0.104978 0.25688,0.310362 0.30299,0.456408 0.0461,0.146046 0.13338,0.265539 0.19391,0.265539 0.0605,0 0.11007,0.07966 0.11007,0.177024 0,0.09737 0.0472,0.17703 0.10488,0.17703 0.0577,0 0.13976,0.185877 0.18237,0.413061 0.0426,0.227182 0.12819,0.413061 0.19016,0.413061 0.062,0 0.11267,0.07966 0.11267,0.177029 0,0.09736 0.0499,0.177024 0.11079,0.177024 0.0609,0 0.14662,0.238986 0.19043,0.531082 0.0438,0.292093 0.12671,0.531079 0.18425,0.531079 0.0576,0 0.10462,0.132771 0.10462,0.295045 0,0.162273 0.0469,0.295044 0.10427,0.295044 0.0574,0 0.14123,0.345204 0.18642,0.767116 0.0452,0.421915 0.13103,0.767114 0.19077,0.767114 0.0597,0 0.10863,0.234561 0.10863,0.521247 0,0.312098 0.0592,0.540971 0.14753,0.570411 0.11444,0.03814 0.14752,1.02346 0.14752,4.396149 0,3.372674 -0.0331,4.358007 -0.14752,4.396171 -0.0811,0.02707 -0.14753,0.23064 -0.14753,0.452412 0,0.221777 -0.0481,0.403231 -0.10695,0.403231 -0.0588,0 -0.14346,0.265538 -0.1881,0.590085 -0.0446,0.324552 -0.12927,0.590091 -0.18809,0.590091 -0.0588,0 -0.10695,0.132771 -0.10695,0.295045 0,0.162273 -0.0472,0.295045 -0.10488,0.295045 -0.0577,0 -0.13975,0.185879 -0.18237,0.413061 -0.0426,0.227184 -0.12819,0.413062 -0.19017,0.413062 -0.062,0 -0.11267,0.07966 -0.11267,0.177024 0,0.09737 -0.0495,0.177029 -0.11006,0.177029 -0.0605,0 -0.14661,0.115166 -0.19129,0.255918 -0.0447,0.140755 -0.32707,0.510015 -0.62755,0.820574 -0.30047,0.310563 -0.61015,0.63354 -0.68819,0.717728 -0.25427,0.274348 -0.49479,0.448116 -0.62026,0.448116 -0.0676,0 -0.123,0.0521 -0.123,0.115773 0,0.06367 -0.13277,0.149088 -0.29505,0.189817 -0.16227,0.04073 -0.29504,0.121402 -0.29504,0.179277 0,0.05787 -0.12834,0.105224 -0.28522,0.105224 -0.15686,0 -0.30639,0.06357 -0.33228,0.141264 -0.0339,0.101503 -0.55761,0.141265 -1.86088,0.141265 -1.30326,0 -1.82702,-0.03974 -1.86086,-0.141265 -0.0259,-0.0777 -0.17544,-0.141264 -0.3323,-0.141264 -0.15686,0 -0.28521,-0.04708 -0.28521,-0.104617 0,-0.05754 -0.23899,-0.140457 -0.53108,-0.184259 -0.29209,-0.0438 -0.53108,-0.129494 -0.53108,-0.190425 0,-0.06093 -0.0797,-0.11079 -0.17702,-0.11079 -0.0974,0 -0.17703,0.0521 -0.17703,0.115773 0,0.06367 -0.13277,0.149088 -0.29505,0.189817 -0.16227,0.04073 -0.29504,0.121402 -0.29504,0.179277 0,0.05787 -0.12834,0.105224 -0.28521,0.105224 -0.15686,0 -0.30687,0.06499 -0.33334,0.144409 -0.0661,0.198314 -3.53827,0.190054 -3.60448,-0.0086 -0.0249,-0.07471 -0.17363,-0.135836 -0.33048,-0.135836 -0.15687,0 -0.28522,-0.04889 -0.28522,-0.10864 0,-0.05975 -0.15932,-0.143633 -0.35405,-0.186401 -0.19473,-0.04278 -0.35406,-0.126651 -0.35406,-0.186405 0,-0.05975 -0.13276,-0.10864 -0.29504,-0.10864 -0.16227,0 -0.29504,0.0472 -0.29504,0.104885 0,0.05768 -0.18588,0.139752 -0.41307,0.182373 -0.22718,0.04264 -0.41306,0.12819 -0.41306,0.19016 0,0.06197 -0.12834,0.112668 -0.28521,0.112668 -0.15686,0 -0.306,0.06238 -0.3314,0.13862 -0.0665,0.19959 -3.06524,0.204518 -3.13171,0.0051 -0.0264,-0.07907 -0.17626,-0.143763 -0.33312,-0.143763 -0.15687,0 -0.28521,-0.05311 -0.28521,-0.118021 0,-0.06491 -0.10789,-0.118016 -0.23975,-0.118016 -0.13185,0 -0.2703,-0.07966 -0.30767,-0.177029 -0.0374,-0.09736 -0.14444,-0.177025 -0.23796,-0.177025 -0.0935,0 -0.29308,-0.132771 -0.44348,-0.295044 -0.15038,-0.162274 -0.31097,-0.295046 -0.35684,-0.295046 -0.12859,0 -0.4206,-0.321906 -0.4206,-0.463639 0,-0.06955 -0.0495,-0.126446 -0.11007,-0.126446 -0.0605,0 -0.14292,-0.103503 -0.18307,-0.230003 -0.0401,-0.126495 -0.17093,-0.261078 -0.29062,-0.299064 -0.13217,-0.04197 -0.24774,-0.229685 -0.29435,-0.478109 -0.0422,-0.22497 -0.12743,-0.409038 -0.1894,-0.409038 -0.062,0 -0.11267,-0.0569 -0.11267,-0.126451 0,-0.06954 -0.0679,-0.19434 -0.15089,-0.277328 -0.12249,-0.12249 -0.178,-0.121843 -0.29505,0.0036 -0.0793,0.08488 -0.14415,0.20968 -0.14415,0.277329 0,0.06765 -0.0495,0.122998 -0.11006,0.122998 -0.0605,0 -0.1478,0.119493 -0.19392,0.265539 -0.0461,0.146051 -0.18246,0.35143 -0.30299,0.456413 -0.12054,0.104978 -0.21916,0.228633 -0.21916,0.274795 0,0.04616 -0.19916,0.289474 -0.44256,0.540698 -0.24341,0.251226 -0.50641,0.525878 -0.58444,0.610338 -0.25314,0.274008 -0.49455,0.448606 -0.62027,0.448606 -0.0676,0 -0.12299,0.05071 -0.12299,0.112673 0,0.06197 -0.18588,0.147541 -0.41307,0.190161 -0.22718,0.04264 -0.41306,0.124689 -0.41306,0.182372 0,0.05769 -0.12834,0.104885 -0.28522,0.104885 -0.15685,0 -0.30732,0.06639 -0.33437,0.147523 -0.0675,0.202591 -3.4171,0.193264 -3.48476,-0.0097 -0.0253,-0.0758 -0.17429,-0.137817 -0.33115,-0.137817 -0.15686,0 -0.28521,-0.04707 -0.28521,-0.104617 0,-0.05754 -0.23898,-0.140457 -0.53107,-0.184259 -0.2921,-0.0438 -0.53109,-0.129493 -0.53109,-0.190424 0,-0.06093 -0.0797,-0.110785 -0.17702,-0.110785 -0.0974,0 -0.17703,0.0507 -0.17703,0.112667 0,0.06197 -0.18588,0.147541 -0.41306,0.190161 -0.22719,0.04264 -0.41306,0.124689 -0.41306,0.182373 0,0.05769 -0.0752,0.104884 -0.1672,0.104884 -0.0919,0 -0.18932,0.06639 -0.21637,0.147523 -0.0675,0.202592 -3.4171,0.193265 -3.48476,-0.0097 -0.0253,-0.0758 -0.17428,-0.137817 -0.33114,-0.137817 -0.15687,0 -0.28521,-0.0472 -0.28521,-0.104884 0,-0.05768 -0.18588,-0.139752 -0.41306,-0.182373 -0.22719,-0.04264 -0.41306,-0.128191 -0.41306,-0.190161 0,-0.06197 -0.13278,-0.112668 -0.29505,-0.112668 -0.16228,0 -0.29504,0.0472 -0.29504,0.104881 0,0.05769 -0.18589,0.139756 -0.41306,0.182376 -0.22719,0.04264 -0.41307,0.128191 -0.41307,0.190161 0,0.06197 -0.12835,0.112668 -0.28521,0.112668 -0.15686,0 -0.30678,0.06469 -0.33313,0.143767 -0.0665,0.199371 -3.06516,0.194443 -3.1317,-0.0051 -0.0254,-0.07624 -0.17454,-0.138619 -0.33141,-0.138619 -0.15686,0 -0.28521,-0.05071 -0.28521,-0.112673 0,-0.06196 -0.18407,-0.147196 -0.40903,-0.189402 -0.24843,-0.04661 -0.43617,-0.162189 -0.47811,-0.294358 -0.038,-0.119689 -0.18478,-0.254343 -0.32621,-0.29923 -0.29479,-0.09356 -0.91097,-0.714547 -0.91097,-0.918084 0,-0.07509 -0.13277,-0.236239 -0.29504,-0.358099 -0.16228,-0.121866 -0.29504,-0.316769 -0.29504,-0.433121 0,-0.116357 -0.10622,-0.245266 -0.23604,-0.286467 -0.12982,-0.04121 -0.23604,-0.177552 -0.23604,-0.302999 0,-0.125443 -0.0525,-0.228084 -0.11662,-0.228084 -0.0641,0 -0.15059,-0.212432 -0.19211,-0.472069 -0.0415,-0.259638 -0.12181,-0.47207 -0.17842,-0.47207 -0.0566,0 -0.10294,-0.11001 -0.10294,-0.244467 0,-0.361034 -0.26071,-0.590162 -0.44592,-0.391897 -0.0793,0.08488 -0.14416,0.20968 -0.14416,0.277328 0,0.06765 -0.0495,0.122999 -0.11007,0.122999 -0.0605,0 -0.14779,0.119492 -0.19391,0.265539 -0.0462,0.146046 -0.18246,0.351431 -0.303,0.456413 -0.12053,0.104978 -0.21915,0.246957 -0.21915,0.315505 0,0.185531 -1.62462,1.79497 -1.8119,1.79497 -0.0887,0 -0.26105,0.132771 -0.38291,0.295044 -0.12186,0.162274 -0.28862,0.295046 -0.37058,0.295046 -0.082,0 -0.14902,0.0472 -0.14902,0.10488 0,0.05769 -0.18588,0.139757 -0.41306,0.182377 -0.22718,0.04264 -0.41306,0.128191 -0.41306,0.190161 0,0.06197 -0.0797,0.112668 -0.17703,0.112668 -0.0974,0 -0.17703,0.04986 -0.17703,0.11079 0,0.06093 -0.23898,0.146621 -0.53108,0.190424 -0.29209,0.0438 -0.53107,0.126719 -0.53107,0.184259 0,0.05754 -0.18146,0.104617 -0.40323,0.104617 -0.22178,0 -0.42413,0.0627 -0.44967,0.13932 -0.0672,0.201473 -4.5989,0.204822 -4.66602,0.0036 -0.0262,-0.07852 -0.22904,-0.142763 -0.45082,-0.142763 -0.22177,0 -0.40322,-0.04632 -0.40322,-0.102936 0,-0.05661 -0.21244,-0.136901 -0.47207,-0.17842 -0.25964,-0.04153 -0.47208,-0.127968 -0.47208,-0.192109 0,-0.06414 -0.0797,-0.116625 -0.17702,-0.116625 -0.0974,0 -0.17703,-0.0472 -0.17703,-0.10488 0,-0.05769 -0.18588,-0.139757 -0.41306,-0.182377 -0.22719,-0.04265 -0.41306,-0.128191 -0.41306,-0.190161 0,-0.06197 -0.10264,-0.112668 -0.22808,-0.112668 -0.12545,0 -0.2618,-0.106219 -0.30301,-0.236037 -0.0412,-0.129819 -0.1559,-0.236037 -0.2549,-0.236037 -0.22882,0 -1.99319,-1.770623 -2.10014,-2.107589 -0.0442,-0.13902 -0.12975,-0.252764 -0.19029,-0.252764 -0.0605,0 -0.11006,-0.0525 -0.11006,-0.116669 0,-0.146385 -0.37497,-0.591438 -0.4983,-0.591438 -0.0505,0 -0.0918,0.07966 -0.0918,0.177025 0,0.09736 -0.0531,0.177029 -0.11802,0.177029 -0.0649,0 -0.11802,0.07966 -0.11802,0.177025 0,0.09736 -0.0495,0.177028 -0.11007,0.177028 -0.0605,0 -0.14779,0.119493 -0.1939,0.265539 -0.0462,0.146046 -0.18246,0.351431 -0.303,0.456409 -0.12053,0.104978 -0.21916,0.248495 -0.21916,0.318931 0,0.176864 -1.15758,1.319474 -1.33677,1.319474 -0.0799,0 -0.2219,0.106218 -0.31547,0.236037 -0.0936,0.129818 -0.23807,0.236037 -0.3211,0.236037 -0.083,0 -0.15097,0.0521 -0.15097,0.115768 0,0.06367 -0.13277,0.149093 -0.29505,0.189822 -0.16227,0.04073 -0.29504,0.121401 -0.29504,0.179272 0,0.05787 -0.13277,0.105224 -0.29504,0.105224 -0.16228,0 -0.29505,0.04986 -0.29505,0.11079 0,0.06093 -0.23899,0.146622 -0.53108,0.190424 -0.29209,0.0438 -0.53108,0.126718 -0.53108,0.184259 0,0.05754 -0.1549,0.104617 -0.34422,0.104617 -0.18932,0 -0.36498,0.06228 -0.39035,0.138401 -0.0666,0.199778 -4.83621,0.202829 -4.90277,0.0031 -0.026,-0.07784 -0.22863,-0.141541 -0.45041,-0.141541 -0.22177,0 -0.40323,-0.04812 -0.40323,-0.106941 0,-0.05882 -0.26554,-0.143468 -0.59008,-0.188104 -0.32456,-0.04464 -0.5901,-0.129284 -0.5901,-0.1881 0,-0.05882 -0.10621,-0.106945 -0.23603,-0.106945 -0.12982,0 -0.23604,-0.04735 -0.23604,-0.105224 0,-0.05787 -0.13277,-0.138544 -0.29504,-0.179273 -0.16228,-0.04072 -0.29505,-0.126147 -0.29505,-0.189821 0,-0.06367 -0.0797,-0.115769 -0.17702,-0.115769 -0.0974,0 -0.17703,-0.05311 -0.17703,-0.11802 0,-0.06491 -0.0569,-0.118017 -0.12644,-0.118017 -0.0695,0 -0.20048,-0.06639 -0.29095,-0.147522 -0.3582,-0.321224 -0.51998,-0.442568 -0.59003,-0.442568 -0.0403,0 -0.28357,-0.212432 -0.54062,-0.472069 -0.25707,-0.259638 -0.51486,-0.47207 -0.57288,-0.47207 -0.058,0 -0.14201,-0.114996 -0.18662,-0.255547 -0.0446,-0.140551 -0.20751,-0.381949 -0.362,-0.536444 -0.1545,-0.154494 -0.2809,-0.358148 -0.2809,-0.452559 0,-0.09442 -0.0531,-0.171664 -0.11802,-0.171664 -0.0649,0 -0.11802,-0.07966 -0.11802,-0.177028 0,-0.09736 -0.0797,-0.177024 -0.17702,-0.177024 -0.0974,0 -0.17703,0.07966 -0.17703,0.177024 0,0.09736 -0.0531,0.177028 -0.11802,0.177028 -0.0649,0 -0.11801,0.07966 -0.11801,0.177025 0,0.09736 -0.0531,0.177029 -0.11802,0.177029 -0.0649,0 -0.11803,0.107882 -0.11803,0.239739 0,0.131858 -0.0797,0.270307 -0.17702,0.307668 -0.0974,0.03738 -0.17703,0.141274 -0.17703,0.230917 0,0.215077 -1.63753,1.818065 -1.85725,1.818065 -0.0533,0 -0.17209,0.104261 -0.26393,0.231693 -0.0919,0.127433 -0.31601,0.264424 -0.49813,0.304421 -0.18212,0.04001 -0.33113,0.121621 -0.33113,0.181369 0,0.05975 -0.10622,0.108641 -0.23604,0.108641 -0.12981,0 -0.23603,0.05248 -0.23603,0.116624 0,0.06414 -0.21244,0.150592 -0.47207,0.19211 -0.25964,0.04153 -0.47207,0.121808 -0.47207,0.178421 0,0.05661 -0.18145,0.102935 -0.40323,0.102935 -0.22177,0 -0.42437,0.06343 -0.45021,0.140961 -0.0682,0.204662 -4.83276,0.208074 -4.90094,0.0036 -0.0265,-0.07946 -0.22961,-0.144467 -0.45138,-0.144467 -0.22178,0 -0.40324,-0.04812 -0.40324,-0.106941 0,-0.05882 -0.26554,-0.143468 -0.59008,-0.188104 -0.32455,-0.04464 -0.5901,-0.129283 -0.5901,-0.1881 0,-0.05882 -0.0797,-0.106945 -0.17703,-0.106945 -0.0974,0 -0.17702,-0.04889 -0.17702,-0.10864 0,-0.05975 -0.17255,-0.146537 -0.38345,-0.19286 -0.21089,-0.04632 -0.46938,-0.183309 -0.57442,-0.30442 -0.10504,-0.121113 -0.22805,-0.220203 -0.27335,-0.220203 -0.10303,0 -1.36517,-1.255456 -1.36517,-1.357936 0,-0.121956 -0.32651,-0.41233 -0.46364,-0.41233 -0.0695,0 -0.12645,0.05535 -0.12645,0.122998 0,0.125519 -0.17395,0.366231 -0.44822,0.620266 -0.0842,0.07803 -0.21701,0.210795 -0.29504,0.295045 -0.14629,0.157938 -0.32384,0.32816 -0.60961,0.584435 -0.0905,0.08114 -0.20968,0.147522 -0.26489,0.147522 -0.0552,0 -0.17678,0.105978 -0.27014,0.235502 -0.0934,0.129529 -0.34407,0.26821 -0.55714,0.308181 -0.21306,0.03997 -0.38739,0.119872 -0.38739,0.17756 0,0.05768 -0.0797,0.10488 -0.17702,0.10488 -0.0974,0 -0.17703,0.05248 -0.17703,0.116624 0,0.06414 -0.21243,0.150592 -0.47207,0.192111 -0.25964,0.04152 -0.47207,0.121807 -0.47207,0.17842 0,0.05661 -0.18145,0.102935 -0.40322,0.102935 -0.22178,0 -0.42394,0.0621 -0.44924,0.138013 -0.0674,0.202245 -4.8345,0.208712 -4.90186,0.0067 -0.0265,-0.07956 -0.22968,-0.144655 -0.45145,-0.144655 -0.22177,0 -0.40323,-0.04812 -0.40323,-0.106941 0,-0.05882 -0.26554,-0.143467 -0.59008,-0.188104 -0.32455,-0.04464 -0.59009,-0.129284 -0.59009,-0.1881 0,-0.05882 -0.0797,-0.106945 -0.17703,-0.106945 -0.0974,0 -0.17703,-0.0472 -0.17703,-0.10488 0,-0.05769 -0.17433,-0.137589 -0.38739,-0.17756 -0.21306,-0.03997 -0.46377,-0.178652 -0.55713,-0.308181 -0.0934,-0.129525 -0.21337,-0.235502 -0.26669,-0.235502 -0.10152,0 -0.3535,-0.18942 -0.59421,-0.446663 -0.18054,-0.192939 -0.3874,-0.399804 -0.58034,-0.580339 -0.27542,-0.257711 -0.44666,-0.495514 -0.44666,-0.620266 0,-0.06765 -0.0521,-0.122999 -0.11577,-0.122999 -0.0637,0 -0.1491,-0.132771 -0.18982,-0.295044 -0.0407,-0.162274 -0.12141,-0.295046 -0.17928,-0.295046 -0.0579,0 -0.10522,-0.11001 -0.10522,-0.244463 0,-0.134458 -0.0797,-0.324128 -0.17703,-0.421492 -0.15736,-0.157358 -0.17702,-0.150747 -0.17702,0.05949 0,0.130791 -0.10281,0.269143 -0.23001,0.30951 -0.12649,0.04015 -0.26628,0.187351 -0.31064,0.327112 -0.0954,0.300697 -1.89191,2.094167 -2.09767,2.094167 -0.0781,0 -0.21856,0.106218 -0.31213,0.236037 -0.0936,0.129819 -0.23806,0.236037 -0.3211,0.236037 -0.083,0 -0.15097,0.0521 -0.15097,0.115768 0,0.06367 -0.13277,0.149093 -0.29504,0.189822 -0.16228,0.04073 -0.29505,0.121401 -0.29505,0.179272 0,0.05787 -0.0797,0.105224 -0.17702,0.105224 -0.0974,0 -0.17704,0.04929 -0.17704,0.109528 0,0.06024 -0.29209,0.146019 -0.64909,0.190625 -0.35701,0.0446 -0.6491,0.128087 -0.6491,0.185517 0,0.05743 -0.15489,0.10442 -0.34422,0.10442 -0.18932,0 -0.36192,0.04706 -0.38356,0.104564 -0.0459,0.122097 -2.71911,0.235122 -3.96343,0.167577 z m -14.09329,-2.16116 c 0.0216,-0.06451 0.11458,-0.117285 0.20653,-0.117285 0.092,0 0.16719,-0.0507 0.16719,-0.112667 0,-0.06197 0.18407,-0.147202 0.40904,-0.189407 0.25347,-0.04755 0.43604,-0.161801 0.48002,-0.300394 0.0391,-0.123008 0.12052,-0.223654 0.18106,-0.223654 0.0605,0 0.11006,-0.07966 0.11006,-0.177029 0,-0.09736 0.0525,-0.177025 0.11662,-0.177025 0.0641,0 0.15059,-0.212432 0.19212,-0.47207 0.0415,-0.259641 0.1218,-0.472073 0.17841,-0.472073 0.0566,0 0.10294,-0.371753 0.10294,-0.826123 0,-0.454371 -0.0462,-0.826123 -0.10268,-0.826123 -0.0565,0 -0.1309,-0.250525 -0.16541,-0.556717 -0.0345,-0.306192 -0.12108,-0.57616 -0.19238,-0.599926 -0.0713,-0.02378 -0.12962,-0.118444 -0.12962,-0.210397 0,-0.09195 -0.0495,-0.167194 -0.11006,-0.167194 -0.0605,0 -0.1478,-0.119493 -0.19391,-0.265539 -0.0461,-0.146046 -0.18247,-0.35143 -0.303,-0.456409 -0.12053,-0.104978 -0.21915,-0.248611 -0.21915,-0.319185 0,-0.238727 -0.59895,-0.729134 -0.8905,-0.729134 -0.15932,0 -0.28968,-0.05311 -0.28968,-0.118016 0,-0.06491 -0.18588,-0.118017 -0.41307,-0.118017 -0.22718,0 -0.41306,-0.05311 -0.41306,-0.11802 0,-0.06491 -0.15932,-0.118017 -0.35405,-0.118017 -0.19473,0 -0.35406,-0.04957 -0.35406,-0.110178 0,-0.0606 -0.14604,-0.13502 -0.32454,-0.165388 -0.1785,-0.03037 0.3393,-0.02698 1.15067,0.0075 0.81138,0.03453 1.49293,0.108934 1.51456,0.165387 0.0516,0.134841 1.43588,0.13369 1.43588,-0.0013 0,-0.0571 0.32888,-0.12762 0.73084,-0.156694 0.41025,-0.02966 0.75106,-0.113551 0.77695,-0.191212 0.0254,-0.07609 0.14791,-0.138352 0.27232,-0.138352 0.1244,0 0.22619,-0.04735 0.22619,-0.105224 0,-0.05788 0.12924,-0.137656 0.28718,-0.177301 0.15795,-0.03966 0.32,-0.17545 0.36009,-0.301798 0.0401,-0.126349 0.17356,-0.261672 0.29657,-0.300711 0.15687,-0.04979 0.24718,-0.227825 0.30242,-0.59613 0.0433,-0.288822 0.12582,-0.525136 0.18336,-0.525136 0.0575,0 0.10462,-0.212432 0.10462,-0.472074 0,-0.259637 0.0531,-0.472069 0.11801,-0.472069 0.0649,0 0.11802,-0.238986 0.11802,-0.531082 0,-0.292093 -0.0531,-0.531079 -0.11802,-0.531079 -0.0649,0 -0.11801,-0.212431 -0.11801,-0.472069 0,-0.259642 -0.0507,-0.472074 -0.11267,-0.472074 -0.062,0 -0.14721,-0.184068 -0.1894,-0.409038 -0.0466,-0.248424 -0.16219,-0.436158 -0.29436,-0.478109 -0.1197,-0.03801 -0.25043,-0.172443 -0.29054,-0.298792 -0.0401,-0.126349 -0.20214,-0.262158 -0.36009,-0.301803 -0.15794,-0.03966 -0.28718,-0.119426 -0.28718,-0.177301 0,-0.05787 -0.10179,-0.105224 -0.22619,-0.105224 -0.12441,0 -0.24836,-0.06638 -0.27543,-0.147522 -0.0707,-0.211923 -3.76495,-0.211923 -3.83555,0 -0.0271,0.08114 -0.20405,0.147522 -0.39337,0.147522 -0.18932,0 -0.34422,0.04889 -0.34422,0.108641 0,0.05975 -0.15932,0.143637 -0.35405,0.186405 -0.19473,0.04278 -0.35406,0.126651 -0.35406,0.186405 0,0.05975 -0.0871,0.10864 -0.19352,0.10864 -0.10643,0 -0.25545,0.0847 -0.33115,0.188234 -0.0792,0.108256 -0.2583,0.170936 -0.42161,0.147522 l -0.28397,-0.04072 0.32544,-0.324551 c 0.17901,-0.1785 0.40271,-0.324547 0.49712,-0.324547 0.0944,0 0.17167,-0.05311 0.17167,-0.118016 0,-0.06491 0.0797,-0.118021 0.17702,-0.118021 0.0974,0 0.17703,-0.0472 0.17703,-0.10488 0,-0.05769 0.18587,-0.139757 0.41306,-0.182377 0.22718,-0.04264 0.41306,-0.128191 0.41306,-0.190161 0,-0.06197 0.13276,-0.112667 0.29504,-0.112667 0.16227,0 0.29505,-0.05311 0.29505,-0.118022 0,-0.06491 0.12834,-0.118016 0.28521,-0.118016 0.15686,0 0.30437,-0.05749 0.3278,-0.127753 0.0603,-0.180914 3.07849,-0.186468 3.13872,-0.0058 0.0533,0.159839 0.61492,0.181267 0.61492,0.02347 0,-0.06053 0.10065,-0.142005 0.22366,-0.181048 0.13859,-0.04398 0.25284,-0.226559 0.30039,-0.480027 0.0422,-0.224971 0.12744,-0.409038 0.18941,-0.409038 0.062,0 0.11267,-0.132767 0.11267,-0.295041 0,-0.162278 0.0531,-0.295045 0.11802,-0.295045 0.0666,0 0.11802,-0.334383 0.11802,-0.767115 0,-0.432733 -0.0514,-0.767119 -0.11802,-0.767119 -0.0649,0 -0.11802,-0.159321 -0.11802,-0.354054 0,-0.194728 -0.0474,-0.354053 -0.10522,-0.354053 -0.0579,0 -0.13766,-0.12923 -0.1773,-0.287177 -0.0397,-0.157947 -0.17546,-0.319988 -0.30181,-0.360088 -0.12635,-0.0401 -0.26257,-0.176413 -0.30272,-0.302914 -0.0401,-0.1265 -0.17184,-0.230002 -0.29265,-0.230002 -0.12081,0 -0.29932,-0.07966 -0.39668,-0.177024 -0.0974,-0.09736 -0.28261,-0.177029 -0.41166,-0.177029 -0.12905,0 -0.25677,-0.06638 -0.28384,-0.147523 -0.0371,-0.111231 -0.61047,-0.147522 -2.33087,-0.147522 -1.72044,0 -2.29376,0.03631 -2.33082,0.147522 -0.0271,0.08114 -0.1775,0.147523 -0.33436,0.147523 -0.15686,0 -0.28521,0.0507 -0.28521,0.112672 0,0.06197 -0.18407,0.147202 -0.40904,0.189407 -0.24842,0.04661 -0.43616,0.162185 -0.47811,0.294354 -0.038,0.119689 -0.16985,0.249606 -0.29303,0.288703 -0.12318,0.03907 -0.25681,0.17458 -0.29696,0.30108 -0.0401,0.1265 -0.1144,0.229997 -0.165,0.229997 -0.2133,0 -0.57462,0.441016 -0.65275,0.796733 -0.0463,0.210897 -0.13311,0.383448 -0.19286,0.383448 -0.0598,0 -0.10864,0.07966 -0.10864,0.177024 0,0.09736 -0.0481,0.17703 -0.10695,0.17703 -0.0588,0 -0.14346,0.265538 -0.1881,0.590085 -0.0446,0.324552 -0.12928,0.590091 -0.1881,0.590091 -0.0588,0 -0.10693,0.23456 -0.10693,0.521246 0,0.312093 -0.0592,0.540972 -0.14753,0.570411 -0.11512,0.03836 -0.14752,1.224094 -0.14752,5.3993 0,4.175202 0.0324,5.360941 0.14752,5.399324 0.0883,0.02944 0.14753,0.258344 0.14753,0.570428 0,0.286687 0.0462,0.521247 0.10277,0.521247 0.0565,0 0.13882,0.318646 0.18288,0.708107 0.0441,0.389456 0.13059,0.708106 0.19227,0.708106 0.0617,0 0.11216,0.132768 0.11216,0.295041 0,0.162278 0.0474,0.295045 0.10523,0.295045 0.0578,0 0.13854,0.132772 0.17927,0.295045 0.0407,0.162274 0.12614,0.295045 0.18982,0.295045 0.0637,0 0.11577,0.05508 0.11577,0.122419 0,0.181547 1.05701,1.175778 1.25002,1.175778 0.0914,0 0.16619,0.05311 0.16619,0.118016 0,0.06491 0.0797,0.118017 0.17703,0.118017 0.0974,0 0.17703,0.0499 0.17703,0.110893 0,0.06099 0.19915,0.135207 0.44256,0.164923 0.69565,0.08492 2.56266,-0.02864 2.60623,-0.158531 z m 18.0537,0.0098 c 0.0233,-0.0699 0.1707,-0.12708 0.32756,-0.12708 0.15687,0 0.28522,-0.04632 0.28522,-0.102931 0,-0.05662 0.21243,-0.136907 0.47207,-0.178425 0.25964,-0.04153 0.47207,-0.127968 0.47207,-0.19211 0,-0.06414 0.10053,-0.11662 0.22341,-0.11662 0.12287,0 0.25398,-0.07966 0.29134,-0.177029 0.0374,-0.09736 0.17223,-0.177024 0.29972,-0.177024 0.12747,0 0.26463,-0.103502 0.30478,-0.230003 0.0402,-0.126495 0.18528,-0.265632 0.32251,-0.309189 0.32026,-0.101646 0.74983,-0.531211 0.85148,-0.851476 0.0435,-0.137228 0.17997,-0.281494 0.30315,-0.320591 0.12318,-0.03907 0.26082,-0.187859 0.30589,-0.330587 0.045,-0.142727 0.18054,-0.345395 0.30108,-0.450373 0.12053,-0.104978 0.21915,-0.277578 0.21915,-0.383555 0,-0.105982 0.0489,-0.19269 0.10864,-0.19269 0.0598,0 0.14364,-0.159325 0.18641,-0.354053 0.0428,-0.194729 0.12665,-0.354054 0.1864,-0.354054 0.0597,0 0.10864,-0.132772 0.10864,-0.295045 0,-0.162273 0.0481,-0.295045 0.10694,-0.295045 0.0588,0 0.14347,-0.265539 0.1881,-0.590086 0.0446,-0.324551 0.12929,-0.59009 0.18811,-0.59009 0.0588,0 0.10694,-0.181454 0.10694,-0.403226 0,-0.221777 0.0664,-0.425355 0.14753,-0.452394 0.1133,-0.03778 0.14752,-0.811029 0.14752,-3.333976 0,-2.522925 -0.0342,-3.296218 -0.14752,-3.334011 -0.0811,-0.02707 -0.14753,-0.230654 -0.14753,-0.452426 0,-0.221777 -0.0481,-0.403231 -0.10694,-0.403231 -0.0588,0 -0.14347,-0.265538 -0.18811,-0.590085 -0.0446,-0.324552 -0.12928,-0.59009 -0.1881,-0.59009 -0.0588,0 -0.10694,-0.106219 -0.10694,-0.236037 0,-0.12982 -0.0464,-0.236033 -0.10293,-0.236033 -0.0566,0 -0.13487,-0.199693 -0.1739,-0.443763 -0.0395,-0.247269 -0.17686,-0.520083 -0.31013,-0.616141 -0.13154,-0.09481 -0.23916,-0.240318 -0.23916,-0.323355 0,-0.08304 -0.0495,-0.150976 -0.11006,-0.150976 -0.0605,0 -0.14475,-0.109246 -0.18713,-0.242772 -0.0903,-0.284603 -1.51709,-1.763527 -1.70132,-1.763527 -0.0692,0 -0.12581,-0.04953 -0.12581,-0.110067 0,-0.06053 -0.11949,-0.147795 -0.26554,-0.193908 -0.14604,-0.04611 -0.34548,-0.175597 -0.44318,-0.287743 -0.0977,-0.112142 -0.40307,-0.241983 -0.67861,-0.288537 -0.27552,-0.04655 -0.50095,-0.133075 -0.50095,-0.192279 0,-0.0592 -0.12836,-0.107646 -0.28521,-0.107646 -0.15687,0 -0.30734,-0.06638 -0.33438,-0.147523 -0.071,-0.213137 -4.82663,-0.213137 -4.89772,0 -0.0271,0.08114 -0.2041,0.147523 -0.39342,0.147523 -0.18932,0 -0.34422,0.0472 -0.34422,0.104885 0,0.05769 -0.18587,0.139756 -0.41306,0.182372 -0.22719,0.04265 -0.41306,0.128195 -0.41306,0.190165 0,0.06197 -0.0797,0.112668 -0.17703,0.112668 -0.0974,0 -0.17703,0.04647 -0.17703,0.103266 0,0.05679 -0.15505,0.134274 -0.34456,0.172175 -0.20453,0.0409 -0.37563,0.166806 -0.42101,0.309801 -0.0421,0.132486 -0.16205,0.240881 -0.26665,0.240881 -0.20976,0 -0.97408,0.776803 -0.97408,0.989976 0,0.0738 -0.13277,0.233886 -0.29504,0.355748 -0.16228,0.121866 -0.29505,0.316768 -0.29505,0.43312 0,0.116357 -0.10064,0.243495 -0.22365,0.282538 -0.1386,0.04398 -0.25284,0.226559 -0.3004,0.480028 -0.0422,0.22497 -0.12744,0.409037 -0.1894,0.409037 -0.062,0 -0.11267,0.07966 -0.11267,0.177025 0,0.09736 -0.0493,0.177029 -0.10952,0.177029 -0.0603,0 -0.14603,0.292092 -0.19064,0.649094 -0.0446,0.357006 -0.12808,0.649098 -0.18551,0.649098 -0.0574,0 -0.10442,0.132772 -0.10442,0.295046 0,0.162273 -0.0531,0.295044 -0.11802,0.295044 -0.0649,0 -0.11801,0.208007 -0.11801,0.462239 0,0.263911 -0.063,0.483248 -0.14695,0.511215 -0.11188,0.03729 -0.14694,0.734348 -0.14694,2.921133 0,2.186785 0.0351,2.883839 0.14694,2.921133 0.0877,0.02922 0.14695,0.259227 0.14695,0.570227 0,0.286682 0.0531,0.521243 0.11801,0.521243 0.0649,0 0.11802,0.132772 0.11802,0.295045 0,0.162273 0.0481,0.295045 0.10694,0.295045 0.0588,0 0.14347,0.265539 0.1881,0.590091 0.0446,0.324546 0.12929,0.590085 0.18811,0.590085 0.0588,0 0.10694,0.07966 0.10694,0.177029 0,0.09736 0.0472,0.177025 0.10489,0.177025 0.0577,0 0.13975,0.185878 0.18237,0.413061 0.0426,0.227187 0.12819,0.413066 0.19016,0.413066 0.062,0 0.11267,0.100531 0.11267,0.223409 0,0.122874 0.0797,0.253978 0.17702,0.291339 0.0974,0.03738 0.17703,0.172233 0.17703,0.29972 0,0.127481 0.1035,0.264633 0.23,0.304782 0.1265,0.04015 0.26198,0.173782 0.30108,0.296963 0.0391,0.123177 0.17187,0.255949 0.29504,0.295041 0.12318,0.03907 0.25596,0.171868 0.29505,0.295045 0.039,0.123181 0.17187,0.255949 0.29505,0.295045 0.12318,0.03907 0.2568,0.174585 0.29696,0.30108 0.0401,0.126501 0.17184,0.230003 0.29265,0.230003 0.12081,0 0.29931,0.07966 0.39668,0.177024 0.0974,0.09736 0.23393,0.177029 0.30347,0.177029 0.0695,0 0.12645,0.05248 0.12645,0.11662 0,0.06414 0.21243,0.150596 0.47207,0.19211 0.25964,0.04153 0.47206,0.121808 0.47206,0.178425 0,0.05661 0.13278,0.102931 0.29505,0.102931 0.16227,0 0.29505,0.0502 0.29505,0.111553 0,0.165855 0.90514,0.221014 2.94742,0.179611 1.16789,-0.02369 1.84154,-0.08283 1.86862,-0.164088 z m -6.14374,-10.355902 c -0.43814,-0.02725 -0.79662,-0.100192 -0.79662,-0.162135 0,-0.06195 -0.11001,-0.112623 -0.24446,-0.112623 -0.26129,0 -0.58166,-0.255374 -0.58166,-0.463644 0,-0.157906 1.14516,-0.170588 1.19984,-0.01329 0.0216,0.06224 0.82268,0.149959 1.7801,0.19493 0.95742,0.04497 1.74077,0.126816 1.74077,0.181882 0,0.05506 0.45141,0.100116 1.00314,0.100116 0.55174,0 1.00316,-0.04502 1.00316,-0.100032 0,-0.05502 0.62402,-0.135581 1.38671,-0.179032 0.76268,-0.04345 1.4044,-0.131205 1.42604,-0.195013 0.0216,-0.06381 0.2208,-0.116013 0.44257,-0.116013 0.35143,0 0.40323,0.03791 0.40323,0.295044 0,0.257145 -0.0518,0.295046 -0.40323,0.295046 -0.22177,0 -0.42326,0.06011 -0.44775,0.133565 -0.0456,0.136729 -6.21276,0.246783 -7.91184,0.141193 z m 23.60962,10.358135 c 0.0238,-0.07112 0.17145,-0.129315 0.32832,-0.129315 0.15686,0 0.2852,-0.0507 0.2852,-0.112668 0,-0.06197 0.18588,-0.147541 0.41307,-0.190161 0.22718,-0.04264 0.41306,-0.124689 0.41306,-0.182376 0,-0.05768 0.0797,-0.10488 0.17703,-0.10488 0.0974,0 0.17702,-0.05311 0.17702,-0.118022 0,-0.06491 0.0756,-0.118015 0.16799,-0.118015 0.19015,0 1.83832,-1.586405 1.83832,-1.769424 0,-0.06538 0.0472,-0.118859 0.10488,-0.118859 0.0577,0 0.13976,-0.185879 0.18237,-0.413066 0.0426,-0.227184 0.12819,-0.413062 0.19016,-0.413062 0.062,0 0.11267,-0.128342 0.11267,-0.285209 0,-0.156863 0.0654,-0.307009 0.14535,-0.333656 0.21065,-0.07022 0.21275,-4.237872 0.002,-4.30825 -0.0811,-0.02712 -0.14753,-0.177644 -0.14753,-0.334507 0,-0.156868 -0.0472,-0.28521 -0.10488,-0.28521 -0.0577,0 -0.13758,-0.174326 -0.17755,-0.387396 -0.0399,-0.213065 -0.17866,-0.463772 -0.30818,-0.557132 -0.12953,-0.09336 -0.23551,-0.215291 -0.23551,-0.270958 0,-0.05567 -0.21243,-0.31154 -0.47207,-0.568599 -0.25964,-0.257055 -0.47207,-0.514851 -0.47207,-0.572882 0,-0.05803 -0.1195,-0.143232 -0.26554,-0.189344 -0.14605,-0.04612 -0.35134,-0.182364 -0.45622,-0.30278 -0.10487,-0.120411 -0.35714,-0.252225 -0.56058,-0.292913 -0.20346,-0.04068 -0.36991,-0.120452 -0.36991,-0.177247 0,-0.05679 -0.0797,-0.103266 -0.17702,-0.103266 -0.0974,0 -0.17703,-0.04858 -0.17703,-0.107949 0,-0.05937 -0.39831,-0.145274 -0.88514,-0.190892 -0.48682,-0.04562 -0.88513,-0.129815 -0.88513,-0.187097 0,-0.05728 -0.50452,-0.104153 -1.12117,-0.104153 -0.61664,0 -1.12116,0.04541 -1.12116,0.100902 0,0.0555 -0.38436,0.133124 -0.85413,0.17251 -0.46976,0.03939 -0.8725,0.126746 -0.89497,0.194144 -0.0224,0.06739 -0.16919,0.122535 -0.32605,0.122535 -0.15687,0 -0.28521,0.05311 -0.28521,0.118016 0,0.06491 -0.0797,0.118021 -0.17703,0.118021 -0.098,0 -0.17702,-0.104751 -0.17702,-0.234641 0,-0.182488 0.10492,-0.251421 0.47206,-0.31013 0.25964,-0.04153 0.47207,-0.121808 0.47207,-0.178421 0,-0.05661 0.12835,-0.102936 0.28522,-0.102936 0.15686,0 0.30734,-0.06638 0.33438,-0.147522 0.0373,-0.111869 0.65762,-0.147522 2.56689,-0.147522 1.90926,0 2.52959,0.03564 2.56689,0.147522 0.027,0.08114 0.17752,0.147522 0.33438,0.147522 0.15686,0 0.28521,0.05071 0.28521,0.112673 0,0.06197 0.18587,0.147541 0.41306,0.190161 0.22718,0.04264 0.41306,0.124689 0.41306,0.182373 0,0.327718 0.50671,-0.03658 0.64148,-0.461204 0.0454,-0.143022 0.13206,-0.260035 0.1926,-0.260035 0.0605,0 0.11006,-0.07966 0.11006,-0.177029 0,-0.09736 0.0507,-0.177024 0.11268,-0.177024 0.062,0 0.14754,-0.185879 0.19016,-0.413066 0.0426,-0.227183 0.12468,-0.413061 0.18237,-0.413061 0.0577,0 0.10488,-0.132767 0.10488,-0.295046 0,-0.162273 0.0531,-0.295041 0.11802,-0.295041 0.0649,0 0.11802,-0.185878 0.11802,-0.413065 0,-0.227183 0.0531,-0.413062 0.11802,-0.413062 0.0682,0 0.11801,-0.37372 0.11801,-0.885131 0,-0.511411 -0.0498,-0.885135 -0.11801,-0.885135 -0.0649,0 -0.11802,-0.159321 -0.11802,-0.354054 0,-0.194728 -0.0531,-0.354053 -0.11802,-0.354053 -0.0649,0 -0.11802,-0.106214 -0.11802,-0.236032 0,-0.129824 -0.0531,-0.236037 -0.11801,-0.236037 -0.0649,0 -0.11802,-0.07604 -0.11802,-0.168969 0,-0.22485 -1.37074,-1.601298 -1.59466,-1.601298 -0.0966,0 -0.17561,-0.04889 -0.17561,-0.108641 0,-0.05975 -0.15933,-0.143633 -0.35405,-0.186404 -0.19474,-0.04278 -0.35406,-0.126652 -0.35406,-0.186405 0,-0.05975 -0.12834,-0.10864 -0.2852,-0.10864 -0.15687,0 -0.30734,-0.06638 -0.33438,-0.147523 -0.0373,-0.11187 -0.65761,-0.147523 -2.56686,-0.147523 -1.90925,0 -2.52959,0.03564 -2.5669,0.147523 -0.0271,0.08114 -0.15099,0.147523 -0.27539,0.147523 -0.12442,0 -0.2262,0.04616 -0.2262,0.102578 0,0.05641 -0.19071,0.133521 -0.42381,0.171346 -0.23309,0.03783 -0.51191,0.16995 -0.61959,0.293605 -0.10769,0.123658 -0.31257,0.261698 -0.4553,0.306758 -0.14272,0.04506 -0.29149,0.182712 -0.33058,0.305893 -0.0391,0.123177 -0.17187,0.255949 -0.29504,0.295041 -0.12319,0.03907 -0.25682,0.174584 -0.29697,0.301085 -0.0402,0.1265 -0.12253,0.229997 -0.18306,0.229997 -0.0605,0 -0.11007,0.06794 -0.11007,0.150975 0,0.08303 -0.10597,0.227357 -0.2355,0.320711 -0.12953,0.09336 -0.26821,0.344071 -0.30818,0.557136 -0.04,0.213065 -0.11987,0.387391 -0.17756,0.387391 -0.0577,0 -0.10488,0.128343 -0.10488,0.28521 0,0.156863 -0.0652,0.306941 -0.14489,0.333504 -0.21038,0.07013 -0.21293,4.356361 -0.003,4.426511 0.0811,0.02707 0.14752,0.177556 0.14752,0.334419 0,0.156867 0.0472,0.285209 0.10489,0.285209 0.0577,0 0.13975,0.185879 0.18237,0.413062 0.0426,0.227183 0.1282,0.413062 0.19016,0.413062 0.062,0 0.11267,0.10264 0.11267,0.228083 0,0.125448 0.1035,0.260931 0.23,0.30108 0.1265,0.04015 0.26563,0.185281 0.30919,0.322509 0.10238,0.322567 0.53193,0.750058 0.85751,0.853394 0.14055,0.04461 0.25555,0.130636 0.25555,0.191174 0,0.06053 0.13277,0.110063 0.29505,0.110063 0.16227,0 0.29504,-0.05311 0.29504,-0.118017 0,-0.06942 0.41306,-0.11802 1.00315,-0.11802 0.59009,0 1.00315,0.0486 1.00315,0.11802 0,0.06491 0.26554,0.118017 0.59009,0.118017 0.32455,0 0.59009,0.04698 0.59009,0.104421 0,0.05743 0.29209,0.140912 0.6491,0.185517 0.357,0.0446 0.64909,0.130385 0.64909,0.190624 0,0.06024 0.13278,0.109528 0.29505,0.109528 0.16227,0 0.29504,0.0472 0.29504,0.10488 0,0.05769 0.18588,0.139757 0.41306,0.182378 0.22719,0.04264 0.41307,0.12819 0.41307,0.19016 0,0.06197 0.10053,0.112668 0.22341,0.112668 0.12287,0 0.25484,0.08192 0.29326,0.182043 0.0583,0.152076 -0.003,0.168719 -0.37093,0.101097 -0.24244,-0.04451 -0.45849,-0.126433 -0.48012,-0.182038 -0.0216,-0.05561 -0.1677,-0.101102 -0.32456,-0.101102 -0.15686,0 -0.28521,-0.05047 -0.28521,-0.112155 0,-0.06169 -0.31865,-0.14821 -0.7081,-0.192271 -0.38946,-0.04407 -0.70811,-0.126361 -0.70811,-0.18289 0,-0.05652 -0.21243,-0.10277 -0.47207,-0.10277 -0.25964,0 -0.47207,-0.05311 -0.47207,-0.11802 0,-0.0704 -0.4524,-0.118017 -1.12117,-0.118017 -0.66877,0 -1.12117,0.04762 -1.12117,0.118017 0,0.06491 -0.18588,0.11802 -0.41307,0.11802 -0.22718,0 -0.41306,0.04632 -0.41306,0.102931 0,0.05661 -0.21243,0.136907 -0.47207,0.178425 -0.25964,0.04153 -0.47207,0.127968 -0.47207,0.19211 0,0.06414 -0.0554,0.11662 -0.123,0.11662 -0.24067,0 -1.05718,0.778926 -1.05718,1.008518 0,0.09441 -0.0531,0.171663 -0.11801,0.171663 -0.0649,0 -0.11802,0.101789 -0.11802,0.226202 0,0.124407 -0.0664,0.248383 -0.14752,0.275494 -0.21113,0.07055 -0.2109,3.411107 2.3e-4,3.481485 0.081,0.02698 0.14728,0.124328 0.14728,0.216281 0,0.09196 0.0531,0.167194 0.11802,0.167194 0.0649,0 0.11802,0.08549 0.11802,0.189978 0,0.228503 1.37436,1.580289 1.60667,1.580289 0.09,0 0.16359,0.05311 0.16359,0.118015 0,0.06491 0.0797,0.118022 0.17703,0.118022 0.0974,0 0.17702,0.0472 0.17702,0.10488 0,0.05769 0.18588,0.139756 0.41307,0.182376 0.22718,0.04264 0.41306,0.128191 0.41306,0.190161 0,0.06197 0.18588,0.112668 0.41306,0.112668 0.22718,0 0.41307,0.05006 0.41307,0.111232 0,0.170637 0.81877,0.221411 2.94667,0.18273 1.2745,-0.02315 1.95837,-0.07984 1.98664,-0.164647 z m 15.45919,0.0036 c 0.0244,-0.073 0.17259,-0.132727 0.32945,-0.132727 0.15687,0 0.28521,-0.04707 0.28521,-0.104617 0,-0.05754 0.23631,-0.140056 0.52514,-0.183367 0.37417,-0.05611 0.5461,-0.144784 0.59804,-0.308445 0.0401,-0.126331 0.15374,-0.229695 0.25255,-0.229695 0.20001,0 1.81075,-1.569655 1.81075,-1.76457 0,-0.06804 0.0531,-0.123712 0.11802,-0.123712 0.0649,0 0.11802,-0.106218 0.11802,-0.236037 0,-0.129819 0.0525,-0.236037 0.11662,-0.236037 0.0641,0 0.1506,-0.212432 0.19211,-0.47207 0.0415,-0.259637 0.12181,-0.472069 0.17843,-0.472069 0.0566,0 0.10293,-0.185879 0.10293,-0.413066 0,-0.227183 0.0531,-0.413062 0.11801,-0.413062 0.0721,0 0.11802,-0.550748 0.11802,-1.416213 0,-0.865461 -0.0459,-1.416213 -0.11802,-1.416213 -0.0649,0 -0.11801,-0.159321 -0.11801,-0.354054 0,-0.194728 -0.0471,-0.354053 -0.10462,-0.354053 -0.0576,0 -0.14045,-0.238986 -0.18426,-0.531078 -0.0438,-0.292096 -0.12949,-0.531082 -0.19042,-0.531082 -0.061,0 -0.11079,-0.06015 -0.11079,-0.133677 0,-0.07352 -0.0986,-0.219569 -0.21915,-0.324547 -0.12054,-0.104983 -0.25602,-0.307647 -0.30109,-0.450374 -0.045,-0.142727 -0.18543,-0.292355 -0.31193,-0.332504 -0.1265,-0.04015 -0.22999,-0.120113 -0.22999,-0.177698 0,-0.157555 -0.57974,-0.70552 -0.74643,-0.70552 -0.0801,0 -0.22075,-0.10426 -0.3126,-0.231693 -0.0918,-0.127432 -0.31601,-0.264419 -0.49813,-0.30442 -0.18212,-0.04001 -0.33113,-0.121617 -0.33113,-0.18137 0,-0.05975 -0.10621,-0.10864 -0.23603,-0.10864 -0.12982,0 -0.23604,-0.04858 -0.23604,-0.107949 0,-0.05937 -0.39831,-0.145274 -0.88513,-0.190892 -0.48682,-0.04562 -0.88514,-0.129814 -0.88514,-0.187096 0,-0.05728 -0.47796,-0.104153 -1.06215,-0.104153 -0.58419,0 -1.06216,0.04544 -1.06216,0.100986 0,0.05554 -0.41053,0.132031 -0.91229,0.169977 -0.50176,0.03796 -0.93106,0.125278 -0.95398,0.194063 -0.0229,0.06878 -0.17003,0.125064 -0.3269,0.125064 -0.15686,0 -0.28521,0.05311 -0.28521,0.118017 0,0.06491 -0.0797,0.11802 -0.17702,0.11802 -0.098,0 -0.17703,-0.10475 -0.17703,-0.234641 0,-0.182488 0.10492,-0.251421 0.47207,-0.31013 0.25964,-0.04153 0.47207,-0.121808 0.47207,-0.178421 0,-0.05661 0.12834,-0.102935 0.28521,-0.102935 0.15686,0 0.30734,-0.06638 0.33438,-0.147523 0.0373,-0.11187 0.65763,-0.147522 2.56689,-0.147522 1.90926,0 2.5296,0.03564 2.56689,0.147522 0.027,0.08114 0.17752,0.147523 0.33438,0.147523 0.15686,0 0.28522,0.0472 0.28522,0.104884 0,0.05769 0.18587,0.139757 0.41306,0.182373 0.22717,0.04264 0.41306,0.128195 0.41306,0.190161 0,0.06197 0.0569,0.112672 0.12644,0.112672 0.1634,0 0.46365,-0.300246 0.46365,-0.463639 0,-0.06955 0.0521,-0.126451 0.11576,-0.126451 0.0637,0 0.1491,-0.132767 0.18982,-0.295045 0.0407,-0.162274 0.12141,-0.295041 0.17928,-0.295041 0.0579,0 0.10522,-0.07967 0.10522,-0.177029 0,-0.09736 0.0499,-0.177024 0.11079,-0.177024 0.061,0 0.14662,-0.238986 0.19042,-0.531083 0.0438,-0.292092 0.12672,-0.531077 0.18427,-0.531077 0.0575,0 0.10461,-0.185879 0.10461,-0.413066 0,-0.227183 0.0531,-0.413062 0.11802,-0.413062 0.0688,0 0.11802,-0.39339 0.11802,-0.944139 0,-0.550753 -0.0492,-0.944143 -0.11802,-0.944143 -0.065,0 -0.11802,-0.132772 -0.11802,-0.295045 0,-0.162274 -0.0465,-0.295046 -0.10326,-0.295046 -0.0568,0 -0.13656,-0.166457 -0.17725,-0.369906 -0.0407,-0.203444 -0.1725,-0.455708 -0.29292,-0.560584 -0.12041,-0.104871 -0.25666,-0.31017 -0.30278,-0.456217 -0.0461,-0.146046 -0.16245,-0.265539 -0.25855,-0.265539 -0.0961,0 -0.29775,-0.132772 -0.44814,-0.295045 -0.15039,-0.162273 -0.33373,-0.295045 -0.40743,-0.295045 -0.0737,0 -0.13399,-0.0472 -0.13399,-0.104884 0,-0.05768 -0.18588,-0.139753 -0.41306,-0.182373 -0.22718,-0.04264 -0.41306,-0.128195 -0.41306,-0.190161 0,-0.06197 -0.12835,-0.112672 -0.28521,-0.112672 -0.15687,0 -0.30734,-0.06638 -0.33438,-0.147523 -0.0711,-0.213338 -5.06266,-0.213338 -5.13378,0 -0.027,0.08114 -0.12441,0.147523 -0.21637,0.147523 -0.0919,0 -0.16718,0.04708 -0.16718,0.104617 0,0.05754 -0.23632,0.140056 -0.52515,0.183367 -0.37416,0.05611 -0.54609,0.144788 -0.59804,0.308444 -0.0401,0.126335 -0.15473,0.229699 -0.25476,0.229699 -0.19948,0 -1.45448,1.21979 -1.45448,1.41368 0,0.0663 -0.0521,0.120549 -0.11577,0.120549 -0.0637,0 -0.14909,0.132772 -0.18983,0.295046 -0.0407,0.162274 -0.1214,0.295045 -0.17927,0.295045 -0.0579,0 -0.10522,0.128342 -0.10522,0.285209 0,0.156863 -0.0539,0.303173 -0.11976,0.325128 -0.0658,0.02194 -0.15321,0.398136 -0.19409,0.835958 -0.0409,0.437821 -0.11976,0.796041 -0.17529,0.796041 -0.0555,0 -0.10095,0.531078 -0.10095,1.180177 0,0.649098 0.0455,1.18018 0.10121,1.18018 0.0557,0 0.13584,0.331925 0.17818,0.737608 0.0424,0.405689 0.12957,0.755317 0.19384,0.776951 0.0643,0.02163 0.11686,0.14113 0.11686,0.265539 0,0.124412 0.0507,0.226201 0.11267,0.226201 0.062,0 0.14754,0.185878 0.19016,0.413062 0.0426,0.227187 0.12228,0.413065 0.17701,0.413065 0.1662,0 0.70034,0.589159 0.70034,0.772477 0,0.09441 0.0822,0.171663 0.18266,0.171663 0.10046,0 0.30571,0.132772 0.4561,0.295045 0.26969,0.291004 0.77745,0.406621 0.77745,0.177029 0,-0.06942 0.41306,-0.118021 1.00315,-0.118021 0.59009,0 1.00315,0.0486 1.00315,0.118021 0,0.06491 0.26554,0.118016 0.59009,0.118016 0.32455,0 0.59009,0.04625 0.59009,0.102775 0,0.05652 0.31865,0.138824 0.70811,0.182885 0.38945,0.04407 0.7081,0.130586 0.7081,0.192271 0,0.06169 0.13278,0.11216 0.29505,0.11216 0.16227,0 0.29504,0.04889 0.29504,0.10864 0,0.05975 0.15933,0.143633 0.35405,0.1864 0.19474,0.04278 0.35406,0.126656 0.35406,0.186405 0,0.05976 0.0835,0.10864 0.18546,0.10864 0.102,0 0.2715,0.08605 0.37668,0.191227 0.17628,0.176284 0.15027,0.184416 -0.33298,0.104091 -0.28831,-0.04792 -0.54191,-0.133972 -0.56355,-0.191223 -0.0216,-0.05725 -0.16768,-0.104095 -0.32455,-0.104095 -0.15686,0 -0.28521,-0.05047 -0.28521,-0.112155 0,-0.06169 -0.31864,-0.148209 -0.7081,-0.19227 -0.38946,-0.04407 -0.7081,-0.126362 -0.7081,-0.18289 0,-0.05653 -0.21244,-0.10277 -0.47208,-0.10277 -0.25964,0 -0.47207,-0.05311 -0.47207,-0.118022 0,-0.0704 -0.4524,-0.118015 -1.12117,-0.118015 -0.66877,0 -1.12117,0.04762 -1.12117,0.118015 0,0.06491 -0.15932,0.118022 -0.35405,0.118022 -0.19473,0 -0.35406,0.04707 -0.35406,0.104616 0,0.05754 -0.23631,0.140056 -0.52513,0.183368 -0.36001,0.05398 -0.54666,0.146554 -0.59358,0.294389 -0.0377,0.118605 -0.22192,0.246336 -0.40951,0.283854 -0.20135,0.04028 -0.3724,0.166899 -0.41753,0.3091 -0.0421,0.132486 -0.12598,0.240886 -0.18651,0.240886 -0.0605,0 -0.11007,0.07966 -0.11007,0.177024 0,0.09736 -0.0499,0.177029 -0.11078,0.177029 -0.061,0 -0.14663,0.238986 -0.19044,0.531078 -0.0438,0.292097 -0.12671,0.531082 -0.18425,0.531082 -0.0575,0 -0.10462,0.47797 -0.10462,1.06216 0,0.584184 0.0481,1.06216 0.10694,1.06216 0.0588,0 0.14223,0.25651 0.18534,0.570027 0.0497,0.361065 0.16188,0.630195 0.30612,0.73416 0.12525,0.09027 0.22773,0.229654 0.22773,0.309738 0,0.166694 0.54796,0.746427 0.70551,0.746427 0.0576,0 0.13838,0.106094 0.17953,0.235765 0.0412,0.129668 0.20406,0.268193 0.362,0.307838 0.15796,0.03965 0.28718,0.119426 0.28718,0.177301 0,0.05787 0.10622,0.105223 0.23605,0.105223 0.12982,0 0.23602,0.04889 0.23602,0.108641 0,0.05975 0.15933,0.143633 0.35406,0.1864 0.19473,0.04278 0.35405,0.126657 0.35405,0.186405 0,0.05975 0.18588,0.108641 0.41306,0.108641 0.22719,0 0.41307,0.05019 0.41307,0.111552 0,0.164696 0.89114,0.219516 3.00455,0.184822 1.2647,-0.02075 1.89791,-0.07451 1.92762,-0.163643 z m 17.93984,-0.0036 c 0.0237,-0.07112 0.17145,-0.129315 0.32832,-0.129315 0.15686,0 0.2852,-0.04632 0.2852,-0.10293 0,-0.05662 0.21243,-0.136907 0.47207,-0.178425 0.25964,-0.04153 0.47207,-0.127968 0.47207,-0.192111 0,-0.06414 0.10054,-0.116619 0.22342,-0.116619 0.12287,0 0.25397,-0.07967 0.29134,-0.177029 0.0374,-0.09736 0.17223,-0.177025 0.29971,-0.177025 0.12749,0 0.26464,-0.103502 0.30479,-0.230002 0.0401,-0.126495 0.17378,-0.261984 0.29696,-0.30108 0.12318,-0.03907 0.25594,-0.171864 0.29504,-0.295045 0.0391,-0.123177 0.17446,-0.25677 0.30081,-0.296874 0.12635,-0.0401 0.26216,-0.202142 0.3018,-0.360088 0.0397,-0.157947 0.11943,-0.287177 0.1773,-0.287177 0.0579,0 0.10523,-0.106219 0.10523,-0.236037 0,-0.129819 0.0507,-0.236038 0.11267,-0.236038 0.062,0 0.14754,-0.185878 0.19016,-0.413061 0.0426,-0.227183 0.12468,-0.413061 0.18237,-0.413061 0.0577,0 0.10488,-0.159326 0.10488,-0.354054 0,-0.194728 0.0531,-0.354053 0.11802,-0.354053 0.0729,0 0.11802,-0.609757 0.11802,-1.593242 0,-0.983481 -0.0452,-1.593238 -0.11802,-1.593238 -0.0649,0 -0.11802,-0.185878 -0.11802,-0.413061 0,-0.227183 -0.0507,-0.413062 -0.11266,-0.413062 -0.062,0 -0.14754,-0.185878 -0.19017,-0.413066 -0.0426,-0.227182 -0.12469,-0.413061 -0.18237,-0.413061 -0.0577,0 -0.10488,-0.07966 -0.10488,-0.177024 0,-0.09736 -0.0495,-0.17703 -0.11007,-0.17703 -0.0605,0 -0.1462,-0.113881 -0.19039,-0.253071 -0.10091,-0.317955 -0.71515,-0.927104 -0.93485,-0.927104 -0.0908,0 -0.19867,-0.106094 -0.23983,-0.235761 -0.0412,-0.129671 -0.20406,-0.268198 -0.362,-0.307838 -0.15795,-0.03965 -0.28718,-0.11943 -0.28718,-0.177301 0,-0.05787 -0.10179,-0.105224 -0.2262,-0.105224 -0.12442,0 -0.24565,-0.05833 -0.26942,-0.129627 -0.0238,-0.07129 -0.29372,-0.157862 -0.59992,-0.192377 -0.30619,-0.03453 -0.55671,-0.108948 -0.55671,-0.165418 0,-0.05646 -0.31865,-0.102668 -0.70811,-0.102668 -0.39339,0 -0.70811,-0.05245 -0.70811,-0.118017 0,-0.06491 -0.26553,-0.11802 -0.59008,-0.11802 -0.32455,0 -0.59009,0.05311 -0.59009,0.11802 0,0.06557 -0.31471,0.118017 -0.70811,0.118017 -0.38946,0 -0.7081,0.04889 -0.7081,0.108627 0,0.05974 -0.34521,0.145591 -0.76712,0.190772 -0.42192,0.04519 -0.76712,0.129074 -0.76712,0.186423 0,0.05734 -0.0797,0.104268 -0.17702,0.104268 -0.0974,0 -0.17703,0.0472 -0.17703,0.10488 0,0.05769 -0.18588,0.139757 -0.41306,0.182378 -0.22719,0.04264 -0.41306,0.12819 -0.41306,0.19016 0,0.06197 -0.10622,0.112669 -0.23604,0.112669 -0.12982,0 -0.23604,0.05311 -0.23604,0.11802 0,0.06491 -0.0603,0.118017 -0.13398,0.118017 -0.0737,0 -0.25704,0.132771 -0.40743,0.295044 -0.15039,0.162274 -0.33162,0.295046 -0.40273,0.295046 -0.0711,0 -0.25234,0.132767 -0.40273,0.295041 -0.3453,0.37259 -0.5876,0.390459 -0.47478,0.03502 0.0953,-0.300438 0.33452,-0.566088 0.50967,-0.566088 0.1527,0 0.7219,-0.562547 0.7219,-0.713473 0,-0.06196 0.10787,-0.11265 0.23973,-0.11265 0.13186,0 0.27031,-0.07967 0.30768,-0.177029 0.0374,-0.09736 0.16278,-0.177024 0.27871,-0.177024 0.11593,0 0.24135,-0.07966 0.27872,-0.177029 0.0374,-0.09736 0.17581,-0.177025 0.30767,-0.177025 0.13185,0 0.23974,-0.05311 0.23974,-0.11802 0,-0.06491 0.13276,-0.118017 0.29504,-0.118017 0.16228,0 0.29504,-0.05247 0.29504,-0.116624 0,-0.06414 0.21244,-0.150592 0.47207,-0.19211 0.25964,-0.04153 0.47208,-0.121808 0.47208,-0.178421 0,-0.05661 0.18145,-0.102935 0.40322,-0.102935 0.22178,0 0.42536,-0.06638 0.4524,-0.147522 0.0709,-0.212798 4.47276,-0.212798 4.54369,0 0.0271,0.08114 0.17752,0.147522 0.33438,0.147522 0.15687,0 0.28521,0.0507 0.28521,0.112673 0,0.06197 0.18588,0.14754 0.41306,0.19016 0.22719,0.04264 0.41306,0.12469 0.41306,0.182372 0,0.05769 0.13014,0.104885 0.28919,0.104885 0.26587,0 0.29564,-0.0571 0.36929,-0.708106 0.0441,-0.389462 0.12637,-0.708107 0.18289,-0.708107 0.0566,0 0.10278,-0.212432 0.10278,-0.472069 0,-0.259643 0.0531,-0.472074 0.11801,-0.472074 0.0682,0 0.11803,-0.373721 0.11803,-0.885131 0,-0.511412 -0.0499,-0.885136 -0.11803,-0.885136 -0.0649,0 -0.11801,-0.238986 -0.11801,-0.531078 0,-0.292097 -0.0464,-0.531082 -0.10294,-0.531082 -0.0566,0 -0.13486,-0.199688 -0.17389,-0.443759 -0.0395,-0.247273 -0.17686,-0.520087 -0.31013,-0.616139 -0.13154,-0.09481 -0.23917,-0.237795 -0.23917,-0.317736 0,-0.221117 -1.41568,-1.572809 -1.64726,-1.572809 -0.0676,0 -0.123,-0.0507 -0.123,-0.112668 0,-0.06197 -0.18588,-0.147545 -0.41307,-0.190165 -0.22718,-0.0426 -0.41306,-0.124685 -0.41306,-0.182373 0,-0.05768 -0.12834,-0.104884 -0.28521,-0.104884 -0.15686,0 -0.30737,-0.06638 -0.33446,-0.147523 -0.0371,-0.111232 -0.61052,-0.147522 -2.33087,-0.147522 -1.7204,0 -2.29371,0.03631 -2.33077,0.147522 -0.0271,0.08114 -0.1775,0.147523 -0.33437,0.147523 -0.15686,0 -0.2852,0.04708 -0.2852,0.104617 0,0.05754 -0.23899,0.140456 -0.53108,0.184259 -0.2921,0.0438 -0.53109,0.129493 -0.53109,0.190428 0,0.06093 -0.0797,0.110786 -0.17702,0.110786 -0.0974,0 -0.17703,0.04953 -0.17703,0.110063 0,0.06054 -0.11949,0.147795 -0.26554,0.193912 -0.14605,0.04611 -0.3452,0.174866 -0.44256,0.286115 -0.0974,0.11125 -0.29652,0.239998 -0.44258,0.286116 -0.14604,0.04611 -0.26553,0.130955 -0.26553,0.188541 0,0.05758 -0.12641,0.231108 -0.2809,0.385602 -0.1545,0.154495 -0.31654,0.393177 -0.36009,0.530404 -0.0436,0.137233 -0.18257,0.28232 -0.30892,0.322424 -0.12634,0.0401 -0.26216,0.202142 -0.3018,0.360089 -0.0397,0.157947 -0.11943,0.287177 -0.1773,0.287177 -0.0579,0 -0.10522,0.106218 -0.10522,0.236037 0,0.129819 -0.0531,0.236037 -0.11802,0.236037 -0.065,0 -0.11802,0.07966 -0.11802,0.177024 0,0.09736 -0.0525,0.177029 -0.11662,0.177029 -0.0641,0 -0.15059,0.212432 -0.19211,0.47207 -0.0415,0.259637 -0.12181,0.472069 -0.17842,0.472069 -0.0566,0 -0.10294,0.154901 -0.10294,0.344223 0,0.189317 -0.0525,0.361917 -0.11686,0.383555 -0.0643,0.02163 -0.1515,0.371266 -0.19384,0.77695 -0.0423,0.405688 -0.12252,0.737613 -0.17818,0.737613 -0.0557,0 -0.10121,0.451417 -0.10121,1.003147 0,0.590091 -0.0485,1.003152 -0.11801,1.003152 -0.0694,0 -0.11802,0.413062 -0.11802,1.003152 0,0.59009 0.0486,1.003152 0.11802,1.003152 0.0682,0 0.11801,0.373724 0.11801,0.885131 0,0.486825 0.0469,0.885135 0.10415,0.885135 0.0573,0 0.14148,0.398311 0.1871,0.885131 0.0456,0.486825 0.13152,0.885136 0.19089,0.885136 0.0594,0 0.10795,0.132772 0.10795,0.295045 0,0.162273 0.0464,0.295045 0.10294,0.295045 0.0566,0 0.1369,0.212432 0.17842,0.47207 0.0415,0.259638 0.12796,0.472069 0.19211,0.472069 0.0641,0 0.11662,0.106219 0.11662,0.236038 0,0.129818 0.0531,0.236037 0.11802,0.236037 0.0649,0 0.11802,0.07966 0.11802,0.177024 0,0.09736 0.0531,0.177028 0.11802,0.177028 0.0649,0 0.11801,0.09877 0.11801,0.219502 0,0.120729 0.13277,0.319213 0.29505,0.441074 0.16227,0.121866 0.29504,0.285 0.29504,0.362529 0,0.197453 1.38348,1.573285 1.58203,1.573285 0.0896,0 0.19355,0.07966 0.23092,0.177024 0.0374,0.09737 0.17581,0.177029 0.30767,0.177029 0.13185,0 0.23973,0.05311 0.23973,0.118017 0,0.06491 0.0753,0.11802 0.1672,0.11802 0.0919,0 0.18603,0.05653 0.20906,0.125631 0.023,0.0691 0.26645,0.155752 0.54092,0.192565 0.27447,0.0368 0.49904,0.113052 0.49904,0.169415 0,0.05637 0.13277,0.102476 0.29504,0.102476 0.16227,0 0.29505,0.05006 0.29505,0.111231 0,0.170637 0.81876,0.221411 2.94667,0.18273 1.2745,-0.02315 1.95837,-0.07984 1.98664,-0.164647 z m 17.58424,0.0013 c 0.0239,-0.0718 0.19841,-0.130533 0.38773,-0.130533 0.18932,0 0.34422,-0.04632 0.34422,-0.102931 0,-0.05662 0.21244,-0.136906 0.47207,-0.178424 0.25964,-0.04153 0.47207,-0.127968 0.47207,-0.192111 0,-0.06414 0.0797,-0.116619 0.17703,-0.116619 0.0974,0 0.17702,-0.04953 0.17702,-0.110068 0,-0.06053 0.11523,-0.146636 0.25606,-0.191329 0.14083,-0.0447 0.64792,-0.473141 1.12688,-0.952097 0.47895,-0.478957 0.92136,-0.870827 0.98313,-0.870827 0.0618,0 0.11231,-0.107882 0.11231,-0.239739 0,-0.131857 0.0797,-0.270312 0.17703,-0.307673 0.0974,-0.03738 0.17702,-0.168464 0.17702,-0.291338 0,-0.122879 0.0521,-0.223409 0.11576,-0.223409 0.0637,0 0.1491,-0.132772 0.18983,-0.295046 0.0407,-0.162273 0.1214,-0.295045 0.17927,-0.295045 0.0579,0 0.10523,-0.132772 0.10523,-0.295045 0,-0.162273 0.0525,-0.295045 0.11662,-0.295045 0.0641,0 0.1506,-0.212432 0.19212,-0.47207 0.0415,-0.259637 0.1218,-0.472069 0.17841,-0.472069 0.0566,0 0.10293,-0.185879 0.10293,-0.413066 0,-0.227183 0.0488,-0.413062 0.10857,-0.413062 0.0597,0 0.14621,-0.531077 0.19222,-1.180176 0.046,-0.649099 0.12995,-1.180176 0.18649,-1.180176 0.0565,0 0.10282,-0.770068 0.10282,-1.711259 0,-0.94119 -0.0452,-1.711258 -0.10049,-1.711258 -0.0552,0 -0.13324,-0.46413 -0.17328,-1.031405 -0.04,-0.567275 -0.12758,-1.04967 -0.19455,-1.071995 -0.0669,-0.0223 -0.12178,-0.22204 -0.12178,-0.443817 0,-0.221777 -0.0471,-0.403226 -0.10461,-0.403226 -0.0576,0 -0.14045,-0.238986 -0.18425,-0.531082 -0.0438,-0.292092 -0.1295,-0.531078 -0.19043,-0.531078 -0.061,0 -0.11079,-0.07966 -0.11079,-0.177029 0,-0.09736 -0.0507,-0.177024 -0.11267,-0.177024 -0.062,0 -0.1472,-0.184067 -0.1894,-0.409039 -0.0476,-0.253468 -0.16181,-0.436037 -0.3004,-0.480026 -0.12301,-0.03903 -0.22366,-0.17529 -0.22366,-0.302771 0,-0.127481 -0.0797,-0.262355 -0.17703,-0.29972 -0.0974,-0.03738 -0.17702,-0.164883 -0.17702,-0.283386 0,-0.118502 -0.10622,-0.249168 -0.23604,-0.29037 -0.12982,-0.04121 -0.23603,-0.12203 -0.23603,-0.179616 0,-0.156573 -0.57925,-0.705519 -0.74447,-0.705519 -0.079,0 -0.24335,-0.132767 -0.36522,-0.295046 -0.12186,-0.162273 -0.32034,-0.295041 -0.44107,-0.295041 -0.12073,0 -0.21951,-0.05311 -0.21951,-0.11802 0,-0.06491 -0.0797,-0.118017 -0.17702,-0.118017 -0.0974,0 -0.17703,-0.0507 -0.17703,-0.112667 0,-0.06197 -0.18588,-0.147545 -0.41306,-0.190166 -0.22719,-0.0426 -0.41306,-0.124684 -0.41306,-0.182372 0,-0.05768 -0.12835,-0.104885 -0.28521,-0.104885 -0.15687,0 -0.30735,-0.06638 -0.3344,-0.147522 -0.0373,-0.11187 -0.65765,-0.147523 -2.5669,-0.147523 -1.90926,0 -2.52959,0.03564 -2.56687,0.147523 -0.027,0.08114 -0.17751,0.147522 -0.33437,0.147522 -0.15687,0 -0.28521,0.04889 -0.28521,0.108641 0,0.05975 -0.15933,0.143637 -0.35405,0.186405 -0.19474,0.04278 -0.35406,0.126651 -0.35406,0.186404 0,0.05975 -0.10622,0.10864 -0.23604,0.10864 -0.12982,0 -0.23603,0.04735 -0.23603,0.105224 0,0.05788 -0.13277,0.138548 -0.29504,0.179277 -0.16228,0.04072 -0.29505,0.126148 -0.29505,0.189817 0,0.06367 -0.0554,0.115773 -0.123,0.115773 -0.12654,0 -0.3708,0.177319 -0.62026,0.450271 -0.078,0.08538 -0.28792,0.303561 -0.46642,0.484849 -0.1785,0.181289 -0.32455,0.413231 -0.32455,0.515421 0,0.102191 -0.1061,0.219471 -0.23576,0.260628 -0.12967,0.04117 -0.2682,0.20406 -0.30784,0.362007 -0.0397,0.157947 -0.11943,0.287176 -0.1773,0.287176 -0.0579,0 -0.10522,0.106219 -0.10522,0.236037 0,0.129819 -0.0489,0.236037 -0.10864,0.236037 -0.0598,0 -0.14364,0.159321 -0.18641,0.354054 -0.0428,0.194728 -0.12665,0.354053 -0.1864,0.354053 -0.0598,0 -0.10864,0.106214 -0.10864,0.236032 0,0.12982 -0.0505,0.236038 -0.11216,0.236038 -0.0617,0 -0.14821,0.318646 -0.19227,0.708106 -0.0441,0.389457 -0.12637,0.708107 -0.18289,0.708107 -0.0565,0 -0.10277,0.1549 -0.10277,0.344218 0,0.189322 -0.0664,0.366346 -0.14752,0.393395 -0.11304,0.03769 -0.14753,0.775639 -0.14753,3.156973 0,2.381335 0.0345,3.119296 0.14753,3.156974 0.0811,0.02703 0.14752,0.230626 0.14752,0.452403 0,0.221777 0.0463,0.403226 0.10277,0.403226 0.0566,0 0.13883,0.31865 0.18289,0.708107 0.0441,0.389461 0.13058,0.708106 0.19227,0.708106 0.0617,0 0.11216,0.07966 0.11216,0.177029 0,0.09736 0.0531,0.177025 0.11801,0.177025 0.0649,0 0.11802,0.12898 0.11802,0.286615 0,0.157639 0.0797,0.366279 0.17703,0.463643 0.0974,0.09736 0.17703,0.233928 0.17703,0.303471 0,0.06955 0.0531,0.126452 0.11802,0.126452 0.0649,0 0.11801,0.107881 0.11801,0.239738 0,0.131858 0.0797,0.270308 0.17703,0.307669 0.0974,0.03738 0.17702,0.141274 0.17702,0.230916 0,0.175045 1.36457,1.582029 1.53434,1.582029 0.0561,0 0.13571,0.106218 0.17692,0.236037 0.0414,0.130483 0.17857,0.236037 0.3067,0.236037 0.12749,0 0.26236,0.07966 0.29972,0.177024 0.0374,0.09737 0.16847,0.17703 0.29134,0.17703 0.12287,0 0.22341,0.05247 0.22341,0.116619 0,0.06414 0.21243,0.150596 0.47207,0.192111 0.25965,0.04152 0.47207,0.121807 0.47207,0.178424 0,0.05661 0.13277,0.102931 0.29505,0.102931 0.16227,0 0.29504,0.0502 0.29504,0.111553 0,0.163652 0.89483,0.220296 2.88727,0.182765 1.15776,-0.02181 1.78108,-0.07822 1.8096,-0.16379 z m -6.14259,-10.359166 c -0.37323,-0.02788 -0.6786,-0.101146 -0.6786,-0.162817 0,-0.06167 -0.18588,-0.112129 -0.41306,-0.112129 -0.36192,0 -0.41306,-0.03653 -0.41306,-0.295045 0,-0.274709 0.04,-0.295045 0.58025,-0.295045 0.31914,0 0.59795,0.05092 0.61959,0.113163 0.0216,0.06223 0.82269,0.149958 1.78011,0.19493 0.95741,0.04497 1.74076,0.126816 1.74076,0.181882 0,0.05506 0.39831,0.100115 0.88513,0.100115 0.48682,0 0.88513,-0.04491 0.88513,-0.09981 0,-0.05489 0.67698,-0.134114 1.50441,-0.176052 0.83606,-0.04238 1.52201,-0.129105 1.54406,-0.195237 0.0218,-0.06544 0.19457,-0.118993 0.38389,-0.118993 0.28849,0 0.34421,0.04777 0.34421,0.295045 0,0.247273 -0.0557,0.295045 -0.34421,0.295045 -0.18932,0 -0.36443,0.0606 -0.38911,0.134668 -0.0457,0.137031 -6.55143,0.25069 -8.0295,0.140278 z m 20.65324,10.375763 c 0.027,-0.08092 0.15084,-0.14713 0.27525,-0.14713 0.12441,0 0.2262,-0.04735 0.2262,-0.105223 0,-0.05787 0.12923,-0.137656 0.28717,-0.177301 0.15795,-0.03965 0.32488,-0.191446 0.37094,-0.33734 0.0461,-0.145899 0.18237,-0.351159 0.30291,-0.456137 0.12053,-0.104978 0.21915,-0.251024 0.21915,-0.324551 0,-0.07352 0.0499,-0.133677 0.11079,-0.133677 0.061,0 0.14662,-0.238986 0.19043,-0.531083 0.0438,-0.292092 0.12672,-0.531077 0.18425,-0.531077 0.0576,0 0.10463,-0.128342 0.10463,-0.28521 0,-0.156863 0.0523,-0.302914 0.11623,-0.324547 0.0639,-0.02163 0.15177,-0.743023 0.1952,-1.603078 0.0435,-0.860053 0.1239,-1.563735 0.17881,-1.563735 0.0549,0 0.0998,-0.451418 0.0998,-1.003153 0,-0.551729 -0.045,-1.003146 -0.0999,-1.003146 -0.055,0 -0.13721,-1.101993 -0.18276,-2.448872 -0.0461,-1.36229 -0.13265,-2.466321 -0.19512,-2.488209 -0.0618,-0.02163 -0.11227,-0.198662 -0.11227,-0.39339 0,-0.443576 0.27875,-0.394702 0.33238,0.05827 0.0206,0.173496 0.0869,0.315447 0.14753,0.315447 0.0606,0 0.11017,0.367328 0.11017,0.816288 0,0.545012 0.0487,0.832515 0.14648,0.865116 0.21417,0.07139 0.2152,8.95682 10e-4,9.028501 -0.0811,0.02716 -0.14751,0.226406 -0.14751,0.442772 0,0.216367 -0.0583,0.412839 -0.12963,0.4366 -0.0713,0.02378 -0.15787,0.293734 -0.19237,0.599926 -0.052,0.461583 -0.0299,0.556717 0.12962,0.556717 0.10581,0 0.19238,0.0521 0.19238,0.115768 0,0.06367 0.13277,0.149092 0.29504,0.189821 0.16228,0.04073 0.29505,0.121402 0.29505,0.179273 0,0.05787 0.0752,0.105223 0.16719,0.105223 0.0919,0 0.18887,0.06504 0.21536,0.144525 0.0694,0.208061 3.05888,0.21093 3.12836,0.0031 0.0271,-0.08114 0.12312,-0.147523 0.21337,-0.147523 0.21894,0 1.23246,-1.021614 1.23246,-1.242293 0,-0.09566 0.0525,-0.17392 0.11663,-0.17392 0.0641,0 0.15059,-0.212432 0.1921,-0.472074 0.0415,-0.259638 0.12181,-0.47207 0.17843,-0.47207 0.0566,0 0.10293,-0.128343 0.10293,-0.28521 0,-0.156863 0.0528,-0.302909 0.11728,-0.324547 0.0645,-0.02163 0.15212,-0.530591 0.19469,-1.131004 0.0426,-0.600416 0.12258,-1.091666 0.17777,-1.091666 0.13302,0 0.13023,-4.689646 -0.003,-4.74038 -0.0567,-0.02163 -0.14167,-0.955803 -0.18873,-2.075932 -0.0773,-1.839463 -0.0673,-2.029579 0.10317,-1.96417 0.1434,0.05504 0.18872,0.239409 0.18872,0.7679 0,0.384978 0.0527,0.695479 0.11801,0.695479 0.068,0 0.11803,0.370446 0.11803,0.8753 0,0.595336 0.0472,0.891024 0.14751,0.924468 0.11409,0.03805 0.14753,0.940852 0.14753,3.983052 0,3.042173 -0.0335,3.945039 -0.14753,3.983106 -0.0811,0.02707 -0.14751,0.204121 -0.14751,0.39344 0,0.189321 -0.0531,0.344217 -0.11803,0.344217 -0.0649,0 -0.11801,0.128347 -0.11801,0.28521 0,0.156867 -0.0506,0.302914 -0.11248,0.324552 -0.0618,0.02163 -0.14774,0.261475 -0.19084,0.532973 -0.0783,0.493119 -0.0779,0.493721 0.34851,0.57372 0.23478,0.04402 0.42687,0.127277 0.42687,0.184964 0,0.05769 0.0752,0.104885 0.16721,0.104885 0.0919,0 0.18854,0.06406 0.21463,0.142357 0.069,0.206892 3.4139,0.211852 3.48306,0.0052 0.0271,-0.08114 0.12714,-0.147523 0.2222,-0.147523 0.095,0 0.29587,-0.132772 0.44626,-0.295045 0.15038,-0.162274 0.31097,-0.295046 0.35685,-0.295046 0.10818,0 0.4206,-0.312419 0.4206,-0.420603 0,-0.04588 0.13277,-0.206456 0.29504,-0.356847 0.16228,-0.150395 0.29504,-0.355636 0.29504,-0.4561 0,-0.100465 0.0489,-0.182663 0.10864,-0.182663 0.0598,0 0.14364,-0.159325 0.18641,-0.354053 0.0428,-0.194728 0.12666,-0.354054 0.18641,-0.354054 0.0598,0 0.10864,-0.132771 0.10864,-0.295044 0,-0.162274 0.0479,-0.295046 0.10643,-0.295046 0.0585,0 0.14341,-0.318646 0.18861,-0.708106 0.0452,-0.389457 0.13008,-0.708107 0.18861,-0.708107 0.0585,0 0.10643,-0.238985 0.10643,-0.531078 0,-0.292097 0.0531,-0.531082 0.11802,-0.531082 0.0699,0 0.11802,-0.432732 0.11802,-1.06216 0,-0.629428 0.0481,-1.06216 0.11802,-1.06216 0.0682,0 0.11802,-0.373724 0.11802,-0.885131 0,-0.511411 -0.0498,-0.885135 -0.11802,-0.885135 -0.0715,0 -0.11802,-0.511407 -0.11802,-1.298193 0,-0.786785 -0.0465,-1.298197 -0.11802,-1.298197 -0.0649,0 -0.11802,-0.265539 -0.11802,-0.59009 0,-0.324547 -0.0455,-0.590086 -0.10106,-0.590086 -0.0556,0 -0.13672,-0.385036 -0.18026,-0.855629 -0.0436,-0.470598 -0.13085,-0.873333 -0.19398,-0.894971 -0.0632,-0.02163 -0.11478,-0.194238 -0.11478,-0.383555 0,-0.189323 -0.0525,-0.344218 -0.11663,-0.344218 -0.0641,0 -0.15059,-0.212432 -0.1921,-0.472075 -0.0415,-0.259637 -0.12181,-0.472069 -0.17843,-0.472069 -0.0566,0 -0.10294,-0.07966 -0.10294,-0.177029 0,-0.09736 -0.0472,-0.177024 -0.10488,-0.177024 -0.0577,0 -0.13975,-0.185879 -0.18237,-0.413062 -0.0426,-0.227187 -0.12819,-0.413061 -0.19016,-0.413061 -0.062,0 -0.11267,-0.07967 -0.11267,-0.177029 0,-0.09736 -0.0495,-0.177024 -0.11007,-0.177024 -0.0605,0 -0.14656,-0.114997 -0.19117,-0.255548 -0.0446,-0.140551 -0.19424,-0.37698 -0.33251,-0.525395 -0.13825,-0.148419 -0.31522,-0.338798 -0.39326,-0.423057 -0.078,-0.08426 -0.2108,-0.217049 -0.29503,-0.295077 -0.0842,-0.07803 -0.21702,-0.210799 -0.29505,-0.295045 -0.25414,-0.274277 -0.49485,-0.448219 -0.62038,-0.448219 -0.0676,0 -0.12299,-0.0472 -0.12299,-0.104885 0,-0.05768 -0.18588,-0.139752 -0.41306,-0.182373 -0.22719,-0.04264 -0.41307,-0.128194 -0.41307,-0.19016 0,-0.06197 -0.0752,-0.112673 -0.1672,-0.112673 -0.0919,0 -0.18931,-0.06638 -0.21635,-0.147522 -0.0369,-0.110451 -0.56321,-0.147522 -2.09482,-0.147522 -1.53161,0 -2.05799,0.03707 -2.09481,0.147522 -0.0271,0.08114 -0.12442,0.147522 -0.21637,0.147522 -0.092,0 -0.16719,0.04735 -0.16719,0.105224 0,0.05787 -0.13277,0.138548 -0.29505,0.179277 -0.16227,0.04073 -0.29504,0.126148 -0.29504,0.189821 0,0.06367 -0.0797,0.115769 -0.17703,0.115769 -0.0974,0 -0.17703,0.04953 -0.17703,0.110063 0,0.06054 -0.1035,0.142915 -0.22999,0.183064 -0.1265,0.04015 -0.26198,0.173782 -0.30108,0.296963 -0.0391,0.123177 -0.17459,0.25681 -0.30109,0.296959 -0.18241,0.05789 -0.23,0.181226 -0.23,0.596125 0,0.287722 0.0531,0.52313 0.11802,0.52313 0.0649,0 0.11802,0.181449 0.11802,0.403225 0,0.221777 0.047,0.42093 0.10455,0.442568 0.0575,0.02163 0.14304,0.689912 0.19007,1.485057 0.0761,1.285891 0.0645,1.445715 -0.10455,1.445715 -0.15363,0 -0.19007,-0.13576 -0.19007,-0.708106 0,-0.393391 -0.0524,-0.708107 -0.11802,-0.708107 -0.0649,0 -0.11802,-0.212432 -0.11802,-0.472069 0,-0.259638 -0.0463,-0.47207 -0.10277,-0.47207 -0.0565,0 -0.13882,-0.318651 -0.18288,-0.708107 -0.0441,-0.389461 -0.1306,-0.708106 -0.19228,-0.708106 -0.0617,0 -0.11216,-0.07967 -0.11216,-0.177029 0,-0.09736 -0.0472,-0.177025 -0.10488,-0.177025 -0.0577,0 -0.13758,-0.174325 -0.17755,-0.387395 -0.04,-0.213066 -0.17866,-0.463774 -0.30818,-0.557132 -0.12953,-0.09336 -0.23551,-0.229551 -0.23551,-0.302655 0,-0.206642 -0.38457,-0.598347 -0.6786,-0.691184 -0.14605,-0.04611 -0.26554,-0.133373 -0.26554,-0.193907 0,-0.06054 -0.12835,-0.110068 -0.28521,-0.110068 -0.15686,0 -0.30739,-0.06638 -0.3345,-0.147522 -0.0368,-0.109983 -0.53977,-0.147522 -1.97683,-0.147522 -1.43712,0 -1.94003,0.03756 -1.97668,0.147522 -0.027,0.08114 -0.12438,0.147522 -0.21633,0.147522 -0.092,0 -0.1672,0.04647 -0.1672,0.103266 0,0.05679 -0.15643,0.134556 -0.34763,0.172796 -0.38973,0.07794 -1.8947,1.503835 -1.8947,1.795142 0,0.0982 -0.0797,0.209114 -0.17703,0.246475 -0.0974,0.03738 -0.17703,0.168465 -0.17703,0.291339 0,0.122878 -0.0489,0.223409 -0.10864,0.223409 -0.0597,0 -0.14363,0.159325 -0.1864,0.354053 -0.0428,0.194733 -0.12666,0.354054 -0.18641,0.354054 -0.0598,0 -0.10864,0.128347 -0.10864,0.28521 0,0.156867 -0.0539,0.303171 -0.11975,0.325131 -0.0659,0.02194 -0.15321,0.398136 -0.1941,0.835958 -0.0409,0.437822 -0.11976,0.796041 -0.17529,0.796041 -0.0555,0 -0.10094,0.208003 -0.10094,0.462234 0,0.264892 -0.063,0.483226 -0.14753,0.511394 -0.11464,0.03818 -0.14752,1.070657 -0.14752,4.632177 0,3.561493 0.0328,4.593978 0.14752,4.632213 0.0811,0.02707 0.14753,0.230649 0.14753,0.452425 0,0.221772 0.0462,0.403227 0.10266,0.403227 0.0565,0 0.13091,0.25052 0.16542,0.556716 0.0345,0.306192 0.12108,0.576156 0.19238,0.599921 0.0713,0.02378 0.12962,0.171556 0.12962,0.328419 0,0.156867 0.0465,0.28521 0.10327,0.28521 0.0568,0 0.13656,0.166458 0.17725,0.369906 0.0407,0.203448 0.1725,0.455713 0.29291,0.560584 0.12042,0.104871 0.2558,0.307454 0.30086,0.450181 0.0451,0.142729 0.18271,0.291491 0.30589,0.330587 0.12318,0.03907 0.25677,0.17446 0.29687,0.300809 0.0401,0.126348 0.20215,0.262157 0.36009,0.301798 0.15795,0.03965 0.28718,0.11943 0.28718,0.177301 0,0.05787 0.10622,0.105223 0.23604,0.105223 0.12982,0 0.23603,0.04958 0.23603,0.11018 0,0.159205 0.51036,0.221888 1.64255,0.201749 0.67512,-0.012 1.00916,-0.06482 1.04249,-0.164799 z m 25.2558,0 c 0.027,-0.08092 0.15084,-0.14713 0.27524,-0.14713 0.12442,0 0.22621,-0.04735 0.22621,-0.105223 0,-0.05787 0.12923,-0.137656 0.28717,-0.177301 0.15796,-0.03965 0.32086,-0.178166 0.36201,-0.307838 0.0412,-0.129667 0.12437,-0.23576 0.1849,-0.23576 0.0605,0 0.11006,-0.07966 0.11006,-0.17703 0,-0.09736 0.0507,-0.177024 0.11267,-0.177024 0.062,0 0.14754,-0.185878 0.19017,-0.413062 0.0426,-0.227182 0.12469,-0.413061 0.18237,-0.413061 0.0577,0 0.10488,-0.07966 0.10488,-0.177029 0,-0.09736 0.0485,-0.177025 0.10796,-0.177025 0.0594,0 0.14526,-0.39831 0.19089,-0.885135 0.0456,-0.48682 0.12981,-0.885131 0.18709,-0.885131 0.0573,0 0.10415,-0.398311 0.10415,-0.885135 0,-0.511412 0.0499,-0.885131 0.11801,-0.885131 0.0726,0 0.11803,-0.590091 0.11803,-1.534234 0,-0.944139 -0.0454,-1.53423 -0.11803,-1.53423 -0.0715,0 -0.11801,-0.508133 -0.11801,-1.288361 0,-0.708598 -0.0455,-1.306061 -0.10094,-1.327699 -0.0555,-0.02163 -0.13017,-0.583699 -0.16589,-1.24902 -0.0532,-0.991301 -0.035,-1.209683 0.10094,-1.209683 0.0983,0 0.16589,0.120265 0.16589,0.295041 0,0.162278 0.0481,0.295045 0.10703,0.295045 0.0589,0 0.14533,0.743515 0.19216,1.652251 0.0468,0.908736 0.13142,1.65225 0.18801,1.65225 0.0566,0 0.10289,0.637296 0.10289,1.416213 0,0.86546 0.0459,1.416213 0.11802,1.416213 0.0694,0 0.11801,0.413062 0.11801,1.003148 0,0.59009 -0.0486,1.003151 -0.11801,1.003151 -0.0694,0 -0.11802,0.413062 -0.11802,1.003152 0,0.551735 -0.0455,1.003152 -0.1012,1.003152 -0.0557,0 -0.13585,0.331925 -0.1782,0.737613 -0.0423,0.405684 -0.12955,0.755312 -0.19383,0.77695 -0.0642,0.02163 -0.11686,0.167684 -0.11686,0.324547 0,0.156868 -0.0531,0.28521 -0.11801,0.28521 -0.0649,0 -0.11803,0.132771 -0.11803,0.295045 0,0.210809 0.0638,0.295046 0.22342,0.295046 0.12287,0 0.25397,0.07966 0.29133,0.177024 0.0374,0.09736 0.17582,0.177028 0.30768,0.177028 0.13185,0 0.23973,0.05311 0.23973,0.118017 0,0.06491 0.0752,0.118016 0.1672,0.118016 0.0919,0 0.18886,0.06504 0.21536,0.144525 0.0693,0.208061 3.05888,0.210929 3.12835,0.0031 0.0271,-0.08114 0.12454,-0.147523 0.21649,-0.147523 0.0919,0 0.16719,-0.04953 0.16719,-0.110067 0,-0.06053 0.1035,-0.14291 0.22999,-0.183059 0.12651,-0.04015 0.26199,-0.173787 0.30109,-0.296964 0.039,-0.123177 0.17458,-0.256809 0.30109,-0.296958 0.12649,-0.04015 0.22999,-0.175637 0.22999,-0.301085 0,-0.125443 0.0489,-0.22808 0.10863,-0.22808 0.0598,0 0.14364,-0.159325 0.18642,-0.354053 0.0428,-0.194728 0.12665,-0.354053 0.18641,-0.354053 0.0598,0 0.10863,-0.181454 0.10863,-0.403231 0,-0.221772 0.051,-0.420925 0.11328,-0.442563 0.0623,-0.02163 0.14959,-0.47748 0.19399,-1.012987 0.0444,-0.535507 0.1262,-0.973646 0.18177,-0.973646 0.13342,0 0.13141,-5.161524 -0.002,-5.212454 -0.0567,-0.02163 -0.14154,-0.902661 -0.18854,-1.957835 -0.0771,-1.730373 -0.0669,-1.911403 0.10309,-1.846154 0.13652,0.05239 0.18852,0.228895 0.18852,0.639972 0,0.312196 0.049,0.585331 0.10878,0.606969 0.0598,0.02163 0.14691,0.849233 0.19351,1.839111 0.0466,0.989872 0.13044,1.799768 0.18627,1.799768 0.0559,0 0.10153,1.194931 0.10153,2.655402 0,1.46047 -0.0454,2.655398 -0.1009,2.655398 -0.0555,0 -0.13313,0.384357 -0.17251,0.854121 -0.0394,0.469768 -0.12674,0.872503 -0.19414,0.894971 -0.0674,0.02248 -0.12254,0.164762 -0.12254,0.316219 0,0.151457 -0.0506,0.293078 -0.11247,0.314716 -0.0618,0.02163 -0.14743,0.259531 -0.19015,0.528652 -0.0753,0.474464 -0.0665,0.491767 0.2895,0.569964 0.20195,0.04434 0.36718,0.129533 0.36718,0.189286 0,0.05975 0.12834,0.10864 0.28521,0.10864 0.15686,0 0.30717,0.06589 0.33402,0.146413 0.0701,0.21017 3.29353,0.211232 3.36375,8.95e-4 0.0271,-0.08114 0.12453,-0.147523 0.21648,-0.147523 0.092,0 0.16719,-0.04953 0.16719,-0.110062 0,-0.06054 0.11255,-0.145788 0.25011,-0.189447 0.34163,-0.108431 0.93007,-0.687325 0.93007,-0.914999 0,-0.102191 0.10622,-0.219511 0.23604,-0.260713 0.12982,-0.04121 0.23603,-0.177551 0.23603,-0.302998 0,-0.125443 0.0489,-0.228084 0.10864,-0.228084 0.0598,0 0.14364,-0.159321 0.18641,-0.354053 0.0428,-0.194728 0.12666,-0.354054 0.18641,-0.354054 0.0598,0 0.10863,-0.106213 0.10863,-0.236033 0,-0.129822 0.0505,-0.236037 0.11216,-0.236037 0.0617,0 0.14821,-0.318649 0.19227,-0.708106 0.0441,-0.389461 0.12636,-0.708106 0.18289,-0.708106 0.0565,0 0.10277,-0.208007 0.10277,-0.462239 0,-0.258871 0.0634,-0.483355 0.14402,-0.510238 0.20382,-0.06794 0.19912,-6.840002 -0.005,-6.907976 -0.0818,-0.02725 -0.13922,-0.285813 -0.13922,-0.626662 0,-0.319141 -0.0469,-0.580256 -0.10426,-0.580256 -0.0574,0 -0.14123,-0.345199 -0.18643,-0.767114 -0.0452,-0.421911 -0.13103,-0.767115 -0.19077,-0.767115 -0.0597,0 -0.10862,-0.159325 -0.10862,-0.354053 0,-0.194729 -0.0463,-0.354054 -0.10294,-0.354054 -0.0566,0 -0.1369,-0.212432 -0.17842,-0.472069 -0.0415,-0.259643 -0.12797,-0.472074 -0.19211,-0.472074 -0.0641,0 -0.11662,-0.07966 -0.11662,-0.177025 0,-0.09736 -0.0531,-0.177028 -0.11802,-0.177028 -0.0649,0 -0.11802,-0.106215 -0.11802,-0.236033 0,-0.129824 -0.0489,-0.236037 -0.10863,-0.236037 -0.0598,0 -0.14138,-0.149008 -0.18137,-0.331131 -0.04,-0.182118 -0.17699,-0.406277 -0.30443,-0.498123 -0.12741,-0.0918 -0.23167,-0.233009 -0.23167,-0.313753 0,-0.182957 -1.58015,-1.807387 -1.75812,-1.807387 -0.0716,0 -0.13016,-0.0521 -0.13016,-0.115768 0,-0.06367 -0.13277,-0.149093 -0.29505,-0.189822 -0.16227,-0.04072 -0.29505,-0.121402 -0.29505,-0.179277 0,-0.05787 -0.15489,-0.105223 -0.34422,-0.105223 -0.1893,0 -0.36632,-0.06638 -0.39336,-0.147523 -0.0365,-0.109733 -0.52775,-0.147523 -1.91773,-0.147523 -1.38993,0 -1.88119,0.03778 -1.91782,0.147523 -0.0271,0.08114 -0.17757,0.147523 -0.33443,0.147523 -0.15688,0 -0.28521,0.05311 -0.28521,0.118021 0,0.06491 -0.10789,0.118016 -0.23975,0.118016 -0.13185,0 -0.27031,0.07966 -0.30767,0.177024 -0.0374,0.09737 -0.14051,0.177029 -0.22923,0.177029 -0.0887,0 -0.40167,0.240382 -0.69547,0.534187 -0.45049,0.450489 -0.53419,0.606121 -0.53419,0.993316 0,0.252519 0.051,0.476834 0.11328,0.498467 0.0623,0.02163 0.1496,0.47748 0.19399,1.012987 0.0444,0.535507 0.1262,0.973646 0.18177,0.973646 0.0556,0 0.10105,0.398311 0.10105,0.885135 0,0.486821 -0.0475,0.885131 -0.10539,0.885131 -0.16856,0 -0.24866,-0.326232 -0.24866,-1.012804 0,-0.351694 -0.0531,-0.639442 -0.11802,-0.639442 -0.0649,0 -0.11802,-0.212432 -0.11802,-0.472073 0,-0.259638 -0.0481,-0.47207 -0.10695,-0.47207 -0.0588,0 -0.14346,-0.265539 -0.1881,-0.590091 -0.0446,-0.324546 -0.12927,-0.590085 -0.18809,-0.590085 -0.0588,0 -0.10695,-0.132772 -0.10695,-0.295046 0,-0.162273 -0.0531,-0.295045 -0.11802,-0.295045 -0.0649,0 -0.11801,-0.107881 -0.11801,-0.239739 0,-0.131857 -0.0797,-0.270307 -0.17703,-0.307673 -0.0974,-0.03738 -0.17703,-0.164883 -0.17703,-0.283385 0,-0.118503 -0.10349,-0.248308 -0.22999,-0.288457 -0.1265,-0.04015 -0.26284,-0.176499 -0.303,-0.302994 -0.0401,-0.1265 -0.1773,-0.230002 -0.30479,-0.230002 -0.12748,0 -0.26235,-0.07966 -0.29972,-0.177025 -0.0374,-0.09736 -0.16403,-0.177028 -0.28151,-0.177028 -0.11746,0 -0.23571,-0.06638 -0.26277,-0.147523 -0.0368,-0.110224 -0.55146,-0.147523 -2.03583,-0.147523 -1.4844,0 -1.99904,0.03729 -2.03576,0.147523 -0.027,0.08114 -0.1244,0.147523 -0.21636,0.147523 -0.0919,0 -0.16719,0.05311 -0.16719,0.118021 0,0.06491 -0.10788,0.118016 -0.23974,0.118016 -0.13185,0 -0.2703,0.07966 -0.30768,0.177024 -0.0374,0.09737 -0.13953,0.177029 -0.22705,0.177029 -0.21848,0 -1.46787,1.236187 -1.46787,1.452375 0,0.09604 -0.0797,0.205187 -0.17702,0.242553 -0.0974,0.03738 -0.17703,0.175812 -0.17703,0.307669 0,0.131857 -0.0531,0.23974 -0.11802,0.23974 -0.0649,0 -0.11801,0.07966 -0.11801,0.177028 0,0.09736 -0.0481,0.177024 -0.10695,0.177024 -0.0588,0 -0.14347,0.265544 -0.1881,0.590091 -0.0446,0.324547 -0.12928,0.59009 -0.1881,0.59009 -0.0588,0 -0.10695,0.132768 -0.10695,0.295041 0,0.162278 -0.0486,0.295045 -0.10795,0.295045 -0.0594,0 -0.14527,0.39831 -0.19089,0.885136 -0.0456,0.48682 -0.1298,0.885131 -0.18709,0.885131 -0.0573,0 -0.10415,0.371757 -0.10415,0.826127 0,0.47207 -0.0506,0.826123 -0.11802,0.826123 -0.0758,0 -0.11802,1.140839 -0.11802,3.18648 0,2.045641 0.0422,3.18648 0.11802,3.18648 0.0649,0 0.11802,0.292092 0.11802,0.649098 0,0.357002 0.0462,0.649099 0.10276,0.649099 0.0565,0 0.13883,0.318646 0.1829,0.708106 0.0441,0.389456 0.13059,0.708107 0.19228,0.708107 0.0616,0 0.11214,0.132767 0.11214,0.295041 0,0.162277 0.0471,0.295045 0.10463,0.295045 0.0575,0 0.14005,0.236313 0.18337,0.525141 0.0561,0.374165 0.14478,0.5461 0.30843,0.598043 0.12634,0.0401 0.2297,0.177203 0.2297,0.304689 0,0.127481 0.0797,0.262354 0.17703,0.299715 0.0974,0.03738 0.17702,0.142853 0.17702,0.234418 0,0.213868 0.79404,0.988441 1.01328,0.988441 0.0918,0 0.1669,0.05311 0.1669,0.118017 0,0.06491 0.10622,0.118015 0.23604,0.118015 0.12981,0 0.23603,0.04958 0.23603,0.11018 0,0.159204 0.51036,0.221888 1.64255,0.201749 0.67512,-0.012 1.00915,-0.06482 1.04248,-0.164798 z"
         id="path23037" /></g></g></svg>
