<?xml version="1.0" encoding="UTF-8" standalone="no"?>
<!-- Created with Inkscape (http://www.inkscape.org/) -->

<svg
   width="134.25841mm"
   height="35.449139mm"
   viewBox="0 0 134.25841 35.44914"
   version="1.1"
   id="svg5"
   xml:space="preserve"
   sodipodi:docname="logo_light.svg"
   inkscape:version="1.3.2 (091e20e, 2023-11-25, custom)"
   inkscape:export-filename="fosscomm_logo_filled.pdf"
   inkscape:export-xdpi="500"
   inkscape:export-ydpi="500"
   xmlns:inkscape="http://www.inkscape.org/namespaces/inkscape"
   xmlns:sodipodi="http://sodipodi.sourceforge.net/DTD/sodipodi-0.dtd"
   xmlns="http://www.w3.org/2000/svg"
   xmlns:svg="http://www.w3.org/2000/svg"><sodipodi:namedview
     id="namedview7"
     pagecolor="#ffffff"
     bordercolor="#000000"
     borderopacity="0.25"
     inkscape:showpageshadow="2"
     inkscape:pageopacity="0.0"
     inkscape:pagecheckerboard="0"
     inkscape:deskcolor="#d1d1d1"
     inkscape:document-units="mm"
     showgrid="false"
     inkscape:zoom="1"
     inkscape:cx="276.5"
     inkscape:cy="51.5"
     inkscape:window-width="1920"
     inkscape:window-height="991"
     inkscape:window-x="-9"
     inkscape:window-y="-9"
     inkscape:window-maximized="1"
     inkscape:current-layer="layer1" /><defs
     id="defs2" /><g
     inkscape:label="Layer 1"
     inkscape:groupmode="layer"
     id="layer1"
     transform="translate(-3074.3838,-223.41123)"><path
       style="fill:#ea95ff;fill-opacity:1;stroke-width:0.133416"
       d="m 3171.6643,256.37212 v -2.25673 h 0.4021 c 0.3577,0 0.4024,-0.0442 0.4024,-0.39824 0,-0.35402 0.043,-0.39828 0.4022,-0.39828 0.3577,0 0.4022,-0.0442 0.4022,-0.39826 v -0.39822 h 1.9442 1.9444 v -0.39826 c 0,-0.35403 0.046,-0.39826 0.4022,-0.39826 h 0.4022 v -0.79649 -0.79651 h -0.4022 c -0.3574,0 -0.4022,-0.0442 -0.4022,-0.39825 v -0.39824 h -1.6088 -1.6096 v 0.39824 c 0,0.354 -0.046,0.39825 -0.4022,0.39825 -0.3393,0 -0.402,0.0516 -0.402,0.33186 0,0.31381 -0.041,0.33189 -0.7375,0.33189 h -0.7374 v -0.66375 c 0,-0.649 0,-0.66375 0.4021,-0.66375 0.3577,0 0.4024,-0.0442 0.4024,-0.39827 0,-0.35398 0.043,-0.39823 0.4022,-0.39823 0.3577,0 0.4022,-0.0442 0.4022,-0.39823 v -0.39828 h 2.2798 2.2791 v 0.39828 c 0,0.35397 0.043,0.39823 0.4024,0.39823 0.3574,0 0.4022,0.0442 0.4022,0.39826 0,0.35399 0.046,0.39824 0.4022,0.39824 h 0.4023 v 1.46026 1.46025 h -0.4023 c -0.3574,0 -0.4022,0.0442 -0.4022,0.39821 0,0.35405 -0.046,0.39828 -0.4022,0.39828 -0.3576,0 -0.4024,0.0442 -0.4024,0.39826 v 0.39823 h -1.9441 -1.9446 v 0.39828 c 0,0.35398 -0.046,0.39821 -0.4022,0.39821 h -0.402 v 1.19476 1.19475 h 3.151 3.151 v 0.73014 0.73011 h -3.8882 -3.8887 z m 10.9949,1.85848 c 0,-0.35397 -0.046,-0.39823 -0.4022,-0.39823 -0.3574,0 -0.4022,-0.0442 -0.4022,-0.39826 0,-0.35399 -0.046,-0.39822 -0.4022,-0.39822 h -0.4024 v -3.78339 -3.78338 h 0.4024 c 0.3574,0 0.4022,-0.0442 0.4022,-0.39824 0,-0.35401 0.043,-0.39826 0.4022,-0.39826 0.3577,0 0.4022,-0.0442 0.4022,-0.39823 v -0.39828 h 2.2706 2.2708 l 0.043,0.36509 c 0.035,0.28442 0.1229,0.37413 0.403,0.40627 0.2788,0.032 0.37,0.12231 0.4024,0.39826 0.033,0.27815 0.1229,0.36628 0.4104,0.39902 l 0.3685,0.042 v 3.76571 3.76578 l -0.3685,0.042 c -0.2875,0.0331 -0.3782,0.12094 -0.4104,0.39907 -0.032,0.27587 -0.1228,0.36637 -0.4024,0.3982 -0.2809,0.0322 -0.37,0.12204 -0.403,0.40628 l -0.043,0.36506 h -2.2708 -2.2706 z m 3.8886,-1.46023 c 0,-0.35402 0.046,-0.39825 0.4021,-0.39825 h 0.4022 v -1.99123 -1.99126 h -0.4022 c -0.3574,0 -0.4021,0.0442 -0.4021,0.39821 0,0.35405 -0.046,0.39828 -0.4022,0.39828 -0.3576,0 -0.4025,0.0442 -0.4025,0.39826 0,0.35397 -0.046,0.39823 -0.4021,0.39823 -0.3574,0 -0.4024,0.0442 -0.4024,0.39828 0,0.35398 -0.046,0.39821 -0.4022,0.39821 -0.3576,0 -0.4022,0.0442 -0.4022,0.39825 v 0.39829 h -0.8042 -0.8049 v 0.39822 c 0,0.354 0.046,0.39826 0.4024,0.39826 0.3574,0 0.4025,0.0442 0.4025,0.39825 v 0.39824 h 1.6086 1.6092 z m -3.0838,-3.05322 c 0,-0.35402 0.046,-0.39828 0.4019,-0.39828 0.3577,0 0.4025,-0.0442 0.4025,-0.39826 0,-0.354 0.046,-0.39822 0.402,-0.39822 0.3555,0 0.4025,-0.0453 0.4025,-0.38945 0,-0.32617 0.06,-0.39626 0.3685,-0.43143 0.2898,-0.0333 0.3779,-0.1204 0.4113,-0.40704 0.041,-0.34835 0.074,-0.36509 0.771,-0.36509 0.7202,0 0.7284,-0.003 0.7284,-0.39828 0,-0.35397 -0.046,-0.39823 -0.4019,-0.39823 -0.3577,0 -0.4024,-0.0442 -0.4024,-0.39825 v -0.39824 h -1.6092 -1.6086 v 0.39824 c 0,0.354 -0.046,0.39825 -0.4025,0.39825 h -0.4024 v 1.90274 c 0,1.04652 0.041,1.94258 0.087,1.99126 0.052,0.0486 0.2594,0.0884 0.4693,0.0884 0.3328,0 0.38,-0.0491 0.38,-0.39823 z m 7.1063,2.66379 v -2.24795 l 0.3688,-0.042 c 0.2894,-0.0331 0.3778,-0.12041 0.4111,-0.40708 0.036,-0.28673 0.112,-0.36505 0.3686,-0.36505 0.2731,0 0.3265,-0.0649 0.3265,-0.39472 v -0.3947 l 1.9778,-0.0366 1.9774,-0.0366 0.043,-0.36505 c 0.036,-0.28672 0.1119,-0.36505 0.3686,-0.36505 0.3097,0 0.3266,-0.0413 0.3266,-0.79652 0,-0.7611 -0.028,-0.79648 -0.3353,-0.79648 -0.2832,0 -0.3353,-0.0617 -0.3353,-0.39825 v -0.39827 h -1.676 -1.6761 v 0.39827 c 0,0.3363 -0.051,0.39825 -0.3353,0.39825 -0.2676,0 -0.335,0.0663 -0.335,0.33189 0,0.31374 -0.041,0.33184 -0.7377,0.33184 h -0.7373 v -0.65495 c 0,-0.61577 0.028,-0.6574 0.3688,-0.69693 0.2893,-0.0331 0.3778,-0.12041 0.4111,-0.40708 0.036,-0.2867 0.112,-0.36503 0.3686,-0.36503 0.2733,0 0.3265,-0.0647 0.3265,-0.39823 v -0.39829 h 2.3464 2.3466 v 0.39829 c 0,0.33339 0.054,0.39823 0.3263,0.39823 0.2566,0 0.3356,0.0784 0.3685,0.36503 0.036,0.28676 0.1229,0.37409 0.4115,0.40708 l 0.3686,0.042 v 1.44262 1.44262 l -0.3686,0.042 c -0.2897,0.0331 -0.3778,0.12042 -0.4115,0.40708 -0.035,0.28673 -0.1119,0.36505 -0.3685,0.36505 -0.2733,0 -0.3263,0.0647 -0.3263,0.39826 v 0.39826 h -2.0114 -2.0113 v 0.39826 c 0,0.33628 -0.051,0.39823 -0.3353,0.39823 -0.3328,0 -0.335,0.011 -0.335,1.19476 v 1.19471 h 3.0837 3.0842 v 0.73015 0.73011 h -3.8215 -3.8214 z m 14.0788,0.7213 v -1.5266 h -2.3464 -2.3466 v -1.52663 -1.52662 h 0.4024 c 0.3555,0 0.4022,-0.0453 0.4022,-0.38945 0,-0.32617 0.06,-0.39626 0.3691,-0.43143 0.2894,-0.0333 0.3776,-0.1204 0.4109,-0.40704 0.035,-0.28674 0.112,-0.36509 0.3689,-0.36509 0.273,0 0.3262,-0.0647 0.3262,-0.39828 0,-0.35397 0.043,-0.39823 0.4022,-0.39823 0.3396,0 0.4021,-0.0516 0.4021,-0.33186 0,-0.28029 0.063,-0.33189 0.4024,-0.33189 0.3577,0 0.4023,-0.0442 0.4023,-0.39824 0,-0.35401 0.046,-0.39826 0.4022,-0.39826 0.3576,0 0.4021,-0.0442 0.4021,-0.39823 0,-0.39422 0,-0.39828 0.7377,-0.39828 h 0.7374 v 3.11964 3.11964 h 0.7375 0.7374 v 0.7301 0.73015 h -0.7374 -0.7375 v 1.5266 1.52662 h -0.7374 -0.7377 z m -0.03,-4.61309 -0.038,-1.62617 h -0.4018 c -0.3372,0 -0.4093,0.0579 -0.4444,0.35703 -0.033,0.27592 -0.1227,0.36639 -0.4018,0.39826 -0.2812,0.0325 -0.3702,0.12204 -0.4032,0.40632 -0.035,0.28672 -0.112,0.36504 -0.3689,0.36504 -0.273,0 -0.3262,0.0647 -0.3262,0.39821 0,0.35405 -0.046,0.39828 -0.4022,0.39828 -0.3705,0 -0.4022,0.0368 -0.4022,0.46463 v 0.46464 h 1.6133 1.613 z m -126.4859,-9.16707 c -1.2052,-0.57002 -2.0094,-1.89054 -2.4977,-4.09972 -0.3513,-1.58882 -0.505,-7.48023 -0.2484,-9.50136 0.3773,-2.9684 1.3485,-4.7524 3.0103,-5.53081 1.3947,-0.65302 4.1112,-0.7024 5.4823,-0.0996 0.7276,0.31973 1.5259,1.20154 1.6417,1.81371 0.1555,0.82045 -9e-4,1.84369 -0.3798,2.48362 l -0.3522,0.59537 -0.9118,-0.19139 c -1.5637,-0.32772 -3.6061,0.14307 -5.155,1.18834 -0.6075,0.40976 -0.8437,0.77098 -0.5041,0.77098 0.079,0 0.639,-0.23834 1.2405,-0.52986 2.2352,-1.08356 4.6014,-0.99545 5.7451,0.21405 1.2794,1.35249 1.0517,4.1508 -0.4237,5.20896 -0.9616,0.68961 -2.7379,0.86523 -4.8977,0.48425 -0.6705,-0.11822 -1.1192,-0.14224 -1.1981,-0.0639 -0.1993,0.19685 -0.039,0.27345 1.2915,0.614 1.3279,0.34031 1.3787,0.3771 2.1735,1.5731 0.5706,0.85835 0.7931,1.55051 0.7901,2.45588 0,0.85838 -0.2566,1.51364 -0.791,2.03679 -0.6218,0.61018 -1.113,0.79386 -2.2674,0.84756 -0.921,0.0428 -1.1683,0.003 -1.7484,-0.27001 z m 14.4198,0.0555 c -2.6834,-0.85982 -4.5274,-2.87548 -5.3577,-5.8559 -0.4341,-1.55859 -0.6162,-3.8517 -0.4343,-5.47415 0.2047,-1.84773 0.4559,-2.73688 1.1693,-4.17729 1.0222,-2.06281 2.6685,-3.43318 4.7716,-3.97175 1.1171,-0.28601 3.1436,-0.28601 4.2605,0 2.0779,0.53206 3.8528,1.98412 4.8292,3.95071 0.9291,1.87161 1.1279,2.85449 1.1368,5.62363 0,2.05566 -0.035,2.55644 -0.2951,3.58425 -0.8253,3.25917 -2.8599,5.6027 -5.4902,6.32482 -1.2054,0.33094 -3.551,0.32874 -4.5901,-0.003 z m 6.1474,-9.41759 c 0.7017,-0.14989 1.0931,-0.4738 0.8559,-0.70856 -0.1228,-0.12067 -0.4452,-0.1021 -1.402,0.0802 -1.6069,0.30637 -4.3489,0.31074 -6.4432,0.011 -1.4978,-0.21487 -1.9767,-0.20804 -1.972,0.0273 0,0.61383 1.6088,0.84023 5.4284,0.76967 1.6223,-0.03 3.2121,-0.11057 3.5329,-0.17855 z m 8.5346,9.42496 c -2.0635,-0.6123 -3.1948,-1.65745 -3.6347,-3.35682 -0.5288,-2.04337 0.439,-3.90312 2.3116,-4.44211 1.268,-0.36492 3.2614,-0.21596 4.9869,0.37259 1.1597,0.3956 1.3967,0.44006 1.4611,0.27411 0.099,-0.25363 -0.057,-0.34539 -1.4172,-0.83484 -1.4675,-0.5283 -3.3495,-0.84787 -4.3408,-0.73722 -0.7601,0.0849 -0.7727,0.0808 -1.3763,-0.47029 -0.3743,-0.34134 -0.7991,-0.93683 -1.1019,-1.54259 -0.4625,-0.92652 -0.496,-1.0796 -0.5515,-2.51318 -0.071,-1.86706 0.1666,-2.88965 0.9441,-4.04214 1.0752,-1.59415 2.7682,-2.39008 5.1326,-2.41274 2.111,-0.0218 3.6945,0.48811 4.7857,1.53632 0.8267,0.79449 1.1133,1.53656 1.1122,2.88043 -8e-4,1.02118 -0.046,1.22294 -0.4832,2.124 -0.2648,0.54757 -0.5965,1.13323 -0.7363,1.30138 l -0.2539,0.30576 -0.6375,-0.27909 c -1.0293,-0.45081 -2.567,-0.69598 -3.8143,-0.60826 -1.0839,0.0762 -3.1707,0.62634 -3.3271,0.87732 -0.1939,0.31106 0.1283,0.34759 0.907,0.10239 1.1897,-0.37467 3.4022,-0.46979 4.4904,-0.19303 1.652,0.42008 2.9553,1.3137 3.7708,2.5856 0.5891,0.9186 0.8244,1.87317 0.8209,3.33266 0,2.72402 -1.2931,4.64672 -3.7546,5.60871 -1.0403,0.40663 -4.1083,0.48253 -5.2935,0.13077 z m 13.8367,0.051 c -2.5155,-0.71256 -3.8967,-2.29352 -3.8967,-4.46027 0,-1.22439 0.3421,-2.02331 1.1639,-2.71984 0.8045,-0.68181 1.6962,-0.89829 3.4274,-0.83206 1.198,0.0459 1.6437,0.12969 2.7983,0.52691 1.1404,0.39244 1.3989,0.4418 1.5248,0.29141 0.1201,-0.14523 0,-0.24407 -0.5745,-0.49898 -1.7415,-0.7625 -4.0443,-1.23352 -5.2824,-1.08038 -0.6522,0.0808 -0.7342,0.0578 -1.1759,-0.32599 -1.201,-1.04406 -1.8341,-2.62292 -1.8289,-4.56189 0,-1.41249 0.1501,-2.14425 0.611,-3.0523 0.6744,-1.32939 1.8287,-2.3064 3.2514,-2.7521 1.0308,-0.32297 3.2648,-0.39141 4.3653,-0.13379 3.6451,0.85355 4.8898,4.06881 2.8176,7.2764 -0.3651,0.56489 -0.5182,0.70194 -0.6965,0.62389 -1.4189,-0.62091 -2.1361,-0.76878 -3.7147,-0.76594 -1.3799,0.003 -1.7659,0.0538 -2.7097,0.36029 -0.6056,0.19657 -1.1405,0.42039 -1.1885,0.49752 -0.1966,0.31469 0.1856,0.35495 0.9484,0.10019 1.0247,-0.34274 3.2021,-0.47333 4.259,-0.25554 1.9247,0.39703 3.7941,1.84699 4.3802,3.39795 1.0529,2.7864 0.2321,5.99033 -1.9031,7.44139 -1.2137,0.82422 -1.9666,1.02226 -4.0544,1.06625 -1.3007,0.0273 -2.0756,-0.0164 -2.522,-0.14306 z m 15.4086,-0.011 c -2.5279,-0.68721 -4.551,-2.68538 -5.4402,-5.37346 -0.4863,-1.47074 -0.7108,-3.32458 -0.6264,-5.17722 0.1421,-3.11417 1.0111,-5.4399 2.6293,-7.03576 1.3397,-1.32077 2.5587,-1.88185 4.617,-2.12479 2.9273,-0.34542 5.5134,0.93142 6.4002,3.16004 0.3977,0.99927 0.4251,3.01178 0.06,4.24634 -0.1365,0.45896 -0.285,0.81423 -0.3298,0.7895 -2.2387,-1.23476 -5.5182,-1.1671 -8.1944,0.169 -0.8677,0.43312 -2.3644,1.52025 -2.5397,1.84458 -0.065,0.12451 -0.076,0.30459 -0.028,0.40007 0.079,0.12968 0.3,0.0191 0.8684,-0.43962 1.3629,-1.09907 2.909,-1.72943 4.7498,-1.9365 3.4125,-0.38386 6.0378,1.17985 6.7859,4.04144 0.8726,3.33859 -1.0561,6.56641 -4.4451,7.44043 -0.9574,0.2468 -3.6042,0.24462 -4.5188,-0.003 z m 15.3737,0.003 c -3.007,-0.83354 -5.0963,-3.42567 -5.7472,-7.12953 -0.3058,-1.73961 -0.1994,-5.07656 0.2075,-6.47927 0.5032,-1.73389 1.1543,-2.87593 2.2783,-3.99516 1.5862,-1.57964 3.0889,-2.15914 5.5713,-2.14859 2.2696,0.011 4.0759,0.78125 5.5646,2.3768 0.9052,0.97005 1.478,2.01124 1.9645,3.57137 0.3549,1.13817 0.3713,1.31231 0.3699,3.91257 0,2.39188 -0.038,2.84804 -0.2951,3.7672 -0.8272,2.94393 -2.5517,5.01245 -4.9433,5.93062 -1.0143,0.38927 -3.8657,0.50054 -4.9715,0.19385 z m 5.206,-9.37756 c 1.4208,-0.18838 1.731,-0.30367 1.731,-0.64373 0,-0.32713 -0.1392,-0.33262 -1.542,-0.0609 -1.4063,0.27248 -4.5348,0.27276 -6.3592,7.1e-4 -0.7688,-0.11467 -1.5079,-0.20858 -1.6425,-0.20858 -0.3555,0 -0.312,0.50729 0.057,0.66778 0.8384,0.36431 5.6971,0.51765 7.7553,0.2449 z m 9.0217,9.18201 c -1.231,-0.69917 -2.0948,-2.14374 -2.6258,-4.39291 -0.2621,-1.10626 -0.2965,-1.62305 -0.2968,-4.37407 -3e-4,-2.43257 0.052,-3.38279 0.2348,-4.31439 0.7967,-4.04458 2.3122,-6.01851 4.9368,-6.42955 1.688,-0.26429 3.164,0.17418 4.0546,1.204 0.7001,0.80997 1.0798,1.93141 1.4871,4.39589 0.054,0.33261 0.1529,0.49778 0.2957,0.49778 0.1857,0 0.1993,-0.1469 0.1201,-1.13373 -0.052,-0.62359 -0.202,-1.56444 -0.3405,-2.09083 l -0.2484,-0.95704 0.6709,-0.64401 c 0.7896,-0.7578 1.5655,-1.12788 2.7016,-1.28871 4.889,-0.69196 8.1272,4.43784 7.8305,12.40382 -0.1119,3.02147 -0.7696,5.09182 -2.0447,6.44123 -0.8485,0.89805 -1.4839,1.12651 -2.9126,1.04777 -1.3269,-0.0729 -2.5934,-0.53457 -2.4367,-0.88784 0.3006,-0.67805 0.593,-1.66313 0.7159,-2.41118 0.1993,-1.22109 0.172,-4.26402 -0.06,-6.41884 -0.3547,-3.30899 -0.3989,-3.50314 -0.7639,-3.36439 -0.1611,0.0609 -0.1611,0.28897 0,1.57918 0.2768,2.25085 0.2703,6.69844 0,7.94632 -0.3391,1.50421 -0.9657,2.62954 -1.7552,3.15282 -0.5865,0.38878 -0.7481,0.43145 -1.6328,0.43145 -1.0497,0 -1.4156,-0.0966 -2.2941,-0.60405 l -0.5576,-0.32215 0.2622,-0.68282 c 0.6893,-1.79553 0.7977,-4.93214 0.3167,-9.14376 -0.2649,-2.32666 -0.2824,-2.38952 -0.6163,-2.38952 -0.2293,0 -0.2648,0.0617 -0.2048,0.36509 0.3837,1.9466 0.5212,7.26442 0.2266,8.78848 -0.3657,1.89428 -1.0186,3.12129 -1.9487,3.66089 -0.8516,0.49411 -2.17,0.46654 -3.106,-0.0649 z m 23.0539,0.12395 c -2.2218,-1.11629 -3.4498,-5.00606 -3.1838,-10.08571 0.3377,-6.4465 2.2969,-9.56737 6.0255,-9.59776 2.4605,-0.0191 3.6735,0.99697 4.3689,3.66335 0.1365,0.52598 0.2892,1.29978 0.3378,1.71963 0.063,0.55562 0.1447,0.76329 0.2916,0.76329 0.1747,0 0.1911,-0.18786 0.1283,-1.24406 -0.041,-0.68419 -0.1802,-1.61374 -0.3077,-2.06568 l -0.2321,-0.82158 0.5897,-0.60051 c 0.7531,-0.76656 1.6043,-1.19581 2.7223,-1.37264 2.6644,-0.42138 5.0523,1.02037 6.4338,3.88445 1.05,2.17734 1.4571,4.33737 1.456,7.72914 -6e-4,2.53111 -0.3028,4.22659 -1.0146,5.69037 -0.9244,1.90232 -1.898,2.60651 -3.6044,2.60651 -0.94,0 -2.3892,-0.34811 -2.6904,-0.64621 -0.063,-0.0598 0.041,-0.55184 0.224,-1.09291 0.6945,-2.04878 0.7433,-5.23444 0.1501,-9.71317 -0.2048,-1.55876 -0.2512,-1.68999 -0.5608,-1.68999 -0.1747,0 -0.1938,0.11851 -0.1229,0.69695 0.2403,1.9754 0.3408,3.5496 0.3394,5.40957 0,3.11503 -0.4306,4.94968 -1.426,6.10112 -0.6342,0.73331 -1.1417,0.93464 -2.3566,0.93464 -0.7853,0 -1.1217,-0.068 -1.6694,-0.33831 -0.9602,-0.4738 -1.0188,-0.57119 -0.7661,-1.26919 0.7454,-2.05542 0.7888,-6.30021 0.1093,-10.84837 -0.074,-0.51047 -0.3452,-0.83891 -0.5338,-0.65202 -0.038,0.0369 0.033,1.10464 0.1556,2.37269 0.153,1.58745 0.1993,2.96714 0.153,4.42958 -0.1065,3.21397 -0.6269,4.82609 -1.882,5.82761 -0.4598,0.36658 -0.6252,0.41505 -1.5423,0.45119 -0.8371,0.0331 -1.1311,-0.011 -1.5896,-0.24216 z"
       id="path4498"
       inkscape:export-filename="logo.png"
       inkscape:export-xdpi="500"
       inkscape:export-ydpi="500" /></g></svg>
