<?xml version="1.0" encoding="UTF-8" standalone="no"?>
<!-- Created with Inkscape (http://www.inkscape.org/) -->

<svg
   width="297mm"
   height="210mm"
   viewBox="0 0 297 210"
   version="1.1"
   id="svg1"
   inkscape:version="1.3.2 (091e20e, 2023-11-25, custom)"
   sodipodi:docname="right_side.svg"
   inkscape:export-filename="fosscomm_2024_lanyard_monochrome.pdf"
   inkscape:export-xdpi="96"
   inkscape:export-ydpi="96"
   xmlns:inkscape="http://www.inkscape.org/namespaces/inkscape"
   xmlns:sodipodi="http://sodipodi.sourceforge.net/DTD/sodipodi-0.dtd"
   xmlns="http://www.w3.org/2000/svg"
   xmlns:svg="http://www.w3.org/2000/svg">
  <sodipodi:namedview
     id="namedview1"
     pagecolor="#ffffff"
     bordercolor="#000000"
     borderopacity="0.25"
     inkscape:showpageshadow="2"
     inkscape:pageopacity="0.0"
     inkscape:pagecheckerboard="0"
     inkscape:deskcolor="#d1d1d1"
     inkscape:document-units="mm"
     inkscape:zoom="0.48945419"
     inkscape:cx="789.65511"
     inkscape:cy="475.01892"
     inkscape:window-width="1920"
     inkscape:window-height="991"
     inkscape:window-x="-9"
     inkscape:window-y="-9"
     inkscape:window-maximized="1"
     inkscape:current-layer="layer1" />
  <defs
     id="defs1">
    <clipPath
       clipPathUnits="userSpaceOnUse"
       id="clipPath450">
      <g
         id="g451"
         transform="rotate(12.463229)">
        <path
           style="font-variation-settings:'wdth' 87;opacity:0.483412;fill:#1c072e;fill-opacity:1;stroke:#fd9a00;stroke-width:0.499999;stroke-linecap:round;stroke-linejoin:round;stroke-dasharray:none;stroke-opacity:1"
           d="m 337.1841,155.16527 -11.02528,16.92037 35.23199,159.36107 7.16081,-34.36051 z"
           id="path451" />
      </g>
    </clipPath>
    <clipPath
       clipPathUnits="userSpaceOnUse"
       id="clipPath449">
      <g
         id="g450"
         transform="rotate(12.463229)">
        <path
           style="font-variation-settings:'wdth' 87;opacity:0.483412;fill:#1c072e;fill-opacity:1;stroke:#fd9a00;stroke-width:0.499999;stroke-linecap:round;stroke-linejoin:round;stroke-dasharray:none;stroke-opacity:1"
           d="m 337.1841,155.16527 -11.02528,16.92037 35.23199,159.36107 7.16081,-34.36051 z"
           id="path450" />
      </g>
    </clipPath>
    <clipPath
       clipPathUnits="userSpaceOnUse"
       id="clipPath446">
      <g
         id="g447">
        <path
           style="font-variation-settings:'wdth' 87;opacity:0.483412;fill:#1c072e;fill-opacity:1;stroke:#fd9a00;stroke-width:0.499999;stroke-linecap:round;stroke-linejoin:round;stroke-dasharray:none;stroke-opacity:1"
           d="m 337.1841,155.16527 -11.02528,16.92037 35.23199,159.36107 7.16081,-34.36051 z"
           id="path447" />
      </g>
    </clipPath>
    <clipPath
       clipPathUnits="userSpaceOnUse"
       id="clipPath445">
      <g
         id="g446">
        <path
           style="font-variation-settings:'wdth' 87;opacity:0.483412;fill:#1c072e;fill-opacity:1;stroke:#fd9a00;stroke-width:0.499999;stroke-linecap:round;stroke-linejoin:round;stroke-dasharray:none;stroke-opacity:1"
           d="m 337.1841,155.16527 -11.02528,16.92037 35.23199,159.36107 7.16081,-34.36051 z"
           id="path446" />
      </g>
    </clipPath>
    <clipPath
       clipPathUnits="userSpaceOnUse"
       id="clipPath444">
      <g
         id="g445">
        <path
           style="font-variation-settings:'wdth' 87;opacity:0.483412;fill:#1c072e;fill-opacity:1;stroke:#fd9a00;stroke-width:0.499999;stroke-linecap:round;stroke-linejoin:round;stroke-dasharray:none;stroke-opacity:1"
           d="m 337.1841,155.16527 -11.02528,16.92037 35.23199,159.36107 7.16081,-34.36051 z"
           id="path445" />
      </g>
    </clipPath>
    <clipPath
       clipPathUnits="userSpaceOnUse"
       id="clipPath443">
      <g
         id="g444">
        <path
           style="font-variation-settings:'wdth' 87;opacity:0.483412;fill:#1c072e;fill-opacity:1;stroke:#fd9a00;stroke-width:0.499999;stroke-linecap:round;stroke-linejoin:round;stroke-dasharray:none;stroke-opacity:1"
           d="m 337.1841,155.16527 -11.02528,16.92037 35.23199,159.36107 7.16081,-34.36051 z"
           id="path444" />
      </g>
    </clipPath>
    <clipPath
       clipPathUnits="userSpaceOnUse"
       id="clipPath442">
      <g
         id="g443">
        <path
           style="font-variation-settings:'wdth' 87;opacity:0.483412;fill:#1c072e;fill-opacity:1;stroke:#fd9a00;stroke-width:0.499999;stroke-linecap:round;stroke-linejoin:round;stroke-dasharray:none;stroke-opacity:1"
           d="m 337.1841,155.16527 -11.02528,16.92037 35.23199,159.36107 7.16081,-34.36051 z"
           id="path443" />
      </g>
    </clipPath>
    <clipPath
       clipPathUnits="userSpaceOnUse"
       id="clipPath459">
      <g
         id="g460"
         transform="rotate(-11.848405)">
        <path
           style="font-variation-settings:'wdth' 87;opacity:1;fill:#2f0b4c;fill-opacity:1;stroke:none;stroke-width:0.499999;stroke-linecap:round;stroke-linejoin:round"
           d="M 409.52979,168.97143 398.36276,155.2159 361.39088,331.44632 h 14.05038 z"
           id="path459" />
      </g>
    </clipPath>
    <clipPath
       clipPathUnits="userSpaceOnUse"
       id="clipPath458">
      <g
         id="g459">
        <path
           style="font-variation-settings:'wdth' 87;opacity:1;fill:#2f0b4c;fill-opacity:1;stroke:none;stroke-width:0.499999;stroke-linecap:round;stroke-linejoin:round"
           d="M 409.52979,168.97143 398.36276,155.2159 361.39088,331.44632 h 14.05038 z"
           id="path458" />
      </g>
    </clipPath>
    <clipPath
       clipPathUnits="userSpaceOnUse"
       id="clipPath457">
      <g
         id="g458">
        <path
           style="font-variation-settings:'wdth' 87;opacity:1;fill:#2f0b4c;fill-opacity:1;stroke:none;stroke-width:0.499999;stroke-linecap:round;stroke-linejoin:round"
           d="M 409.52979,168.97143 398.36276,155.2159 361.39088,331.44632 h 14.05038 z"
           id="path457" />
      </g>
    </clipPath>
    <clipPath
       clipPathUnits="userSpaceOnUse"
       id="clipPath456">
      <g
         id="g457">
        <path
           style="font-variation-settings:'wdth' 87;opacity:1;fill:#2f0b4c;fill-opacity:1;stroke:none;stroke-width:0.499999;stroke-linecap:round;stroke-linejoin:round"
           d="M 409.52979,168.97143 398.36276,155.2159 361.39088,331.44632 h 14.05038 z"
           id="path456" />
      </g>
    </clipPath>
    <clipPath
       clipPathUnits="userSpaceOnUse"
       id="clipPath455">
      <g
         id="g456">
        <path
           style="font-variation-settings:'wdth' 87;opacity:1;fill:#2f0b4c;fill-opacity:1;stroke:none;stroke-width:0.499999;stroke-linecap:round;stroke-linejoin:round"
           d="M 409.52979,168.97143 398.36276,155.2159 361.39088,331.44632 h 14.05038 z"
           id="path455" />
      </g>
    </clipPath>
    <clipPath
       clipPathUnits="userSpaceOnUse"
       id="clipPath1">
      <g
         id="g1">
        <path
           style="font-variation-settings:'wdth' 87;opacity:0.483412;fill:#1c072e;fill-opacity:1;stroke:#fd9a00;stroke-width:0.499999;stroke-linecap:round;stroke-linejoin:round;stroke-dasharray:none;stroke-opacity:1"
           d="m 337.1841,155.16527 -11.02528,16.92037 35.23199,159.36107 7.16081,-34.36051 z"
           id="path1" />
      </g>
    </clipPath>
    <clipPath
       clipPathUnits="userSpaceOnUse"
       id="clipPath2">
      <g
         id="g2"
         transform="rotate(-11.848405)">
        <path
           style="font-variation-settings:'wdth' 87;opacity:1;fill:#2f0b4c;fill-opacity:1;stroke:none;stroke-width:0.499999;stroke-linecap:round;stroke-linejoin:round"
           d="M 409.52979,168.97143 398.36276,155.2159 361.39088,331.44632 h 14.05038 z"
           id="path2" />
      </g>
    </clipPath>
  </defs>
  <g
     inkscape:label="Layer 1"
     inkscape:groupmode="layer"
     id="layer1">
    <g
       id="g10"
       transform="matrix(0,-1.5669408,1.5669408,0,-5.1179828,1437.4024)">
      <path
         id="rect297"
         style="font-variation-settings:'wdth' 87;fill:#350d56;stroke-width:5.6642"
         d="m 843.71283,8.3664513 h 13.21604 V 187.7073 h -13.21604 z" />
      <g
         id="g9">
        <path
           class="st0"
           d="m 851.406,53.917514 c -0.1641,0 -0.29644,0.01588 -0.39172,0.04764 -0.0953,0.03705 -0.20115,0.0794 -0.31761,0.137631 -0.0371,0.02117 -0.0688,0.03176 -0.10057,0.03176 -0.0318,0 -0.09,-0.02647 -0.13234,-0.0847 l -0.18527,-0.275261 c -0.0265,-0.03706 -0.0424,-0.0794 -0.0424,-0.111164 0,-0.03176 0.0212,-0.08999 0.0635,-0.132337 0.0688,-0.06352 0.13763,-0.111163 0.20645,-0.158804 0.0741,-0.04235 0.1588,-0.08999 0.25938,-0.137631 -0.4076,-0.338783 -0.60875,-0.767556 -0.60875,-1.286318 0,-0.518762 0.10587,-0.661686 0.31761,-0.873425 0.21174,-0.21174 0.49229,-0.322903 0.84695,-0.322903 0.35467,0 0.67757,0.132337 0.91048,0.397012 0.23292,0.264674 0.34408,0.619338 0.34408,1.069284 0,0.449947 -0.0106,0.301729 -0.0371,0.465827 -0.0265,0.164098 -0.0582,0.328196 -0.0953,0.502881 h 0.32291 c 0.33349,0 0.57169,-0.06882 0.70403,-0.206446 0.13763,-0.13763 0.20115,-0.375837 0.20115,-0.71462 0,-0.338784 -0.0159,-0.312316 -0.0582,-0.471121 -0.0423,-0.164098 -0.09,-0.317609 -0.14821,-0.47112 -0.0318,-0.06882 -0.0476,-0.121751 -0.0582,-0.153511 -0.0106,-0.03176 -0.0106,-0.05294 -0.0106,-0.06882 0,-0.06352 0.0424,-0.08999 0.13763,-0.08999 h 0.21704 c 0.0688,0 0.12175,0.01059 0.15351,0.03176 0.0318,0.02117 0.0635,0.06352 0.0953,0.12175 0.0794,0.153511 0.14822,0.338783 0.20115,0.550523 0.0582,0.211739 0.0847,0.439359 0.0847,0.68286 0,0.518762 -0.12175,0.899893 -0.35996,1.143393 -0.23821,0.238207 -0.59816,0.365251 -1.08516,0.365251 h -1.42925 v 0.01059 z m -0.66698,-1.778612 c 0,0.142924 0.0265,0.291142 0.0794,0.449946 0.0529,0.158805 0.14822,0.296436 0.28056,0.412892 0.0847,0.06882 0.17468,0.121751 0.28055,0.148218 0.10587,0.02647 0.23292,0.04235 0.38643,0.04235 h 0.18527 c 0.0318,-0.127044 0.0582,-0.264674 0.0741,-0.402305 0.0159,-0.137631 0.0265,-0.275262 0.0265,-0.412892 0,-0.291142 -0.0582,-0.508175 -0.17469,-0.651099 -0.11646,-0.142924 -0.28585,-0.21174 -0.50817,-0.21174 -0.22233,0 -0.35996,0.05293 -0.46583,0.164098 -0.11116,0.10587 -0.1641,0.259381 -0.1641,0.460534 z m -0.48171,3.514876 c 0,-0.0794 0.0106,-0.132337 0.0424,-0.164098 0.0265,-0.03706 0.09,-0.06352 0.17469,-0.08999 l 3.4143,-1.026936 c 0.09,-0.02647 0.14821,-0.03706 0.17468,-0.03706 0.0688,0 0.11116,0.03706 0.11116,0.10587 v 0.428773 c 0,0.08469 -0.0106,0.13763 -0.0423,0.169391 -0.0265,0.03706 -0.09,0.06352 -0.17469,0.08999 l -2.922,0.735794 2.922,0.68286 c 0.09,0.02117 0.14822,0.04764 0.17469,0.0847 0.0265,0.03705 0.0423,0.09528 0.0423,0.174685 v 0.34937 c 0,0.0847 -0.0106,0.137631 -0.0423,0.174686 -0.0265,0.03705 -0.09,0.06352 -0.17469,0.08469 l -2.95906,0.688154 2.95906,0.756969 c 0.09,0.02647 0.14822,0.05823 0.17469,0.08999 0.0265,0.03705 0.0423,0.08999 0.0423,0.169391 v 0.407599 c 0,0.06882 -0.0371,0.111163 -0.11116,0.111163 -0.0741,0 -0.0423,0 -0.0688,-0.01059 -0.0265,-0.01059 -0.0635,-0.01059 -0.11117,-0.03176 l -3.4143,-1.053404 c -0.09,-0.02647 -0.14821,-0.05823 -0.17468,-0.08999 -0.0265,-0.03176 -0.0423,-0.08999 -0.0423,-0.164098 v -0.375838 c 0,-0.0847 0.0106,-0.13763 0.0423,-0.174685 0.0318,-0.03705 0.09,-0.06352 0.17468,-0.0847 l 2.8479,-0.677566 -2.8426,-0.672273 c -0.09,-0.02117 -0.14822,-0.04764 -0.17469,-0.0847 -0.0318,-0.03705 -0.0424,-0.09528 -0.0424,-0.174685 z m -0.11645,5.616391 c 0,-0.22762 0.0265,-0.45524 0.0794,-0.672273 0.0529,-0.217033 0.11116,-0.391718 0.17468,-0.502882 0.0423,-0.06882 0.0847,-0.116456 0.12175,-0.13763 0.0371,-0.02117 0.0847,-0.02647 0.12175,-0.02647 h 0.22762 c 0.0953,0 0.13763,0.03705 0.13763,0.100576 0,0.06352 0,0.05293 -0.0106,0.0794 -0.0106,0.02647 -0.0265,0.06352 -0.0424,0.111163 -0.0688,0.148218 -0.12175,0.312316 -0.15351,0.481707 -0.0371,0.174685 -0.0529,0.344077 -0.0529,0.518762 0,0.275262 0.0476,0.492295 0.14822,0.640512 0.0953,0.148218 0.23821,0.22762 0.41819,0.22762 0.17998,0 0.22762,-0.03705 0.30702,-0.116456 0.0847,-0.0794 0.1588,-0.22762 0.22762,-0.43936 l 0.20115,-0.635219 c 0.10058,-0.317609 0.25409,-0.555816 0.44995,-0.69874 0.19586,-0.142924 0.41289,-0.217033 0.64051,-0.217033 0.22762,0 0.34937,0.03705 0.4923,0.116457 0.14292,0.0794 0.26467,0.185272 0.35995,0.312316 0.10058,0.132337 0.17469,0.280554 0.22762,0.45524 0.0529,0.174685 0.0741,0.359957 0.0741,0.550522 0,0.190566 0,0.195859 -0.0159,0.291142 -0.0106,0.100576 -0.0318,0.190566 -0.0476,0.285848 -0.0212,0.08999 -0.0424,0.169392 -0.0688,0.248794 -0.0265,0.0794 -0.0529,0.137631 -0.0794,0.185272 -0.0371,0.06352 -0.0688,0.10587 -0.11116,0.132338 -0.0371,0.02647 -0.0847,0.03705 -0.14822,0.03705 h -0.20645 c -0.0953,0 -0.14292,-0.03705 -0.14292,-0.100576 0,-0.06352 0.0159,-0.08999 0.0529,-0.164098 0.11645,-0.248794 0.17468,-0.529349 0.17468,-0.841665 0,-0.312316 -0.0424,-0.444653 -0.12175,-0.582284 -0.0847,-0.13763 -0.21174,-0.206446 -0.39172,-0.206446 -0.17998,0 -0.22762,0.04235 -0.31231,0.132338 -0.0847,0.08999 -0.1694,0.248794 -0.2435,0.481707 l -0.20116,0.619338 c -0.10057,0.312316 -0.2435,0.539936 -0.42348,0.677567 -0.17997,0.13763 -0.38642,0.201152 -0.61933,0.201152 -0.23292,0 -0.35996,-0.03705 -0.51347,-0.111163 -0.14822,-0.0794 -0.28056,-0.185272 -0.38643,-0.317609 -0.11116,-0.137631 -0.19056,-0.296436 -0.24879,-0.487001 -0.0635,-0.195859 -0.0953,-0.402305 -0.0953,-0.624632 v 0 z"
           id="path298"
           style="fill:#ea95ff;fill-opacity:1;stroke-width:0.0529349" />
        <path
           class="st0"
           d="m 847.99699,62.095953 c -1.07457,-1.439829 -1.64098,-3.530757 -1.64098,-5.325249 0,-1.794493 0.94224,-4.790607 2.50382,-6.500403 0.12175,-0.137631 0.29114,-0.01059 0.19586,0.148217 -1.08516,1.852721 -1.74685,4.139508 -1.74685,6.505697 0,2.366189 0.33349,3.350778 1.02694,4.965292 0.11116,0.238207 -0.15881,0.444653 -0.33349,0.211739 v 0 z m 0.68816,0.598164 c 0.2382,-0.185272 0.11645,-1.217502 0.0582,-1.683329 -0.0159,-0.137631 0.10587,-0.164098 0.20115,-0.03705 0.58228,0.820491 0.41289,2.175624 0.22232,2.329135 -0.20115,0.158805 -1.56157,-0.04235 -2.21797,-0.815197 -0.10057,-0.116457 -0.0476,-0.232914 0.0847,-0.179979 0.43936,0.174685 1.42395,0.566403 1.65686,0.381131 v 0 z"
           id="path299"
           style="fill:#ea95ff;fill-opacity:1;stroke-width:0.0529349" />
        <path
           class="st0"
           d="m 852.03593,71.825384 c 0,-0.04764 0.0212,-0.100577 0.0582,-0.137631 l 0.26468,-0.269968 c 0.0371,-0.03705 0.0847,-0.05823 0.13763,-0.05823 h 1.79449 v 0.397011 h -1.77332 c -0.0424,0 -0.0741,0.03705 -0.0741,0.07411 v 2.037993 c 0,0.04235 0.0371,0.07411 0.0741,0.07411 h 1.46101 l -0.96342,-0.963415 0.28056,-0.280555 0.93694,0.936948 c 0.0371,0.03705 0.0582,0.08999 0.0582,0.142924 v 0.481707 c -0.005,0.05293 -0.0529,0.08999 -0.10587,0.08999 H 852.507 c -0.0529,0 -0.10587,-0.02117 -0.14293,-0.05823 l -0.25938,-0.259381 c -0.0371,-0.03705 -0.0582,-0.0847 -0.0582,-0.137631 v -2.069753 z"
           id="path300"
           style="fill:#ea95ff;fill-opacity:1;stroke-width:0.0529349" />
        <path
           class="st0"
           d="m 849.44741,71.825384 c 0,-0.05294 0.0212,-0.100577 0.0582,-0.137631 l 0.25938,-0.259381 c 0.037,-0.03705 0.09,-0.05823 0.14292,-0.05823 h 1.67804 c 0.0582,0 0.10587,0.04764 0.10587,0.105869 v 0.465827 c 0,0.05294 -0.0212,0.100577 -0.0582,0.142925 l -0.5664,0.566403 -0.28056,-0.280555 0.59287,-0.592871 h -1.461 c -0.0424,0 -0.0741,0.03705 -0.0741,0.07411 v 2.037993 c 0,0.04235 0.0371,0.07411 0.0741,0.07411 h 1.77332 v 0.397011 h -1.7892 c -0.0529,0 -0.10058,-0.02117 -0.13763,-0.05823 l -0.26468,-0.269968 c -0.0371,-0.03705 -0.0582,-0.0847 -0.0582,-0.137631 v -2.069753 z"
           id="path301"
           style="fill:#ea95ff;fill-opacity:1;stroke-width:0.0529349" />
        <path
           class="st0"
           d="m 846.8536,71.36485 h 1.78391 c 0.0529,0 0.10587,0.02117 0.14292,0.05823 l 0.25938,0.259381 c 0.0371,0.03705 0.0582,0.08469 0.0582,0.13763 v 1.328666 c 0,0.05293 -0.0212,0.100576 -0.0582,0.142924 l -0.24879,0.248794 c -0.0424,0.04235 -0.11117,0.04235 -0.15351,0 l -1.0587,-1.058698 0.28055,-0.280555 0.83637,0.836371 v -1.201621 c 0,-0.04235 -0.0371,-0.07411 -0.0741,-0.07411 h -1.37102 v 2.588515 h -0.4023 v -2.99082 0 z"
           id="path302"
           style="fill:#ea95ff;fill-opacity:1;stroke-width:0.0529349" />
        <path
           class="st0"
           d="m 852.24766,75.562586 h 2.038 v 0.836371 c 0,0.02117 -0.005,0.04764 -0.0106,0.07411 -0.0159,0.100576 -0.0529,0.190566 -0.11116,0.264675 -0.0582,0.07411 -0.13234,0.127043 -0.21704,0.169391 -0.09,0.03705 -0.17997,0.05823 -0.28584,0.05823 -0.10587,0 -0.20116,-0.02117 -0.28585,-0.05823 -0.09,-0.03705 -0.15881,-0.09528 -0.21704,-0.169391 -0.0582,-0.07411 -0.0953,-0.164099 -0.11116,-0.264675 0,-0.03176 -0.005,-0.05294 -0.0106,-0.07411 v -0.645805 h -0.78343 v -0.190566 z m 0.96871,0.767556 v 0.05823 c 0,0.02117 0.005,0.04235 0.0106,0.06352 0.0159,0.06882 0.0424,0.127044 0.0847,0.174685 0.0423,0.04764 0.0953,0.0847 0.15351,0.10587 0.0635,0.02117 0.12175,0.03705 0.19056,0.03705 0.0688,0 0.12705,-0.01059 0.19057,-0.03705 0.0582,-0.02117 0.11116,-0.05823 0.15351,-0.10587 0.0423,-0.04764 0.0688,-0.105869 0.0847,-0.174685 0.005,-0.02117 0.0106,-0.04235 0.0106,-0.06352 V 75.74786 h -0.88401 v 0.582284 z"
           id="path303"
           style="fill:#ea95ff;fill-opacity:1;stroke-width:0.0529349" />
        <path
           class="st0"
           d="m 852.2159,77.833493 c 0,-0.0847 0.0106,-0.158805 0.0371,-0.22762 0.0212,-0.06882 0.0582,-0.127044 0.10587,-0.174686 0.0423,-0.04764 0.10057,-0.08999 0.1588,-0.12175 0.0635,-0.03176 0.12705,-0.05823 0.20116,-0.06882 0.0741,-0.01588 0.14821,-0.02117 0.22762,-0.02117 h 0.83637 v 0.190566 h -0.79932 c -0.0953,0 -0.17469,0.01059 -0.24879,0.03176 -0.0688,0.01588 -0.13764,0.04764 -0.18528,0.0847 -0.0476,0.03705 -0.09,0.0847 -0.11645,0.137631 -0.0265,0.05823 -0.0371,0.12175 -0.0371,0.201152 0,0.0794 0.0159,0.148218 0.0423,0.206447 0.0265,0.05823 0.0635,0.105869 0.11646,0.142924 0.0476,0.03705 0.11116,0.06352 0.17468,0.0847 0.0688,0.01588 0.14293,0.03176 0.22762,0.03176 h 0.82579 v 0.190566 h -1.53512 v -0.174685 h 0.19586 c -0.0635,-0.04764 -0.11645,-0.10587 -0.14821,-0.174685 -0.0529,-0.100576 -0.0794,-0.206446 -0.0794,-0.328196 z"
           id="path304"
           style="fill:#ea95ff;fill-opacity:1;stroke-width:0.0529349" />
        <path
           class="st0"
           d="m 852.21061,79.553876 c 0,-0.137631 0.0371,-0.254087 0.11116,-0.354664 0.0423,-0.05823 0.0953,-0.105869 0.15351,-0.142924 h -0.22232 v -0.174685 h 1.99035 l 0.0476,0.190566 h -0.70403 c 0.0529,0.03705 0.0953,0.0847 0.13233,0.13763 0.0688,0.09528 0.10587,0.222327 0.10587,0.365251 0,0.142924 -0.0371,0.259381 -0.10587,0.359957 -0.0688,0.09528 -0.16939,0.174685 -0.29114,0.22762 -0.12175,0.05294 -0.25408,0.07411 -0.4076,0.07411 -0.15351,0 -0.29114,-0.02647 -0.41289,-0.0794 -0.12175,-0.05294 -0.22232,-0.127044 -0.29114,-0.22762 -0.0688,-0.100576 -0.11116,-0.22762 -0.11116,-0.370544 v 0 z m 1.35513,-0.280555 c -0.0529,-0.06882 -0.12704,-0.127043 -0.22232,-0.164098 -0.0953,-0.03705 -0.20116,-0.05823 -0.32291,-0.05823 -0.12175,0 -0.22762,0.01588 -0.3229,0.05294 -0.0953,0.03705 -0.16939,0.08999 -0.22233,0.164098 -0.0529,0.06882 -0.0847,0.164098 -0.0847,0.269968 0,0.105869 0.0265,0.195859 0.0847,0.269968 0.0582,0.07411 0.12705,0.127043 0.22233,0.164098 0.0953,0.03705 0.20115,0.05823 0.3229,0.05823 0.12175,0 0.22762,-0.01588 0.32291,-0.05293 0.0953,-0.03705 0.16939,-0.08999 0.22232,-0.164098 0.0529,-0.06881 0.0847,-0.164098 0.0847,-0.275261 0,-0.111164 -0.0318,-0.190566 -0.0847,-0.264675 z"
           id="path305"
           style="fill:#ea95ff;fill-opacity:1;stroke-width:0.0529349" />
        <path
           class="st0"
           d="m 852.24766,80.549052 h 1.99036 l 0.0476,0.190565 h -2.038 z"
           id="path306"
           style="fill:#ea95ff;fill-opacity:1;stroke-width:0.0529349" />
        <path
           class="st0"
           d="M 853.78278,81.358956 V 81.16839 h -1.53512 v 0.190566 z"
           id="path307"
           style="fill:#ea95ff;fill-opacity:1;stroke-width:0.0529349" />
        <path
           class="st0"
           d="M 854.24331,81.358956 V 81.16839 h -0.22762 v 0.190566 z"
           id="path308"
           style="fill:#ea95ff;fill-opacity:1;stroke-width:0.0529349" />
        <path
           class="st0"
           d="m 852.21061,82.391186 c 0,-0.153511 0.0371,-0.280555 0.10058,-0.386425 0.0688,-0.10587 0.16409,-0.185272 0.28584,-0.2435 0.12176,-0.05294 0.25939,-0.0847 0.41819,-0.0847 0.15881,0 0.30173,0.03176 0.42348,0.0847 0.12175,0.05293 0.21703,0.13763 0.28585,0.2435 0.0635,0.100576 0.10057,0.238207 0.10057,0.386425 0,0.148217 -0.0371,0.280555 -0.11116,0.391718 -0.0688,0.116457 -0.16939,0.195859 -0.29643,0.232913 h -0.0159 c 0,0 -0.0688,-0.174685 -0.0688,-0.174685 h 0.0106 c 0.09,-0.04235 0.16409,-0.100576 0.21174,-0.179978 0.0476,-0.0794 0.0741,-0.169392 0.0741,-0.275262 0,-0.10587 -0.0265,-0.211739 -0.0794,-0.285848 -0.0529,-0.07411 -0.12704,-0.127044 -0.21703,-0.169392 -0.0953,-0.03705 -0.20115,-0.05823 -0.3282,-0.05823 -0.19056,0 -0.33878,0.04764 -0.45524,0.132337 -0.11116,0.0847 -0.16939,0.21174 -0.16939,0.381131 0,0.169392 0.0212,0.190566 0.0688,0.264675 v 0 c 0.0476,0.07411 0.12175,0.13763 0.21174,0.174685 h 0.0106 c 0,0 -0.0635,0.195859 -0.0635,0.195859 h -0.0159 c -0.12704,-0.06352 -0.22762,-0.148218 -0.29643,-0.254088 -0.0635,-0.111163 -0.0953,-0.232913 -0.0953,-0.381131 h 0.0106 z"
           id="path309"
           style="fill:#ea95ff;fill-opacity:1;stroke-width:0.0529349" />
        <path
           class="st0"
           d="m 849.51093,76.25074 c 0,-0.201153 0.0423,-0.375838 0.13763,-0.513469 0.09,-0.13763 0.21704,-0.2435 0.37584,-0.312315 0.1588,-0.06882 0.34408,-0.100577 0.55052,-0.100577 0.20645,0 0.39172,0.03706 0.55053,0.100577 0.1588,0.06882 0.28584,0.174685 0.37583,0.312315 0.09,0.137631 0.13763,0.307023 0.13763,0.513469 0,0.206446 -0.0635,0.428772 -0.18527,0.57699 -0.12175,0.148218 -0.28585,0.248794 -0.49229,0.301729 h -0.0159 l -0.0476,-0.190566 h 0.0159 c 0.16409,-0.04235 0.29643,-0.12175 0.39701,-0.238207 0.0953,-0.111163 0.14292,-0.264674 0.14292,-0.449946 0,-0.185272 -0.037,-0.291142 -0.10587,-0.397012 v 0 c -0.0741,-0.10587 -0.17998,-0.190566 -0.30702,-0.2435 -0.13234,-0.05294 -0.28585,-0.0847 -0.45524,-0.0847 -0.16939,0 -0.3229,0.02117 -0.45524,0.0794 -0.12704,0.05294 -0.23291,0.137631 -0.30702,0.243501 -0.0741,0.105869 -0.11117,0.2435 -0.11117,0.402305 0,0.158804 0.0476,0.333489 0.14822,0.449946 0.0953,0.116457 0.22762,0.190566 0.39172,0.232914 h 0.0159 l -0.0476,0.195859 h -0.0159 c -0.20645,-0.05823 -0.37055,-0.153511 -0.4923,-0.301729 -0.12704,-0.148218 -0.19056,-0.338783 -0.19056,-0.57699 z"
           id="path310"
           style="fill:#ea95ff;fill-opacity:1;stroke-width:0.0529349" />
        <path
           class="st0"
           d="m 849.54799,77.436481 h 1.99035 l 0.0476,0.190566 h -2.04329 v -0.190566 z"
           id="path311"
           style="fill:#ea95ff;fill-opacity:1;stroke-width:0.0529349" />
        <path
           class="st0"
           d="m 849.51093,78.64869 c 0,-0.148218 0.0371,-0.280555 0.10058,-0.386425 0.0688,-0.10587 0.1641,-0.190565 0.28585,-0.2435 0.12175,-0.05823 0.25938,-0.0847 0.42348,-0.0847 0.16409,0 0.30172,0.03176 0.42347,0.0847 0.12175,0.05823 0.21704,0.13763 0.28585,0.248794 0.0688,0.111163 0.10058,0.232913 0.10058,0.386424 0,0.153511 -0.0371,0.280555 -0.10058,0.386425 -0.0688,0.10587 -0.1641,0.190565 -0.28585,0.2435 -0.12175,0.05823 -0.25938,0.0847 -0.41818,0.0847 -0.15881,0 -0.30173,-0.03176 -0.42348,-0.0847 -0.12175,-0.05823 -0.21703,-0.13763 -0.28056,-0.2435 v 0 c -0.0741,-0.116457 -0.10587,-0.243501 -0.10587,-0.391718 v 0 z m 0.35467,-0.386425 c -0.11646,0.08999 -0.1694,0.21174 -0.1694,0.381131 0,0.169392 0.0582,0.301729 0.17469,0.386425 0.11646,0.0847 0.26467,0.127044 0.45524,0.127044 0.19056,0 0.33878,-0.04235 0.45524,-0.127044 0.11116,-0.0847 0.16939,-0.217033 0.16939,-0.386425 0,-0.169391 -0.0265,-0.217033 -0.0794,-0.285848 -0.0529,-0.07411 -0.12705,-0.132337 -0.21704,-0.169392 -0.0953,-0.03705 -0.20115,-0.05823 -0.3229,-0.05823 -0.17998,0 -0.33349,0.04235 -0.44994,0.12175 l -0.0106,0.01059 v 0 z"
           id="path312"
           style="fill:#ea95ff;fill-opacity:1;stroke-width:0.0529349" />
        <path
           class="st0"
           d="m 849.51622,80.226149 c 0,-0.0847 0.0159,-0.153511 0.0371,-0.222326 0.0212,-0.06882 0.0582,-0.127044 0.10587,-0.174685 0.0424,-0.04764 0.10058,-0.08999 0.1588,-0.121751 0.0635,-0.03176 0.12705,-0.05823 0.20116,-0.06882 0.0741,-0.01588 0.14821,-0.02117 0.22762,-0.02117 h 0.83637 v 0.190566 h -0.79403 c -0.0953,0 -0.17468,0.01059 -0.24879,0.03176 -0.0688,0.01588 -0.13763,0.04764 -0.18527,0.08469 -0.0476,0.03705 -0.09,0.0847 -0.11646,0.137631 -0.0265,0.05823 -0.0371,0.12175 -0.0371,0.201153 0,0.0794 0.0159,0.148217 0.0423,0.206446 0.0265,0.05823 0.0635,0.105869 0.11646,0.142924 0.0476,0.03705 0.11116,0.06352 0.17469,0.0847 0.0688,0.01588 0.14292,0.03176 0.22762,0.03176 h 0.82578 v 0.190566 h -1.53511 v -0.174685 h 0.19586 c -0.0635,-0.04764 -0.11646,-0.10587 -0.14822,-0.174685 -0.0529,-0.09528 -0.0741,-0.201153 -0.0741,-0.322903 v -0.01059 z"
           id="path313"
           style="fill:#ea95ff;fill-opacity:1;stroke-width:0.0529349" />
        <path
           class="st0"
           d="m 849.51093,81.856543 c 0,-0.142924 0.0371,-0.269967 0.11116,-0.36525 0.0688,-0.100577 0.1694,-0.174685 0.29115,-0.22762 0.12175,-0.05293 0.25938,-0.0794 0.41289,-0.0794 0.15351,0 0.28585,0.02647 0.4076,0.07411 0.12175,0.05293 0.22232,0.127044 0.29114,0.22762 0.0741,0.100577 0.10587,0.217033 0.10587,0.359957 0,0.142925 -0.0371,0.264675 -0.10587,0.365251 -0.0371,0.04764 -0.0847,0.09528 -0.13234,0.137631 h 0.6511 l 0.0476,0.190565 h -2.03799 v -0.174685 h 0.22233 c -0.0582,-0.04235 -0.11117,-0.08999 -0.15352,-0.142924 -0.0741,-0.100576 -0.11116,-0.217033 -0.11116,-0.354664 z m 0.47642,-0.412892 c -0.09,0.03705 -0.15881,0.08999 -0.21174,0.153512 -0.0582,0.06882 -0.0847,0.158804 -0.0847,0.269967 0,0.111164 0.0265,0.201153 0.0847,0.269968 0.0529,0.06882 0.12704,0.127044 0.22232,0.164098 0.0953,0.03705 0.20115,0.05293 0.32291,0.05293 0.12175,0 0.22762,-0.01588 0.3229,-0.05823 0.0953,-0.03705 0.16939,-0.08999 0.22232,-0.164098 0.0529,-0.07411 0.0794,-0.158805 0.0794,-0.269968 0,-0.111163 -0.0265,-0.201153 -0.0847,-0.275261 -0.0529,-0.06882 -0.12704,-0.127044 -0.22233,-0.164099 -0.0953,-0.03705 -0.20115,-0.05293 -0.3229,-0.05293 -0.12175,0 -0.22762,0.01588 -0.3229,0.05823 l -0.0106,0.01059 v 0 z"
           id="path314"
           style="fill:#ea95ff;fill-opacity:1;stroke-width:0.0529349" />
        <path
           class="st0"
           d="m 846.81125,76.245446 c 0,-0.148218 0.0265,-0.280555 0.0741,-0.397011 0.0476,-0.116457 0.12175,-0.21174 0.21703,-0.291142 0.0953,-0.0794 0.20645,-0.137631 0.33349,-0.179979 0.12705,-0.04235 0.27527,-0.06352 0.42878,-0.06352 0.15351,0 0.39701,0.03705 0.55052,0.10587 0.1588,0.06882 0.28055,0.174685 0.37054,0.312316 0.09,0.142924 0.13234,0.301729 0.13234,0.502881 0,0.201153 -0.0476,0.375838 -0.14292,0.508175 -0.0953,0.132337 -0.22233,0.22762 -0.38113,0.280555 h -0.0159 c 0,0 -0.0582,-0.179979 -0.0582,-0.179979 h 0.0106 c 0.12175,-0.04764 0.21704,-0.12175 0.28585,-0.22762 0.0688,-0.100576 0.11117,-0.22762 0.11117,-0.375837 0,-0.148218 -0.0371,-0.296436 -0.11117,-0.402305 -0.0741,-0.10587 -0.17468,-0.190566 -0.30702,-0.243501 -0.13234,-0.05294 -0.28585,-0.0847 -0.45524,-0.0847 -0.16939,0 -0.3229,0.02117 -0.45524,0.0794 -0.12704,0.05293 -0.23291,0.13763 -0.30702,0.2435 -0.0741,0.111163 -0.11117,0.243501 -0.11117,0.402305 v 0 c 0,0.148218 0.0318,0.275262 0.09,0.370544 0.0635,0.09528 0.14822,0.169392 0.25409,0.217033 0.10587,0.04764 0.23291,0.07411 0.37584,0.07411 v -0.497588 h 0.17468 V 77.0924 h -0.0159 c -0.0212,0 -0.0423,0 -0.0688,0 h -0.0529 c -0.17998,0 -0.33878,-0.03176 -0.4817,-0.09528 -0.14293,-0.06352 -0.25939,-0.158804 -0.33879,-0.285848 -0.0741,-0.12175 -0.12175,-0.291142 -0.12175,-0.487001 l 0.0159,0.01059 z"
           id="path315"
           style="fill:#ea95ff;fill-opacity:1;stroke-width:0.0529349" />
        <path
           class="st0"
           d="m 846.8536,77.4206 h 1.53511 v 0.174686 h -0.20115 c 0.0371,0.02647 0.0688,0.05293 0.09,0.08469 0.0371,0.04235 0.0688,0.08999 0.09,0.142925 0.0159,0.04764 0.0318,0.100576 0.0318,0.153511 v 0.04764 c 0,0.04235 -0.005,0.0847 -0.0159,0.116457 v 0.01059 h -0.18527 v -0.01588 c 0.0106,-0.03705 0.0159,-0.07411 0.0159,-0.111163 0,-0.03705 0,-0.04764 -0.005,-0.07411 -0.0106,-0.06352 -0.037,-0.12175 -0.0847,-0.179978 -0.0424,-0.04764 -0.0953,-0.0847 -0.14822,-0.10587 -0.0582,-0.02117 -0.11646,-0.03705 -0.17998,-0.04235 -0.0635,0 -0.12704,-0.01059 -0.19056,-0.01059 h -0.75697 v -0.195859 h 0.0106 v 0 z"
           id="path316"
           style="fill:#ea95ff;fill-opacity:1;stroke-width:0.0529349" />
        <path
           class="st0"
           d="m 846.81125,78.971592 c 0,-0.148217 0.0371,-0.280554 0.10058,-0.386424 0.0688,-0.10587 0.1641,-0.190566 0.28585,-0.243501 0.12175,-0.05823 0.25938,-0.08469 0.42348,-0.08469 0.16409,0 0.30172,0.03176 0.42348,0.08469 0.12175,0.05823 0.21703,0.137631 0.28584,0.248794 0.0688,0.111164 0.10058,0.232914 0.10058,0.386425 0,0.153511 -0.0371,0.280555 -0.10058,0.386425 v 0 c -0.0688,0.100576 -0.16409,0.179978 -0.28584,0.238207 -0.12176,0.05823 -0.25939,0.08469 -0.41819,0.08469 -0.15881,0 -0.30173,-0.03176 -0.42348,-0.08469 -0.12175,-0.05823 -0.21703,-0.137631 -0.28585,-0.243501 -0.0688,-0.116457 -0.10057,-0.2435 -0.10057,-0.391718 v 0 z m 1.43454,0 c 0,-0.116456 -0.0265,-0.217033 -0.0794,-0.285848 -0.0529,-0.07411 -0.12705,-0.132337 -0.21704,-0.169391 -0.09,-0.03705 -0.20115,-0.05823 -0.3229,-0.05823 -0.19057,0 -0.33878,0.04235 -0.45524,0.132337 -0.11646,0.08999 -0.16939,0.21174 -0.16939,0.381131 0,0.169392 0.0582,0.301729 0.17468,0.386425 v 0 c 0.12175,0.0847 0.26997,0.127044 0.45524,0.127044 0.18528,0 0.33879,-0.04235 0.45524,-0.127044 0.11117,-0.0847 0.16939,-0.217033 0.16939,-0.386425 z"
           id="path317"
           style="fill:#ea95ff;fill-opacity:1;stroke-width:0.0529349" />
        <path
           class="st0"
           d="m 846.82184,80.554345 c 0,-0.08469 0.0106,-0.158804 0.0371,-0.22762 0.0212,-0.06882 0.0582,-0.127043 0.10587,-0.174685 0.0424,-0.04764 0.10058,-0.08999 0.15881,-0.12175 0.0635,-0.03176 0.12704,-0.05823 0.20115,-0.06882 0.0741,-0.01588 0.14822,-0.02117 0.22762,-0.02117 h 0.83637 v 0.190565 h -0.79931 c -0.0953,0 -0.17469,0.01059 -0.2488,0.03176 -0.0688,0.01588 -0.13763,0.04764 -0.18527,0.0847 -0.0476,0.03706 -0.09,0.0847 -0.11646,0.137631 -0.0265,0.05823 -0.0371,0.12175 -0.0371,0.201152 0,0.0794 0.0159,0.148218 0.0424,0.206446 0.0265,0.05823 0.0635,0.10587 0.11645,0.142925 0.0476,0.03705 0.11117,0.06352 0.17469,0.08469 0.0688,0.01588 0.14292,0.03176 0.22762,0.03176 h 0.82578 v 0.190566 h -1.53511 V 81.06781 h 0.19586 c -0.0635,-0.04764 -0.11646,-0.10587 -0.14822,-0.174685 -0.0529,-0.100577 -0.0794,-0.206446 -0.0794,-0.328197 z"
           id="path318"
           style="fill:#ea95ff;fill-opacity:1;stroke-width:0.0529349" />
        <path
           class="st0"
           d="m 846.35072,81.575989 h 2.03799 v 0.174685 h -0.21703 c 0.0582,0.04235 0.11116,0.08999 0.15351,0.148217 0.0688,0.09528 0.10587,0.222327 0.10587,0.365251 0,0.142924 -0.0318,0.248794 -0.0953,0.344077 l -0.0106,0.01588 c -0.0688,0.09528 -0.16939,0.174685 -0.29114,0.22762 -0.12175,0.05293 -0.25409,0.07411 -0.4076,0.07411 -0.15351,0 -0.29114,-0.02647 -0.41289,-0.0794 -0.12175,-0.05293 -0.22233,-0.127044 -0.29114,-0.22762 -0.0688,-0.09528 -0.11117,-0.22762 -0.11117,-0.365251 0,-0.137631 0.0371,-0.254087 0.11117,-0.354664 0.0371,-0.04764 0.0847,-0.09528 0.13233,-0.132337 h -0.70403 z m 1.89507,0.661686 c 0,-0.10587 -0.0265,-0.195859 -0.0794,-0.269968 -0.0529,-0.06882 -0.12705,-0.127044 -0.22233,-0.164098 -0.0953,-0.03705 -0.20115,-0.05823 -0.3229,-0.05823 -0.12175,0 -0.22762,0.01588 -0.32291,0.05294 -0.0953,0.03705 -0.16939,0.08999 -0.22232,0.164098 -0.0529,0.06882 -0.0847,0.164098 -0.0847,0.269968 0,0.10587 0.0265,0.195859 0.0847,0.269968 0.0582,0.07411 0.12704,0.127044 0.22232,0.164098 0.0953,0.03705 0.20116,0.05823 0.32291,0.05823 0.12175,0 0.22762,-0.01588 0.3229,-0.05293 0.0953,-0.03705 0.16939,-0.08999 0.22233,-0.164099 0.0476,-0.06882 0.0794,-0.164098 0.0794,-0.269967 z"
           id="path319"
           style="fill:#ea95ff;fill-opacity:1;stroke-width:0.0529349" />
        <path
           id="rect319"
           style="fill:#ea95ff;stroke-width:0.0529349"
           class="st0"
           transform="rotate(90)"
           d="m 67.283569,-855.34967 h 0.158805 v 10.05763 h -0.158805 z" />
        <path
           style="fill:#ea95ff;fill-opacity:1;stroke-width:0.0412942"
           d="m 853.00799,93.085064 c 0.0833,-0.11899 0.16076,-0.216519 0.17211,-0.216739 0.0114,-1.36e-4 0.10427,0.07498 0.20648,0.16711 0.1022,0.09213 0.25323,0.221941 0.33562,0.28847 l 0.1498,0.120964 0.0261,-0.133676 c 0.0562,-0.287715 0.19979,-0.691076 0.24553,-0.689743 0.0265,8.67e-4 0.12251,0.0373 0.21336,0.08119 0.0908,0.04388 0.1873,0.08042 0.21435,0.08119 0.0765,0.0023 0.10235,0.0732 0.0563,0.154572 -0.0575,0.101645 -0.25004,0.59577 -0.25004,0.641641 0,0.02052 0.18077,0.03125 0.40262,0.02384 l 0.40262,-0.01341 v 0.289059 0.28906 l -0.40262,-0.01439 c -0.22144,-0.0079 -0.40262,-6.6e-5 -0.40262,0.0174 0,0.04344 0.19877,0.556503 0.25295,0.652919 0.0326,0.05808 0.0297,0.08682 -0.0117,0.113371 -0.0913,0.05861 -0.49852,0.205386 -0.5174,0.186507 -0.01,-0.0097 -0.0682,-0.19401 -0.13005,-0.409717 l -0.11252,-0.39219 -0.10197,0.08147 c -0.0561,0.04481 -0.14857,0.121681 -0.20553,0.170827 -0.057,0.04914 -0.16569,0.140838 -0.24163,0.20377 l -0.13807,0.114421 -0.16098,-0.229812 c -0.0885,-0.1264 -0.16099,-0.24476 -0.16099,-0.263029 0,-0.01827 0.15795,-0.140502 0.351,-0.271631 0.19305,-0.131129 0.35101,-0.24372 0.35101,-0.250206 0,-0.0065 -0.15796,-0.116882 -0.35101,-0.245335 -0.19305,-0.128452 -0.34947,-0.255596 -0.34761,-0.282544 0.002,-0.02697 0.0716,-0.146352 0.15486,-0.265336 z"
           id="path320"
           sodipodi:nodetypes="scsscscsssssccccssscscssscssssscss"
           inkscape:label="logo_right" />
        <path
           style="fill:#ea95ff;fill-opacity:1;stroke-width:0.0427425"
           d="m 846.67064,102.8147 c 0.14693,-0.17647 0.30081,-0.32193 0.34195,-0.32323 0.0411,-0.001 0.0748,0.0125 0.0748,0.0307 0,0.0181 0.0721,0.0709 0.16029,0.11713 0.0882,0.0463 0.17095,0.0986 0.18398,0.11626 0.0131,0.0177 0.16691,0.0846 0.34194,0.14862 0.28327,0.10367 0.37696,0.11645 0.85253,0.11629 0.45446,-1.4e-4 0.57579,-0.0153 0.81211,-0.10119 0.93479,-0.33982 1.5252,-1.01739 1.66858,-1.91491 0.0869,-0.54371 -0.13439,-1.22943 -0.53276,-1.651173 l -0.196,-0.207481 0.13537,-0.155538 c 0.0744,-0.08554 0.22033,-0.250659 0.3242,-0.366926 l 0.18884,-0.211406 0.22937,0.232774 c 0.12616,0.128028 0.252,0.285666 0.27964,0.350313 0.0277,0.06465 0.0638,0.117542 0.0803,0.117542 0.0165,0 0.0832,0.115082 0.1481,0.255725 0.41172,0.8918 0.42777,1.80604 0.0463,2.63687 -0.45109,0.98247 -1.26667,1.63638 -2.39333,1.91891 -0.44116,0.11063 -1.21971,0.0993 -1.66697,-0.0242 -0.3865,-0.10677 -0.98027,-0.38141 -1.16142,-0.53721 -0.0665,-0.0572 -0.13528,-0.10395 -0.15291,-0.10398 -0.0878,-1.4e-4 -0.006,-0.15366 0.23508,-0.44382 z m 0.7131,-4.840123 c 0.0403,-0.143898 0.10558,-0.329529 0.14497,-0.412518 0.0394,-0.08299 0.0716,-0.16552 0.0716,-0.183422 0,-0.03409 0.23129,-0.407147 0.34179,-0.551283 0.0353,-0.04611 0.19678,-0.214767 0.35875,-0.37481 0.88935,-0.87876 2.34632,-1.192773 3.59509,-0.774828 0.5137,0.171925 1.22574,0.625944 1.15675,0.737581 -0.0735,0.118943 -0.5651,0.645491 -0.60264,0.645491 -0.0142,0 -0.11582,-0.06196 -0.22583,-0.137687 -0.40814,-0.280918 -0.82636,-0.433871 -1.33565,-0.488486 -0.40867,-0.04382 -1.34749,0.218031 -1.56633,0.436874 -0.0336,0.03359 -0.0768,0.06107 -0.0961,0.06107 -0.0659,0 -0.49342,0.451109 -0.62905,0.66374 -0.52797,0.827752 -0.44914,1.822764 0.20231,2.553621 0.24505,0.2749 0.24523,0.27145 -0.0306,0.56741 -0.0667,0.0716 -0.17698,0.19655 -0.24494,0.27757 l -0.12356,0.1473 -0.28346,-0.30684 c -0.33491,-0.36253 -0.60476,-0.846792 -0.72742,-1.305403 -0.11261,-0.421 -0.11535,-1.164512 -0.006,-1.555384 z"
           id="path321"
           sodipodi:nodetypes="scssssccsscsscssscsssscssssssssssssssssscsss"
           inkscape:label="logo_left" />
      </g>
    </g>
    <text
       xml:space="preserve"
       style="font-size:8.26759px;font-family:'Home Video';-inkscape-font-specification:'Home Video, @wdth=87.0';font-variation-settings:'wdth' 87;text-align:center;text-anchor:middle;fill:#350d56;fill-opacity:1;stroke:none;stroke-width:0.169824;stroke-linecap:round;stroke-linejoin:round"
       x="36.758629"
       y="11.131707"
       id="text1"><tspan
         sodipodi:role="line"
         id="tspan1"
         style="fill:#350d56;fill-opacity:1;stroke:none;stroke-width:0.169824"
         x="36.758629"
         y="11.131707">FOSSCOMM 2024</tspan></text>
    <text
       xml:space="preserve"
       style="font-size:14.9369px;font-family:'Home Video';-inkscape-font-specification:'Home Video, @wdth=87.0';font-variation-settings:'wdth' 87;text-align:center;text-anchor:middle;fill:#350d56;fill-opacity:1;stroke:none;stroke-width:0.306819;stroke-linecap:round;stroke-linejoin:round"
       x="148.5"
       y="59.954838"
       id="text2"><tspan
         sodipodi:role="line"
         id="tspan2"
         style="fill:#350d56;fill-opacity:1;stroke:none;stroke-width:0.306819"
         x="148.5"
         y="59.954838">RIGHT SIDE</tspan></text>
    <text
       xml:space="preserve"
       style="font-size:8.26759px;font-family:'Home Video';-inkscape-font-specification:'Home Video, @wdth=87.0';font-variation-settings:'wdth' 87;text-align:center;text-anchor:middle;fill:#350d56;fill-opacity:1;stroke:none;stroke-width:0.169824;stroke-linecap:round;stroke-linejoin:round"
       x="235.96497"
       y="203.03339"
       id="text3"><tspan
         sodipodi:role="line"
         id="tspan3"
         style="fill:#350d56;fill-opacity:1;stroke:none;stroke-width:0.169824"
         x="235.96497"
         y="203.03339">MADE BY OPENSOURCE UOM</tspan></text>
  </g>
</svg>
